<?xml version="1.0" standalone="no"?>
<!DOCTYPE svg PUBLIC "-//W3C//DTD SVG 1.1//EN" "http://www.w3.org/Graphics/SVG/1.1/DTD/svg11.dtd" >
<svg xmlns="http://www.w3.org/2000/svg" xmlns:xlink="http://www.w3.org/1999/xlink" version="1.1">
<metadata>
Created by FontForge 20170924 at Mon May  7 05:28:14 2007
 By www-data
Copr.1993, Tobias Frere-Jones. Designed by Tobias Frere-Jones. Produced by The Font Bureau, Inc.
</metadata>
<defs>
<font id="Cafeteria-Black" horiz-adv-x="575" >
  <font-face 
    font-family="Cafeteria"
    font-weight="500"
    font-stretch="normal"
    units-per-em="1000"
    panose-1="0 0 0 0 0 0 0 0 0 0"
    ascent="800"
    descent="-200"
    x-height="459"
    cap-height="672"
    bbox="-64 -212 928 907"
    underline-thickness="20"
    underline-position="-133"
    stemh="111"
    stemv="138"
    unicode-range="U+0020-FB02"
  />
<missing-glyph horiz-adv-x="500" 
 />
    <glyph glyph-name=".notdef" horiz-adv-x="500" 
 />
    <glyph glyph-name="space" unicode=" " horiz-adv-x="150" 
 />
    <glyph glyph-name="exclam" unicode="!" horiz-adv-x="203" 
d="M173 699c-9 -138 -6 -412 -13 -515c-54 18 -73 21 -118 26c-2 110 -9 298 -21 439c42 12 77 20 152 50zM185 66c0 -38 -28 -72 -78 -72c-44 0 -84 31 -84 73c0 43 35 71 83 71c45 0 79 -30 79 -72z" />
    <glyph glyph-name="quotedbl" unicode="&#x22;" horiz-adv-x="375" 
d="M350 687c-3 -53 -1 -88 -2 -115c-1 -49 -8 -127 -13 -199c-52 15 -65 15 -99 18c-12 60 -20 119 -32 154c5 34 1 71 0 117c51 5 76 9 146 25zM167 587c-1 -57 -4 -143 -15 -212c-50 13 -66 13 -97 16c-11 55 -24 124 -31 170c4 28 1 55 0 100c49 5 77 9 140 26
c6 -52 4 -71 3 -100z" />
    <glyph glyph-name="numbersign" unicode="#" horiz-adv-x="518" 
d="M514 451c-14 -40 -24 -69 -33 -103c-37 7 -57 9 -83 14c-5 -28 -13 -74 -16 -101c32 -9 61 -16 95 -21c-17 -39 -29 -71 -39 -104c-31 8 -49 10 -73 17c-11 -64 -20 -110 -25 -162c-41 4 -69 7 -116 7c15 68 22 118 33 183c-15 2 -45 8 -60 14c-8 -71 -15 -120 -19 -171
c-40 7 -73 9 -106 11c8 56 11 110 18 187c-28 7 -50 13 -78 21c6 31 11 60 14 100c40 -11 52 -13 72 -18c1 23 6 63 8 84c-25 4 -48 8 -81 12c8 33 12 56 15 92c38 -10 51 -10 72 -11c6 73 11 129 15 182c49 -8 81 -10 126 -14c-8 -53 -14 -108 -24 -184c18 -3 53 -7 73 -9
c9 55 16 95 23 150c38 -8 73 -14 116 -14c-12 -54 -17 -92 -27 -150c31 -4 56 -9 100 -12zM291 386c-20 1 -55 6 -74 9c-5 -28 -10 -73 -12 -99c16 -6 51 -11 70 -15c4 29 11 75 16 105z" />
    <glyph glyph-name="dollar" unicode="$" horiz-adv-x="331" 
d="M318 179c0 -73 -32 -139 -98 -161l6 -103l-120 -19l-6 86c-18 -1 -38 -4 -67 -8c5 53 4 73 -1 125c107 0 159 26 159 66c0 52 -40 98 -79 148c-47 59 -91 121 -91 191c0 58 33 115 98 142l-4 111l134 2l1 -78c17 0 38 0 65 -1c-4 -41 -7 -70 0 -114
c-107 -2 -162 -12 -162 -52c0 -44 36 -88 72 -136c45 -62 93 -128 93 -199z" />
    <glyph glyph-name="percent" unicode="%" horiz-adv-x="735" 
d="M724 223c0 -161 -89 -218 -156 -218c-85 0 -152 61 -152 196c0 100 65 229 163 229c88 0 145 -63 145 -207zM504 625c-28 -86 -168 -561 -189 -643c-31 14 -62 25 -95 32c31 93 125 408 158 540c-15 -3 -43 -13 -58 -17c1 -10 1 -21 1 -31c0 -160 -90 -248 -156 -248
c-92 0 -152 53 -152 224c0 79 42 201 158 201c57 0 95 -21 119 -59c48 11 103 26 162 44c16 -18 28 -28 52 -43zM608 219c0 85 -5 112 -31 112c-38 0 -46 -67 -46 -126c0 -70 6 -102 29 -102c40 0 48 35 48 116zM210 491c0 65 -6 89 -47 89c-27 0 -41 -30 -41 -94
c0 -102 7 -128 34 -128c38 0 54 65 54 133z" />
    <glyph glyph-name="ampersand" unicode="&#x26;" horiz-adv-x="503" 
d="M494 333c-31 -88 -60 -126 -89 -173c17 -28 46 -64 75 -109c-39 -24 -68 -40 -101 -76c-29 55 -49 81 -60 98c-37 -23 -89 -56 -142 -56c-87 0 -168 112 -168 211c0 65 65 121 120 157c-18 47 -55 96 -55 144c0 86 96 159 190 159c75 0 135 -70 135 -138
c0 -82 -68 -144 -126 -195c14 -26 50 -83 66 -110c13 30 32 76 46 123c46 -17 69 -26 109 -35zM277 532c0 30 -15 52 -34 52c-27 0 -49 -28 -49 -52c0 -32 12 -58 30 -88c38 33 53 66 53 88zM260 157c-23 38 -59 97 -81 134c-16 -9 -41 -33 -41 -56c0 -42 21 -101 68 -101
c13 0 43 14 54 23z" />
    <glyph glyph-name="quoteright" unicode="&#x2019;" horiz-adv-x="205" 
d="M183 548c-2 -53 -42 -129 -82 -175c-41 20 -54 26 -99 43c35 35 44 77 37 104c0 33 3 93 -3 145c62 0 82 3 146 12c2 -46 2 -101 1 -129z" />
    <glyph glyph-name="parenleft" unicode="(" horiz-adv-x="308" 
d="M316 -102c-33 -22 -63 -42 -97 -67c-127 187 -198 372 -198 534c0 154 66 291 213 396c27 -26 42 -39 80 -63c-110 -109 -157 -216 -157 -338c0 -131 58 -280 159 -462z" />
    <glyph glyph-name="parenright" unicode=")" horiz-adv-x="308" 
d="M291 351c0 -148 -56 -323 -186 -521c-41 29 -65 39 -103 56c93 157 154 310 154 450c0 129 -55 249 -188 353c53 26 69 37 101 65c139 -93 222 -232 222 -403z" />
    <glyph glyph-name="asterisk" unicode="*" horiz-adv-x="404" 
d="M404 499l-39 -109l-115 59l58 -114l-168 12l20 93l-130 -59l-26 106l122 10l-126 68l82 98l105 -112l5 87l147 -6l-75 -108z" />
    <glyph glyph-name="plus" unicode="+" horiz-adv-x="428" 
d="M418 377c-11 -52 -9 -77 -9 -128c-41 5 -85 6 -129 7c1 -38 2 -113 5 -142c-60 0 -91 2 -158 -7c10 42 11 115 12 153c-43 -2 -83 -3 -119 -2c0 38 -3 64 -8 115c47 -3 86 -3 132 -3c-1 36 -5 110 -7 144c61 -4 92 -7 140 -7c0 -35 1 -102 1 -135c45 0 91 1 140 5z" />
    <glyph glyph-name="comma" unicode="," horiz-adv-x="194" 
d="M174 32c0 -67 -25 -135 -76 -169l-97 36c26 24 39 67 39 112c0 34 -10 70 -29 98c68 2 90 6 144 14c12 -28 19 -59 19 -91z" />
    <glyph glyph-name="hyphen" unicode="-" horiz-adv-x="268" 
d="M252 312c-5 -37 -6 -88 -4 -119c-56 4 -159 5 -229 6c0 26 -3 78 -8 112c72 -3 171 -4 241 1z" />
    <glyph glyph-name="period" unicode="." horiz-adv-x="194" 
d="M178 64c0 -47 -31 -71 -70 -71c-56 0 -92 23 -92 71c0 38 31 71 92 71c45 0 70 -17 70 -71z" />
    <glyph glyph-name="slash" unicode="/" horiz-adv-x="355" 
d="M356 645c-69 -173 -170 -467 -232 -659c-53 18 -72 24 -125 29c69 187 179 495 226 660c52 -19 71 -24 131 -30z" />
    <glyph glyph-name="zero" unicode="0" horiz-adv-x="456" 
d="M436 360c0 -309 -133 -370 -210 -370c-106 0 -206 89 -206 380c0 193 77 313 213 313c149 0 203 -84 203 -323zM295 354c0 168 -25 211 -71 211c-41 0 -63 -69 -63 -189c0 -166 19 -264 71 -264c46 0 63 111 63 242z" />
    <glyph glyph-name="one" unicode="1" horiz-adv-x="274" 
d="M255 672c-4 -35 -13 -126 -13 -191c0 -129 -3 -337 3 -481c-58 7 -102 7 -156 11c15 98 16 158 18 241c3 116 2 255 0 316c-22 -2 -49 -6 -78 -12c-2 45 -7 77 -14 119c54 2 137 11 165 16c14 -5 39 -13 75 -19z" />
    <glyph glyph-name="two" unicode="2" horiz-adv-x="399" 
d="M386 122c-15 -53 -18 -78 -25 -127c-50 5 -125 6 -177 4c-47 -2 -103 1 -139 -6c-8 28 -14 45 -24 68c146 223 197 346 197 437c0 51 -27 71 -55 71c-31 0 -57 -9 -93 -37c-27 45 -33 53 -71 96c56 37 109 55 176 55c142 0 186 -43 186 -158c0 -100 -52 -220 -151 -391
l-6 -13c24 -2 99 -1 182 1z" />
    <glyph glyph-name="three" unicode="3" horiz-adv-x="380" 
d="M365 292c0 -156 -112 -302 -224 -302c-22 0 -71 10 -143 30c16 42 22 66 31 115c46 -21 83 -28 105 -28c55 0 93 79 93 174c0 44 -66 52 -131 55c-13 30 -17 43 -31 64c53 65 103 124 129 162c-46 -3 -128 -10 -162 -20c-6 53 -12 75 -20 120c50 9 203 17 284 20
c20 -17 34 -28 64 -45c-44 -88 -86 -150 -138 -216c79 -11 143 -53 143 -129z" />
    <glyph glyph-name="four" unicode="4" horiz-adv-x="422" 
d="M411 138c-31 0 -43 1 -48 1c-2 -33 -3 -79 1 -150c-56 7 -97 10 -148 12c8 49 12 104 13 139l-190 3c-16 39 -24 51 -35 77c31 57 112 305 175 471c39 -16 55 -24 111 -29c-50 -157 -110 -327 -144 -414h85c-1 23 2 56 3 68c4 38 7 52 19 119c0 0 48 3 105 13
c0 -31 2 -60 2 -89c0 -21 -1 -72 -2 -106c13 0 30 -2 50 -4c0 -40 -1 -59 3 -111z" />
    <glyph glyph-name="five" unicode="5" horiz-adv-x="367" 
d="M343 677c-13 -46 -17 -83 -24 -125c-58 4 -123 10 -158 16c-2 -32 -5 -97 -9 -129c124 -18 189 -80 189 -194c0 -134 -85 -200 -270 -269c-19 33 -39 59 -66 94c128 58 195 96 195 159c0 72 -76 120 -180 114c6 87 10 137 13 198c2 46 3 87 3 149c77 -8 215 -13 307 -13z
" />
    <glyph glyph-name="six" unicode="6" horiz-adv-x="427" 
d="M414 232c0 -142 -122 -242 -210 -242c-99 0 -187 76 -187 316c0 118 103 277 227 384c35 -30 48 -42 107 -74c-91 -75 -159 -153 -185 -216c25 13 75 26 98 26c98 0 150 -55 150 -194zM282 234c0 56 -17 77 -38 77c-25 0 -69 -11 -96 -29c3 -126 27 -172 71 -172
c23 0 63 41 63 124z" />
    <glyph glyph-name="seven" unicode="7" horiz-adv-x="370" 
d="M366 668c-46 -125 -160 -556 -175 -682c-53 16 -89 22 -134 26c13 103 106 432 142 547c-49 2 -131 8 -185 6c-2 50 -3 69 -10 116c89 -7 246 -15 362 -13z" />
    <glyph glyph-name="eight" unicode="8" horiz-adv-x="433" 
d="M413 244c0 -130 -106 -254 -206 -254c-98 0 -187 90 -187 222c0 54 31 111 73 147c-39 32 -69 78 -69 136c0 157 141 188 192 188c89 0 191 -46 191 -191c0 -50 -25 -101 -57 -139c39 -28 63 -63 63 -109zM274 476c0 55 -20 97 -64 97c-35 0 -64 -25 -64 -74
c0 -48 56 -73 104 -93c14 19 24 52 24 70zM285 232c0 23 -61 53 -102 69c-21 -19 -38 -46 -38 -77c0 -89 33 -116 67 -116c33 0 73 45 73 124z" />
    <glyph glyph-name="nine" unicode="9" horiz-adv-x="395" 
d="M384 453c0 -234 -111 -367 -195 -478c-48 14 -70 33 -124 62c69 74 106 127 135 193c-141 57 -193 149 -193 239c0 136 105 214 198 214c105 0 179 -77 179 -230zM249 446c0 63 -16 120 -52 120c-40 0 -57 -35 -57 -100c0 -54 25 -89 94 -124c10 23 15 72 15 104z" />
    <glyph glyph-name="colon" unicode=":" horiz-adv-x="194" 
d="M176 389c0 -38 -28 -72 -78 -72c-46 0 -84 31 -84 72c0 43 35 70 83 70c45 0 79 -30 79 -70zM176 65c0 -37 -28 -71 -78 -71c-46 0 -84 30 -84 72s35 70 83 70c45 0 79 -30 79 -71z" />
    <glyph glyph-name="semicolon" unicode=";" horiz-adv-x="194" 
d="M180 388c0 -39 -28 -73 -78 -73c-46 0 -84 31 -84 73c0 44 35 71 83 71c45 0 79 -31 79 -71zM174 32c0 -67 -25 -135 -76 -169l-97 36c26 24 39 67 39 112c0 34 -10 70 -29 98c68 2 90 6 144 14c12 -28 19 -59 19 -91z" />
    <glyph glyph-name="less" unicode="&#x3c;" horiz-adv-x="298" 
d="M294 150c-45 -21 -69 -38 -107 -67c-41 50 -152 173 -180 197v69c40 43 125 150 152 197c41 -32 70 -45 114 -64c-35 -42 -97 -127 -124 -168c32 -38 107 -126 145 -164z" />
    <glyph glyph-name="equal" unicode="=" horiz-adv-x="362" 
d="M351 460c-5 -48 -8 -72 -8 -109c-71 -1 -262 -2 -319 -8c0 48 1 77 -6 122c70 -8 261 -10 333 -5zM346 283c-7 -43 -5 -74 -2 -119c-57 5 -248 6 -319 8c0 36 -3 60 -8 108c72 -4 260 -3 329 3z" />
    <glyph glyph-name="greater" unicode="&#x3e;" horiz-adv-x="298" 
d="M287 282c-40 -42 -125 -150 -151 -196c-42 31 -71 44 -114 64c34 41 96 126 123 167c-32 39 -110 130 -146 165c46 21 70 37 109 67c40 -51 151 -173 179 -197v-70z" />
    <glyph glyph-name="question" unicode="?" horiz-adv-x="321" 
d="M309 511c0 -59 -40 -133 -119 -233l23 -73l-122 -30l-37 115c64 79 107 134 107 172c0 46 -55 75 -155 92c25 44 36 77 52 115c171 -31 251 -81 251 -158zM224 67c0 -38 -27 -73 -77 -73c-46 0 -84 31 -84 74c0 44 36 72 82 72c45 0 79 -30 79 -73z" />
    <glyph glyph-name="at" unicode="@" horiz-adv-x="643" 
d="M623 322c0 -134 -88 -179 -170 -179c-50 0 -75 27 -92 62c-20 -12 -70 -38 -92 -38c-33 0 -84 37 -84 113c0 44 18 68 53 84c34 16 78 27 99 32c0 14 -2 28 -10 30c-13 3 -34 7 -87 7c0 0 8 40 8 83c73 -8 118 -15 139 -27c29 -15 42 -54 42 -79v-160
c0 -20 16 -33 32 -33c40 0 70 25 70 107c0 162 -106 267 -222 267s-194 -125 -194 -237c0 -143 78 -290 180 -290c40 0 86 11 135 38l44 -60c-58 -35 -122 -57 -192 -57c-148 0 -262 207 -262 362c0 148 107 323 278 323c161 0 325 -133 325 -348zM337 266v67
c-5 -2 -22 -8 -35 -14c-19 -9 -30 -20 -29 -41c1 -14 11 -31 23 -31c18 0 35 14 41 19z" />
    <glyph glyph-name="A" unicode="A" horiz-adv-x="452" 
d="M452 15c-42 -7 -90 -18 -138 -31c-8 52 -20 109 -27 144c-1 3 -3 9 -3 12c-25 -2 -100 -4 -124 -5c-7 -37 -21 -109 -26 -152c-54 22 -92 37 -134 47c14 53 93 332 125 530c5 31 13 74 13 103c37 4 95 7 134 13c10 -47 165 -602 180 -661zM262 247c-5 23 -41 188 -48 219
c-6 -31 -30 -198 -34 -220c11 1 71 1 82 1z" />
    <glyph glyph-name="B" unicode="B" horiz-adv-x="415" 
d="M395 207c0 -103 -74 -204 -235 -204c-21 0 -78 2 -135 2c9 94 6 335 5 367c-1 28 -1 65 -2 136c-1 49 -2 110 -8 156c46 0 86 2 127 2c133 0 230 -82 230 -173c0 -98 -49 -128 -92 -148c48 -19 110 -68 110 -138zM245 470c0 56 -41 82 -84 83c-1 -37 -1 -120 -1 -160
c49 0 85 15 85 77zM254 207c0 66 -40 86 -92 89c-1 -26 -1 -68 -1 -101v-85c5 0 10 -1 15 -1c50 0 78 23 78 98z" />
    <glyph glyph-name="C" unicode="C" horiz-adv-x="364" 
d="M345 112c-11 -48 -16 -77 -21 -124c-234 61 -304 154 -304 360c0 176 106 323 272 323c14 0 28 -1 43 -3c-2 -39 -2 -69 1 -104c-92 -7 -173 -44 -173 -217c0 -147 42 -202 182 -235z" />
    <glyph glyph-name="D" unicode="D" horiz-adv-x="458" 
d="M438 379c0 -240 -149 -381 -288 -381c-40 0 -91 8 -131 19c11 60 12 323 12 375c0 97 -3 215 -8 269c52 13 90 14 120 14c172 0 295 -79 295 -296zM295 376c0 152 -59 175 -128 181c0 -140 -2 -332 1 -442c81 3 127 137 127 261z" />
    <glyph glyph-name="E" unicode="E" horiz-adv-x="402" 
d="M373 121c-5 -42 -12 -78 -20 -127c-41 5 -92 5 -130 6c-67 2 -140 5 -202 6c1 65 9 192 11 297c3 130 -1 285 -2 357c49 3 114 6 138 6c33 0 144 -4 204 -4c-13 -48 -18 -84 -23 -125c-50 7 -117 9 -152 11c-8 1 -20 1 -28 1c0 -50 1 -85 1 -135c17 -1 47 -2 61 0
c8 1 54 5 104 5c0 -41 -2 -75 -2 -122c-43 1 -64 5 -105 9c-21 2 -42 3 -58 5c-3 -52 0 -129 1 -188h33c9 -1 107 -5 169 -2z" />
    <glyph glyph-name="F" unicode="F" horiz-adv-x="346" 
d="M318 544c-64 0 -114 1 -151 2c1 -14 2 -34 3 -49c1 -34 2 -74 1 -105c18 1 42 3 58 3c19 0 86 -2 86 -2s-15 -66 -17 -116c-41 4 -59 5 -76 6c-15 1 -32 1 -47 2c0 -14 -1 -32 -1 -50c0 -78 -5 -146 -2 -236c-53 10 -102 16 -152 19c3 107 12 292 12 461
c0 60 -2 86 -5 181c85 0 219 -1 287 3c0 -45 0 -71 4 -119z" />
    <glyph glyph-name="G" unicode="G" horiz-adv-x="454" 
d="M426 387c-4 -65 -13 -228 -13 -355c-47 -29 -118 -38 -144 -38c-138 0 -250 76 -250 344c0 283 170 316 378 322c6 -44 10 -67 21 -121c-140 9 -259 -12 -259 -202c0 -168 47 -223 125 -223c2 0 3 1 3 1c-2 34 -3 124 -5 165c-15 3 -33 6 -49 9c1 47 0 65 -1 114
c75 -6 124 -13 194 -16z" />
    <glyph glyph-name="H" unicode="H" horiz-adv-x="450" 
d="M420 35c-48 -2 -83 -5 -145 -13c3 36 5 86 5 117c0 49 2 90 1 128c-25 0 -82 -1 -109 0c0 -60 -1 -181 -6 -267c-53 17 -103 21 -144 30c4 67 8 137 8 182c0 124 1 232 -2 318c-2 37 -4 92 -9 136c63 -5 102 -5 164 -1c-8 -52 -11 -215 -10 -286c26 -1 85 0 109 1v12
c-2 38 -3 166 -3 181c0 14 0 53 -5 79c41 2 96 4 146 8v-625z" />
    <glyph glyph-name="I" unicode="I" horiz-adv-x="198" 
d="M177 654c-3 -83 -12 -415 -9 -669c-63 12 -88 15 -136 15c2 113 -1 484 -5 672c59 -11 93 -14 150 -18z" />
    <glyph glyph-name="J" unicode="J" horiz-adv-x="198" 
d="M169 133c0 -182 -27 -249 -187 -318c-14 46 -25 66 -44 105c99 38 97 104 97 215c0 73 0 132 -2 216c-2 112 -8 244 -9 323c58 -10 91 -14 142 -16c-2 -64 2 -174 2 -264c0 -150 1 -218 1 -261z" />
    <glyph glyph-name="K" unicode="K" horiz-adv-x="452" 
d="M450 67c-45 -26 -72 -40 -128 -75c-36 85 -93 222 -133 304c-2 -3 -15 -22 -17 -25c0 -82 1 -177 3 -253c-54 -1 -89 -5 -151 -9c3 84 12 410 10 651c55 0 83 4 141 8c0 -58 -2 -161 -3 -234c44 73 109 187 143 252c48 -34 67 -42 121 -69c-45 -60 -96 -138 -151 -219
c36 -84 96 -208 165 -331z" />
    <glyph glyph-name="L" unicode="L" horiz-adv-x="358" 
d="M353 122c-14 -56 -18 -76 -29 -130c-41 6 -82 8 -116 10c-64 4 -132 5 -184 8c8 89 15 304 8 481c-2 53 0 112 -7 167c57 0 97 8 150 15c3 -79 1 -442 0 -556c49 0 102 -1 178 5z" />
    <glyph glyph-name="M" unicode="M" horiz-adv-x="545" 
d="M521 -27c-51 3 -93 7 -137 14c0 70 7 299 5 419c-16 -33 -72 -166 -88 -202c-30 7 -50 9 -73 9c-18 40 -68 186 -76 205c-4 -103 1 -323 3 -403c-53 -2 -76 -8 -132 -18c0 76 10 314 15 516c1 46 1 98 3 145c45 0 84 2 120 4c11 -28 26 -63 36 -85
c23 -53 59 -138 77 -181c15 33 44 108 59 148c12 32 31 75 43 105c37 5 63 11 123 27z" />
    <glyph glyph-name="N" unicode="N" horiz-adv-x="460" 
d="M425 5c-52 4 -79 5 -118 8c-18 58 -104 245 -154 344v-67c-1 -90 2 -261 3 -288c-47 9 -87 15 -141 19c5 65 17 219 18 340c1 105 -6 235 -7 301c43 0 77 4 122 11c9 -54 101 -246 153 -356c0 54 0 178 -2 229c-1 29 -4 63 -11 105c54 4 85 7 137 17v-663z" />
    <glyph glyph-name="O" unicode="O" horiz-adv-x="492" 
d="M472 346c0 -246 -146 -352 -236 -352c-102 0 -216 111 -216 350c0 252 72 326 219 326c112 0 233 -73 233 -324zM329 343c0 175 -49 209 -100 209c-43 0 -65 -48 -65 -203c0 -147 32 -233 85 -233c42 0 80 110 80 227z" />
    <glyph glyph-name="P" unicode="P" horiz-adv-x="401" 
d="M391 462c0 -89 -83 -197 -223 -216c0 -70 1 -151 8 -212c-56 -20 -144 -36 -144 -36c0 94 3 260 0 423c-2 81 -8 188 -19 232c51 13 95 17 125 17c154 0 253 -45 253 -208zM251 468c0 59 -13 86 -89 85c1 -25 3 -64 4 -93c1 -23 2 -67 2 -93c57 7 83 44 83 101z" />
    <glyph glyph-name="Q" unicode="Q" horiz-adv-x="489" 
d="M469 365c0 -132 -55 -262 -115 -324c20 -31 52 -79 97 -129c-51 -27 -76 -44 -132 -82c-40 75 -75 136 -101 175c-121 32 -201 195 -201 367c0 175 93 298 235 298c108 0 217 -49 217 -305zM326 362c0 137 -27 187 -87 187c-58 0 -78 -75 -78 -171
c0 -149 36 -260 90 -260c34 0 75 58 75 244z" />
    <glyph glyph-name="R" unicode="R" horiz-adv-x="439" 
d="M442 43c-48 -15 -85 -33 -132 -48c-38 97 -96 223 -118 269c0 0 -18 -4 -28 -5c1 -11 0 -37 0 -54c1 -65 3 -125 8 -185c-52 -3 -106 -9 -147 -12c4 60 5 165 5 205c0 21 2 188 2 272c0 79 2 196 2 196c31 3 58 4 86 4c199 0 273 -80 273 -176c0 -80 -37 -162 -88 -201
c25 -57 66 -129 137 -265zM246 497c0 50 -31 73 -83 78c1 -50 2 -171 3 -218c6 2 11 3 15 4c54 14 65 57 65 136z" />
    <glyph glyph-name="S" unicode="S" horiz-adv-x="328" 
d="M306 182c0 -123 -52 -184 -284 -205c1 58 3 77 -1 131c104 0 153 22 153 60c0 49 -38 93 -75 142c-46 58 -90 120 -90 189c0 109 69 172 294 176c-3 -43 -6 -71 0 -118c-104 -3 -157 -9 -157 -48c0 -41 35 -84 69 -130c45 -61 91 -127 91 -197z" />
    <glyph glyph-name="T" unicode="T" horiz-adv-x="401" 
d="M397 656c-11 -41 -17 -84 -20 -125c-33 0 -83 4 -118 7c4 -69 11 -240 13 -361c1 -59 2 -101 -1 -178c-55 4 -96 7 -153 7c7 73 11 171 13 262c3 101 0 213 -1 281c-8 -1 -17 -1 -25 -1c-25 0 -54 1 -106 1c16 44 22 84 22 124c46 -7 65 -8 83 -9c99 -6 234 -8 293 -8z
" />
    <glyph glyph-name="U" unicode="U" horiz-adv-x="448" 
d="M415 432c0 -103 -1 -248 -1 -264c0 -169 -122 -174 -188 -174c-46 0 -115 15 -142 43c-35 35 -54 68 -54 122c0 23 1 203 -3 332c-2 55 -4 103 -5 174c61 -2 91 -1 149 6c-5 -98 0 -482 0 -506c0 -39 17 -53 61 -53c23 0 42 10 42 37c0 21 3 178 0 300
c-2 70 -1 145 -13 209c62 3 98 5 151 10c8 -108 3 -156 3 -236z" />
    <glyph glyph-name="V" unicode="V" horiz-adv-x="450" 
d="M449 643c-21 -126 -132 -501 -157 -645c-42 -6 -79 -7 -120 -10c-38 183 -147 566 -171 662c54 6 96 19 153 41c7 -69 58 -345 76 -461c19 115 71 394 72 442c61 -17 94 -24 147 -29z" />
    <glyph glyph-name="W" unicode="W" horiz-adv-x="686" 
d="M683 639c-40 -187 -103 -503 -131 -644c-37 -5 -70 -11 -117 -14c-15 82 -71 296 -91 412c-20 -107 -83 -325 -101 -407c-52 10 -79 16 -122 16c-21 111 -97 519 -120 634c47 11 77 20 143 48c13 -79 40 -301 58 -428c23 124 83 349 90 396c41 0 58 -2 108 2
c11 -69 66 -275 85 -387c14 111 48 313 60 400c59 -18 81 -23 138 -28z" />
    <glyph glyph-name="X" unicode="X" horiz-adv-x="483" 
d="M472 38c-58 -13 -87 -29 -142 -51c-20 70 -69 185 -95 248c-27 -77 -75 -204 -87 -245c-49 9 -93 19 -148 28c37 80 128 265 156 346c-20 55 -106 225 -136 282c64 5 108 17 161 33c6 -46 41 -146 59 -197c18 51 54 153 61 186c53 -20 88 -31 142 -50
c-37 -81 -108 -210 -127 -261c16 -43 93 -180 156 -319z" />
    <glyph glyph-name="Y" unicode="Y" horiz-adv-x="462" 
d="M460 627c-48 -109 -122 -277 -145 -337c1 -46 7 -210 3 -287c-50 3 -101 4 -159 4c10 75 14 185 16 270c-32 75 -129 264 -174 350c63 12 97 23 154 46c15 -56 60 -187 86 -248c18 56 54 176 68 252c63 -26 92 -37 151 -50z" />
    <glyph glyph-name="Z" unicode="Z" horiz-adv-x="397" 
d="M380 116c-11 -60 -12 -79 -17 -121c-89 5 -262 7 -357 12c52 143 152 412 190 538c-23 0 -50 -1 -64 -2c-14 0 -54 1 -106 -2c13 59 14 79 19 129c73 -6 244 -16 332 -21c-19 -58 -150 -417 -190 -535c47 -1 118 0 193 2z" />
    <glyph glyph-name="bracketleft" unicode="[" horiz-adv-x="284" 
d="M276 -27c-13 -45 -16 -62 -18 -100c-57 5 -152 5 -212 5c0 106 -10 656 -13 812c75 0 151 2 225 11c0 -43 0 -64 8 -98c-46 -7 -79 -11 -106 -13c-1 -110 3 -509 6 -615c26 -2 58 -4 110 -2z" />
    <glyph glyph-name="backslash" unicode="\" horiz-adv-x="355" 
d="M356 15c-53 -5 -72 -11 -125 -29c-62 192 -163 486 -232 659c60 6 79 11 131 30c47 -165 157 -473 226 -660z" />
    <glyph glyph-name="bracketright" unicode="]" horiz-adv-x="284" 
d="M247 716c-5 -149 -13 -666 -13 -790c-68 -6 -150 -15 -206 -22c-3 42 -7 57 -15 97c47 5 76 10 100 15c3 102 9 503 9 603c-28 1 -58 2 -101 4c0 43 2 60 -2 104c75 -8 156 -11 228 -11z" />
    <glyph glyph-name="asciicircum" unicode="^" horiz-adv-x="433" 
d="M419 391l-59 -67l-154 166l-117 -156l-73 47l127 237l97 27z" />
    <glyph glyph-name="underscore" unicode="_" horiz-adv-x="330" 
d="M337 -60c-5 -25 -3 -78 -3 -107c-23 3 -296 4 -338 5c0 19 -3 70 -5 98c38 -3 316 0 346 4z" />
    <glyph glyph-name="quoteleft" unicode="&#x2018;" horiz-adv-x="205" 
d="M201 637c-35 -36 -45 -78 -38 -105c0 -33 -2 -92 4 -145c-62 0 -82 -3 -145 -11c-3 45 -3 101 -2 129c2 52 42 128 83 175c40 -21 53 -26 98 -43z" />
    <glyph glyph-name="a" unicode="a" horiz-adv-x="374" 
d="M354 14c-48 -11 -70 -16 -116 -37c-10 27 -13 45 -15 61c-25 -19 -66 -41 -98 -41c-43 0 -116 63 -116 145c0 42 7 93 62 117c51 22 115 40 145 48c1 20 -4 32 -12 36c-20 9 -51 12 -116 12c0 0 8 61 6 108c90 -10 139 -17 196 -39c35 -13 54 -57 54 -99
c0 -6 1 -131 1 -215c0 -32 4 -68 9 -96zM219 215c-15 -5 -46 -13 -54 -16c-25 -10 -36 -32 -36 -50c0 -23 12 -44 32 -44c18 0 47 14 57 26c1 9 1 64 1 84z" />
    <glyph glyph-name="b" unicode="b" horiz-adv-x="403" 
d="M382 240c0 -179 -90 -206 -153 -206c-15 0 -57 15 -71 27c1 -12 0 -50 0 -50s-74 -4 -131 -16c2 76 2 258 2 271c0 56 -2 224 -2 260c0 8 -2 89 -7 124c47 6 82 9 141 17c-4 -71 -6 -157 -6 -214c29 12 62 19 78 19c38 0 68 -12 103 -61c25 -37 46 -93 46 -171zM251 230
c0 64 -6 136 -39 136c-11 0 -38 -11 -49 -19c-1 -34 -3 -155 -2 -191c16 -8 33 -14 54 -14c25 0 36 15 36 88z" />
    <glyph glyph-name="c" unicode="c" horiz-adv-x="347" 
d="M328 93c-16 -50 -23 -78 -28 -118c-207 31 -283 109 -283 256c0 60 16 118 44 151c44 52 89 73 237 91l15 -110c-42 -2 -68 -4 -88 -9c-46 -12 -72 -47 -72 -114c0 -58 15 -121 88 -138c30 -7 57 -9 87 -9z" />
    <glyph glyph-name="d" unicode="d" horiz-adv-x="395" 
d="M371 13c-47 -5 -64 -8 -102 -23l-18 43c-28 -17 -71 -29 -98 -29c-69 0 -137 80 -137 212c0 81 21 142 34 164c6 12 75 86 126 86c20 0 50 -6 69 -13c-2 22 -2 48 -1 74c1 49 -3 125 -3 125s83 7 129 14v-317c0 -17 1 -194 1 -231c-4 -10 -7 -38 0 -105zM238 127
c1 62 5 175 0 214c-11 8 -35 13 -49 13c-30 0 -39 -25 -39 -101c0 -72 10 -143 48 -143c13 0 26 7 40 17z" />
    <glyph glyph-name="e" unicode="e" horiz-adv-x="380" 
d="M373 65c-28 -39 -129 -66 -169 -66c-129 0 -188 98 -188 225c0 193 88 229 188 229c96 0 148 -99 156 -254c-89 -7 -175 -9 -217 -11c-2 -46 32 -80 79 -80c15 0 57 7 115 34c10 -30 20 -49 36 -77zM233 278c-2 37 -14 82 -44 82c-28 0 -53 -42 -49 -86c12 -1 32 -1 38 0
c12 1 41 3 55 4z" />
    <glyph glyph-name="f" unicode="f" horiz-adv-x="279" 
d="M285 568c-58 -5 -76 -14 -88 -29c-5 -7 -9 -31 -8 -49c1 -16 1 -27 1 -42c16 -1 39 -2 66 1l2 -108s-47 7 -63 7l-2 -96c3 -46 2 -257 2 -257c-57 10 -93 12 -143 18c3 42 4 101 7 141c2 30 2 68 2 78v111l-44 4l-18 107l62 -4c0 33 -3 93 -3 102c0 30 11 98 198 122
c7 -41 13 -62 29 -106z" />
    <glyph glyph-name="g" unicode="g" horiz-adv-x="392" 
d="M364 192c0 -79 1 -155 -11 -231c-5 -31 -29 -70 -55 -91c-34 -29 -112 -71 -148 -71c-19 38 -53 85 -53 85c73 24 103 49 123 69c9 9 20 35 18 49c-18 -15 -64 -24 -81 -25c-40 -3 -59 6 -93 54c-29 40 -44 87 -44 164c0 164 45 249 134 249c16 0 70 -10 93 -17
c-1 15 -1 64 -1 64s75 -5 118 -4v-295zM239 224c0 28 -1 77 -2 99c-7 3 -27 5 -34 5c-36 0 -50 -22 -50 -85c0 -116 9 -159 33 -159c13 0 38 3 50 17c3 22 3 86 3 123z" />
    <glyph glyph-name="h" unicode="h" horiz-adv-x="393" 
d="M370 312c0 -7 1 -175 -2 -207c-2 -18 -3 -71 -2 -119c-62 13 -92 16 -135 21c1 41 2 160 4 185c1 8 -1 83 -4 109c-1 9 -17 15 -33 13c-19 -2 -32 -8 -41 -12c-2 -70 -6 -251 2 -318c-66 8 -93 8 -134 9c2 41 -1 124 1 174c2 60 0 199 0 213c0 48 0 178 3 297
c41 -5 93 -6 132 -10c0 -29 -4 -182 -1 -261c23 10 79 19 105 19c16 0 43 -7 62 -18c14 -8 43 -44 43 -95z" />
    <glyph glyph-name="i" unicode="i" horiz-adv-x="183" 
d="M174 603c0 -34 -39 -68 -81 -68s-79 31 -79 68c0 30 38 66 79 66c46 0 81 -25 81 -66zM161 9c-38 -2 -88 -8 -136 -19c4 90 2 247 2 257c0 12 -6 169 -6 217c42 -5 70 -5 138 -3c-4 -31 -4 -65 -5 -88c-1 -15 -2 -60 -2 -92c0 -22 0 -85 2 -140c2 -51 2 -93 7 -132z" />
    <glyph glyph-name="j" unicode="j" horiz-adv-x="181" 
d="M161 619c0 -33 -35 -65 -73 -65c-41 0 -74 29 -74 64c0 29 34 64 74 64s73 -24 73 -63zM160 484c-6 -47 -4 -113 -5 -134c-1 -26 -2 -244 -2 -263c0 -154 -58 -211 -130 -265c-34 33 -47 47 -86 73c58 42 92 110 89 161c-1 19 1 94 0 120c-3 78 -2 255 -2 311
c39 -5 97 -7 136 -3z" />
    <glyph glyph-name="k" unicode="k" horiz-adv-x="388" 
d="M394 49c-25 -26 -91 -68 -103 -74c-10 12 -93 138 -135 202c-1 -1 -1 -1 -2 -1c1 -28 1 -90 0 -111c0 -11 1 -30 1 -69c-55 -2 -75 2 -131 -9c0 64 1 244 1 274c0 6 2 223 6 232c3 6 2 144 2 202c46 -10 87 -17 126 -21c0 -45 -2 -300 -2 -321c0 -6 -1 -31 1 -41
c11 17 45 67 57 78c2 2 37 58 57 77c28 -17 66 -41 100 -59c-38 -47 -88 -115 -121 -160c40 -53 120 -179 143 -199z" />
    <glyph glyph-name="l" unicode="l" horiz-adv-x="197" 
d="M164 643c0 -41 -1 -199 -1 -229c0 -6 -2 -208 -5 -225c-2 -10 -3 -137 -3 -213c-56 20 -92 25 -123 33c0 44 2 326 2 347c0 12 -1 133 -1 146c0 7 7 86 10 98c0 6 1 23 1 80c45 -15 89 -27 120 -37z" />
    <glyph glyph-name="m" unicode="m" horiz-adv-x="599" 
d="M569 22c-44 -4 -89 -9 -136 -15c0 36 1 115 1 117v176c0 18 -7 26 -28 26c-15 0 -32 -3 -42 -7c1 -57 3 -261 7 -302c-45 0 -93 -4 -144 -9c4 41 3 92 3 97c0 32 -1 192 -1 214c0 19 -13 29 -26 29c-14 0 -35 -2 -46 -6c0 0 -6 -242 0 -354c-54 13 -91 17 -136 23
c2 56 4 153 4 159v292c47 -8 75 -11 121 -14l1 -29c22 15 72 33 115 33c36 0 58 -16 76 -46c2 -3 4 -9 4 -9c15 13 86 37 136 37c74 0 91 -38 91 -120v-292z" />
    <glyph glyph-name="n" unicode="n" horiz-adv-x="399" 
d="M373 -2c-59 9 -84 12 -138 13c3 64 4 123 4 133c0 39 -2 123 -1 152c1 31 -7 45 -25 45c-16 0 -36 -9 -54 -18c2 -57 9 -270 16 -321c-50 -6 -88 -6 -142 -9c6 74 -9 300 -9 321c0 4 -5 97 -13 139c53 0 88 3 143 11v-47c30 19 76 31 115 31c65 0 104 -31 104 -131v-319z
" />
    <glyph glyph-name="o" unicode="o" horiz-adv-x="416" 
d="M401 261c0 -160 -99 -255 -196 -255c-64 0 -123 29 -155 87c-20 36 -35 74 -35 133c0 167 90 233 191 233c95 0 195 -46 195 -198zM266 235c0 80 -37 113 -71 113c-32 0 -50 -30 -50 -104c0 -71 32 -126 67 -126c32 0 54 43 54 117z" />
    <glyph glyph-name="p" unicode="p" horiz-adv-x="389" 
d="M368 190c0 -74 -15 -125 -44 -163c-33 -46 -68 -53 -102 -53c-10 0 -50 13 -68 24v-82c0 -26 2 -51 8 -96c-54 -2 -88 -5 -135 -16c-3 61 -1 230 -1 383c-1 100 -2 297 -2 297c56 -15 92 -23 128 -28c-1 -12 -1 -23 -2 -32c16 4 69 7 84 7c21 0 34 -5 53 -13
c18 -8 34 -16 43 -28c27 -35 38 -58 38 -200zM232 188c0 89 -5 142 -40 142c-8 0 -31 -4 -39 -6c-1 -15 -2 -58 -2 -80c0 -44 1 -123 2 -146c12 -10 44 -16 53 -16c18 0 26 14 26 106z" />
    <glyph glyph-name="q" unicode="q" horiz-adv-x="393" 
d="M365 -195c-53 9 -79 12 -137 16c8 74 9 138 10 177c-16 -12 -48 -21 -64 -21c-37 0 -80 29 -100 49c-35 35 -58 94 -58 173c0 187 45 234 136 234c14 0 67 -8 87 -23v43s72 5 126 19c0 -54 -4 -343 -4 -402c0 -15 1 -197 4 -265zM235 304c-20 18 -49 24 -62 24
c-19 0 -21 -30 -21 -98c0 -78 10 -142 49 -142c9 0 26 2 31 5z" />
    <glyph glyph-name="r" unicode="r" horiz-adv-x="299" 
d="M298 349c-91 -3 -124 -24 -142 -51c-2 -70 -4 -212 3 -302c-58 11 -81 12 -139 15c4 61 7 180 7 192c0 21 1 106 1 123c0 44 -1 103 -3 159c53 -15 134 -18 134 -18v-43c20 17 57 33 103 40c9 -44 16 -64 36 -115z" />
    <glyph glyph-name="s" unicode="s" horiz-adv-x="310" 
d="M293 126c0 -78 -69 -143 -229 -152c-2 43 -6 63 -18 115c64 2 115 9 115 36c0 24 -18 41 -57 66c-45 29 -92 59 -92 130c0 100 98 125 258 132c0 -32 3 -74 9 -105c-84 -1 -134 -12 -134 -30c0 -6 13 -15 26 -22c51 -32 122 -66 122 -170z" />
    <glyph glyph-name="t" unicode="t" horiz-adv-x="294" 
d="M274 67c0 0 -67 -61 -91 -97c-113 51 -126 102 -126 160v133c0 25 -1 58 -1 78c-9 -1 -28 -2 -44 -5c-3 37 -8 64 -8 97c35 4 44 2 55 4c1 5 3 15 3 19c3 27 3 37 9 81c0 0 66 17 132 41c0 -43 -3 -102 -5 -138c20 2 45 4 75 11c0 0 -6 -60 0 -109c-45 3 -68 1 -84 0
c0 -16 -1 -44 -1 -47c-1 -24 -3 -102 0 -159c1 -25 34 -49 86 -69z" />
    <glyph glyph-name="u" unicode="u" horiz-adv-x="397" 
d="M369 -15c-45 8 -85 13 -128 11l-5 33c-23 -9 -108 -26 -130 -26c-35 0 -58 22 -66 49c-7 24 -8 80 -8 109c0 42 -2 150 -3 169c-1 21 -4 68 -5 102c60 -5 92 -5 140 -2c0 -53 2 -278 2 -283c0 -23 5 -36 19 -36s42 10 51 16c0 45 1 157 -2 214c-1 25 0 80 -3 108
c42 6 79 12 138 28v-492z" />
    <glyph glyph-name="v" unicode="v" horiz-adv-x="394" 
d="M388 434c-24 -52 -98 -280 -105 -298c-5 -12 -31 -104 -34 -137c-34 -2 -69 -6 -110 -15c-15 60 -122 393 -138 447c45 11 76 21 128 41c12 -56 47 -244 56 -280c1 -6 6 -21 6 -22c3 9 18 94 19 97c9 33 35 149 40 192c50 -12 77 -19 138 -25z" />
    <glyph glyph-name="w" unicode="w" horiz-adv-x="561" 
d="M560 439c-22 -50 -88 -280 -93 -294c-4 -12 -25 -109 -31 -153c-37 -1 -60 -3 -104 -6c-9 44 -42 159 -55 214c-13 -51 -46 -163 -48 -192c-40 -5 -56 -8 -103 -22c-11 65 -104 415 -125 460c50 8 77 17 137 36c5 -51 18 -131 23 -149c3 -9 17 -101 23 -124
c13 61 45 205 40 230c28 3 55 7 96 18c13 -40 34 -183 48 -242c15 67 55 225 55 251c34 -9 85 -20 137 -27z" />
    <glyph glyph-name="x" unicode="x" horiz-adv-x="400" 
d="M391 425c-29 -41 -56 -93 -63 -105c-17 -30 -37 -73 -54 -103c21 -34 80 -131 113 -177c-58 -13 -95 -24 -144 -46c-15 42 -23 70 -32 92l-14 45s-47 -110 -60 -157c-46 14 -77 22 -134 31c33 55 109 176 132 218c-23 39 -95 150 -120 188c43 13 95 34 142 52
c9 -37 34 -104 55 -146c21 45 47 122 57 152c42 -20 69 -32 122 -44z" />
    <glyph glyph-name="y" unicode="y" horiz-adv-x="412" 
d="M411 429c-27 -69 -193 -551 -213 -619c-52 14 -62 20 -128 25c31 65 72 185 83 218c-5 17 -24 57 -30 75c-12 36 -100 250 -122 301c57 13 82 19 129 42c27 -69 60 -219 84 -287c24 77 56 243 63 285c51 -22 82 -31 134 -40z" />
    <glyph glyph-name="z" unicode="z" horiz-adv-x="373" 
d="M363 440c-40 -55 -81 -147 -87 -155c-7 -11 -61 -120 -91 -179c48 -6 125 -15 171 -15c-15 -50 -20 -76 -25 -111c-51 5 -143 19 -189 24c-38 4 -74 8 -140 8c39 71 131 251 140 268c8 14 22 45 26 60c-20 1 -59 2 -59 2l-74 7c11 44 14 69 14 112c69 -7 217 -18 314 -21
z" />
    <glyph glyph-name="braceleft" unicode="{" horiz-adv-x="333" 
d="M327 672c-75 -37 -103 -85 -103 -148c0 -27 6 -65 18 -98c4 -12 5 -23 5 -32c0 -33 -23 -71 -70 -82c33 -11 43 -38 43 -62c0 -8 -1 -16 -4 -25c-20 -61 -29 -109 -29 -146c0 -75 38 -119 133 -153c-18 -34 -29 -64 -41 -96c-127 37 -213 105 -213 246c0 42 7 83 26 142
c1 2 5 15 5 20c0 20 -20 37 -89 45c10 34 13 55 15 90c64 -7 100 -2 100 18c0 4 -2 10 -3 14c-15 43 -22 75 -22 112c0 129 82 217 201 251c6 -37 17 -70 28 -96z" />
    <glyph glyph-name="bar" unicode="|" horiz-adv-x="229" 
d="M180 702c-14 -177 -23 -671 -25 -871c-40 4 -72 3 -107 -1c9 192 22 704 17 871c41 -6 72 -3 115 1z" />
    <glyph glyph-name="braceright" unicode="}" horiz-adv-x="333" 
d="M318 262c-48 -7 -73 -29 -73 -45c0 -5 4 -16 6 -21c12 -25 19 -51 19 -76c0 -121 -84 -238 -213 -288c-20 34 -33 54 -63 90c107 47 156 122 156 190c0 14 -4 27 -11 41s-17 39 -17 62c0 30 14 65 48 79c-46 13 -74 47 -74 83c0 10 3 23 5 30c10 30 15 57 15 86
c0 72 -2 148 -117 167c23 38 32 59 46 93c162 -31 190 -144 190 -256c0 -41 -6 -65 -11 -85c-1 -5 -8 -23 -8 -31c0 -15 41 -23 102 -16c-3 -47 -3 -68 0 -103z" />
    <glyph glyph-name="asciitilde" unicode="~" horiz-adv-x="563" 
d="M543 379c-59 -110 -134 -168 -210 -168c-35 0 -66 17 -92 37c-23 17 -40 37 -58 37c-20 0 -43 -27 -71 -73l-92 73c65 98 122 138 169 138c35 0 66 -23 96 -48c18 -15 36 -31 56 -31c36 0 75 39 109 106z" />
    <glyph glyph-name="exclamdown" unicode="&#xa1;" horiz-adv-x="203" 
d="M180 420c0 -43 -35 -71 -83 -71c-45 0 -79 30 -79 72c0 38 28 72 78 72c44 0 84 -31 84 -73zM182 -162c-42 -12 -77 -20 -152 -50c9 138 6 412 13 515c54 -18 73 -21 118 -26c2 -110 9 -298 21 -439z" />
    <glyph glyph-name="cent" unicode="&#xa2;" horiz-adv-x="347" 
d="M328 93c-16 -50 -23 -78 -28 -118c-23 3 -44 7 -63 12l-2 -95l-115 10l5 125c-77 44 -108 110 -108 204c0 60 16 118 44 151c18 21 36 37 61 50l-1 124l114 -3l6 -88c17 3 36 5 57 8l15 -110c-51 -2 -82 -8 -88 -9c-46 -13 -72 -47 -72 -114c0 -58 13 -120 88 -138
c13 -2 31 -9 87 -9z" />
    <glyph glyph-name="sterling" unicode="&#xa3;" horiz-adv-x="393" 
d="M405 81c-61 -71 -153 -93 -244 -93c-44 0 -89 7 -129 15l-15 82c62 12 90 55 90 91c0 33 -6 71 -13 100c-23 0 -48 1 -91 -4c10 39 16 88 17 98l52 3c-8 23 -15 51 -15 79c0 93 64 218 171 218c40 0 73 -13 135 -36l-38 -109c-43 20 -62 27 -83 27
c-41 0 -58 -49 -58 -110c0 -21 4 -53 9 -69c47 -1 98 1 144 4c-15 -51 -18 -71 -23 -107c-35 5 -64 5 -89 6c5 -17 10 -51 10 -73c0 -31 -11 -87 -40 -111c35 2 103 23 138 68z" />
    <glyph glyph-name="fraction" unicode="&#x2044;" horiz-adv-x="433" 
d="M476 627c-108 -156 -300 -469 -398 -644c-48 26 -76 36 -127 52c108 166 308 492 391 643c46 -25 73 -35 134 -51z" />
    <glyph glyph-name="yen" unicode="&#xa5;" horiz-adv-x="462" 
d="M460 627c-48 -109 -124 -281 -147 -340c0 -5 1 -43 1 -52c36 0 71 1 112 6c-14 -44 -20 -79 -24 -119c-39 4 -76 6 -87 6c-2 -50 -1 -80 0 -125c-50 3 -95 4 -151 4c5 44 10 80 11 125c-35 1 -70 1 -114 -2c19 54 25 76 30 114c36 -6 59 -6 86 -7v37
c-32 75 -131 267 -176 353c65 9 99 20 154 46c15 -56 60 -187 86 -248c18 56 54 176 68 252c63 -28 92 -37 151 -50z" />
    <glyph glyph-name="florin" unicode="&#x192;" horiz-adv-x="295" 
d="M287 577c-68 -8 -77 -13 -89 -30c-5 -6 -8 -36 -7 -45c1 -13 1 -50 1 -68c16 1 39 3 66 6l2 -104s-47 3 -63 3l-2 -97c-1 -61 -3 -137 -3 -157c0 -153 -58 -210 -130 -263c-33 35 -49 50 -86 76c58 41 87 106 84 157c-1 19 1 52 1 86c0 32 2 72 2 82v113l-44 8l-18 97h62
c0 28 -3 109 -3 119c0 32 11 99 198 124c7 -43 11 -60 29 -107z" />
    <glyph glyph-name="section" unicode="&#xa7;" horiz-adv-x="438" 
d="M427 286c0 -80 -41 -137 -100 -184c23 -26 48 -53 48 -88c0 -118 -77 -178 -302 -192c2 42 3 60 -1 113c106 1 176 25 176 65c0 30 -73 47 -119 77c-62 38 -120 87 -120 158c0 74 36 122 101 164c-30 30 -50 59 -50 100c0 104 113 184 312 177c-3 -42 -4 -66 0 -109
c-106 -3 -179 -17 -179 -58c0 -39 67 -55 109 -77c63 -33 125 -72 125 -146zM299 272c0 24 -51 56 -91 66c-39 -17 -66 -47 -66 -92c0 -35 48 -68 90 -85c34 22 67 51 67 111z" />
    <glyph glyph-name="currency" unicode="&#xa4;" 
d="M588 314l-76 -110l-129 67l149 -116l-81 -65l-90 130l92 -207l-148 -41l-24 239l-22 -229l-104 12l58 185l-89 -165l-101 81l183 193l-151 -74l-42 93l160 29l-163 34l33 101l154 -84l-194 140l86 113l144 -179l-85 243l120 -15l17 -182l16 126l86 -49l-52 -131l94 173
l105 -65l-161 -171l126 90l57 -91l-147 -42z" />
    <glyph glyph-name="quotesingle" unicode="'" horiz-adv-x="205" 
d="M171 587c-2 -49 -10 -144 -11 -214c-55 12 -64 12 -101 17c-11 52 -22 128 -32 169c0 34 3 53 -3 106c62 0 82 3 146 12c2 -46 2 -62 1 -90z" />
    <glyph glyph-name="quotedblleft" unicode="&#x201c;" horiz-adv-x="385" 
d="M382 637c-35 -36 -45 -78 -38 -105c0 -33 -2 -92 4 -145c-62 0 -82 -3 -145 -11c-3 45 -3 101 -2 129c2 52 42 128 83 175c40 -21 53 -26 98 -43zM202 637c-35 -36 -45 -78 -38 -105c0 -33 -2 -92 4 -145c-62 0 -82 -3 -145 -11c-3 45 -3 101 -2 129c2 52 42 128 83 175
c40 -21 53 -26 98 -43z" />
    <glyph glyph-name="guillemotleft" unicode="&#xab;" horiz-adv-x="472" 
d="M466 116c-47 -16 -79 -32 -116 -55c-32 43 -95 116 -124 139v68c18 11 98 96 130 141c34 -31 66 -50 110 -70c-36 -27 -84 -83 -101 -106c16 -22 56 -73 101 -117zM248 346c-45 -45 -85 -95 -101 -118c17 -23 69 -81 99 -106c-42 -20 -74 -39 -108 -69
c-32 44 -112 129 -130 139v70c29 22 92 95 124 139c37 -24 69 -40 116 -55z" />
    <glyph glyph-name="guilsinglleft" unicode="&#x2039;" horiz-adv-x="256" 
d="M248 350c-45 -46 -85 -97 -101 -119c17 -24 69 -83 99 -108c-42 -20 -74 -39 -108 -70c-32 45 -112 131 -130 141v70c29 23 92 97 124 142c37 -24 69 -41 116 -56z" />
    <glyph glyph-name="guilsinglright" unicode="&#x203a;" horiz-adv-x="256" 
d="M245 194c-18 -10 -98 -96 -129 -141c-35 31 -67 50 -111 70c36 28 84 84 101 108c-16 23 -59 77 -102 119c48 15 80 32 118 56c31 -45 94 -119 123 -142v-70z" />
    <glyph glyph-name="fi" unicode="&#xfb01;" horiz-adv-x="460" 
d="M452 603c0 -34 -39 -68 -81 -68s-79 31 -79 68c0 30 38 66 79 66c46 0 81 -25 81 -66zM439 9c-38 -2 -88 -8 -136 -19c4 90 2 247 2 257c0 12 -6 169 -6 217c42 -5 70 -5 138 -3c-4 -31 -4 -65 -5 -88c-1 -15 -2 -60 -2 -92c0 -22 0 -85 2 -140c2 -51 2 -93 7 -132z
M285 568c-58 -5 -76 -14 -88 -29c-5 -7 -9 -31 -8 -49c1 -16 1 -27 1 -42c16 -1 39 -2 66 1l2 -108s-47 7 -63 7l-2 -96c3 -46 2 -257 2 -257c-57 10 -93 12 -143 18c3 42 4 101 7 141c2 30 2 68 2 78v111l-44 4l-18 107l62 -4c0 33 -3 93 -3 102c0 30 11 98 198 122
c7 -41 13 -62 29 -106z" />
    <glyph glyph-name="fl" unicode="&#xfb02;" horiz-adv-x="458" 
d="M435 643c0 -41 -1 -199 -1 -229c0 -6 -2 -208 -5 -225c-2 -10 -3 -137 -3 -213c-56 20 -92 25 -123 33c0 44 2 326 2 347c0 12 -1 133 -1 146c0 7 7 86 10 98c0 6 1 23 1 80c45 -15 89 -27 120 -37zM285 568c-58 -5 -76 -14 -88 -29c-5 -7 -9 -31 -8 -49
c1 -16 1 -27 1 -42c16 -1 39 -2 66 1l2 -108s-47 7 -63 7l-2 -96c3 -46 2 -257 2 -257c-57 10 -93 12 -143 18c3 42 4 101 7 141c2 30 2 68 2 78v111l-44 4l-18 107l62 -4c0 33 -3 93 -3 102c0 30 11 98 198 122c7 -41 13 -62 29 -106z" />
    <glyph glyph-name="endash" unicode="&#x2013;" horiz-adv-x="367" 
d="M351 312c-5 -37 -6 -88 -4 -119c-56 4 -258 5 -328 6c0 26 -3 78 -8 112c72 -3 270 -4 340 1z" />
    <glyph glyph-name="dagger" unicode="&#x2020;" horiz-adv-x="403" 
d="M397 461c-9 -44 -9 -68 -10 -107c-63 0 -94 -3 -128 -4c0 -156 0 -337 5 -458c-58 13 -88 16 -140 18c1 68 3 253 4 434c-32 -2 -68 -3 -125 -7c7 47 10 70 13 117c53 -5 79 -3 112 -3c3 67 5 138 0 218c59 -12 88 -15 134 -15c-4 -54 -3 -120 -3 -199c32 2 65 1 138 6z
" />
    <glyph glyph-name="daggerdbl" unicode="&#x2021;" horiz-adv-x="403" 
d="M401 234c-14 -59 -17 -70 -21 -124c-55 6 -83 9 -118 10c1 -78 2 -151 6 -228c-62 13 -90 16 -147 18c2 49 4 120 5 212c-30 0 -67 -1 -128 -2c12 50 15 71 21 112c56 -2 82 -3 108 -4c0 34 1 79 1 114c-30 -2 -66 -5 -123 -9c7 53 10 74 13 123c53 -5 79 -5 110 -5
c1 68 1 136 -2 218c63 -12 90 -13 140 -13c-4 -56 -5 -121 -6 -201c33 2 73 4 139 8c-9 -44 -10 -71 -12 -113c-63 0 -94 -1 -126 -2c0 -35 0 -83 1 -121c32 1 66 2 139 7z" />
    <glyph glyph-name="periodcentered" unicode="&#xb7;" horiz-adv-x="194" 
d="M178 327c0 -47 -31 -71 -70 -71c-67 0 -92 38 -92 71c0 39 30 70 91 70c50 0 71 -16 71 -70z" />
    <glyph glyph-name="paragraph" unicode="&#xb6;" horiz-adv-x="460" 
d="M433 13c-35 7 -66 13 -102 15c0 141 -2 419 -8 550c-102 0 -193 -26 -193 -101c0 -33 36 -65 65 -77c-2 40 -1 80 -2 117c33 -4 69 -4 107 -4c-7 -105 -10 -438 -9 -551c-36 3 -59 3 -91 2c2 69 -4 202 -4 324c-102 28 -187 105 -187 206c0 118 180 186 357 186
c18 0 40 -6 60 -9c-1 -141 -3 -517 7 -658z" />
    <glyph glyph-name="bullet" unicode="&#x2022;" horiz-adv-x="300" 
d="M285 359c0 -63 -35 -140 -112 -140c-88 0 -158 70 -158 142c0 66 80 120 161 120c71 0 109 -65 109 -122z" />
    <glyph glyph-name="quotesinglbase" unicode="&#x201a;" horiz-adv-x="205" 
d="M183 21c-2 -53 -42 -129 -82 -175c-41 20 -54 26 -99 43c35 35 44 77 37 104c0 33 3 93 -3 145c62 0 82 3 146 12c2 -46 2 -101 1 -129z" />
    <glyph glyph-name="quotedblbase" unicode="&#x201e;" horiz-adv-x="385" 
d="M368 21c-2 -53 -42 -129 -82 -175c-41 20 -54 26 -98 43c34 35 43 77 36 104c0 33 3 93 -3 145c62 0 82 3 146 12c2 -46 2 -101 1 -129zM183 21c-2 -53 -42 -129 -82 -175c-41 20 -54 26 -99 43c35 35 44 77 37 104c0 33 3 93 -3 145c62 0 82 3 146 12
c2 -46 2 -101 1 -129z" />
    <glyph glyph-name="quotedblright" unicode="&#x201d;" horiz-adv-x="385" 
d="M368 548c-2 -53 -42 -129 -82 -175c-41 20 -54 26 -98 43c34 35 43 77 36 104c0 33 3 93 -3 145c62 0 82 3 146 12c2 -46 2 -101 1 -129zM183 548c-2 -53 -42 -129 -82 -175c-41 20 -54 26 -99 43c35 35 44 77 37 104c0 33 3 93 -3 145c62 0 82 3 146 12
c2 -46 2 -101 1 -129z" />
    <glyph glyph-name="guillemotright" unicode="&#xbb;" horiz-adv-x="472" 
d="M463 200c-29 -23 -92 -96 -123 -139c-38 23 -70 39 -116 55c44 44 84 95 100 117c-17 23 -69 81 -98 107c41 19 73 38 108 69c31 -45 111 -130 129 -141v-68zM245 192c-18 -10 -98 -95 -129 -139c-35 30 -67 49 -111 70c36 27 84 82 101 105c-16 23 -59 77 -102 118
c48 15 80 31 118 55c31 -44 94 -117 123 -139v-70z" />
    <glyph glyph-name="ellipsis" unicode="&#x2026;" horiz-adv-x="582" 
d="M562 64c0 -33 -24 -71 -91 -71c-51 0 -71 35 -71 71c0 54 24 71 73 71c68 0 89 -41 89 -71zM370 64c0 -54 -25 -71 -71 -71c-61 0 -91 34 -91 71c0 33 23 71 91 71c40 0 71 -24 71 -71zM178 64c0 -47 -31 -71 -69 -71c-67 0 -93 33 -93 69c0 40 30 73 91 73
c49 0 71 -17 71 -71z" />
    <glyph glyph-name="perthousand" unicode="&#x2030;" horiz-adv-x="941" 
d="M928 205c0 -95 -65 -219 -161 -219c-40 0 -80 24 -105 70c-21 -34 -59 -54 -93 -54c-84 0 -150 58 -150 187c0 94 64 218 161 218c49 0 89 -24 108 -67c18 31 57 51 90 51c83 0 150 -57 150 -186zM504 625c-28 -86 -168 -561 -189 -643c-31 14 -62 25 -95 32
c31 93 125 408 158 540c-15 -3 -43 -13 -58 -17c1 -10 1 -21 1 -31c0 -160 -90 -248 -156 -248c-92 0 -152 53 -152 224c0 79 42 201 158 201c57 0 95 -21 119 -59c48 11 103 26 162 44c16 -18 28 -28 52 -43zM818 201c0 60 -12 98 -37 98c-35 0 -55 -19 -55 -111
c0 -87 18 -108 43 -108c36 0 49 64 49 121zM622 206c0 82 -14 107 -44 107c-37 0 -49 -64 -49 -120c0 -75 16 -99 37 -99c33 0 56 23 56 112zM210 491c0 65 -6 89 -47 89c-27 0 -41 -30 -41 -94c0 -102 7 -128 34 -128c38 0 54 65 54 133z" />
    <glyph glyph-name="questiondown" unicode="&#xbf;" horiz-adv-x="295" 
d="M249 392c0 -44 -36 -72 -82 -72c-45 0 -79 30 -79 73c0 38 27 73 77 73c46 0 84 -31 84 -74zM306 -94c-25 -44 -36 -77 -52 -115c-171 31 -251 81 -251 158c0 59 40 133 119 233l-23 73l122 30l37 -115c-64 -79 -107 -134 -107 -172c0 -46 55 -75 155 -92z" />
    <glyph glyph-name="grave" unicode="`" horiz-adv-x="350" 
d="M293 555l-62 -72l-183 91l91 93z" />
    <glyph glyph-name="acute" unicode="&#xb4;" horiz-adv-x="350" 
d="M295 578l-180 -90l-64 65l150 114z" />
    <glyph glyph-name="circumflex" unicode="&#x2c6;" horiz-adv-x="350" 
d="M331 551l-63 -69l-96 70l-93 -77l-64 71l142 108l43 -2z" />
    <glyph glyph-name="tilde" unicode="&#x2dc;" horiz-adv-x="350" 
d="M327 585c-22 -43 -64 -69 -111 -69c-12 0 -24 8 -37 15s-26 14 -43 14c-10 0 -35 -13 -59 -29l-67 75c30 32 82 55 111 55c19 0 36 -10 52 -19c13 -7 25 -13 38 -13c27 0 50 18 69 39z" />
    <glyph glyph-name="macron" unicode="&#xaf;" horiz-adv-x="350" 
d="M306 611l-12 -105l-246 -7l-2 103z" />
    <glyph glyph-name="breve" unicode="&#x2d8;" horiz-adv-x="350" 
d="M332 636c-14 -68 -63 -139 -158 -139c-89 0 -137 54 -160 116l90 36c16 -40 39 -59 64 -59c31 0 57 23 64 63z" />
    <glyph glyph-name="dotaccent" unicode="&#x2d9;" horiz-adv-x="350" 
d="M242 595c0 -42 -36 -69 -71 -69c-36 0 -65 30 -65 66c0 39 35 61 64 61c38 0 72 -29 72 -58z" />
    <glyph glyph-name="dieresis" unicode="&#xa8;" horiz-adv-x="350" 
d="M328 584c0 -27 -25 -62 -64 -62c-45 0 -73 30 -73 59c0 22 22 60 72 60c41 0 65 -22 65 -57zM164 597c0 -42 -35 -71 -71 -71s-65 30 -65 66c0 40 35 61 65 61c37 0 71 -29 71 -56z" />
    <glyph glyph-name="ring" unicode="&#x2da;" horiz-adv-x="350" 
d="M285 585c0 -52 -54 -99 -111 -99c-59 0 -112 50 -112 109c0 73 65 96 115 96c69 0 108 -46 108 -106zM218 597c0 15 -18 34 -35 34c-43 0 -56 -14 -56 -41c0 -23 20 -44 39 -44c33 0 52 11 52 51z" />
    <glyph glyph-name="cedilla" unicode="&#xb8;" horiz-adv-x="350" 
d="M260 -88c0 -35 -25 -82 -134 -97l-30 58c37 9 72 17 72 35c0 15 -16 29 -79 35l60 96l79 -22l-26 -49c28 -8 58 -25 58 -56z" />
    <glyph glyph-name="hungarumlaut" unicode="&#x2dd;" horiz-adv-x="350" 
d="M336 622l-102 -136l-84 33l87 150zM191 648l-91 -160l-90 47l109 141z" />
    <glyph glyph-name="ogonek" unicode="&#x2db;" horiz-adv-x="350" 
d="M261 -118l-27 -68c-121 31 -148 61 -148 121c0 26 25 66 78 93l87 -9c-52 -47 -64 -70 -64 -88c0 -25 30 -38 74 -49z" />
    <glyph glyph-name="caron" unicode="&#x2c7;" horiz-adv-x="350" 
d="M328 602l-137 -105l-53 2l-123 98l62 68l96 -72l93 80z" />
    <glyph glyph-name="emdash" unicode="&#x2014;" horiz-adv-x="447" 
d="M428 312c-5 -37 -6 -88 -4 -119c-56 4 -335 5 -405 6c0 26 -3 78 -8 112c72 -3 347 -4 417 1z" />
    <glyph glyph-name="AE" unicode="&#xc6;" horiz-adv-x="625" 
d="M611 120c-5 -41 -12 -77 -20 -126c-41 5 -92 5 -130 7c-67 2 -130 4 -193 5c2 44 3 78 5 120c-24 -1 -90 8 -108 8c-14 -38 -36 -111 -45 -153c-54 24 -82 37 -124 47c14 53 117 342 171 533c8 29 18 71 18 101c38 3 137 4 221 4c33 0 144 -4 204 -4
c-14 -46 -18 -78 -23 -126c-50 7 -117 11 -152 13c-8 1 -22 1 -30 1c0 -49 1 -85 1 -134c12 -1 30 -1 46 -1c8 0 71 1 121 1c0 -41 -2 -70 -2 -116c-56 -2 -93 5 -108 6c-17 1 -42 3 -57 6c-3 -51 0 -132 1 -190c13 0 21 -1 35 -1c66 -2 107 -4 169 -1zM280 309
c2 102 1 186 0 251c-4 -13 -22 -78 -27 -99c-13 -56 -37 -149 -50 -217c11 1 64 1 76 2c0 16 0 42 1 63z" />
    <glyph glyph-name="ordfeminine" unicode="&#xaa;" horiz-adv-x="281" 
d="M267 345c-36 -8 -52 -12 -86 -28c-8 22 -10 34 -11 46c-19 -14 -51 -31 -75 -31c-42 0 -87 49 -87 109c0 33 5 70 47 88c38 16 87 30 109 36c1 18 -3 24 -9 27c-15 8 -39 9 -87 9c0 0 6 47 4 81c68 -8 119 -16 147 -28c25 -11 41 -35 41 -76v-161c0 -24 3 -51 7 -72z
M167 498c-11 -4 -36 -12 -42 -14c-18 -8 -27 -24 -27 -38c0 -17 9 -33 24 -33c14 0 35 11 43 20c1 8 2 50 2 65z" />
    <glyph glyph-name="Lslash" unicode="&#x141;" horiz-adv-x="398" 
d="M393 122c-14 -56 -18 -76 -29 -130c-41 6 -82 8 -116 10c-64 4 -132 5 -184 8c5 50 9 141 10 242l-27 -10l-53 82l81 39c-1 43 -1 87 -3 128c-2 53 0 112 -7 167c57 0 97 8 150 15c1 -37 2 -136 2 -243l51 25l42 -115l-94 -35c0 -78 0 -148 -1 -188c49 0 102 -1 178 5z
" />
    <glyph glyph-name="Oslash" unicode="&#xd8;" horiz-adv-x="492" 
d="M491 654c-17 -30 -41 -78 -56 -109c23 -48 37 -113 37 -199c0 -246 -146 -352 -236 -352c-24 0 -48 6 -71 18c-16 -28 -35 -63 -42 -80c-26 19 -84 52 -112 62c19 32 45 86 60 115c-31 57 -51 135 -51 235c0 252 72 326 219 326c35 0 71 -7 104 -25c14 27 29 56 36 71
c26 -19 84 -52 112 -62zM329 343c0 175 -49 209 -100 209c-43 0 -65 -48 -65 -203c0 -147 32 -233 85 -233c42 0 80 110 80 227z" />
    <glyph glyph-name="OE" unicode="&#x152;" horiz-adv-x="666" 
d="M654 121c-5 -42 -12 -77 -20 -126c-41 5 -92 5 -130 7c-67 1 -99 9 -161 11c0 34 -1 35 -2 52c-18 -34 -69 -71 -115 -71c-93 0 -206 119 -206 354c0 212 62 322 209 322c49 0 94 -28 109 -54v45c49 4 87 5 111 5c33 0 144 -3 204 -3c-14 -47 -20 -76 -25 -124
c-50 8 -115 8 -150 11c-8 1 -27 1 -35 1c0 -50 1 -91 1 -141c21 0 56 1 65 2s57 4 107 7c0 -40 -2 -74 -2 -121c-33 1 -59 3 -97 7c-28 3 -57 6 -73 6c-3 -51 0 -129 1 -188c13 0 27 -1 44 -1c64 -1 103 -4 165 -1zM329 343c0 175 -49 209 -100 209c-43 0 -65 -48 -65 -203
c0 -147 32 -233 85 -233c42 0 80 110 80 227z" />
    <glyph glyph-name="ordmasculine" unicode="&#xba;" horiz-adv-x="312" 
d="M301 525c0 -120 -74 -191 -147 -191c-48 0 -91 21 -116 65c-10 17 -27 55 -27 100c0 125 68 174 144 174c71 0 146 -34 146 -148zM200 505c0 60 -28 85 -54 85c-24 0 -40 -22 -40 -78c0 -53 27 -94 53 -94c24 0 41 32 41 87z" />
    <glyph glyph-name="ae" unicode="&#xe6;" horiz-adv-x="579" 
d="M572 66c-29 -40 -133 -67 -173 -67c-49 0 -97 28 -120 61c-31 -34 -97 -63 -150 -63c-44 0 -119 59 -119 140c0 76 15 103 71 128c51 22 114 36 143 44c0 13 -2 29 -10 32c-19 10 -60 13 -125 13c0 0 8 61 6 109c90 -11 138 -16 166 -29c8 -4 22 -11 33 -28
c19 26 66 49 107 49c96 0 149 -102 157 -256c-87 -7 -177 -10 -219 -12c2 -38 39 -77 75 -77c18 0 64 10 120 37c9 -30 22 -56 38 -81zM428 281c-3 47 -21 77 -42 77c-25 0 -52 -33 -50 -83c13 0 46 1 52 1c11 1 26 3 40 5zM237 143c-4 15 -9 51 -12 71
c-16 -5 -52 -14 -61 -17c-19 -6 -35 -22 -35 -46c0 -26 16 -43 30 -43c20 0 62 17 78 35z" />
    <glyph glyph-name="dotlessi" unicode="&#x131;" horiz-adv-x="183" 
d="M161 9c-38 -2 -88 -8 -136 -19c4 90 2 247 2 257c0 12 -6 169 -6 217c42 -5 70 -5 138 -3c-4 -31 -4 -65 -5 -88c-1 -15 -2 -60 -2 -92c0 -22 0 -85 2 -140c2 -51 2 -93 7 -132z" />
    <glyph glyph-name="lslash" unicode="&#x142;" horiz-adv-x="270" 
d="M278 326l-74 -27c0 -54 -1 -104 -4 -110c-2 -10 -3 -137 -3 -213c-56 20 -92 25 -123 33c0 28 1 151 1 243l-28 -10l-53 82l82 39c0 30 -1 127 -1 139c0 7 7 95 10 98c0 6 1 23 1 80c45 -15 92 -23 120 -37c0 -41 -1 -165 -1 -195v-22l31 15z" />
    <glyph glyph-name="oslash" unicode="&#xf8;" horiz-adv-x="416" 
d="M401 261c0 -160 -99 -255 -196 -255c-15 0 -31 2 -46 5c-16 -30 -36 -67 -44 -85c-26 19 -72 44 -100 54c14 24 33 61 47 90c-4 7 -9 15 -12 23c-16 38 -35 74 -35 133c0 167 90 233 191 233c19 0 38 -2 56 -6c15 28 32 59 39 75c26 -19 72 -44 100 -54
c-12 -21 -28 -51 -41 -78c25 -30 41 -74 41 -135zM266 235c0 80 -37 113 -71 113c-32 0 -44 -30 -44 -104c0 -71 26 -126 61 -126c32 0 54 43 54 117z" />
    <glyph glyph-name="oe" unicode="&#x153;" horiz-adv-x="624" 
d="M616 65c-28 -39 -130 -66 -168 -66c-50 0 -108 39 -130 70c-29 -37 -68 -64 -110 -64c-62 0 -120 32 -153 88c-21 35 -40 82 -40 132c0 168 90 234 191 234c45 0 95 -26 119 -59c24 29 71 54 122 54c96 0 148 -99 156 -254c-89 -7 -179 -10 -221 -12c2 -50 48 -80 79 -80
c18 0 62 7 120 34c11 -35 18 -50 35 -77zM480 278c-2 53 -26 82 -48 82c-29 0 -51 -39 -50 -86c12 0 46 -1 52 -1c12 1 32 3 46 5zM270 234c0 81 -42 114 -76 114c-32 0 -50 -26 -50 -105c0 -71 17 -125 67 -125c32 0 59 42 59 116z" />
    <glyph glyph-name="germandbls" unicode="&#xdf;" horiz-adv-x="474" 
d="M464 138c0 -102 -76 -149 -218 -157c0 45 -1 56 -17 110c80 3 106 23 106 47c0 38 -14 60 -35 81c-38 38 -67 73 -67 139c0 39 15 78 26 107c7 19 9 34 9 65c0 22 -11 38 -46 38c-16 0 -29 -6 -34 -24c-3 -9 -1 -47 0 -57c1 -13 4 -236 4 -236c3 -46 4 -269 4 -269
c-60 20 -94 26 -144 31c6 42 8 96 9 138c1 31 2 70 2 80v105l-45 7l-17 108h62c0 52 -4 95 -4 104c0 68 67 117 160 117c88 0 171 -40 171 -148c0 -36 -10 -67 -22 -95c-8 -20 -15 -35 -15 -56c0 -26 23 -59 49 -85c31 -31 62 -65 62 -150z" />
    <glyph glyph-name="NUL" horiz-adv-x="0" 
 />
    <glyph glyph-name="Eth" unicode="&#xd0;" horiz-adv-x="488" 
d="M468 379c0 -240 -149 -381 -288 -381c-40 0 -89 8 -131 19c7 39 10 161 11 257c-14 1 -28 1 -41 1c0 26 -3 78 -8 112c15 -1 32 -1 50 -1v6c0 97 -3 215 -8 269c52 13 90 14 120 14c172 0 295 -79 295 -296zM325 376c0 152 -59 175 -128 181c0 -52 0 -111 -1 -170
c23 1 44 2 62 4c-12 -36 -10 -88 -10 -122c-15 1 -32 2 -52 2c0 -59 1 -114 2 -156c81 3 127 137 127 261z" />
    <glyph glyph-name="eth" unicode="&#xf0;" horiz-adv-x="416" 
d="M401 265c0 -166 -99 -259 -196 -259c-64 0 -130 27 -155 87c-16 38 -35 74 -35 133c0 167 91 213 174 213c10 0 40 -7 51 -14c-9 21 -43 61 -63 75c-16 -13 -39 -30 -57 -51c-30 29 -43 42 -86 63c36 33 43 40 55 52c-16 9 -22 11 -61 23c24 24 51 52 75 85
c42 -18 45 -20 64 -31c11 11 23 25 39 48c36 -29 62 -53 104 -83c-24 -19 -39 -29 -48 -36c80 -72 139 -174 139 -305zM266 235c0 76 -32 102 -68 102c-32 0 -47 -26 -47 -93c0 -71 26 -126 61 -126c32 0 54 43 54 117z" />
    <glyph glyph-name="Scaron" unicode="&#x160;" horiz-adv-x="328" 
d="M306 182c0 -123 -52 -184 -284 -205c1 58 3 77 -1 131c104 0 153 22 153 60c0 49 -38 93 -75 142c-46 58 -90 120 -90 189c0 109 69 172 294 176c-3 -43 -6 -71 0 -118c-104 -3 -157 -9 -157 -48c0 -41 35 -84 69 -130c45 -61 91 -127 91 -197zM319 802l-137 -105l-53 2
l-123 98l62 68l96 -72l93 80z" />
    <glyph glyph-name="scaron" unicode="&#x161;" horiz-adv-x="310" 
d="M293 126c0 -78 -69 -143 -229 -152c-2 43 -6 63 -18 115c64 2 115 9 115 36c0 24 -18 41 -57 66c-45 29 -92 59 -92 130c0 100 98 125 258 132c0 -32 3 -74 9 -105c-84 -1 -134 -12 -134 -30c0 -6 13 -15 26 -22c51 -32 122 -66 122 -170zM308 583l-137 -105l-53 2
l-123 98l62 68l96 -72l93 80z" />
    <glyph glyph-name="Yacute" unicode="&#xdd;" horiz-adv-x="462" 
d="M460 627c-48 -109 -122 -277 -145 -337c1 -46 7 -210 3 -287c-50 3 -101 4 -159 4c10 75 14 185 16 270c-32 75 -129 264 -174 350c63 12 97 23 154 46c15 -56 60 -187 86 -248c18 56 54 176 68 252c63 -26 92 -37 151 -50zM401 774l-180 -90l-64 65l150 114z" />
    <glyph glyph-name="yacute" unicode="&#xfd;" horiz-adv-x="412" 
d="M411 429c-27 -69 -193 -551 -213 -619c-52 14 -62 20 -128 25c31 65 72 185 83 218c-5 17 -24 57 -30 75c-12 36 -100 250 -122 301c57 13 82 19 129 42c27 -69 60 -219 84 -287c24 77 56 243 63 285c51 -22 82 -31 134 -40zM377 568l-180 -90l-64 65l150 114z" />
    <glyph glyph-name="Thorn" unicode="&#xde;" horiz-adv-x="401" 
d="M391 345c0 -85 -91 -199 -217 -216c0 -24 4 -62 8 -95c-56 -20 -150 -36 -150 -36c0 94 2 186 0 306c-2 92 -6 219 -9 350c57 4 91 7 150 18c-1 -50 -2 -88 -3 -119c136 -2 221 -44 221 -208zM251 351c0 59 -10 88 -83 89c1 -25 1 -68 2 -97c1 -23 2 -67 4 -93
c57 7 77 44 77 101z" />
    <glyph glyph-name="thorn" unicode="&#xfe;" horiz-adv-x="383" 
d="M368 190c0 -74 -15 -125 -44 -163c-33 -46 -68 -53 -102 -53c-10 0 -50 13 -68 24v-82c0 -26 2 -51 8 -96c-54 -2 -88 -5 -135 -16c-3 61 -1 230 -1 383c-1 100 -2 463 -2 463c39 1 89 4 128 14c-1 -12 -1 -231 -2 -240c16 4 69 7 84 7c21 0 34 -5 53 -13
c18 -8 34 -16 43 -28c27 -35 38 -58 38 -200zM232 188c0 89 -5 142 -40 142c-8 0 -31 -4 -39 -6c-1 -15 -2 -58 -2 -80c0 -44 1 -123 2 -146c12 -10 44 -16 53 -16c18 0 26 14 26 106z" />
    <glyph glyph-name="Zcaron" unicode="&#x17d;" horiz-adv-x="397" 
d="M380 116c-11 -60 -12 -79 -17 -121c-89 5 -262 7 -357 12c52 143 152 412 190 538c-23 0 -50 -1 -64 -2c-14 0 -54 1 -106 -2c13 59 14 79 19 129c73 -6 244 -16 332 -21c-19 -58 -150 -417 -190 -535c47 -1 118 0 193 2zM373 802l-137 -105l-53 2l-123 98l62 68l96 -72
l93 80z" />
    <glyph glyph-name="zcaron" unicode="&#x17e;" horiz-adv-x="373" 
d="M363 440c-40 -55 -81 -147 -87 -155c-7 -11 -61 -120 -91 -179c48 -6 125 -15 171 -15c-15 -50 -20 -76 -25 -111c-51 5 -143 19 -189 24c-38 4 -74 8 -140 8c39 71 131 251 140 268c8 14 22 45 26 60c-20 1 -59 2 -59 2l-74 7c11 44 14 69 14 112c69 -7 217 -18 314 -21
zM357 596l-137 -105l-53 2l-123 98l62 68l96 -72l93 80z" />
    <glyph glyph-name="onehalf" unicode="&#xbd;" 
d="M588 314l-76 -110l-129 67l149 -116l-81 -65l-90 130l92 -207l-148 -41l-24 239l-22 -229l-104 12l58 185l-89 -165l-101 81l183 193l-151 -74l-42 93l160 29l-163 34l33 101l154 -84l-194 140l86 113l144 -179l-85 243l120 -15l17 -182l16 126l86 -49l-52 -131l94 173
l105 -65l-161 -171l126 90l57 -91l-147 -42z" />
    <glyph glyph-name="onequarter" unicode="&#xbc;" 
d="M588 314l-76 -110l-129 67l149 -116l-81 -65l-90 130l92 -207l-148 -41l-24 239l-22 -229l-104 12l58 185l-89 -165l-101 81l183 193l-151 -74l-42 93l160 29l-163 34l33 101l154 -84l-194 140l86 113l144 -179l-85 243l120 -15l17 -182l16 126l86 -49l-52 -131l94 173
l105 -65l-161 -171l126 90l57 -91l-147 -42z" />
    <glyph glyph-name="onesuperior" unicode="&#xb9;" 
d="M588 314l-76 -110l-129 67l149 -116l-81 -65l-90 130l92 -207l-148 -41l-24 239l-22 -229l-104 12l58 185l-89 -165l-101 81l183 193l-151 -74l-42 93l160 29l-163 34l33 101l154 -84l-194 140l86 113l144 -179l-85 243l120 -15l17 -182l16 126l86 -49l-52 -131l94 173
l105 -65l-161 -171l126 90l57 -91l-147 -42z" />
    <glyph glyph-name="threequarters" unicode="&#xbe;" 
d="M588 314l-76 -110l-129 67l149 -116l-81 -65l-90 130l92 -207l-148 -41l-24 239l-22 -229l-104 12l58 185l-89 -165l-101 81l183 193l-151 -74l-42 93l160 29l-163 34l33 101l154 -84l-194 140l86 113l144 -179l-85 243l120 -15l17 -182l16 126l86 -49l-52 -131l94 173
l105 -65l-161 -171l126 90l57 -91l-147 -42z" />
    <glyph glyph-name="threesuperior" unicode="&#xb3;" 
d="M588 314l-76 -110l-129 67l149 -116l-81 -65l-90 130l92 -207l-148 -41l-24 239l-22 -229l-104 12l58 185l-89 -165l-101 81l183 193l-151 -74l-42 93l160 29l-163 34l33 101l154 -84l-194 140l86 113l144 -179l-85 243l120 -15l17 -182l16 126l86 -49l-52 -131l94 173
l105 -65l-161 -171l126 90l57 -91l-147 -42z" />
    <glyph glyph-name="twosuperior" unicode="&#xb2;" 
d="M588 314l-76 -110l-129 67l149 -116l-81 -65l-90 130l92 -207l-148 -41l-24 239l-22 -229l-104 12l58 185l-89 -165l-101 81l183 193l-151 -74l-42 93l160 29l-163 34l33 101l154 -84l-194 140l86 113l144 -179l-85 243l120 -15l17 -182l16 126l86 -49l-52 -131l94 173
l105 -65l-161 -171l126 90l57 -91l-147 -42z" />
    <glyph glyph-name="brokenbar" unicode="&#xa6;" 
d="M588 314l-76 -110l-129 67l149 -116l-81 -65l-90 130l92 -207l-148 -41l-24 239l-22 -229l-104 12l58 185l-89 -165l-101 81l183 193l-151 -74l-42 93l160 29l-163 34l33 101l154 -84l-194 140l86 113l144 -179l-85 243l120 -15l17 -182l16 126l86 -49l-52 -131l94 173
l105 -65l-161 -171l126 90l57 -91l-147 -42z" />
    <glyph glyph-name="minus" unicode="&#x2212;" 
d="M588 314l-76 -110l-129 67l149 -116l-81 -65l-90 130l92 -207l-148 -41l-24 239l-22 -229l-104 12l58 185l-89 -165l-101 81l183 193l-151 -74l-42 93l160 29l-163 34l33 101l154 -84l-194 140l86 113l144 -179l-85 243l120 -15l17 -182l16 126l86 -49l-52 -131l94 173
l105 -65l-161 -171l126 90l57 -91l-147 -42z" />
    <glyph glyph-name="multiply" unicode="&#xd7;" 
d="M588 314l-76 -110l-129 67l149 -116l-81 -65l-90 130l92 -207l-148 -41l-24 239l-22 -229l-104 12l58 185l-89 -165l-101 81l183 193l-151 -74l-42 93l160 29l-163 34l33 101l154 -84l-194 140l86 113l144 -179l-85 243l120 -15l17 -182l16 126l86 -49l-52 -131l94 173
l105 -65l-161 -171l126 90l57 -91l-147 -42z" />
    <glyph glyph-name="Adieresis" unicode="&#xc4;" horiz-adv-x="452" 
d="M452 15c-42 -7 -90 -18 -138 -31c-8 52 -20 109 -27 144c-1 3 -3 9 -3 12c-25 -2 -100 -4 -124 -5c-7 -37 -21 -109 -26 -152c-54 22 -92 37 -134 47c14 53 93 332 125 530c5 31 13 74 13 103c37 4 95 7 134 13c10 -47 165 -602 180 -661zM262 247c-5 23 -41 188 -48 219
c-6 -31 -30 -198 -34 -220c11 1 71 1 82 1zM357 781c0 -27 -25 -62 -64 -62c-45 0 -73 30 -73 59c0 22 22 60 72 60c41 0 65 -22 65 -57zM193 794c0 -42 -35 -71 -71 -71s-65 30 -65 66c0 40 35 61 65 61c37 0 71 -29 71 -56z" />
    <glyph glyph-name="Aring" unicode="&#xc5;" horiz-adv-x="452" 
d="M452 15c-42 -7 -90 -18 -138 -31c-8 52 -20 109 -27 144c-1 3 -3 9 -3 12c-25 -2 -100 -4 -124 -5c-7 -37 -21 -109 -26 -152c-54 22 -92 37 -134 47c14 53 93 332 125 530c5 31 13 74 13 103c37 4 95 7 134 13c10 -47 165 -602 180 -661zM262 247c-5 23 -41 188 -48 219
c-6 -31 -30 -198 -34 -220c11 1 71 1 82 1zM319 801c0 -52 -54 -99 -111 -99c-59 0 -112 50 -112 109c0 73 65 96 115 96c69 0 108 -46 108 -106zM252 813c0 15 -18 34 -35 34c-43 0 -56 -14 -56 -41c0 -23 20 -44 39 -44c33 0 52 11 52 51z" />
    <glyph glyph-name="Ccedilla" unicode="&#xc7;" horiz-adv-x="364" 
d="M345 113c-11 -48 -16 -73 -21 -120c-28 7 -54 15 -77 23l-15 -28c28 -8 58 -25 58 -56c0 -35 -25 -82 -134 -97l-30 58c37 9 72 16 72 35c0 15 -16 29 -79 35l53 84c-118 60 -152 148 -152 301c0 191 124 347 315 320c-2 -39 -2 -69 1 -104c-92 -7 -173 -44 -173 -217
c0 -147 42 -201 182 -234z" />
    <glyph glyph-name="Eacute" unicode="&#xc9;" horiz-adv-x="402" 
d="M373 121c-5 -42 -12 -78 -20 -127c-41 5 -92 5 -130 6c-67 2 -140 5 -202 6c1 65 9 192 11 297c3 130 -1 285 -2 357c49 3 114 6 138 6c33 0 144 -4 204 -4c-13 -48 -18 -84 -23 -125c-50 7 -117 9 -152 11c-8 1 -20 1 -28 1c0 -50 1 -85 1 -135c17 -1 47 -2 61 0
c8 1 54 5 104 5c0 -41 -2 -75 -2 -122c-43 1 -64 5 -105 9c-21 2 -42 3 -58 5c-3 -52 0 -129 1 -188h33c9 -1 107 -5 169 -2zM350 787l-180 -90l-64 65l150 114z" />
    <glyph glyph-name="Ntilde" unicode="&#xd1;" horiz-adv-x="460" 
d="M425 5c-52 4 -79 5 -118 8c-18 58 -104 245 -154 344v-67c-1 -90 2 -261 3 -288c-47 9 -87 15 -141 19c5 65 17 219 18 340c1 105 -6 235 -7 301c43 0 77 4 122 11c9 -54 101 -246 153 -356c0 54 0 178 -2 229c-1 29 -4 63 -11 105c54 4 85 7 137 17v-663zM386 778
c-22 -43 -64 -69 -111 -69c-12 0 -24 8 -37 15s-26 14 -43 14c-10 0 -35 -13 -59 -29l-67 75c30 32 82 55 111 55c19 0 36 -10 52 -19c13 -7 25 -13 38 -13c27 0 50 18 69 39z" />
    <glyph glyph-name="Odieresis" unicode="&#xd6;" horiz-adv-x="492" 
d="M472 346c0 -246 -146 -352 -236 -352c-102 0 -216 111 -216 350c0 252 72 326 219 326c112 0 233 -73 233 -324zM329 343c0 175 -49 209 -100 209c-43 0 -65 -48 -65 -203c0 -147 32 -233 85 -233c42 0 80 110 80 227zM387 768c0 -27 -25 -62 -64 -62
c-45 0 -73 30 -73 59c0 22 22 60 72 60c41 0 65 -22 65 -57zM223 781c0 -42 -35 -71 -71 -71s-65 30 -65 66c0 40 35 61 65 61c37 0 71 -29 71 -56z" />
    <glyph glyph-name="Udieresis" unicode="&#xdc;" horiz-adv-x="448" 
d="M415 432c0 -103 -1 -248 -1 -264c0 -169 -122 -174 -188 -174c-46 0 -115 15 -142 43c-35 35 -54 68 -54 122c0 23 1 203 -3 332c-2 55 -4 103 -5 174c61 -2 91 -1 149 6c-5 -98 0 -482 0 -506c0 -39 17 -53 61 -53c23 0 42 10 42 37c0 21 3 178 0 300
c-2 70 -1 145 -13 209c62 3 98 5 151 10c8 -108 3 -156 3 -236zM371 777c0 -27 -25 -62 -64 -62c-45 0 -73 30 -73 59c0 22 22 60 72 60c41 0 65 -22 65 -57zM207 790c0 -42 -35 -71 -71 -71s-65 30 -65 66c0 40 35 61 65 61c37 0 71 -29 71 -56z" />
    <glyph glyph-name="aacute" unicode="&#xe1;" horiz-adv-x="374" 
d="M354 14c-48 -11 -70 -16 -116 -37c-10 27 -13 45 -15 61c-25 -19 -66 -41 -98 -41c-43 0 -116 63 -116 145c0 42 7 93 62 117c51 22 115 40 145 48c1 20 -4 32 -12 36c-20 9 -51 12 -116 12c0 0 8 61 6 108c90 -10 139 -17 196 -39c35 -13 54 -57 54 -99
c0 -6 1 -131 1 -215c0 -32 4 -68 9 -96zM219 215c-15 -5 -46 -13 -54 -16c-25 -10 -36 -32 -36 -50c0 -23 12 -44 32 -44c18 0 47 14 57 26c1 9 1 64 1 84zM342 588l-180 -90l-64 65l150 114z" />
    <glyph glyph-name="agrave" unicode="&#xe0;" horiz-adv-x="374" 
d="M354 14c-48 -11 -70 -16 -116 -37c-10 27 -13 45 -15 61c-25 -19 -66 -41 -98 -41c-43 0 -116 63 -116 145c0 42 7 93 62 117c51 22 115 40 145 48c1 20 -4 32 -12 36c-20 9 -51 12 -116 12c0 0 8 61 6 108c90 -10 139 -17 196 -39c35 -13 54 -57 54 -99
c0 -6 1 -131 1 -215c0 -32 4 -68 9 -96zM219 215c-15 -5 -46 -13 -54 -16c-25 -10 -36 -32 -36 -50c0 -23 12 -44 32 -44c18 0 47 14 57 26c1 9 1 64 1 84zM291 559l-62 -72l-183 91l91 93z" />
    <glyph glyph-name="acircumflex" unicode="&#xe2;" horiz-adv-x="374" 
d="M354 14c-48 -11 -70 -16 -116 -37c-10 27 -13 45 -15 61c-25 -19 -66 -41 -98 -41c-43 0 -116 63 -116 145c0 42 7 93 62 117c51 22 115 40 145 48c1 20 -4 32 -12 36c-20 9 -51 12 -116 12c0 0 8 61 6 108c90 -10 139 -17 196 -39c35 -13 54 -57 54 -99
c0 -6 1 -131 1 -215c0 -32 4 -68 9 -96zM219 215c-15 -5 -46 -13 -54 -16c-25 -10 -36 -32 -36 -50c0 -23 12 -44 32 -44c18 0 47 14 57 26c1 9 1 64 1 84zM346 563l-63 -69l-96 70l-93 -77l-64 71l142 108l43 -2z" />
    <glyph glyph-name="adieresis" unicode="&#xe4;" horiz-adv-x="374" 
d="M354 14c-48 -11 -70 -16 -116 -37c-10 27 -13 45 -15 61c-25 -19 -66 -41 -98 -41c-43 0 -116 63 -116 145c0 42 7 93 62 117c51 22 115 40 145 48c1 20 -4 32 -12 36c-20 9 -51 12 -116 12c0 0 8 61 6 108c90 -10 139 -17 196 -39c35 -13 54 -57 54 -99
c0 -6 1 -131 1 -215c0 -32 4 -68 9 -96zM219 215c-15 -5 -46 -13 -54 -16c-25 -10 -36 -32 -36 -50c0 -23 12 -44 32 -44c18 0 47 14 57 26c1 9 1 64 1 84zM346 564c0 -27 -25 -62 -64 -62c-45 0 -73 30 -73 59c0 22 22 60 72 60c41 0 65 -22 65 -57zM182 577
c0 -42 -35 -71 -71 -71s-65 30 -65 66c0 40 35 61 65 61c37 0 71 -29 71 -56z" />
    <glyph glyph-name="atilde" unicode="&#xe3;" horiz-adv-x="374" 
d="M354 14c-48 -11 -70 -16 -116 -37c-10 27 -13 45 -15 61c-25 -19 -66 -41 -98 -41c-43 0 -116 63 -116 145c0 42 7 93 62 117c51 22 115 40 145 48c1 20 -4 32 -12 36c-20 9 -51 12 -116 12c0 0 8 61 6 108c90 -10 139 -17 196 -39c35 -13 54 -57 54 -99
c0 -6 1 -131 1 -215c0 -32 4 -68 9 -96zM219 215c-15 -5 -46 -13 -54 -16c-25 -10 -36 -32 -36 -50c0 -23 12 -44 32 -44c18 0 47 14 57 26c1 9 1 64 1 84zM352 575c-22 -43 -64 -69 -111 -69c-12 0 -24 8 -37 15s-26 14 -43 14c-10 0 -35 -13 -59 -29l-67 75
c30 32 82 55 111 55c19 0 36 -10 52 -19c13 -7 25 -13 38 -13c27 0 50 18 69 39z" />
    <glyph glyph-name="aring" unicode="&#xe5;" horiz-adv-x="374" 
d="M354 14c-48 -11 -70 -16 -116 -37c-10 27 -13 45 -15 61c-25 -19 -66 -41 -98 -41c-43 0 -116 63 -116 145c0 42 7 93 62 117c51 22 115 40 145 48c1 20 -4 32 -12 36c-20 9 -51 12 -116 12c0 0 8 61 6 108c90 -10 139 -17 196 -39c35 -13 54 -57 54 -99
c0 -6 1 -131 1 -215c0 -32 4 -68 9 -96zM219 215c-15 -5 -46 -13 -54 -16c-25 -10 -36 -32 -36 -50c0 -23 12 -44 32 -44c18 0 47 14 57 26c1 9 1 64 1 84zM314 595c0 -52 -54 -99 -111 -99c-59 0 -112 50 -112 109c0 73 65 96 115 96c69 0 108 -46 108 -106zM247 607
c0 15 -18 34 -35 34c-43 0 -56 -14 -56 -41c0 -23 20 -44 39 -44c33 0 52 11 52 51z" />
    <glyph glyph-name="ccedilla" unicode="&#xe7;" horiz-adv-x="347" 
d="M328 93c-16 -50 -23 -78 -28 -118c-31 5 -59 10 -85 17l-13 -24c28 -8 58 -25 58 -56c0 -35 -25 -82 -134 -97l-30 58c37 9 72 16 72 35c0 15 -16 29 -79 35l49 78c-86 43 -121 111 -121 210c0 60 16 118 44 151c44 52 89 73 237 91l15 -110c-51 -2 -82 -8 -88 -9
c-46 -13 -72 -47 -72 -114c0 -58 13 -120 88 -138c13 -2 31 -9 87 -9z" />
    <glyph glyph-name="eacute" unicode="&#xe9;" horiz-adv-x="380" 
d="M373 65c-28 -39 -129 -66 -169 -66c-129 0 -188 98 -188 225c0 193 88 229 188 229c96 0 148 -99 156 -254c-89 -7 -175 -9 -217 -11c-2 -46 32 -80 79 -80c15 0 57 7 115 34c10 -30 20 -49 36 -77zM233 278c-2 37 -14 82 -44 82c-28 0 -53 -42 -49 -86c12 -1 32 -1 38 0
c12 1 41 3 55 4zM330 577l-180 -90l-64 65l150 114z" />
    <glyph glyph-name="egrave" unicode="&#xe8;" horiz-adv-x="380" 
d="M373 65c-28 -39 -129 -66 -169 -66c-129 0 -188 98 -188 225c0 193 88 229 188 229c96 0 148 -99 156 -254c-89 -7 -175 -9 -217 -11c-2 -46 32 -80 79 -80c15 0 57 7 115 34c10 -30 20 -49 36 -77zM233 278c-2 37 -14 82 -44 82c-28 0 -53 -42 -49 -86c12 -1 32 -1 38 0
c12 1 41 3 55 4zM281 564l-62 -72l-183 91l91 93z" />
    <glyph glyph-name="ecircumflex" unicode="&#xea;" horiz-adv-x="380" 
d="M373 65c-28 -39 -129 -66 -169 -66c-129 0 -188 98 -188 225c0 193 88 229 188 229c96 0 148 -99 156 -254c-89 -7 -175 -9 -217 -11c-2 -46 32 -80 79 -80c15 0 57 7 115 34c10 -30 20 -49 36 -77zM233 278c-2 37 -14 82 -44 82c-28 0 -53 -42 -49 -86c12 -1 32 -1 38 0
c12 1 41 3 55 4zM340 548l-63 -69l-96 70l-93 -77l-64 71l142 108l43 -2z" />
    <glyph glyph-name="edieresis" unicode="&#xeb;" horiz-adv-x="380" 
d="M373 65c-28 -39 -129 -66 -169 -66c-129 0 -188 98 -188 225c0 193 88 229 188 229c96 0 148 -99 156 -254c-89 -7 -175 -9 -217 -11c-2 -46 32 -80 79 -80c15 0 57 7 115 34c10 -30 20 -49 36 -77zM233 278c-2 37 -14 82 -44 82c-28 0 -53 -42 -49 -86c12 -1 32 -1 38 0
c12 1 41 3 55 4zM341 550c0 -27 -25 -62 -64 -62c-45 0 -73 30 -73 59c0 22 22 60 72 60c41 0 65 -22 65 -57zM177 563c0 -42 -35 -71 -71 -71s-65 30 -65 66c0 40 35 61 65 61c37 0 71 -29 71 -56z" />
    <glyph glyph-name="iacute" unicode="&#xed;" horiz-adv-x="183" 
d="M161 9c-38 -2 -88 -8 -136 -19c4 90 2 247 2 257c0 12 -6 169 -6 217c42 -5 70 -5 138 -3c-4 -31 -4 -65 -5 -88c-1 -15 -2 -60 -2 -92c0 -22 0 -85 2 -140c2 -51 2 -93 7 -132zM257 586l-180 -90l-64 65l150 114z" />
    <glyph glyph-name="igrave" unicode="&#xec;" horiz-adv-x="183" 
d="M161 9c-38 -2 -88 -8 -136 -19c4 90 2 247 2 257c0 12 -6 169 -6 217c42 -5 70 -5 138 -3c-4 -31 -4 -65 -5 -88c-1 -15 -2 -60 -2 -92c0 -22 0 -85 2 -140c2 -51 2 -93 7 -132zM181 564l-62 -72l-183 91l91 93z" />
    <glyph glyph-name="icircumflex" unicode="&#xee;" horiz-adv-x="183" 
d="M161 9c-38 -2 -88 -8 -136 -19c4 90 2 247 2 257c0 12 -6 169 -6 217c42 -5 70 -5 138 -3c-4 -31 -4 -65 -5 -88c-1 -15 -2 -60 -2 -92c0 -22 0 -85 2 -140c2 -51 2 -93 7 -132zM252 567l-63 -69l-96 70l-93 -77l-64 71l142 108l43 -2z" />
    <glyph glyph-name="idieresis" unicode="&#xef;" horiz-adv-x="183" 
d="M161 9c-38 -2 -88 -8 -136 -19c4 90 2 247 2 257c0 12 -6 169 -6 217c42 -5 70 -5 138 -3c-4 -31 -4 -65 -5 -88c-1 -15 -2 -60 -2 -92c0 -22 0 -85 2 -140c2 -51 2 -93 7 -132zM246 569c0 -27 -25 -62 -64 -62c-45 0 -73 30 -73 59c0 22 22 60 72 60c41 0 65 -22 65 -57
zM82 582c0 -42 -35 -71 -71 -71s-65 30 -65 66c0 40 35 61 65 61c37 0 71 -29 71 -56z" />
    <glyph glyph-name="ntilde" unicode="&#xf1;" horiz-adv-x="399" 
d="M373 -2c-59 9 -84 12 -138 13c3 64 4 123 4 133c0 39 -2 123 -1 152c1 31 -7 45 -25 45c-16 0 -36 -9 -54 -18c2 -57 9 -270 16 -321c-50 -6 -88 -6 -142 -9c6 74 -9 300 -9 321c0 4 -5 97 -13 139c53 0 88 3 143 11v-47c30 19 76 31 115 31c65 0 104 -31 104 -131v-319z
M354 573c-22 -43 -64 -69 -111 -69c-12 0 -24 8 -37 15s-26 14 -43 14c-10 0 -35 -13 -59 -29l-67 75c30 32 82 55 111 55c19 0 36 -10 52 -19c13 -7 25 -13 38 -13c27 0 50 18 69 39z" />
    <glyph glyph-name="oacute" unicode="&#xf3;" horiz-adv-x="416" 
d="M401 261c0 -160 -99 -255 -196 -255c-64 0 -123 29 -155 87c-20 36 -35 74 -35 133c0 167 90 233 191 233c95 0 195 -46 195 -198zM266 235c0 80 -37 113 -71 113c-32 0 -50 -30 -50 -104c0 -71 32 -126 67 -126c32 0 54 43 54 117zM348 578l-180 -90l-64 65l150 114z
" />
    <glyph glyph-name="ograve" unicode="&#xf2;" horiz-adv-x="416" 
d="M401 261c0 -160 -99 -255 -196 -255c-64 0 -123 29 -155 87c-20 36 -35 74 -35 133c0 167 90 233 191 233c95 0 195 -46 195 -198zM266 235c0 80 -37 113 -71 113c-32 0 -50 -30 -50 -104c0 -71 32 -126 67 -126c32 0 54 43 54 117zM302 560l-62 -72l-183 91l91 93z" />
    <glyph glyph-name="ocircumflex" unicode="&#xf4;" horiz-adv-x="416" 
d="M401 261c0 -160 -99 -255 -196 -255c-64 0 -123 29 -155 87c-20 36 -35 74 -35 133c0 167 90 233 191 233c95 0 195 -46 195 -198zM266 235c0 80 -37 113 -71 113c-32 0 -50 -30 -50 -104c0 -71 32 -126 67 -126c32 0 54 43 54 117zM360 550l-63 -69l-96 70l-93 -77
l-64 71l142 108l43 -2z" />
    <glyph glyph-name="odieresis" unicode="&#xf6;" horiz-adv-x="416" 
d="M401 261c0 -160 -99 -255 -196 -255c-64 0 -123 29 -155 87c-20 36 -35 74 -35 133c0 167 90 233 191 233c95 0 195 -46 195 -198zM266 235c0 80 -37 113 -71 113c-32 0 -50 -30 -50 -104c0 -71 32 -126 67 -126c32 0 54 43 54 117zM359 555c0 -27 -25 -62 -64 -62
c-45 0 -73 30 -73 59c0 22 22 60 72 60c41 0 65 -22 65 -57zM195 568c0 -42 -35 -71 -71 -71s-65 30 -65 66c0 40 35 61 65 61c37 0 71 -29 71 -56z" />
    <glyph glyph-name="otilde" unicode="&#xf5;" horiz-adv-x="416" 
d="M401 261c0 -160 -99 -255 -196 -255c-64 0 -123 29 -155 87c-20 36 -35 74 -35 133c0 167 90 233 191 233c95 0 195 -46 195 -198zM266 235c0 80 -37 113 -71 113c-32 0 -50 -30 -50 -104c0 -71 32 -126 67 -126c32 0 54 43 54 117zM358 563c-22 -43 -64 -69 -111 -69
c-12 0 -24 8 -37 15s-26 14 -43 14c-10 0 -35 -13 -59 -29l-67 75c30 32 82 55 111 55c19 0 36 -10 52 -19c13 -7 25 -13 38 -13c27 0 50 18 69 39z" />
    <glyph glyph-name="uacute" unicode="&#xfa;" horiz-adv-x="397" 
d="M369 -15c-45 8 -85 13 -128 11l-5 33c-23 -9 -108 -26 -130 -26c-35 0 -58 22 -66 49c-7 24 -8 80 -8 109c0 42 -2 150 -3 169c-1 21 -4 68 -5 102c60 -5 92 -5 140 -2c0 -53 2 -278 2 -283c0 -23 5 -36 19 -36s42 10 51 16c0 45 1 157 -2 214c-1 25 0 80 -3 108
c42 6 79 12 138 28v-492zM324 574l-180 -90l-64 65l150 114z" />
    <glyph glyph-name="ugrave" unicode="&#xf9;" horiz-adv-x="397" 
d="M369 -15c-45 8 -85 13 -128 11l-5 33c-23 -9 -108 -26 -130 -26c-35 0 -58 22 -66 49c-7 24 -8 80 -8 109c0 42 -2 150 -3 169c-1 21 -4 68 -5 102c60 -5 92 -5 140 -2c0 -53 2 -278 2 -283c0 -23 5 -36 19 -36s42 10 51 16c0 45 1 157 -2 214c-1 25 0 80 -3 108
c42 6 79 12 138 28v-492zM287 560l-62 -72l-183 91l91 93z" />
    <glyph glyph-name="ucircumflex" unicode="&#xfb;" horiz-adv-x="397" 
d="M369 -15c-45 8 -85 13 -128 11l-5 33c-23 -9 -108 -26 -130 -26c-35 0 -58 22 -66 49c-7 24 -8 80 -8 109c0 42 -2 150 -3 169c-1 21 -4 68 -5 102c60 -5 92 -5 140 -2c0 -53 2 -278 2 -283c0 -23 5 -36 19 -36s42 10 51 16c0 45 1 157 -2 214c-1 25 0 80 -3 108
c42 6 79 12 138 28v-492zM348 563l-63 -69l-96 70l-93 -77l-64 71l142 108l43 -2z" />
    <glyph glyph-name="udieresis" unicode="&#xfc;" horiz-adv-x="397" 
d="M369 -15c-45 8 -85 13 -128 11l-5 33c-23 -9 -108 -26 -130 -26c-35 0 -58 22 -66 49c-7 24 -8 80 -8 109c0 42 -2 150 -3 169c-1 21 -4 68 -5 102c60 -5 92 -5 140 -2c0 -53 2 -278 2 -283c0 -23 5 -36 19 -36s42 10 51 16c0 45 1 157 -2 214c-1 25 0 80 -3 108
c42 6 79 12 138 28v-492zM334 562c0 -27 -25 -62 -64 -62c-45 0 -73 30 -73 59c0 22 22 60 72 60c41 0 65 -22 65 -57zM170 575c0 -42 -35 -71 -71 -71s-65 30 -65 66c0 40 35 61 65 61c37 0 71 -29 71 -56z" />
    <glyph glyph-name="degree" unicode="&#xb0;" horiz-adv-x="375" 
d="M361 507c0 -90 -67 -162 -166 -162c-82 0 -172 76 -172 158c0 101 65 172 139 172c112 0 199 -89 199 -168zM261 493c0 48 -28 97 -82 97c-28 0 -55 -30 -55 -70c0 -46 37 -88 79 -88c45 0 58 32 58 61z" />
    <glyph glyph-name="registered" unicode="&#xae;" horiz-adv-x="653" 
d="M633 322c0 -191 -140 -337 -341 -337c-162 0 -272 207 -272 362c0 148 117 323 288 323c169 0 325 -156 325 -348zM542 324c0 149 -102 271 -223 271c-131 0 -203 -115 -203 -239c0 -154 79 -297 187 -297c150 0 239 108 239 265zM478 190c-41 -18 -57 -28 -93 -48
c-33 74 -55 111 -73 143l-5 -1c0 -8 0 -37 1 -50c1 -26 2 -49 5 -88c-46 -3 -68 -6 -105 -8c5 45 5 66 5 92c0 16 2 134 2 194v95c32 3 63 3 83 3c117 0 168 -51 168 -108c0 -54 -27 -87 -62 -107c15 -29 44 -67 74 -117zM370 406c0 24 -22 36 -62 35c1 -43 1 -94 1 -94h3
c43 2 58 19 58 59z" />
    <glyph glyph-name="copyright" unicode="&#xa9;" horiz-adv-x="653" 
d="M633 319c0 -148 -127 -323 -298 -323c-161 0 -315 156 -315 348c0 191 130 337 331 337c148 0 282 -142 282 -362zM544 311c0 192 -93 296 -206 296c-150 0 -226 -129 -226 -265c0 -156 104 -271 212 -271c121 0 220 74 220 240zM432 213c-9 -30 -14 -49 -18 -84
c-188 29 -236 90 -236 212c0 111 39 206 177 206c18 0 38 -2 60 -6c-4 -33 -4 -52 0 -78c-98 2 -129 -29 -129 -124c0 -69 27 -112 146 -126z" />
    <glyph glyph-name="trademark" unicode="&#x2122;" horiz-adv-x="711" 
d="M686 191c-39 2 -72 5 -105 11c0 52 5 162 3 252c-12 -24 -51 -123 -63 -150c-23 6 -38 7 -55 7c-14 30 -50 135 -56 149c-3 -77 1 -177 3 -237c-40 -2 -59 -6 -101 -14c0 57 8 176 11 327c1 35 1 74 3 110c33 0 63 0 90 3c8 -21 19 -48 27 -65c17 -40 44 -103 57 -136
c12 25 33 81 45 111c9 24 23 57 32 79c28 5 47 8 92 20zM304 642c-9 -30 -13 -63 -15 -93c-25 0 -63 3 -89 6c3 -53 8 -180 10 -272c1 -43 1 -16 -1 -73c-41 0 -72 6 -115 6c6 54 9 67 10 135c2 76 0 160 -1 211c-6 -1 -12 -1 -18 -1c-19 0 -41 1 -80 1c12 33 17 63 17 93
c34 -4 48 -6 62 -7c74 -3 175 -6 220 -6z" />
    <glyph glyph-name="notequal" unicode="&#x2260;" 
d="M588 314l-76 -110l-129 67l149 -116l-81 -65l-90 130l92 -207l-148 -41l-24 239l-22 -229l-104 12l58 185l-89 -165l-101 81l183 193l-151 -74l-42 93l160 29l-163 34l33 101l154 -84l-194 140l86 113l144 -179l-85 243l120 -15l17 -182l16 126l86 -49l-52 -131l94 173
l105 -65l-161 -171l126 90l57 -91l-147 -42z" />
    <glyph glyph-name="infinity" unicode="&#x221e;" 
d="M588 314l-76 -110l-129 67l149 -116l-81 -65l-90 130l92 -207l-148 -41l-24 239l-22 -229l-104 12l58 185l-89 -165l-101 81l183 193l-151 -74l-42 93l160 29l-163 34l33 101l154 -84l-194 140l86 113l144 -179l-85 243l120 -15l17 -182l16 126l86 -49l-52 -131l94 173
l105 -65l-161 -171l126 90l57 -91l-147 -42z" />
    <glyph glyph-name="plusminus" unicode="&#xb1;" 
d="M588 314l-76 -110l-129 67l149 -116l-81 -65l-90 130l92 -207l-148 -41l-24 239l-22 -229l-104 12l58 185l-89 -165l-101 81l183 193l-151 -74l-42 93l160 29l-163 34l33 101l154 -84l-194 140l86 113l144 -179l-85 243l120 -15l17 -182l16 126l86 -49l-52 -131l94 173
l105 -65l-161 -171l126 90l57 -91l-147 -42z" />
    <glyph glyph-name="lessequal" unicode="&#x2264;" 
d="M588 314l-76 -110l-129 67l149 -116l-81 -65l-90 130l92 -207l-148 -41l-24 239l-22 -229l-104 12l58 185l-89 -165l-101 81l183 193l-151 -74l-42 93l160 29l-163 34l33 101l154 -84l-194 140l86 113l144 -179l-85 243l120 -15l17 -182l16 126l86 -49l-52 -131l94 173
l105 -65l-161 -171l126 90l57 -91l-147 -42z" />
    <glyph glyph-name="greaterequal" unicode="&#x2265;" 
d="M588 314l-76 -110l-129 67l149 -116l-81 -65l-90 130l92 -207l-148 -41l-24 239l-22 -229l-104 12l58 185l-89 -165l-101 81l183 193l-151 -74l-42 93l160 29l-163 34l33 101l154 -84l-194 140l86 113l144 -179l-85 243l120 -15l17 -182l16 126l86 -49l-52 -131l94 173
l105 -65l-161 -171l126 90l57 -91l-147 -42z" />
    <glyph glyph-name="mu" unicode="&#xb5;" 
d="M588 314l-76 -110l-129 67l149 -116l-81 -65l-90 130l92 -207l-148 -41l-24 239l-22 -229l-104 12l58 185l-89 -165l-101 81l183 193l-151 -74l-42 93l160 29l-163 34l33 101l154 -84l-194 140l86 113l144 -179l-85 243l120 -15l17 -182l16 126l86 -49l-52 -131l94 173
l105 -65l-161 -171l126 90l57 -91l-147 -42z" />
    <glyph glyph-name="partialdiff" unicode="&#x2202;" 
d="M588 314l-76 -110l-129 67l149 -116l-81 -65l-90 130l92 -207l-148 -41l-24 239l-22 -229l-104 12l58 185l-89 -165l-101 81l183 193l-151 -74l-42 93l160 29l-163 34l33 101l154 -84l-194 140l86 113l144 -179l-85 243l120 -15l17 -182l16 126l86 -49l-52 -131l94 173
l105 -65l-161 -171l126 90l57 -91l-147 -42z" />
    <glyph glyph-name="summation" unicode="&#x2211;" 
d="M588 314l-76 -110l-129 67l149 -116l-81 -65l-90 130l92 -207l-148 -41l-24 239l-22 -229l-104 12l58 185l-89 -165l-101 81l183 193l-151 -74l-42 93l160 29l-163 34l33 101l154 -84l-194 140l86 113l144 -179l-85 243l120 -15l17 -182l16 126l86 -49l-52 -131l94 173
l105 -65l-161 -171l126 90l57 -91l-147 -42z" />
    <glyph glyph-name="product" unicode="&#x220f;" 
d="M588 314l-76 -110l-129 67l149 -116l-81 -65l-90 130l92 -207l-148 -41l-24 239l-22 -229l-104 12l58 185l-89 -165l-101 81l183 193l-151 -74l-42 93l160 29l-163 34l33 101l154 -84l-194 140l86 113l144 -179l-85 243l120 -15l17 -182l16 126l86 -49l-52 -131l94 173
l105 -65l-161 -171l126 90l57 -91l-147 -42z" />
    <glyph glyph-name="pi" unicode="&#x3c0;" horiz-adv-x="653" 
d="M633 347c0 -173 -134 -362 -282 -362c-201 0 -331 146 -331 337c0 192 154 348 315 348c171 0 298 -175 298 -323zM542 355c0 124 -103 240 -218 240c-124 0 -212 -121 -212 -271c0 -136 77 -265 227 -265c113 0 203 124 203 296zM477 389c0 -62 -64 -131 -153 -147
c0 -36 2 -62 7 -97c-52 -13 -111 -21 -111 -21c0 77 2 117 0 232c-2 57 -6 121 -14 160c44 11 61 14 83 14c99 0 188 -20 188 -141zM376 394c0 41 -18 53 -55 51c0 -17 1 -45 2 -62c0 -12 1 -44 1 -60c40 9 52 29 52 71z" />
    <glyph glyph-name="integral" unicode="&#x222b;" 
d="M588 314l-76 -110l-129 67l149 -116l-81 -65l-90 130l92 -207l-148 -41l-24 239l-22 -229l-104 12l58 185l-89 -165l-101 81l183 193l-151 -74l-42 93l160 29l-163 34l33 101l154 -84l-194 140l86 113l144 -179l-85 243l120 -15l17 -182l16 126l86 -49l-52 -131l94 173
l105 -65l-161 -171l126 90l57 -91l-147 -42z" />
    <glyph glyph-name="Omega" unicode="&#x3a9;" 
d="M588 314l-76 -110l-129 67l149 -116l-81 -65l-90 130l92 -207l-148 -41l-24 239l-22 -229l-104 12l58 185l-89 -165l-101 81l183 193l-151 -74l-42 93l160 29l-163 34l33 101l154 -84l-194 140l86 113l144 -179l-85 243l120 -15l17 -182l16 126l86 -49l-52 -131l94 173
l105 -65l-161 -171l126 90l57 -91l-147 -42z" />
    <glyph glyph-name="logicalnot" unicode="&#xac;" 
d="M588 314l-76 -110l-129 67l149 -116l-81 -65l-90 130l92 -207l-148 -41l-24 239l-22 -229l-104 12l58 185l-89 -165l-101 81l183 193l-151 -74l-42 93l160 29l-163 34l33 101l154 -84l-194 140l86 113l144 -179l-85 243l120 -15l17 -182l16 126l86 -49l-52 -131l94 173
l105 -65l-161 -171l126 90l57 -91l-147 -42z" />
    <glyph glyph-name="radical" unicode="&#x221a;" horiz-adv-x="435" 
d="M424 647c-69 -141 -100 -218 -111 -263c-12 -53 -18 -174 -22 -365c0 0 -85 -19 -127 -38c0 0 -115 163 -164 220c0 0 77 46 106 79c27 -55 63 -112 78 -139c-7 96 -3 222 8 266c18 68 43 146 98 276c0 0 81 -30 134 -36z" />
    <glyph glyph-name="approxequal" unicode="&#x2248;" 
d="M588 314l-76 -110l-129 67l149 -116l-81 -65l-90 130l92 -207l-148 -41l-24 239l-22 -229l-104 12l58 185l-89 -165l-101 81l183 193l-151 -74l-42 93l160 29l-163 34l33 101l154 -84l-194 140l86 113l144 -179l-85 243l120 -15l17 -182l16 126l86 -49l-52 -131l94 173
l105 -65l-161 -171l126 90l57 -91l-147 -42z" />
    <glyph glyph-name="Delta" unicode="&#x394;" 
d="M588 314l-76 -110l-129 67l149 -116l-81 -65l-90 130l92 -207l-148 -41l-24 239l-22 -229l-104 12l58 185l-89 -165l-101 81l183 193l-151 -74l-42 93l160 29l-163 34l33 101l154 -84l-194 140l86 113l144 -179l-85 243l120 -15l17 -182l16 126l86 -49l-52 -131l94 173
l105 -65l-161 -171l126 90l57 -91l-147 -42z" />
    <glyph glyph-name="nbspace" unicode="&#xa0;" horiz-adv-x="75" 
 />
    <glyph glyph-name="Agrave" unicode="&#xc0;" horiz-adv-x="452" 
d="M452 15c-42 -7 -90 -18 -138 -31c-8 52 -20 109 -27 144c-1 3 -3 9 -3 12c-25 -2 -100 -4 -124 -5c-7 -37 -21 -109 -26 -152c-54 22 -92 37 -134 47c14 53 93 332 125 530c5 31 13 74 13 103c37 4 95 7 134 13c10 -47 165 -602 180 -661zM262 247c-5 23 -41 188 -48 219
c-6 -31 -30 -198 -34 -220c11 1 71 1 82 1zM287 773l-62 -72l-183 91l91 93z" />
    <glyph glyph-name="Atilde" unicode="&#xc3;" horiz-adv-x="452" 
d="M452 15c-42 -7 -90 -18 -138 -31c-8 52 -20 109 -27 144c-1 3 -3 9 -3 12c-25 -2 -100 -4 -124 -5c-7 -37 -21 -109 -26 -152c-54 22 -92 37 -134 47c14 53 93 332 125 530c5 31 13 74 13 103c37 4 95 7 134 13c10 -47 165 -602 180 -661zM262 247c-5 23 -41 188 -48 219
c-6 -31 -30 -198 -34 -220c11 1 71 1 82 1zM358 782c-22 -43 -64 -69 -111 -69c-12 0 -24 8 -37 15s-26 14 -43 14c-10 0 -35 -13 -59 -29l-67 75c30 32 82 55 111 55c19 0 36 -10 52 -19c13 -7 25 -13 38 -13c27 0 50 18 69 39z" />
    <glyph glyph-name="Otilde" unicode="&#xd5;" horiz-adv-x="492" 
d="M472 346c0 -246 -146 -352 -236 -352c-102 0 -216 111 -216 350c0 252 72 326 219 326c112 0 233 -73 233 -324zM329 343c0 175 -49 209 -100 209c-43 0 -65 -48 -65 -203c0 -147 32 -233 85 -233c42 0 80 110 80 227zM391 772c-22 -43 -64 -69 -111 -69
c-12 0 -24 8 -37 15s-26 14 -43 14c-10 0 -35 -13 -59 -29l-67 75c30 32 82 55 111 55c19 0 36 -10 52 -19c13 -7 25 -13 38 -13c27 0 50 18 69 39z" />
    <glyph glyph-name="divide" unicode="&#xf7;" 
d="M588 314l-76 -110l-129 67l149 -116l-81 -65l-90 130l92 -207l-148 -41l-24 239l-22 -229l-104 12l58 185l-89 -165l-101 81l183 193l-151 -74l-42 93l160 29l-163 34l33 101l154 -84l-194 140l86 113l144 -179l-85 243l120 -15l17 -182l16 126l86 -49l-52 -131l94 173
l105 -65l-161 -171l126 90l57 -91l-147 -42z" />
    <glyph glyph-name="lozenge" unicode="&#x25ca;" 
d="M588 314l-76 -110l-129 67l149 -116l-81 -65l-90 130l92 -207l-148 -41l-24 239l-22 -229l-104 12l58 185l-89 -165l-101 81l183 193l-151 -74l-42 93l160 29l-163 34l33 101l154 -84l-194 140l86 113l144 -179l-85 243l120 -15l17 -182l16 126l86 -49l-52 -131l94 173
l105 -65l-161 -171l126 90l57 -91l-147 -42z" />
    <glyph glyph-name="ydieresis" unicode="&#xff;" horiz-adv-x="412" 
d="M411 429c-27 -69 -193 -551 -213 -619c-52 14 -62 20 -128 25c31 65 72 185 83 218c-5 17 -24 57 -30 75c-12 36 -100 250 -122 301c57 13 82 19 129 42c27 -69 60 -219 84 -287c24 77 56 243 63 285c51 -22 82 -31 134 -40zM354 573c0 -27 -25 -62 -64 -62
c-45 0 -73 30 -73 59c0 22 22 60 72 60c41 0 65 -22 65 -57zM190 586c0 -42 -35 -71 -71 -71s-65 30 -65 66c0 40 35 61 65 61c37 0 71 -29 71 -56z" />
    <glyph glyph-name="Ydieresis" unicode="&#x178;" horiz-adv-x="462" 
d="M460 627c-48 -109 -122 -277 -145 -337c1 -46 7 -210 3 -287c-50 3 -101 4 -159 4c10 75 14 185 16 270c-32 75 -129 264 -174 350c63 12 97 23 154 46c15 -56 60 -187 86 -248c18 56 54 176 68 252c63 -26 92 -37 151 -50zM376 771c0 -27 -25 -62 -64 -62
c-45 0 -73 30 -73 59c0 22 22 60 72 60c41 0 65 -22 65 -57zM212 784c0 -42 -35 -71 -71 -71s-65 30 -65 66c0 40 35 61 65 61c37 0 71 -29 71 -56z" />
    <glyph glyph-name="Acircumflex" unicode="&#xc2;" horiz-adv-x="452" 
d="M452 15c-42 -7 -90 -18 -138 -31c-8 52 -20 109 -27 144c-1 3 -3 9 -3 12c-25 -2 -100 -4 -124 -5c-7 -37 -21 -109 -26 -152c-54 22 -92 37 -134 47c14 53 93 332 125 530c5 31 13 74 13 103c37 4 95 7 134 13c10 -47 165 -602 180 -661zM262 247c-5 23 -41 188 -48 219
c-6 -31 -30 -198 -34 -220c11 1 71 1 82 1zM364 770l-63 -69l-96 70l-93 -77l-64 71l142 108l43 -2z" />
    <glyph glyph-name="Ecircumflex" unicode="&#xca;" horiz-adv-x="402" 
d="M373 121c-5 -42 -12 -78 -20 -127c-41 5 -92 5 -130 6c-67 2 -140 5 -202 6c1 65 9 192 11 297c3 130 -1 285 -2 357c49 3 114 6 138 6c33 0 144 -4 204 -4c-13 -48 -18 -84 -23 -125c-50 7 -117 9 -152 11c-8 1 -20 1 -28 1c0 -50 1 -85 1 -135c17 -1 47 -2 61 0
c8 1 54 5 104 5c0 -41 -2 -75 -2 -122c-43 1 -64 5 -105 9c-21 2 -42 3 -58 5c-3 -52 0 -129 1 -188h33c9 -1 107 -5 169 -2zM354 769l-63 -69l-96 70l-93 -77l-64 71l142 108l43 -2z" />
    <glyph glyph-name="Aacute" unicode="&#xc1;" horiz-adv-x="452" 
d="M452 15c-42 -7 -90 -18 -138 -31c-8 52 -20 109 -27 144c-1 3 -3 9 -3 12c-25 -2 -100 -4 -124 -5c-7 -37 -21 -109 -26 -152c-54 22 -92 37 -134 47c14 53 93 332 125 530c5 31 13 74 13 103c37 4 95 7 134 13c10 -47 165 -602 180 -661zM262 247c-5 23 -41 188 -48 219
c-6 -31 -30 -198 -34 -220c11 1 71 1 82 1zM359 790l-180 -90l-64 65l150 114z" />
    <glyph glyph-name="Edieresis" unicode="&#xcb;" horiz-adv-x="402" 
d="M373 121c-5 -42 -12 -78 -20 -127c-41 5 -92 5 -130 6c-67 2 -140 5 -202 6c1 65 9 192 11 297c3 130 -1 285 -2 357c49 3 114 6 138 6c33 0 144 -4 204 -4c-13 -48 -18 -84 -23 -125c-50 7 -117 9 -152 11c-8 1 -20 1 -28 1c0 -50 1 -85 1 -135c17 -1 47 -2 61 0
c8 1 54 5 104 5c0 -41 -2 -75 -2 -122c-43 1 -64 5 -105 9c-21 2 -42 3 -58 5c-3 -52 0 -129 1 -188h33c9 -1 107 -5 169 -2zM344 766c0 -27 -25 -62 -64 -62c-45 0 -73 30 -73 59c0 22 22 60 72 60c41 0 65 -22 65 -57zM180 779c0 -42 -35 -71 -71 -71s-65 30 -65 66
c0 40 35 61 65 61c37 0 71 -29 71 -56z" />
    <glyph glyph-name="Egrave" unicode="&#xc8;" horiz-adv-x="402" 
d="M373 121c-5 -42 -12 -78 -20 -127c-41 5 -92 5 -130 6c-67 2 -140 5 -202 6c1 65 9 192 11 297c3 130 -1 285 -2 357c49 3 114 6 138 6c33 0 144 -4 204 -4c-13 -48 -18 -84 -23 -125c-50 7 -117 9 -152 11c-8 1 -20 1 -28 1c0 -50 1 -85 1 -135c17 -1 47 -2 61 0
c8 1 54 5 104 5c0 -41 -2 -75 -2 -122c-43 1 -64 5 -105 9c-21 2 -42 3 -58 5c-3 -52 0 -129 1 -188h33c9 -1 107 -5 169 -2zM291 766l-62 -72l-183 91l91 93z" />
    <glyph glyph-name="Iacute" unicode="&#xcd;" horiz-adv-x="198" 
d="M177 654c-3 -83 -12 -415 -9 -669c-63 12 -88 15 -136 15c2 113 -1 484 -5 672c59 -11 93 -14 150 -18zM278 789l-180 -90l-64 65l150 114z" />
    <glyph glyph-name="Icircumflex" unicode="&#xce;" horiz-adv-x="198" 
d="M177 654c-3 -83 -12 -415 -9 -669c-63 12 -88 15 -136 15c2 113 -1 484 -5 672c59 -11 93 -14 150 -18zM260 774l-63 -69l-96 70l-93 -77l-64 71l142 108l43 -2z" />
    <glyph glyph-name="Idieresis" unicode="&#xcf;" horiz-adv-x="198" 
d="M177 654c-3 -83 -12 -415 -9 -669c-63 12 -88 15 -136 15c2 113 -1 484 -5 672c59 -11 93 -14 150 -18zM260 766c0 -27 -25 -62 -64 -62c-45 0 -73 30 -73 59c0 22 22 60 72 60c41 0 65 -22 65 -57zM96 779c0 -42 -35 -71 -71 -71s-65 30 -65 66c0 40 35 61 65 61
c37 0 71 -29 71 -56z" />
    <glyph glyph-name="Igrave" unicode="&#xcc;" horiz-adv-x="198" 
d="M177 654c-3 -83 -12 -415 -9 -669c-63 12 -88 15 -136 15c2 113 -1 484 -5 672c59 -11 93 -14 150 -18zM190 770l-62 -72l-183 91l91 93z" />
    <glyph glyph-name="Oacute" unicode="&#xd3;" horiz-adv-x="492" 
d="M472 346c0 -246 -146 -352 -236 -352c-102 0 -216 111 -216 350c0 252 72 326 219 326c112 0 233 -73 233 -324zM329 343c0 175 -49 209 -100 209c-43 0 -65 -48 -65 -203c0 -147 32 -233 85 -233c42 0 80 110 80 227zM374 786l-180 -90l-64 65l150 114z" />
    <glyph glyph-name="Ocircumflex" unicode="&#xd4;" horiz-adv-x="492" 
d="M472 346c0 -246 -146 -352 -236 -352c-102 0 -216 111 -216 350c0 252 72 326 219 326c112 0 233 -73 233 -324zM329 343c0 175 -49 209 -100 209c-43 0 -65 -48 -65 -203c0 -147 32 -233 85 -233c42 0 80 110 80 227zM393 762l-63 -69l-96 70l-93 -77l-64 71l142 108
l43 -2z" />
    <glyph glyph-name="apple" unicode="&#xf8ff;" 
d="M588 314l-76 -110l-129 67l149 -116l-81 -65l-90 130l92 -207l-148 -41l-24 239l-22 -229l-104 12l58 185l-89 -165l-101 81l183 193l-151 -74l-42 93l160 29l-163 34l33 101l154 -84l-194 140l86 113l144 -179l-85 243l120 -15l17 -182l16 126l86 -49l-52 -131l94 173
l105 -65l-161 -171l126 90l57 -91l-147 -42z" />
    <glyph glyph-name="Ograve" unicode="&#xd2;" horiz-adv-x="492" 
d="M472 346c0 -246 -146 -352 -236 -352c-102 0 -216 111 -216 350c0 252 72 326 219 326c112 0 233 -73 233 -324zM329 343c0 175 -49 209 -100 209c-43 0 -65 -48 -65 -203c0 -147 32 -233 85 -233c42 0 80 110 80 227zM338 771l-62 -72l-183 91l91 93z" />
    <glyph glyph-name="Uacute" unicode="&#xda;" horiz-adv-x="448" 
d="M415 432c0 -103 -1 -248 -1 -264c0 -169 -122 -174 -188 -174c-46 0 -115 15 -142 43c-35 35 -54 68 -54 122c0 23 1 203 -3 332c-2 55 -4 103 -5 174c61 -2 91 -1 149 6c-5 -98 0 -482 0 -506c0 -39 17 -53 61 -53c23 0 42 10 42 37c0 21 3 178 0 300
c-2 70 -1 145 -13 209c62 3 98 5 151 10c8 -108 3 -156 3 -236zM385 784l-180 -90l-64 65l150 114z" />
    <glyph glyph-name="Ucircumflex" unicode="&#xdb;" horiz-adv-x="448" 
d="M415 432c0 -103 -1 -248 -1 -264c0 -169 -122 -174 -188 -174c-46 0 -115 15 -142 43c-35 35 -54 68 -54 122c0 23 1 203 -3 332c-2 55 -4 103 -5 174c61 -2 91 -1 149 6c-5 -98 0 -482 0 -506c0 -39 17 -53 61 -53c23 0 42 10 42 37c0 21 3 178 0 300
c-2 70 -1 145 -13 209c62 3 98 5 151 10c8 -108 3 -156 3 -236zM375 771l-63 -69l-96 70l-93 -77l-64 71l142 108l43 -2z" />
    <glyph glyph-name="Ugrave" unicode="&#xd9;" horiz-adv-x="448" 
d="M415 432c0 -103 -1 -248 -1 -264c0 -169 -122 -174 -188 -174c-46 0 -115 15 -142 43c-35 35 -54 68 -54 122c0 23 1 203 -3 332c-2 55 -4 103 -5 174c61 -2 91 -1 149 6c-5 -98 0 -482 0 -506c0 -39 17 -53 61 -53c23 0 42 10 42 37c0 21 3 178 0 300
c-2 70 -1 145 -13 209c62 3 98 5 151 10c8 -108 3 -156 3 -236zM314 766l-62 -72l-183 91l91 93z" />
    </font>
</defs>
</svg>
