<?xml version="1.0" standalone="no"?>
<!DOCTYPE svg PUBLIC "-//W3C//DTD SVG 1.1//EN" "http://www.w3.org/Graphics/SVG/1.1/DTD/svg11.dtd" >
<svg xmlns="http://www.w3.org/2000/svg" xmlns:xlink="http://www.w3.org/1999/xlink" version="1.1">
<metadata>
Created by FontForge 20170924 at Wed Apr  3 17:32:48 2013
 By www-data
Copyright (c) 2005, 2006 Nick Curtis. All Rights Reserved. Distributed under the 1001Fonts Free For Personal Use License (FFP) http://www.1001fonts.com/licenses/ffp.html - PayPal donations in any amount may be made at nicksfonts.com.
</metadata>
<defs>
<font id="PossumSaltareNF" horiz-adv-x="249" >
  <font-face 
    font-family="Possum Saltare NF"
    font-weight="400"
    font-stretch="normal"
    units-per-em="1000"
    panose-1="2 10 6 3 3 3 1 2 1 4"
    ascent="850"
    descent="-150"
    x-height="723"
    cap-height="722"
    bbox="-74 -273 1029 1041"
    underline-thickness="45"
    underline-position="-31"
    unicode-range="U+0020-FB02"
  />
<missing-glyph horiz-adv-x="250" 
 />
    <glyph glyph-name=".notdef" horiz-adv-x="250" 
 />
    <glyph glyph-name=".null" horiz-adv-x="0" 
 />
    <glyph glyph-name="nonmarkingreturn" horiz-adv-x="333" 
 />
    <glyph glyph-name="space" unicode=" " horiz-adv-x="250" 
 />
    <glyph glyph-name="exclam" unicode="!" 
d="M225 721l-18 -22l-19 -22l-21 -19l2 -30l-2 -29l3 -29l1 -30l1 -29l-1 -29l-3 -29l3 -29l-3 -29l5 -29l-3 -30l-4 -28l7 -29l-5 -29l6 -29l-5 -28v-27l-32 -1l-32 4l-29 -2v29l-2 29l-1 30l5 29l-6 29l3 29l-3 30l3 29l-3 28v30l1 29l-1 29l7 29l-2 28l2 28l-5 30l2 26
l-19 19l-16 23l-17 23l31 -6l29 8l29 -4l28 4l29 -1l28 -4zM205 64l-21 -21l-21 -20l-18 -21l-21 -18l-23 19l-16 24l-24 16l-15 23l18 19l20 21l20 19l20 17l22 -16l15 -25l22 -18z" />
    <glyph glyph-name="quotedbl" unicode="&#x22;" horiz-adv-x="470" 
d="M446 802l-14 -27l-17 -23l-12 -27l-16 -24l-8 -29l-19 -22l-10 -26l-13 -26l-16 -23l-9 -27l-15 -20l-30 -6l-32 3l-31 -1l13 30l6 29l9 27l9 28l10 28l16 26l9 28l8 27l10 28l6 26l30 -4h29l29 3l29 -2zM266 802l-14 -27l-17 -23l-12 -27l-16 -24l-8 -29l-19 -22
l-10 -26l-13 -26l-16 -23l-9 -27l-15 -20l-30 -6l-32 3l-31 -1l13 30l6 29l9 27l9 28l10 28l16 26l9 28l8 27l10 28l6 26l30 -4h29l29 3l29 -2z" />
    <glyph glyph-name="numbersign" unicode="#" horiz-adv-x="427" 
d="M403 719l-23 -23l-17 -24l-3 -28l7 -28l-2 -28l-6 -28l1 -29l7 -28l-3 -26l15 -33l14 -38l-28 16l-26 10l-26 11l-25 8l-22 10l27 31l-10 14l-12 14l-22 19l-25 16l-26 14l-22 22l-24 16l-20 15l-4 -29l1 -30l-2 -30l6 -30l-1 -30l-3 -30l6 -30l-6 -29l5 -30l-3 -29
l-4 -29l2 -30l4 -27l20 -24l19 -24l-31 3h-30l-30 -6h-29l-27 3l18 23l16 24l-2 29v29l4 29l-2 29l-1 30l3 29l-2 29l-2 30l2 29l4 29l-4 29l2 29l-4 28l5 28v28l-17 25l-21 21l32 -1l32 1l31 1l31 -2h28l-20 -24l21 -18l25 -15l20 -21l26 -13l23 -17l22 -22l-2 31l3 27
l-4 25l-19 26l-19 21h29l30 -1l30 6l29 -4zM293 310l-15 -23l-24 -22l-34 46l16 20l18 23l22 -21zM371 317l-6 -33l-10 -31l-17 -28l-25 -20l-30 -11l-22 -10l-12 4l-26 4l-27 17l-25 20l-30 56l2 32l6 29l5 31l16 28l28 16l28 9l28 7l32 -1l30 -13l24 -21l14 -27l7 -29z
M302 316l-2 30l-18 23l-21 7l-7 -2l-29 -3l-14 -27l-8 -28l10 -29l12 -29l29 -9l27 13l16 26zM384 162l-5 -35l2 -33l-30 4l-30 -4h-31l-30 3l-30 -5l-30 -1l-29 -1h-30h-29l-30 6h-29l-26 -2l-2 33v33l1 -3l31 5l29 -3l31 1h30l30 3l30 -3l29 3l30 -4l29 2l30 -2l29 -2z
" />
    <glyph glyph-name="dollar" unicode="$" horiz-adv-x="460" 
d="M436 723l-13 -31l-8 -30l-12 -29l-10 -30l-6 -30l-16 -27l-5 -32l-9 -29l-9 -28l-13 -28l-6 -28l-3 -2l17 -23l21 -22l17 -24l5 -29l14 -26l5 -28l8 -27l-5 -28l1 -31l-7 -31l-12 -28l-18 -25l-20 -24l-27 -14l-24 -18l-29 -9l-28 -10l-28 1l-20 -1l-9 -27l-2 -25l10 -32
l-34 4l-31 -1l-30 -4l-31 1l25 23l23 20l9 29l5 28l-21 15l-24 11l-32 2l-30 4l12 22l21 18l17 22l18 21l16 21l12 25l15 -25l13 -22l13 -18l16 25l5 29l11 27l12 27l1 31l10 27l13 25l6 26l-16 21l-15 25l-23 19l-11 28l-20 22l-8 28l-12 27l-2 28l-6 28l6 29l6 27l14 26
l12 27l23 20l23 16l27 9l28 8h27l30 5l29 -6l30 7l29 -6zM336 637l-26 -2l-32 -1l-30 -15l-21 -27v-32v-30l18 -23l17 -25l14 -20l13 27l10 30l5 31l14 27l10 30zM300 215l-3 26l-17 23l-9 -30l-9 -30l-11 -28l-9 -28l-3 -31l-13 -24l1 -2l25 10l23 16l17 20l5 28l2 25z" />
    <glyph glyph-name="percent" unicode="%" horiz-adv-x="566" 
d="M542 597l-19 -24l-29 -15l-29 -13l-30 -10l-28 -1l-4 -30l5 -31l-2 -31l-2 -31l1 -28l19 22l23 16l21 -17l19 -21l19 -19l-21 -20l-19 -20l-19 -21l-25 22l-18 23l3 -31l-4 -30v-30v-16l2 -13l20 -25l19 -22l-29 -1l-30 3l-30 -2l-30 -5l-29 3l20 24l19 23l-3 32l4 31
l-5 31l4 32l2 30l-7 31l6 31l-2 30v30l2 31l-23 1l-14 -24l-16 -20l-16 -21l-24 -21l-26 -16l-28 -13l-28 -13l-26 -13l-1 -29l-2 -29l1 -28l4 -29l-6 -28l2 -28l23 -22l16 -24l-27 3l-30 -2l-30 -3l-30 -2l-26 4l17 23l18 23v30l-3 30l7 29l-8 30l4 29l-2 30v29l-1 29l7 29
l-6 30l-1 29l6 30l-3 30l-2 29l2 27l-21 21l-15 26l25 -3l26 4l25 1l36 -4l35 2l30 -2l31 -1l28 -14l23 -20l24 -19l7 -30l5 -31l27 3l23 -4l29 7l28 -1l28 2l26 12l23 20l16 -20zM247 599l-13 20l-20 18l-25 8l-25 3l-34 3l3 -33l-2 -32l2 -32l-2 -31l3 -31l1 -30l25 17
l28 13l23 19l16 15l4 11l-33 -1l-21 -24l-20 -12l-1 30l-4 34l3 32l30 4l33 -4zM310 221l-19 -22l-10 -23l-15 2l-28 2l-25 12l-26 13l-17 23l-18 23l-3 28l-9 26l9 30l11 28l14 28l26 15l26 15l29 6l39 -5l-2 -33l4 -33l-2 -32l-18 27l-30 14l-29 -14l-11 -23l-3 -24l5 -27
l16 -21l21 -17l26 3l39 3v-24zM497 92l-33 1l-29 2l-29 -5l-30 4l-30 3l-29 -2l-30 3l-30 -2l-29 -3l-29 1l-30 1l-29 -3h-28h-29l-28 -1l-29 2l-2 34l1 34l32 2l30 -5l29 5l30 1l29 -1l30 -1l30 1l29 -1l30 -1l29 1l29 -1l29 1h29l28 -3l28 2l28 -1l2 -33z" />
    <glyph glyph-name="ampersand" unicode="&#x26;" horiz-adv-x="466" 
d="M442 377l-4 -25l-29 -2l-30 -1l-28 -2l-29 -1l-29 4l3 -30v-30l-5 -29v-29l5 -30v-29l-2 -29l-2 -29l-1 -28l1 -29l2 -29l1 -26l16 -24l20 -17l-27 -18l-28 -14l-27 -15l-28 -14l-29 -9l-27 -18l10 33l7 31l13 29l3 30l6 29l-3 30l-4 29l7 31v30l-6 29l-1 29l3 30l-3 29
l5 30l-1 29l-3 26l-14 1l-3 32l-5 31l-9 31l31 3l1 28l3 30l-29 -18l-18 -25l-15 -27l-11 -29l-8 -30l-4 -30l-5 -29v-31l6 -32l7 -29l15 -28l15 -26l14 -27l18 -25l-25 -21l-18 -23l-19 -25l-21 23l-12 27l-18 24l-12 27l-9 27l-12 26l-10 27l-6 28l4 29l-4 28l-1 30l3 31
l10 29l3 30l11 29l16 26l17 26l15 27l23 20l25 18l26 13l28 10l-1 22l-18 22l-17 19l29 12l27 16l27 14l26 18l28 12l24 12l-9 -28l-4 -32l-10 -30l-5 -17l-7 -11l1 -28l31 -8l25 -16l22 -19l20 -21l14 -25l14 -26l11 -27l3 -29l3 -29zM333 444l-12 22l-7 26l-17 11v-29v-28
z" />
    <glyph glyph-name="quotesingle" unicode="'" horiz-adv-x="290" 
d="M266 802l-14 -27l-17 -23l-12 -27l-16 -24l-8 -29l-19 -22l-10 -26l-13 -26l-16 -23l-9 -27l-15 -20l-30 -6l-32 3l-31 -1l13 30l6 29l9 27l9 28l10 28l16 26l9 28l8 27l10 28l6 26h18l12 -4h29l29 3l29 -2z" />
    <glyph glyph-name="parenleft" unicode="(" horiz-adv-x="349" 
d="M325 48l-13 -27l-16 -26l-11 -27l-13 -28l-12 -25l-3 -1l-25 15l-21 21l-26 15l-19 22l-21 21l-21 21l-14 26l-16 24l-14 26l-11 27l-11 27l-7 27l-12 27l-5 29v29l-3 28l-5 28l2 27l-1 30l-3 29l11 29l-1 30l10 27l2 31l15 26l7 28l14 26l13 25l15 27l20 20l19 22l21 19
l20 22l24 17l24 16l24 18l17 -32l15 -30l-27 -15l-19 -23l-19 -21l-22 -20l-14 -26l-12 -26l-11 -26l-16 -25l-7 -28l-7 -28l-4 -28v-28l-4 -29l-5 -26l7 -31l1 -29l7 -29l6 -29l8 -28l10 -28l16 -25l19 -23l12 -27l20 -22l23 -18l26 -14l21 -18z" />
    <glyph glyph-name="parenright" unicode=")" horiz-adv-x="349" 
d="M325 307l-11 -29l1 -30l-10 -27l-2 -31l-15 -26l-7 -28l-14 -26l-13 -25l-15 -27l-20 -20l-19 -22l-21 -19l-20 -22l-24 -17l-24 -16l-24 -18l-17 32l-15 30l27 15l19 23l19 21l22 20l14 26l12 26l11 26l16 25l7 28l7 28l4 28v28l4 29l5 26l-7 31l-1 29l-7 29l-6 29
l-8 28l-10 28l-16 25l-19 23l-12 27l-20 22l-23 18l-26 14l-21 18l-22 16l13 27l16 26l11 27l13 28l12 25l3 1l25 -15l21 -21l26 -15l19 -22l21 -21l21 -21l14 -26l16 -24l14 -26l11 -27l11 -27l7 -27l12 -27l5 -29v-29l3 -28l5 -28l-2 -27l1 -30z" />
    <glyph glyph-name="asterisk" unicode="*" horiz-adv-x="454" 
d="M430 593l-20 2l-24 -3l-23 2l-23 -3l-21 1l18 -22l17 -15l16 -17l15 -17l10 -10l-32 -24l-19 -27l-12 13l-17 15l-17 18l-15 17l-19 23l-2 -36l2 -23l-1 -23l-3 -23l1 -14l-39 6l-33 -6l1 18l-2 23l1 24l2 23l2 30l-7 -9l-18 -15l-16 -17l-17 -16l-17 -15l-10 -9l-24 30
l-27 20l13 12l15 18l18 15l17 16l22 19l-35 2l-23 -2h-23l-23 2h-14l6 39l-6 34l18 -1l23 1h24l23 -2l34 -2l-26 22l-17 15l-17 16l-16 15l-10 16l35 23l16 28l12 -15l19 -15l15 -18l18 -15l18 -18l-1 27l-3 23v23l-1 22l5 19l41 -9l30 9l-2 -20l4 -24l-2 -23l2 -23v-27
l18 21l15 18l15 17l16 16l16 11l36 -27l15 -24l-15 -13l-15 -19l-18 -15l-15 -18l-19 -20l28 3l23 2l23 1h22l19 -4l-9 -41z" />
    <glyph glyph-name="plus" unicode="+" horiz-adv-x="572" 
d="M548 313l-26 2l-30 -4l-30 2l-30 -2h-31h-30l-30 1h-6l1 -17l-4 -30l2 -29l-3 -30l2 -30l-1 -30l-3 -30l1 -18l-51 7l-42 -7l1 23l-2 30v30l3 31l4 30l-4 30l-2 30l2 9l-18 -1l-30 4l-30 -2l-30 3l-30 -2l-29 1l-31 3h-17l7 50l-7 43l22 -1l31 1h30l30 -2l30 -4l30 3
l30 2l12 -2l3 14l1 30v29l-3 30l-3 29l-1 30l-1 29l6 24l54 -10l39 10l-3 -25l4 -31l-2 -30l3 -30l-1 -30l1 -30l-2 -31v-8l13 -2l30 -2l29 1l29 3l30 2l29 1l29 1l25 -6l-11 -53z" />
    <glyph glyph-name="comma" unicode="," horiz-adv-x="202" 
d="M178 71l-13 -26l-12 -27l-16 -24l-7 -29l-14 -26l-14 -26l-32 15l-28 18l14 22l13 23l5 22l-26 24l-24 27l21 22l22 18l17 23l21 13l27 -19l21 -28z" />
    <glyph glyph-name="hyphen" unicode="-" horiz-adv-x="211" 
d="M187 357l-24 -19l-19 -20l-18 -22l-20 -19l-21 21l-18 22l-24 16l-19 21l21 22l21 19l21 18l19 24l17 -26l21 -20l24 -16z" />
    <glyph glyph-name="period" unicode="." horiz-adv-x="212" 
d="M188 64l-24 -19l-19 -20l-18 -22l-20 -19l-21 21l-18 22l-24 16l-20 21l22 22l21 19l21 18l19 24l17 -26l21 -20l24 -16z" />
    <glyph glyph-name="slash" unicode="/" horiz-adv-x="477" 
d="M453 720l-14 -22l-14 -23l-15 -22l-14 -21l-11 -28l-7 -28l-8 -29l-8 -29l-13 -27l-6 -30l-7 -29l-13 -27l-7 -29l-13 -27l-8 -29l-10 -27l-5 -30l-13 -27l-9 -28l-3 -30l-9 -28l-13 -26l-7 -29l-5 -29l-14 -26l-7 -28l-12 -27l-5 -26l16 -29l14 -31h-35l-31 3h-32l-32 1
l-32 -2l-27 2l18 17l18 21l15 22l20 18l4 31l15 27l4 30l10 28l5 30l9 29l14 27l6 30l14 27l7 28l5 30l12 28l5 29l9 29l8 28l15 27l8 29l6 30l9 27l11 28l5 30l7 29l12 25l7 27l-10 30l-14 26l29 -2l30 6l30 1l30 -5l30 4z" />
    <glyph glyph-name="zero" unicode="0" horiz-adv-x="391" 
d="M367 322l-3 -29l-1 -30l-2 -29l-4 -29l-8 -29l-12 -27l-11 -27l-9 -27l-8 -29l-16 -24l-25 -16l-19 -21l-27 -8l-26 -4l-29 4l-27 11l-22 20l-19 22l-15 26l-13 26l-8 28l-11 27l-12 28l-5 29l-2 30l-3 30l-3 29l2 30l-5 29v30l3 29l6 30l2 29l5 28l1 30l11 28l8 28
l15 25l11 27l17 23l17 23l24 16l25 12q8 -1 15 -1q2 0 12 3h30l27 -15l24 -18l16 -25l16 -25l11 -27l14 -26l8 -29l9 -28v-30l10 -28l5 -30l-4 -30l1 -30l2 -29zM268 303l-4 30l4 29v30l-2 29v29l-9 30l-2 28l-3 29l-5 29l-13 26l-16 23l-22 12q-5 -3 -24 -15l-15 -26
l-11 -27l-7 -29v-30l-11 -28l-4 -30l1 -30l2 -30l-2 -30l1 -30l-1 -29l8 -29l-2 -30l6 -27l4 -30l12 -26l8 -27l10 -27l25 -5l28 7l13 28l5 30l14 27l4 29l2 30l2 30z" />
    <glyph glyph-name="one" unicode="1" horiz-adv-x="262" 
d="M25 596l-1 -2v2h1zM238 54l-26 -17l-28 -12l-25 -19l-31 -9l-27 -13l-26 -18l8 32l14 30l1 32l15 27l-7 31l3 30l-3 30l1 30v30l6 30l-2 31l-1 30l-1 30l1 30l-3 29l1 30l-2 31v29l5 30l1 30l-3 26l-29 2l-29 -4l-26 4l18 21l24 19l19 23l18 22l18 22l19 21h33l28 -4
l4 -29l-1 -30l-2 -30l3 -30v-30v-30l-3 -30l-2 -31l5 -30l-6 -29l3 -31l4 -30l-2 -30l-4 -30v-30l4 -30l-2 -30v-30l-1 -30l1 -29v-28l20 -20z" />
    <glyph glyph-name="two" unicode="2" horiz-adv-x="337" 
d="M313 521l-2 -28v-30l-3 -30l-8 -29l-8 -29l-17 -25l-12 -26l-13 -27l-13 -27l-14 -26l-17 -24l-17 -25l-14 -27l-15 -25l-16 -20l22 -21l25 -18l30 -7l30 -7l30 -4l9 -32l6 -32l-33 -8l-30 -5l-30 -3l-32 -3l-28 13l-30 7l-26 15l-27 16l-17 24l-19 16l16 27l18 24l17 24
l12 29l19 24l19 24l15 27l14 27l13 28l13 28l14 26l10 29l5 29l9 28l4 27l-6 28l-4 28l-17 23l-17 22l-26 10l-25 10l-30 5l-29 -1l21 25l21 23l17 28l19 24l19 25l18 25l28 -23l19 -23l18 -24l20 -22l12 -26l12 -26l7 -29l6 -28z" />
    <glyph glyph-name="three" unicode="3" horiz-adv-x="356" 
d="M332 647l-20 -26l-22 -21l-17 -24l-16 -25l-17 -24l-14 -25l-20 -21l16 -26l13 -27l12 -28l10 -28l7 -29l12 -28l-2 -32l3 -30l-6 -31l-3 -30l-10 -29l-15 -27l-13 -27l-10 -29l-21 -21l-18 -25l-22 -18l-26 -14l-23 -18l-24 -14l-27 -5l-21 27l-14 29l33 17l29 11l20 23
l25 19l15 28l10 28l15 28l5 30l-5 30l2 31l-3 29l-9 28l-7 29l-13 28l-16 26l-22 18l-17 21l18 25l21 24l15 28l20 23l16 27l20 24l-24 17l-23 16l-19 20l-19 16l21 23l20 26l19 26l24 20l25 -16l22 -21l23 -19l20 -20l19 -22z" />
    <glyph glyph-name="four" unicode="4" horiz-adv-x="498" 
d="M474 464l-11 -30l-16 -26l-12 -29l-22 -24l-11 -28l-13 -29l-21 22l-21 15h-14l-1 -31l-1 -30l-2 -31l5 -30v-30l-5 -30v-30l1 -30l21 -20l13 -19l-25 -15l-27 -15l-27 -16l-30 -10l-25 -15l-26 -16l12 30l8 31l5 31l11 29l-4 32l-1 32l4 31l-5 31l2 31l-2 31l3 30l3 32
l-35 1h-32l-31 -3h-31l-31 3l-31 -5l-8 28l-17 24l24 22l14 27l19 23l15 25l18 24l18 24l15 26l18 23l15 25l19 23l19 23l14 26l16 24l19 20l33 1l33 1l-4 -31l-1 -29l5 -30l-5 -30l4 -29l3 -30l-2 -29l-4 -29l6 -29l-3 -30l23 -1l30 9l31 12l30 6zM241 464l-7 33l5 32
l-2 30l-20 -24l-21 -26l-14 -29l-20 -25l-18 -27l32 1l32 -2l28 4z" />
    <glyph glyph-name="five" unicode="5" horiz-adv-x="506" 
d="M482 623l-22 -15l-26 -13l-24 -17l-27 -11l-23 -13l-22 14l-23 16l-22 15l-17 -21l-17 -12l7 -31l14 -27l6 -30l12 -28l4 -31l3 -30l2 -31l-8 -29l-2 -30l-7 -27l-9 -28l-9 -28l-13 -26l-8 -28l-20 -22l-16 -24l-18 -23l-18 -22l-20 -21l-23 -17l-21 -20l-19 -18l-24 -18
l-25 26l-23 27l27 19l21 23l24 20l20 24l14 29l24 22l12 29l15 26l9 30l6 29l3 28l4 29l-3 29l-6 28l-3 29l-10 27l-12 27l-15 24l-8 27l-20 22l22 22l24 19l26 17l19 24l24 19l25 17l20 22l21 23l24 13l25 -18l27 -16l25 -19l29 -14l23 -20z" />
    <glyph glyph-name="six" unicode="6" horiz-adv-x="423" 
d="M399 217l-7 -31l2 -31l-9 -28l-14 -27l-14 -26l-16 -26l-20 -23l-24 -18l-28 -13l-30 -4l-28 -2l-31 -1l-28 14l-28 12l-25 17l-20 23l-22 22l-13 28l-6 31l-4 29l-8 29l-2 29l3 33l7 32l7 31l11 30l16 29l10 28l17 28l22 24l18 26l22 23l17 26l23 21l14 28l19 26l19 24
l15 26l14 27l9 29l1 27l31 4l32 6l7 -28l-6 -29v-28l-6 -29l-12 -26l-7 -29l-18 -23l-11 -27l-21 -21l-16 -24l-12 -22l-2 1l1 -3l1 2l27 -12l26 -18l19 -25l18 -24l21 -22l14 -28l8 -29l5 -30l9 -29zM304 240l-6 29l-6 28l-13 25l-15 24l-18 24l-22 17l-26 9l-16 -20
l-10 -28l-18 -23l-10 -27l-8 -28l-4 -28l-4 -29l4 -29l6 -29l8 -29l18 -23l26 -13l25 -9l29 1l25 18l18 25l7 29l7 28l2 29z" />
    <glyph glyph-name="seven" unicode="7" horiz-adv-x="438" 
d="M414 637l-20 -15l-29 -14l-23 -20l-20 -25l-23 -21l-19 -23l-18 -26l-17 -27l-7 -29l-10 -28l-16 -26l-7 -29l-1 -29l-4 -29v-30l-8 -29v-29l1 -29l4 -28l1 -29l10 -28v-29l2 -29l9 -28l7 -27l-33 -16l-34 -15l-8 39l-6 29l-13 27l-7 29l3 30l-12 28l3 30l-3 29l-7 28v29
v28l6 29v28l5 27l7 29l6 30l11 29l11 26l6 30l14 27l19 24l14 25l13 27l20 22l-34 3l-33 -6l-33 -2l-30 -8l-33 -2l-28 -12l-26 -6l14 24l14 28l11 29l15 28l14 26l15 23l21 -16l18 -18l32 2l32 3l30 -6l31 6h31l30 -5l30 3l29 -1l5 -29l10 -27z" />
    <glyph glyph-name="eight" unicode="8" horiz-adv-x="389" 
d="M365 655l-1 -4l-23 -22l-19 -27l-16 -27l-21 -25l-14 -29l-19 -22l13 -28l15 -26l13 -28l15 -28l15 -27l8 -29l5 -30l8 -30l4 -30l2 -29l-4 -32v-31l-8 -31l-9 -31l-19 -26l-15 -26l-19 -24l-27 -14l-28 -11l-28 -9l-31 5l-27 16l-23 19l-25 20l-13 28l-13 28l-8 30
l-11 29l-3 31l-2 29l3 31l5 31l3 31l7 30l15 27l12 28l11 29l10 29l14 27l21 23l-19 27l-22 23l-18 25l-20 26l-17 28l-18 24l17 22l6 26l16 20h30l29 1l29 -1l30 -4l28 -1l30 4l28 2l30 -6l27 4l17 -22l6 -26zM228 623h-36h-29l15 -21l15 -17l19 17zM254 214l-8 29l1 31
l-5 30l-16 27l-3 30l-17 25l-10 24l-15 -26l-18 -25l-6 -30l-6 -30l-9 -28l-4 -29l-4 -28l-1 -33l10 -31l11 -28l11 -30l28 -13l29 15l12 29l8 30l7 31z" />
    <glyph glyph-name="nine" unicode="9" horiz-adv-x="425" 
d="M401 497l-4 -29l-5 -28l-7 -29l-6 -27l-14 -25l-7 -28l-18 -21l-15 -28l-19 -27l-20 -24l-20 -25l-19 -24l-17 -26l-24 -20l-16 -28l-17 -26l-14 -27l-14 -26l-7 -29l-3 -29l-31 -7l-33 1h-2v1l-4 28l-1 30l6 29l4 29l9 27l16 25l10 26l16 24l15 24l18 21l21 23l-32 9
l-29 13l-25 18l-20 25l-17 25l-7 31l-9 29l-13 28l-3 31l3 30l4 30l-2 31l14 26l5 30l19 24l16 26l17 26l25 17l29 9l29 7l28 9l30 -7l30 -7l27 -15l24 -19l18 -22l21 -21l12 -26l11 -27l8 -28l8 -29zM293 499l-4 27l-6 26l-5 27l-17 20l-22 23l-28 17l-32 -8l-29 -16
l-15 -28l-6 -29l-7 -29l-5 -29l-1 -29l9 -29l5 -28l12 -27l18 -22l14 -25l24 -16l26 -8l16 20l12 27l17 24l7 28l9 27l1 29zM70 -36l-1 1h1v-1z" />
    <glyph glyph-name="colon" unicode=":" horiz-adv-x="212" 
d="M188 357l-24 -19l-19 -20l-18 -22l-20 -19l-21 21l-18 22l-24 16l-19 21l21 22l21 19l21 18l19 24l17 -26l21 -20l24 -16zM188 64l-24 -19l-19 -20l-18 -22l-20 -19l-21 21l-18 22l-24 16l-20 21l22 22l21 19l21 18l19 24l17 -26l21 -20l24 -16z" />
    <glyph glyph-name="semicolon" unicode=";" horiz-adv-x="211" 
d="M187 357l-24 -19l-19 -20l-18 -22l-20 -19l-21 21l-18 22l-24 16l-19 21l21 22l21 19l21 18l19 24l17 -26l21 -20l24 -16zM178 71l-13 -26l-12 -27l-16 -24l-7 -29l-14 -26l-14 -26l-32 15l-28 18l14 22l13 23l5 22l-26 24l-24 27l21 22l22 18l17 23l21 13l27 -19l21 -28
z" />
    <glyph glyph-name="less" unicode="&#x3c;" horiz-adv-x="544" 
d="M520 245l-18 -23l-14 -24l-14 -25l-15 -24l-13 -27l-18 -22l-12 -28l-12 25l-4 28l-12 24l-25 13l-22 18l-25 16l-28 13l-26 15l-24 17l-28 13l-24 17l-28 12l-24 18l-27 13l-25 17l-25 16l-33 16l12 36l-9 25v39l30 19l25 16l25 17l27 13l24 18l28 12l24 17l28 13l24 17
l26 15l28 13l25 16l22 17l25 14l12 24l4 28l12 25l12 -28l18 -22l13 -27l15 -24l14 -25l14 -24l18 -23l-30 3l-29 5l-26 9l-25 -18l-25 -17l-27 -14l-25 -18l-26 -15l-27 -13l-27 -13l-24 -18l-25 -17l-28 -11l-25 -16l-18 -17l18 -16l25 -16l28 -11l25 -17l24 -18l27 -13
l27 -13l26 -15l25 -18l27 -14l25 -17l25 -18l26 9l29 5z" />
    <glyph glyph-name="equal" unicode="=" horiz-adv-x="572" 
d="M548 399l-26 2l-30 -4l-30 3l-30 -3h-31h-30l-30 1h-30l-30 -2l-30 3l-30 -3l-30 4l-30 -2l-30 4l-30 -2h-29l-31 3h-17l7 51l-7 42l22 -1l31 2l30 -1l30 -2l30 -4l30 3l30 2l30 -5h30l30 7l30 -6l30 -1h29l29 3l30 3h29l29 1l25 -5l-11 -54zM548 232l-22 1l-31 -2l-30 1
l-30 2l-30 4l-30 -4l-30 -2l-30 5h-30l-30 -6l-30 6l-30 1h-29l-30 -3l-29 -3l-29 -1h-30l-24 5l11 54l-11 39l26 -2l30 3l30 -2l30 3l31 -1l30 1l30 -2l30 1l30 1l30 -2l30 2l30 -4l30 3l30 -4l30 2h29l31 -4l17 1l-7 -51z" />
    <glyph glyph-name="greater" unicode="&#x3e;" horiz-adv-x="544" 
d="M520 465l-12 -36l9 -25v-39l-30 -19l-25 -16l-25 -17l-27 -13l-24 -18l-28 -12l-24 -17l-28 -13l-24 -17l-26 -15l-28 -13l-25 -16l-22 -17l-25 -14l-12 -24l-4 -28l-12 -25l-12 28l-18 22l-13 27l-15 24l-14 25l-14 24l-18 23l30 -3l29 -5l26 -9l25 18l25 17l27 14
l25 18l26 15l27 13l27 13l24 18l25 17l28 11l25 16l18 17l-18 16l-25 16l-28 11l-25 17l-24 18l-27 13l-27 13l-26 15l-25 18l-27 14l-25 17l-25 18l-26 -9l-29 -5l-30 -3l18 23l14 24l14 25l15 24l13 27l18 22l12 28l12 -25l4 -28l12 -24l25 -13l22 -18l25 -16l28 -13
l26 -15l24 -17l28 -13l24 -17l28 -12l24 -18l27 -13l25 -17l25 -16z" />
    <glyph glyph-name="question" unicode="?" horiz-adv-x="310" 
d="M286 446l-3 -31l-8 -29l-3 -31l-9 -29l-7 -30l-15 -28l-17 -26l-7 -31l-12 -27l-15 -24l-23 8l-25 10l-23 6l10 32l19 25l6 31l15 27l6 30l12 27l2 31l9 29l2 30l-7 30l-6 29l-13 27l-16 25l-25 11l-26 10l-27 2h-27l-29 1l20 26l15 28l19 26l9 30l19 27l15 26l27 -22
l27 -15l19 -23l23 -19l18 -22l15 -25l8 -28l8 -28l13 -26l6 -27l-2 -32zM218 64l-20 -18l-16 -24l-24 -16l-18 -21l-19 21l-21 19l-18 22l-20 18l20 19l19 22l18 20l21 18l18 -22l24 -17l20 -20z" />
    <glyph glyph-name="at" unicode="@" horiz-adv-x="576" 
d="M552 27l-31 5l-31 4l-28 -10l-28 -8l-27 -11l-29 2l-29 -7l-28 -4l-29 1l-28 7l-27 9l-26 11l-27 8l-23 12l-21 22l-25 17l-14 28l-18 24l-14 26l-12 28l-11 28l-11 29v30l-9 29l-1 31l-1 29l1 30l7 29l4 29l6 29l8 29l9 29l13 26l15 26l13 27l21 21l20 20l22 21l28 10
l25 16l29 6l29 5l27 -1l31 3l29 -8l29 -9l26 -16l21 -23l21 -21l16 -24l21 -24l8 -29l11 -27l6 -29l12 -29l-1 -29l7 -29l3 -30l-8 -29l-3 -29l-7 -30l-9 -27l-6 -30l-16 -25l-19 -23l-20 -20l-17 -25l-27 -13l-26 -13l-28 -6l-28 1h-29l-30 1l-28 11l-22 21l-24 17l-15 26
l-13 26l-6 28l-7 29v29l8 29l9 28l17 24l19 22l23 19l25 10l-18 26l-15 28l-15 29l-8 31l35 9l33 15l12 -23l16 -22l16 -22l18 -20l13 -23l22 -21l20 -21l19 -23l10 -28l9 -27l11 -27l3 -22l5 23l3 30l5 29v30l2 30l-8 28l-6 28l-6 30l-19 23l-12 27l-20 22l-23 18l-29 3
l-28 5l-30 1l-27 -14l-27 -12l-26 -16l-19 -23l-15 -25l-15 -25l-5 -30l-8 -29l-8 -27l-7 -28l-2 -28l1 -31l5 -32l2 -31l5 -31l16 -27l13 -29l17 -26l17 -26l27 -14l24 -14l24 -17l30 -1l28 -3h29l29 -1l28 7l27 7l26 11l14 22l19 18l10 23l5 -29l14 -25l10 -26l9 -25
l5 -27zM345 283l-10 28l-4 28l-12 26l-16 22l2 -3l-26 -14l-17 -24l-7 -29l-8 -28l3 -28l10 -27l19 -20l27 -1l21 16l9 27z" />
    <glyph glyph-name="A" unicode="A" horiz-adv-x="693" 
d="M669 -3l-31 2l-27 -4l-29 2l-29 -1l-29 6l-29 -3l10 24l16 25l-11 26l-9 30l-10 29l-16 28l-2 32l-15 28l-12 29l-8 29l-24 -15l-24 -16l-21 -20l-28 -14l-26 -15l-22 -23l-29 -13l-23 -20l-25 -17l-26 -16l-12 -30l-7 -33l10 -23l15 -27l-30 4l-28 -5h-29l-28 2l-29 1
l-28 1l18 16l20 22l21 22l5 28l7 28l16 25l4 28l13 27l12 27l10 27l4 30l14 26l6 29l11 27l12 27l9 28l10 28l14 26l6 29l12 26l6 29l8 29l15 26l11 27l9 28l11 28l9 27l26 -2l29 3l12 -24l5 -29l11 -26l7 -28l12 -26l10 -28l13 -27l10 -27l4 -30l12 -26l12 -28l10 -27
l8 -28l10 -28l9 -28l9 -28l12 -27l12 -26l11 -28l7 -28l12 -28l9 -28l9 -28l13 -26l15 -22l21 -20zM409 365l-11 27l-5 26l-8 27l-11 26l-11 26l-6 27l-13 21l-9 -22l-7 -27l-11 -27l-8 -28l-13 -26l-12 -27l-5 -29l-8 -29l-14 -26l-5 -29l-11 -24l20 14l24 16l27 14l24 19
l21 21l25 17z" />
    <glyph glyph-name="B" unicode="B" horiz-adv-x="558" 
d="M534 206l-3 -30l-2 -31l-13 -28l-15 -27l-20 -22l-23 -18l-23 -19l-27 -13l-27 -12l-31 -2l-29 -7h-28l-30 3l-30 -3l-29 5l-30 -5h-31l-30 -2l-30 5h-28l-31 -2l22 24l24 21l21 21l-3 29l6 31l-7 30l5 30l-5 29l6 30v30l-7 30l1 30l4 30l-1 29l4 31l-7 30l4 30l-4 29
l2 30l-2 29v29l2 29l-2 26l-13 25l-18 22l-18 17l29 1l29 5l29 -1h30l30 -4l30 -1l27 4l28 -6l31 1l29 -7l30 -9l26 -17l21 -21l19 -22l19 -24l12 -28l6 -29l2 -29l-8 -29l-6 -29l-6 -28l-21 -22l-12 -26l-23 -17l29 -11l27 -16l27 -16l22 -21l13 -28l13 -27l14 -27v-29z
M373 526l-3 29l-11 27l-19 22l-19 18l-20 20l-29 6l-26 5l-27 3l-34 3l4 -33l-8 -29l6 -30l1 -30l-2 -28v-29l-2 -29l3 -28l-1 -26l26 -1l27 4l29 -4l28 13l24 18l22 18l14 26l6 28zM435 170l-1 30l-2 30l-11 28l-17 27l-25 20l-28 12h-30l-27 2l-28 3l-28 -1l-27 -1h-25
l1 -30l-5 -29l4 -30l2 -29l1 -30l-6 -29v-27l17 -27l29 -15l32 -9l32 3l31 3l31 7l30 12l23 23l15 28z" />
    <glyph glyph-name="C" unicode="C" horiz-adv-x="577" 
d="M553 680l-1 -3l-17 -24l-19 -22l-19 -24l-18 -23l-19 25l-23 15l-24 12l-26 8l-27 -4l-29 -2l-31 2l-28 -10l-28 -9l-23 -18l-25 -17l-16 -24l-16 -23l-20 -22l-5 -29l-8 -28l-6 -28l-6 -28l-4 -26l9 -30l-3 -30l6 -29l6 -28l16 -26l12 -25l13 -26l17 -24l20 -20l27 -13
l21 -20l27 -9l28 -8l27 -6l27 -1l33 2l31 11l27 18l23 21l20 19l18 -22l12 -27l10 -28l10 -25l-23 -17l-26 -11l-27 -9l-27 -5l-26 -11h-28l-27 -3h-31l-29 9l-30 6l-29 11l-29 10l-27 13l-24 19l-22 22l-25 18l-15 27l-18 23l-19 24l-8 29l-17 26l-5 30l-6 29l-6 29l-4 29
v28v31l3 29l4 30l10 28l12 28l12 27l11 28l19 23l17 24l22 19l22 20l25 15l25 16l30 5l25 15l30 2l27 10l29 2l28 3l32 -4l30 -10l31 -5l31 -9l26 -15z" />
    <glyph glyph-name="D" unicode="D" horiz-adv-x="680" 
d="M656 360h-3l-2 -30v-32l-9 -29l-5 -31l-15 -27l-13 -28l-16 -26l-19 -24l-22 -22l-24 -19l-20 -23l-25 -17l-29 -10l-26 -14l-27 -14l-31 -1l-29 -13l-30 1l-29 -4l-28 4l-29 1h-29l-28 -2h-29l-29 -2l-28 3l-29 -7l-29 4l21 24l21 20l20 19v32l1 30l-7 30l7 31l-2 30v29
l-3 30l1 30l-4 30l8 30l-7 30l5 30l1 30l-4 30l-1 29l3 29v30l-3 29l-1 29l1 28l-19 21l-21 21l-15 22l29 2l28 -2l29 -2h28h29l29 -1l28 5l30 1l26 -4h31l31 -3l31 -3l28 -16l30 -7l27 -14l26 -16l26 -16l26 -16l22 -21l18 -26l16 -25l18 -24l13 -27l12 -28l9 -29l2 -31
l4 -29zM556 360h-2l-2 29l-6 29l-2 29l-13 26l-12 27l-18 22l-16 24l-23 19l-20 22l-24 16l-29 5l-26 12l-27 11l-28 7l-28 -1l-27 4l-26 -1l-24 -2l-27 3l4 -32l-4 -30v-30l4 -29l-2 -30l4 -29l-5 -30l-1 -29l1 -30v-29l-3 -30l4 -29l-1 -29l-1 -29l1 -30l5 -29l-3 -30
l2 -29v-24l23 -5h25l24 1l30 1l29 4l29 4l28 9l27 11l26 13l23 18l21 19l20 21l23 19l16 24l13 26l4 28l11 27v29z" />
    <glyph glyph-name="E" unicode="E" horiz-adv-x="499" 
d="M470 741l-2 -1v2zM475 80l-5 -28l1 -27l2 -28l-32 3l-29 2h-30l-30 -1l-30 -1l-31 2l-30 -6l-29 1l-30 3l-31 -2h-30l-29 4l-30 -2l-29 -4l-24 3l16 23l21 21l16 20l2 30v30l-1 30v31l2 30l-4 29l2 30l-2 30l5 30l-4 30v30l4 30l-6 30l2 30l5 29l-2 29l3 30l-8 29l1 29
v27l-16 24l-21 21l-20 22l32 -3l30 2l29 -3l30 3l29 3l29 -7l29 7l29 -7l30 1l30 5l30 1l27 -1h27l35 4l28 12v-28l2 -30l1 -28l-4 -29l3 -31l-32 22l-28 21l-29 2l-30 1l-29 -1l-30 -5h-30l-28 6l-29 -6l-26 2l-6 -27l3 -29l5 -28l-5 -29l5 -29l-2 -28l1 -28l-3 -29l33 -1
l31 3l31 -4l31 5h28l30 6l25 8l3 -28l12 -28l-1 -31l6 -29l7 -29l-27 15l-22 17l-25 9l-32 3l-34 3l-33 1l-32 -7l-31 4l5 -30l-8 -31l5 -30l-2 -30l3 -31l2 -29l-3 -30l-3 -30h32h29l29 2l30 -3l29 1l29 2l29 2l28 -3l22 16l19 19l18 12l3 -25z" />
    <glyph glyph-name="F" unicode="F" horiz-adv-x="442" 
d="M418 712l-3 -30l1 -28l1 -29l-1 -31l-31 24l-29 20l-32 -2l-32 4l-31 -1l-32 -5l-31 -1l-29 4l2 -28l-5 -28l1 -28l3 -27v-28l3 -28l-5 -28l32 -1l31 4l31 -4h31l30 -1l33 19l33 7l-1 -26l3 -30l-1 -28l-1 -29l-1 -27l-25 9l-21 13l-21 15l-32 -7l-31 7l-30 -4l-30 1
l-31 1l1 -32l2 -30l-5 -30l1 -29l4 -30l-3 -31l-2 -30l7 -29l-2 -30l2 -26l13 -26l23 -18l16 -21l-28 -1l-29 -3l-29 5l-28 2l-29 -1l-28 1l-29 -5l16 24l18 21l19 19l-3 30v30l-1 31l2 29l2 30l-4 31l-2 30l7 31l-4 30l-1 30l4 30l-6 30l4 30l-4 30l7 30l-2 30v31l-1 29
l-2 29l-1 27l-17 33l-20 29l28 -2l29 1l30 5l29 -7l29 7l30 -1l29 -3l29 4h28l28 -6l27 4l32 12l33 7z" />
    <glyph glyph-name="G" unicode="G" horiz-adv-x="732" 
d="M708 223l-22 -24l-16 -23l-17 -20l-2 -32v-31l2 -33l1 -32l2 -31l-32 3h-30l-30 1l-30 -6l-30 6l-31 -4l-29 2l-29 -4l-28 3l-31 -2l-30 5l-29 11l-31 4l-28 13l-27 13l-29 13l-21 21l-24 18l-24 19l-16 26l-14 26l-22 22l-7 30l-11 27l-11 28l-4 30l-4 30v28v30v30
l11 28l10 28l7 30l18 24l10 28l24 19l16 24l19 22l22 20l26 15l23 19l26 13l29 8l26 14l30 1l27 12l29 1l28 -2l31 5l32 -2l32 2l31 -7l32 3h28l4 -30l-3 -31l5 -29l-6 -29l5 -29l-28 16l-25 17l-28 14l-29 7l-29 6h-30h-29l-30 1l-30 -5l-28 -7l-30 -8l-26 -14l-22 -20
l-26 -15l-19 -23l-18 -24l-16 -25l-10 -28l-9 -28l-8 -29l5 -28l-5 -28l4 -31l2 -30l6 -31l15 -27l11 -29l22 -22l19 -22l21 -22l24 -18l27 -14l29 -7l28 -8l29 -8l29 -4h28h30l29 -2l29 -3l29 1l28 1l1 38l-3 37l-16 24l-21 22l-18 21l28 4l29 -7l28 5h29l29 -4l28 5z" />
    <glyph glyph-name="H" unicode="H" horiz-adv-x="678" 
d="M654 722l-19 -25l-20 -21l-19 -19l-2 -30l3 -30l-2 -30l-1 -30l2 -31l-2 -30l-2 -30l2 -30l3 -30v-30l1 -29l-2 -30l3 -30l-1 -30v-29l-2 -30l-2 -29l5 -30v-29l-4 -28l3 2l17 -23l18 -23l17 -19l-27 4l-29 -3l-29 -4h-28l-29 4h-28l-28 -2l16 23l17 21l15 20l5 29l-4 29
l-2 29l1 30l2 29l-4 29l3 29l3 29l-4 25l-29 2l-31 2l-31 -4l-31 3l-31 -1l-30 -1l-31 -4h-30l-31 1l-30 2l-28 1l-3 -29v-29l-2 -30l2 -29l-1 -29l3 -29l1 -29v-27l-4 -29l22 -20l19 -22l17 -20l-28 -1l-28 -1h-29h-29l-29 -2l-27 3l-25 2l14 19l19 20l12 22l4 30l-7 31
l7 30l-4 30l-2 30l3 30l-4 31l1 29l-1 31l4 29l-1 31l-1 30l5 29v30l-3 30l-3 30l3 30l3 30l-7 29l4 28l-19 18l-14 24l-15 19l27 -1l29 3h29h29l28 3l28 -7l25 2l-17 -20l-20 -20l-13 -24l-7 -29l4 -30l4 -31l-1 -31l-3 -30v-30v-30l2 -27h29l30 -3l32 -2l31 3h30l31 -3
l31 4h30h30l30 -2l32 -2l-6 34l4 30l-3 31l3 31l4 30l-1 31l-1 30l1 30l-22 18l-16 21l-14 22l28 -2l29 3h29l28 3l29 -4l28 -2z" />
    <glyph glyph-name="I" unicode="I" horiz-adv-x="251" 
d="M227 722l-19 -24l-19 -23l-22 -17l3 -31l1 -30l-1 -30l2 -30l-1 -31l-2 -30l-4 -30l4 -30l2 -30l-6 -30l1 -29l6 -30l-6 -30l-1 -30v-29l3 -30l3 -29l1 -30v-29l-2 -27l17 -23l21 -20l17 -22h-29l-29 -3l-29 4l-28 2l-29 -3l-28 -3l-26 4l13 22l20 19l14 21l2 30l-3 31
l2 30l-3 30v30v30l2 31l-1 29l-1 31l2 29l-2 31l4 30l-3 29l4 30l-2 30v30l4 30l-1 30l-4 29l1 28l-14 22l-21 18l-16 23l30 -4l29 4l29 -2h28l29 -1h28z" />
    <glyph glyph-name="J" unicode="J" horiz-adv-x="495" 
d="M471 721l-21 -17l-15 -25l-16 -23l-5 -25l-1 -29l5 -29l-1 -28l-2 -29l2 -28v-30v-29l-2 -29v-29l-2 -30v-29l-1 -30l3 -29l4 -29l-5 -28l-3 -30l-14 -27l-8 -28l-19 -22l-13 -27l-26 -17l-23 -19l-25 -16l-30 -4l-28 -10l-30 -2h-27l-27 9l-26 9l-23 15l-21 19l-22 19
l-13 25l-10 27v29l-2 29l15 25l9 27l23 19l22 19l26 14l29 2l26 -9l25 -9l23 -15l22 -16l28 -20l-23 -15l-24 -15l-28 -7l-22 -14l-27 20l-20 -11l-6 -24l10 -31l27 -22h36l27 2l26 11l26 12l16 24l17 24l9 29l7 29h-3l-2 26l1 28l-2 29l4 29l3 29l-6 29l6 30l-4 29l2 30
l-3 29l-1 29l7 29l-3 30v29l-1 29l-18 19l-11 26l-20 18l28 3l27 -1l29 -6l29 5l29 -3l28 2h29z" />
    <glyph glyph-name="K" unicode="K" horiz-adv-x="572" 
d="M548 53l-6 -32l-5 -31l-29 3l-30 11l-25 20l-27 16l-17 27l-21 24l-17 25l-22 23l-10 27l-14 25l-18 24l-9 27l-18 23l-9 28l-12 26l-8 27l-12 27l-7 26l-9 27l-18 -23l-22 -18l-14 -21l-3 -30v-30l2 -30l-1 -31l-1 -30l1 -32l-4 -29l1 -31v-30l5 -26l17 -23l16 -25
l18 -17h-27l-28 2h-29h-29l-29 -3l-27 -2l-27 2l12 23l21 18l18 20l-1 31l-3 31l4 30v30l-7 30l2 30l-1 31l2 29v31l4 29l-1 31l-6 30v29l6 30l-2 30l3 30v30v30v29l-6 27l-12 22l-18 21l-13 18l25 6l29 -1l29 -2h29l28 -5l28 5h30l-20 -23l-20 -22l-17 -20l-2 -27l1 -29
v-27l2 -28l-1 -28v-22l20 16l20 20l20 21l18 23l22 19l21 20l18 21l20 20l17 19l-10 25l-14 20l32 5l33 -1l31 -3l33 -3l30 5h34l-23 -21l-18 -18l-19 -18l-15 -20l-19 -20l-20 -20l-23 -17l-17 -22l-16 -23l-20 -19l-17 -19l4 -29l10 -30l7 -30l10 -28l12 -29l14 -27l6 -30
l17 -25l13 -28l11 -28l14 -25l13 -27l15 -24l15 -24l22 -19l16 -22l23 -15z" />
    <glyph glyph-name="L" unicode="L" horiz-adv-x="492" 
d="M480 187l-14 -30l-11 -29l-15 -27l-12 -28l-10 -29l-11 -27l-12 -27l-13 -27l-22 20l-21 17h-29l-29 -3l-29 5l-28 -6l-29 1l-28 5l-28 -6l-26 2l1 -2l-27 -5l-27 -3l-25 -10l-23 -2l16 22l19 20l18 22l13 24l17 18v31l-2 30l6 31l-7 30l4 31l-4 31l2 30v30l-2 31l5 31
l-1 31l-3 31l4 30l-5 30l1 30l2 30l2 31l1 29l-4 28l-14 22l-17 21l-17 21l29 -1l28 3l29 -3l29 1l29 -2l27 3l30 -1l-22 -21l-19 -22l-17 -21l2 -31l-6 -30v-30v-30l3 -31l2 -29l1 -30l-5 -31l3 -30l-3 -29l7 -30l-3 -30l-1 -31l2 -29l1 -29l-5 -30l1 -30l5 -29l-2 -24
l29 -6l31 8l30 -4l30 -4l28 6l23 15l25 14l21 18l25 13l23 14z" />
    <glyph glyph-name="M" unicode="M" horiz-adv-x="832" 
d="M808 -2l-32 -3l-30 7l-30 -5l-30 4l-29 -2l-30 -2l-27 2l22 29l24 28l-14 27l-4 31l-8 29l-15 26l-5 30l-9 28l-16 26l-8 29l-4 30l-10 28l-12 27l-7 29l-14 25l-4 30l-10 25l-18 -24l-12 -26l-13 -26l-20 -21l-18 -22l-20 -21l-26 -12l-24 -12l-25 -9l-31 11l-30 10
l-22 21l-26 19l-17 27l-19 25l-18 25l2 -29l2 -30l-2 -29l2 -30l-3 -30l-3 -29l6 -29l-6 -30l-1 -29l6 -29l-4 -28l4 -29l-3 -28l19 -22l17 -23l22 -20l-30 4l-29 -1l-29 1h-28l-29 -5h-28l-28 2l14 24l17 21l18 18l1 30l3 31l-4 30l4 30l-2 30l-3 30l-1 31v29l1 31l1 29
l-3 31l7 30l-6 29l4 30l-1 30l1 30v30l-3 30l3 29l-3 27l-12 24l-20 19l-13 19l26 -1l29 2l29 4h28l29 -1l28 -2h29l-20 -23l-17 -23l-20 -18l9 -30l10 -30l14 -27l14 -28l18 -25l14 -28l20 -24l18 -24l21 -21l24 -14l21 15l20 20l20 21l10 27l12 26l13 25l11 25l12 26l7 25
l-9 36l-20 25l-26 19l-14 23h31l33 -2l32 3l32 -1l32 -1l31 3l-21 -29l-18 -28l13 -27l5 -30l12 -29l8 -29l14 -27l3 -30l13 -28l7 -29l11 -29l10 -28l13 -28l7 -29l9 -29l12 -28l5 -30l12 -27l8 -30l11 -27l11 -28l4 -30l9 -26l28 -21l20 -24z" />
    <glyph glyph-name="N" unicode="N" horiz-adv-x="745" 
d="M721 721l-18 -20l-18 -24l-18 -19v-31l-3 -30l3 -30l3 -30v-30l-4 -30l3 -30l-3 -30l-2 -31l6 -30l-6 -30l3 -31l4 -30l-2 -30l-5 -30l1 -29l4 -30v-31v-29l-4 -30l6 -30l-7 -27l-29 -5l-33 8l-31 -5l3 29l-4 28l1 24l-18 24l-20 23l-19 24l-17 26l-19 24l-24 20l-19 24
l-21 22l-17 25l-17 25l-20 23l-22 21l-20 23l-17 26l-19 24l-21 22l-16 26l-21 21l-20 21l-19 24l-16 20l1 -29l-5 -30l2 -30l5 -30l-2 -30l-5 -31l1 -29l4 -31l1 -30l-2 -30l-1 -30l-4 -29l1 -30l5 -30l-4 -29v-28l-1 -29l24 -18l17 -25l19 -20l-30 2l-28 -3h-29l-29 6
l-29 -1h-27l-29 -4l19 20l18 21l14 22l-1 30v31l-2 30l2 30l-2 30l3 30l1 31l-3 29l3 31l-4 29l3 31l-5 30l5 29l-3 30l5 30l1 30l-3 30l-4 30l3 29l3 28l-19 21l-20 18l-9 21l25 3l28 -3h27l27 5l24 -6l21 -20l17 -24l23 -19l19 -23l17 -25l20 -21l15 -25l22 -20l18 -23
l20 -22l20 -22l14 -27l22 -20l15 -25l19 -23l23 -19l15 -26l20 -20l21 -22l17 -23l16 -23l18 -18v27l-1 30l4 29l-5 29l4 30l-4 29l6 28v30l-4 28l1 29l4 29l-5 29v28l-3 28l1 27l-13 22l-20 18l-15 25l30 -4l29 5l29 -3l28 -1l29 2l28 -3z" />
    <glyph glyph-name="O" unicode="O" horiz-adv-x="774" 
d="M738 402l-2 -28v-29l-3 -29l-3 -30l-4 -30l-10 -28l-13 -26l-14 -26l-18 -23l-14 -25l-21 -18l-21 -24l-23 -22l-26 -20l-28 -15l-30 -7l-30 -7l-30 -7l-30 -11l-30 1l-32 1l-30 8l-32 3l-29 13l-27 15l-30 10l-27 16l-19 25l-23 21l-18 23l-19 22l-19 23l-8 30l-11 26
l-9 28l-13 27l-1 28l-3 29l-2 28l5 29l3 29l1 30l6 30l11 27l11 27l18 24l10 28l20 21l16 22l21 24l29 15l26 18l26 19l29 11l28 13l31 6l31 -3l30 9l32 -2l30 -11l32 -2l31 -9l26 -18l27 -13l25 -18l23 -21l24 -19l17 -24l23 -20l15 -26l9 -29l16 -25l9 -28v-30l10 -27z
M642 406l-8 30l-6 32l-8 30l-14 28l-18 26l-19 24l-20 21l-26 15l-26 14l-25 14l-29 5l-27 8l-28 -2l-30 1l-28 -4l-28 -12l-28 -8l-26 -13l-19 -23l-20 -18l-19 -25l-20 -25l-17 -27l-4 -33l-12 -28v-32l-3 -30v-32l8 -30l4 -32l14 -28l13 -28l18 -26l17 -25l21 -20l24 -16
l26 -14l25 -14l27 -10l29 -2l28 -5l29 7l29 2l28 9l28 10l24 16l24 16l19 21l21 24l17 27l13 28l10 30l10 30l-2 32l3 30z" />
    <glyph glyph-name="P" unicode="P" horiz-adv-x="456" 
d="M432 530l-12 -29l-9 -30l-18 -26l-16 -26l-22 -22l-26 -15l-23 -22l-28 -13l-24 -17l-27 -15l-28 -10l-28 -9l4 -1l-8 -30l6 -29l-3 -29l3 -30l-2 -30l-3 -29l4 -28l-4 -29l19 -23l23 -18l19 -23h-31l-28 2l-29 -5l-29 6h-28l-28 -1l-31 -2l18 24l15 22l19 18l-3 30l3 31
l-2 30l-1 30l4 30v30l-3 31l3 29l3 31l-4 29l-2 31l1 30l1 29l-4 30l5 30l3 30l-6 30l-1 30v29v26l-13 23l-15 22l-22 18l33 3l29 -1l28 3l29 -6l29 3l29 -1l27 7h30l30 -7l29 -9l27 -11l27 -13l22 -20l14 -27l14 -25l9 -28v-28zM327 551v28l-14 25l-25 15l-25 10l-25 11
l-25 2l-42 -1l4 -29l-4 -30l-4 -29l6 -29v-29l-2 -29v-28l2 -28l1 -24l26 8l27 15l22 23l24 18l22 20l17 25l9 28zM174 383v3l-4 -1z" />
    <glyph glyph-name="Q" unicode="Q" horiz-adv-x="774" 
d="M738 345l-6 -29l-1 -30l-8 -29l-10 -28l-13 -26l-13 -26l-17 -23l-15 -25l-18 -20l-25 -26l32 -12l28 -16l28 -16l25 -23l-22 -25l-26 -20l-18 -27l-22 -20l-1 -2l-11 29l-22 21l-27 13l-28 11l-29 10l-29 -1l-28 -2l-25 -1l-49 -2h-32l-31 6l-31 6l-32 6l-25 20l-31 8
l-25 18l-21 23l-25 19l-17 24l-18 24l-18 24l-12 27l-12 27l-7 29l-3 29l-3 28l-5 28l-1 28l-3 30l1 29l13 28l1 30l11 28l14 26l10 28l17 23l19 22l16 22l23 21l22 24l28 16l27 17l31 6l27 16l32 2l30 3l30 1l31 -1l31 -1l32 -6l30 -9l29 -13l26 -17l24 -19l27 -16l18 -26
l24 -18l14 -27l13 -26l16 -26l10 -27l10 -27l9 -28l5 -28l1 -29l-4 -28zM645 406l-6 31l-13 30l-9 31l-16 26l-11 30l-23 21l-17 23l-27 15l-26 14l-25 14l-29 5l-27 8l-24 -3l-34 4l-28 -12l-28 -6l-28 -9l-24 -17l-23 -17l-20 -19l-19 -26l-16 -26l-14 -28l-15 -29l-5 -31
l-8 -31l-1 -30l5 -32l8 -30l6 -31l7 -32l19 -25l13 -28l18 -25l20 -21l29 -12l25 -14l24 -17l28 -10l28 -3l29 3l29 1l28 7l28 9l29 4l23 20l26 13l18 21l19 26l16 27l18 26l5 32l10 30l6 31v30z" />
    <glyph glyph-name="R" unicode="R" horiz-adv-x="566" 
d="M542 26l-16 -37l-28 7l-29 9l-22 20l-23 19l-22 20l-15 26l-18 24l-17 24l-14 26l-8 28l-18 24l-5 29l-31 -6l-30 -5l-38 6l-5 25l-9 24l-9 23l42 -1l29 2l30 4l28 11l22 21l26 17l14 27l16 25l1 31l7 27l-5 30l-4 29l-14 27l-18 23l-21 21l-26 14l-26 11l-29 8h-28
l-31 2l-32 3l3 -33l-3 -29l5 -30l2 -29l-2 -29l1 -30l-4 -29l3 -29l1 -29l-7 -29l6 -29l1 -29v-29l-5 -29l1 -28v-29l-1 -29l5 -28v-29l-4 -28l21 -19l18 -23l18 -21l-29 4l-28 -4l-29 1l-29 -1l-28 -2l-28 1l-24 3l15 18l13 24l19 19l-6 30l2 31l1 30l-2 30l6 30l-3 30
l-2 31l4 29l-6 31l4 29l-1 31l1 30l-2 29l3 30l-1 30l-3 30v30l6 30l-1 29l2 29l-20 20l-16 22l-19 21l34 -6l32 8l32 -8l32 1l31 4l31 -1h30v1l30 -3l31 -2l27 -13l27 -13l26 -14l26 -14l18 -25l23 -20l11 -28l16 -24l12 -27l2 -30l-1 -28v-29l-4 -29l-8 -28l-15 -25
l-17 -23l-16 -23l-21 -20l-19 -19l6 -32l10 -29l11 -29l11 -29l17 -25l10 -29l18 -27l21 -22l17 -24z" />
    <glyph glyph-name="S" unicode="S" horiz-adv-x="457" 
d="M433 563l-21 16l-23 11l-16 21l-31 15l-33 3h-34l-24 -22l-17 -23l-12 -26l4 -30l15 -25l15 -25l20 -20l14 -23l20 -20l23 -19l18 -23l13 -27l11 -26l15 -24l12 -27v-29l6 -27l4 -27l-1 -31l-9 -29l-13 -28l-13 -27l-21 -21l-25 -16l-24 -19l-29 -8l-27 -9l-30 -5l-28 7
l-28 4l-30 4l-24 18l-20 18l-35 1l-31 -2l17 19l16 22l17 23l18 20l17 21l14 20l16 -25l18 -25l20 -23l30 -11h33l25 20l25 19l8 31l9 30l-3 32l-15 29l-14 28l-19 24l-16 27l-18 22l-17 24l-22 20l-12 27l-20 23l-9 28l-8 28l-10 26v28l3 30l7 28l10 28l19 23l21 20l22 19
l27 11l29 1l27 6l33 -4l33 6h33l33 -2l5 -31l2 -31l-1 -32l2 -30z" />
    <glyph glyph-name="T" unicode="T" horiz-adv-x="565" 
d="M541 607l-30 9l-31 13l-31 8l-30 -3l-31 3h-30l-30 -1l-1 -32l4 -31l-5 -30l5 -31l1 -30v-30l-5 -31l6 -29l-2 -31v-30l-4 -31l2 -30l-2 -30l4 -30l-2 -30l5 -31l-2 -29l-2 -30l-3 -28l23 -20l18 -23l16 -20l-27 1l-29 -3l-29 -1l-28 3l-29 3l-28 -6l-28 2l18 21l17 21
l18 20l-7 32l6 30l-2 31l-3 31l2 30l4 31l-5 30l1 31l-3 30l3 30v31l-1 31v30l-2 30l1 30l-1 29l7 30l-1 30l-2 28l-31 2l-29 -4l-29 -1l-28 1l-32 -12l-32 -8l-31 -9l17 30l14 30l11 30l14 29l30 1h30l29 1l29 -6l29 -2l30 1l29 -1l29 3l30 5l29 -2l29 -4l28 2h29l25 -2
l19 -26l11 -32l13 -30z" />
    <glyph glyph-name="U" unicode="U" horiz-adv-x="592" 
d="M568 721l-17 -19l-18 -21l-12 -23l-3 -31v-30l5 -32l-3 -30l1 -32l2 -31l-3 -31l2 -31v-30l1 -32l-1 -30l-3 -30l3 -30l-2 -29l-5 -29l-5 -30l-10 -28l-11 -27l-17 -25l-17 -26l-25 -16l-24 -17l-24 -18l-30 -5l-29 -4l-28 -7l1 5l-31 -4l-30 6l-26 16l-28 11l-25 17
l-20 23l-23 20l-17 25l-7 29l-12 27l-8 28v29l1 31l-2 31l7 31v31l-2 31l-4 32l-1 31l2 30v31l-2 31l2 30l3 31l-5 29l7 31l-17 22l-21 18l-13 20l27 4l29 -5l28 5l29 -1l29 -2l27 -1l29 2l-23 -20l-18 -22l-16 -22l-3 -31l4 -30l3 -31l-6 -30l4 -30l-4 -31l-1 -30v-31
l1 -30l1 -31l-1 -29l4 -29l2 -31l-1 -27v-32l9 -30l11 -30l23 -23l27 -16l29 -7l29 -1l30 3l31 5l26 19l20 24l16 27l4 32l3 29l1 30l2 30l-6 31l7 31l-7 30l3 30l-1 31l4 31v30l-5 30v29l3 30l-1 30l3 29l-22 20l-17 24l-19 18l28 -4l28 5l29 3h29l29 -3l28 -5z" />
    <glyph glyph-name="V" unicode="V" horiz-adv-x="692" 
d="M668 720l-18 -24l-25 -22l-18 -24l-11 -27l-16 -26l-7 -29l-12 -27l-6 -29l-14 -27l-11 -28l-7 -30l-13 -26l-13 -26l-9 -28l-7 -29l-16 -26l-6 -29l-13 -27l-8 -28l-9 -28l-11 -27l-15 -26l-11 -27l-4 -30l-12 -26l-9 -26l-13 -23l-22 -3l-23 -1l-8 30l-16 26l-7 30
l-12 28l-9 29l-12 27l-13 28l-7 29l-16 27l-8 29l-11 28l-8 29l-10 29l-15 27l-7 29l-10 28l-15 27l-10 28l-14 27l-7 30l-13 27l-7 29l-14 26l-13 27l-9 28l-7 29l-10 27l-12 25l-21 26l-25 24l-23 21l28 3l29 -3l30 3l29 -1l25 -4l15 -24l7 -28l10 -28l12 -27l11 -27
l7 -29l13 -27l13 -26l8 -28l9 -28l11 -27l12 -27l11 -28l10 -28l11 -27l9 -28l10 -27l14 -26l9 -29l8 -28l15 -24l9 -27l7 -29l14 -25l6 30l8 28l12 28l16 27l8 29l12 27l6 31l14 27l11 27l12 28l5 30l10 28l17 26l8 29l13 26l7 29l14 26l-18 29l-19 27l35 -5l33 6h32l32 -4
l31 4z" />
    <glyph glyph-name="W" unicode="W" horiz-adv-x="931" 
d="M907 721l-25 -22l-21 -28l-27 -19l-6 -30l-13 -26l-7 -29l-13 -26l-9 -29l-7 -28l-10 -28l-9 -28l-11 -27l-10 -28l-14 -26l-4 -29l-10 -28l-13 -26l-9 -28l-7 -29l-10 -28l-9 -28l-15 -24l-5 -30l-15 -24l-4 -30l-8 -26l-12 -25l-25 2l-24 -5l-9 31l-14 26l-11 28
l-13 27l-6 30l-17 25l-9 28l-10 28l-13 -29l-11 -27l-8 -30l-15 -26l-9 -29l-10 -28l-15 -25l-8 -28l-26 5l-23 -5l-9 30l-11 27l-6 28l-11 28l-8 28l-11 28l-13 26l-11 27l-3 30l-12 27l-9 29l-11 26l-13 27l-6 29l-12 26l-7 29l-12 27l-8 29l-14 25l-10 27l-6 28l-13 26
l-5 28l-12 24l-23 25l-24 25l-24 23l31 -1l30 1l29 -5l29 5l26 -3l10 -27l10 -28l13 -28l12 -28l7 -30l10 -29l12 -29l8 -30l8 -30l15 -28l4 -30l12 -29l6 -30l10 -28l11 -28l14 -28l9 -29l9 -27l9 -26l10 29l16 29l13 29l13 30l7 30l-9 28l-13 27l-9 29l-13 28l-14 26
l-9 28l-11 29l-14 26l-9 28l-14 27l-11 26l-7 27l-25 23l-22 25l-26 21l34 -2l33 -2l31 5l33 2l31 -8l28 3l-13 -25l-10 -28l5 -29l14 -28l9 -31l17 -26l10 -30l15 -27l7 -30l11 -22l9 27l12 29l19 26l10 30l8 30l11 29l11 28l14 25l-16 26l-13 26h32h32l32 -3l32 5l31 -5
l29 4l-22 -23l-20 -26l-23 -22l-15 -26l-10 -28l-13 -28l-14 -26l-9 -29l-13 -27l-10 -28l-14 -27l-12 -27l-5 -30l-15 -24l-9 -26l13 -29l10 -32l13 -29l14 -29l7 -30l1 1l12 28l11 29l5 30l15 27l10 29l6 31l10 29l16 27l3 32l15 27l10 29l9 29l5 31l13 27l10 29l13 27
l8 30l12 26l6 28l30 2l29 -1l29 -2l29 3z" />
    <glyph glyph-name="X" unicode="X" horiz-adv-x="661" 
d="M637 112l-15 -25l-21 -23l-19 -24l-18 -24l-17 -22l-26 14l-22 21l-24 19l-16 25l-25 19l-14 26l-19 24l-19 24l-16 26l-10 28l-15 25l-19 23l-12 29l-14 -29l-11 -29l-19 -26l-13 -27l-17 -27l-15 -27l-10 -29l-12 -29l-18 -21l1 -2l17 -27l16 -24l-31 -2l-32 2l-32 -3
l-33 1l-31 4l-32 -5l25 25l23 23l18 24l13 27l13 28l17 26l15 26l16 26l13 28l12 28l17 27l12 27l15 26l10 29l19 24l-16 27l-16 26l-12 28l-14 28l-19 23l-11 30l-19 22l-8 29l-15 26l-17 23l-25 14l-28 8l-28 8l27 18l28 15l27 16l24 21l26 13l11 -26l18 -23l15 -25l7 -29
l14 -25l17 -24l13 -25l15 -23l12 -25l15 -24l10 -24l13 27l16 23l10 27l14 26l18 22l13 26l11 25l-16 26l-16 28l35 -5l33 2l31 -2l33 1l31 1l30 1l-22 -25l-28 -20l-20 -25l-15 -26l-14 -25l-12 -26l-17 -25l-11 -26l-13 -26l-12 -26l-12 -26l-17 -24l-10 -24l12 -27
l16 -26l11 -27l17 -24l17 -24l12 -28l18 -22l14 -25l15 -26l22 -19l17 -24l20 -16l28 -2l28 4z" />
    <glyph glyph-name="Y" unicode="Y" horiz-adv-x="678" 
d="M654 720l-20 -21l-22 -24l-26 -22l-13 -28l-7 -31l-13 -28l-16 -27l-14 -28l-11 -29l-13 -28l-12 -29l-8 -31l-13 -28l-15 -26l-12 -28l-10 -26l-1 -29l-1 -29v-28l2 -28l2 -28l1 -27l-3 -28l-3 -28l19 -22l19 -22l18 -17l-26 -2l-29 -3l-29 -1l-29 6h-28h-28l-30 -3
l20 22l14 23l18 19l-1 29l3 29l-1 28l-4 28l-1 27l5 28l-2 27l-13 28l-6 30l-8 29l-15 26l-12 28l-12 28l-17 25l-15 27l-17 24l-20 23l-16 25l-20 22l-14 27l-22 21l-22 20l-19 21l-19 22l-21 19l-22 20h32l32 -2l31 1l32 3l31 1l30 -4l30 2l1 -3l-19 -25l-11 -27l19 -24
l20 -22l19 -24l14 -26l17 -24l16 -26l17 -24l12 -28l11 -28l20 -23l8 -28l12 29l9 29l16 26l13 28l10 29l16 26l8 30l18 24l6 31l18 24l-20 29l-20 26l31 -5l32 5l32 -2l31 1l32 3z" />
    <glyph glyph-name="Z" unicode="Z" horiz-adv-x="470" 
d="M446 -4l-33 5l-31 -2l-30 2l-30 -5h-31l-31 6l-31 -8l-30 8l-30 -4l-31 -3l-30 2h-29l-30 3h-25l12 22l16 22l12 21l12 28l14 26l5 29l14 25l5 31l13 26l15 26l4 29l11 28l15 26l8 29l14 26l9 29l8 28l12 27l9 28l9 28l14 25l7 28l9 26l13 24l-31 1l-32 -4l-31 4l-31 1
l-31 -4h-29l-29 -20l-32 -21l1 33l2 30l-2 28l2 29l-2 27l31 -13l32 -10l30 3l29 -1l29 2l29 -3l28 -1l29 1l29 -1l28 7l29 -5l28 3l28 -1l24 -2l-14 -23l-18 -23l-17 -21l-12 -28l-14 -27l-6 -30l-13 -28l-14 -27l-9 -30l-7 -30l-16 -27l-5 -31l-18 -26l-8 -30l-8 -30
l-16 -27l-7 -30l-9 -28l-13 -27l-11 -29l-11 -27l-15 -26l-7 -28v-2l31 -1l30 4h30h31h29l29 -2l27 3l21 16l21 17l20 12l2 -26v-28l1 -28l-3 -27z" />
    <glyph glyph-name="bracketleft" unicode="[" horiz-adv-x="287" 
d="M263 -59l-3 -35l-7 -29l-27 -2l-29 1l-30 -5l-29 5h-28l-29 -1l-29 3l-26 -4l19 19l14 23l19 20l-5 32l-1 30l1 30l-2 30l1 30l2 31l2 31l-1 30v30l2 30l-5 30l6 31l-1 30l-3 30l2 30l-4 30l3 31l-2 30l3 30l2 30l-2 29l-5 30l6 30l-4 27l-14 22l-17 21l-18 21l31 -4
l29 6l30 -2l29 3l29 -1l28 -4l29 4l29 -1l2 -35l-2 -30l-30 -4l-30 -10l-27 -4l1 -29l-5 -30l5 -30l-1 -31l-3 -30l4 -30l-5 -30v-30l1 -30l-1 -31l3 -30l-4 -30l1 -30l5 -30l1 -30l-2 -30l1 -30l-3 -30l-3 -30l1 -29l6 -30l-8 -29l4 -17l-1 -14l32 -4l31 -4z" />
    <glyph glyph-name="backslash" unicode="\" horiz-adv-x="477" 
d="M453 -97l-27 -2l-32 2l-32 -1h-32l-31 -3h-35l14 31l16 29l-5 26l-12 27l-7 28l-14 26l-5 29l-7 29l-13 26l-9 28l-3 30l-9 28l-13 27l-5 30l-10 27l-8 29l-13 27l-7 29l-13 27l-7 29l-6 30l-13 27l-8 29l-8 29l-7 28l-11 28l-14 21l-15 22l-14 23l-14 22l26 4l30 -4
l30 5l30 -1l30 -6l29 2l-14 -26l-10 -30l7 -27l12 -25l7 -29l5 -30l11 -28l9 -27l6 -30l8 -29l15 -27l8 -28l9 -29l5 -29l12 -28l5 -30l7 -28l14 -27l6 -30l14 -27l9 -29l5 -30l10 -28l4 -30l15 -27l4 -31l20 -18l15 -22l18 -21z" />
    <glyph glyph-name="bracketright" unicode="]" horiz-adv-x="287" 
d="M263 722l-18 -21l-17 -21l-14 -22l-4 -27l6 -30l-5 -30l-2 -29l2 -30l3 -30l-2 -30l3 -31l-4 -30l2 -30l-3 -30l-1 -30l6 -31l-5 -30l2 -30v-30l-1 -30l2 -31l2 -31l1 -30l-2 -30l1 -30l-1 -30l-5 -32l19 -20l14 -23l19 -19l-26 4l-29 -3l-29 1h-28l-29 -5l-30 5l-29 -1
l-27 2l-7 29l-3 35l32 1l31 4l32 4l-1 14l4 17l-8 29l6 30l1 29l-3 30l-3 30l1 30l-2 30l1 30l5 30l1 30l-4 30l3 30l-1 31l1 30v30l-5 30l4 30l-3 30l-1 31l5 30l-5 30l1 29l-27 4l-30 10l-30 4l-2 30l2 35l29 1l29 -4l28 4l29 1l29 -3l30 2l29 -6z" />
    <glyph glyph-name="asciicircum" unicode="^" horiz-adv-x="422" 
d="M398 376l-28 1l-26 -4l-27 3l-26 -1l-27 6l-28 -4l10 22l15 23l-6 15l-5 13l-10 26l-11 26l-7 27l-13 22l-8 -23l-8 -27l-10 -26l-8 -29l-5 -18l10 -23l15 -27l-30 4l-28 -5h-28l-29 2l-29 1l-27 1l18 16l19 22l17 18l3 13l14 26l6 29l12 27l6 29l9 28l14 26l11 27l9 29
l12 27l8 28l26 -2l29 3l12 -24l5 -30l11 -26l7 -28l12 -26l10 -28l13 -27l10 -27l4 -30l13 -26l10 -18l15 -20l19 -19z" />
    <glyph glyph-name="underscore" unicode="_" horiz-adv-x="500" 
d="M500 -53h-500v45h500v-45z" />
    <glyph glyph-name="grave" unicode="`" horiz-adv-x="299" 
d="M275 763l-24 -4l-28 5l-26 1l-19 21l-22 21l-24 21l-19 26l-19 26l-21 24l-25 20l-24 26l32 -4l32 2l31 -2l32 3l15 -22l17 -22l17 -22l16 -24l16 -23l11 -27l21 -21z" />
    <glyph glyph-name="a" unicode="a" horiz-adv-x="726" 
d="M702 0l-1 -6l-33 6l-31 -2l-32 -2l-32 -1l-31 7l-29 -4l15 22l10 23l-17 26l-16 26l-16 26l-17 25l-14 26l-12 28l-15 26l-12 23l-29 -12l-24 -21l-29 -13l-26 -18l-28 -14l-26 -17l-24 -18l-26 -17l-24 -16l-5 -29l-10 -28l15 -23l6 -23l-28 2h-29l-28 -5l-29 5l-28 -4
l-23 2l13 22l21 20l21 18l7 30l3 31l10 28l8 29l9 30l12 27l5 29l12 28l8 30l8 28l5 29l12 28l7 30l10 28l8 28l3 30l8 28l13 27l7 29l6 26l-12 31l-13 30l-21 23l-25 11l-26 11l-28 10l30 12l26 17l26 20l28 15l24 18l18 -32l8 -29l17 -25l10 -28l16 -26l11 -27l14 -27
l7 -30l17 -25l12 -27l15 -27l11 -27l12 -27l13 -28l8 -29l17 -25l13 -26l13 -27l16 -24l10 -27l12 -26l15 -25l12 -26l17 -24l14 -25l17 -23l17 -23l16 -24l16 -23l17 -27l23 -20zM375 333l-12 22l-13 26l-7 29l-11 25l-19 22l-5 28l-18 25l-8 -29l-4 -30l-4 -29l-10 -27
l-12 -27l-5 -30l-6 -29l-11 -26l-7 -28l-6 -27v-2l25 22l29 16l30 14l26 19l24 20z" />
    <glyph glyph-name="b" unicode="b" horiz-adv-x="557" 
d="M533 205l-9 -29l-5 -30l-8 -29l-13 -27l-18 -25l-22 -21l-25 -16l-30 -8l-27 -13l-30 -1l-29 -3l-28 -6l-30 -1l-30 6l-29 -8l-30 1l-31 2l-30 2l-29 3l-29 -5l-27 2l22 19l19 26l17 21l8 28l-8 31l2 30l4 30l-3 29l4 29l-6 30l1 30l-2 31l7 30l-6 29l4 30l-4 30l1 30
l4 30l-4 29l4 30l-6 29l6 29l-3 27l-15 24l-18 21l-20 18l2 4h29l29 -6l30 5l29 -2l30 5l29 -1l28 -5l28 -2l31 3l29 -11l28 -12l26 -15l24 -17l22 -21l10 -29l17 -25l4 -30l-1 -28l5 -31l-10 -28l-13 -26l-16 -24l-16 -24l-22 -19l31 -9l25 -19l27 -15l18 -25l23 -20l9 -29
l8 -29zM363 497v29l-4 28l-9 26l-11 26l-22 17l-21 18l-26 12l-28 -3l-26 8l-32 -3l-6 -29v-30l1 -29l5 -30v-29l-5 -28l-1 -29l5 -28l-3 -29l28 3l27 -5l28 11l30 5l24 18l17 23l19 21zM435 199l-9 30l-5 32l-24 22l-21 23l-28 11h-31l-27 3l-28 -1l-28 -1l-27 4h-28
l-1 -32l7 -29l-4 -30l-1 -29l4 -30l-6 -29l3 -27l12 -31l32 -10l32 -6l32 -5v1l31 5l32 5l26 19l23 22l15 27l15 27z" />
    <glyph glyph-name="c" unicode="c" horiz-adv-x="533" 
d="M503 99l-14 -18l-11 -26l-16 -22l-15 -23l-17 -18l-17 -3l-30 8l-31 2l-31 5l-28 12l-30 7l-28 14l-25 17l-24 19l-26 17l-25 18l-16 27l-22 22l-14 27l-19 24l-10 28l-7 28l-13 27l-5 29l-2 30l-3 28l1 30l2 29l7 30l7 29l13 27l10 28l11 26l23 21l18 23l17 24l25 15
l23 18l27 11l27 10l26 13l28 7l29 7l28 3l28 -5l30 3l31 3l27 -4v-29l5 -30l-5 -31v-30l-2 -26l-16 25l-27 19l-27 17l-33 4l-31 -6l-31 -3l-28 -14l-29 -11l-26 -17l-19 -24l-20 -24l-20 -23l-9 -29l-14 -28l-8 -29l-4 -30l5 -30l-2 -30l9 -29l3 -30l13 -27l14 -27l19 -23
l17 -25l18 -24l25 -18l26 -16l26 -14l26 -14l30 -4l28 -6l30 3l28 -1l25 5l26 1z" />
    <glyph glyph-name="d" unicode="d" horiz-adv-x="680" 
d="M654 389l-5 -29l1 -30l-4 -31l-8 -29l-3 -32l-12 -28l-17 -26l-16 -26l-19 -22l-21 -23l-21 -23l-23 -19l-25 -17l-26 -14l-26 -16l-29 -11l-29 -8l-31 -3h-30l-28 -3l-29 3l-29 -6l-28 5l-29 -4l-28 3l-29 1l-29 -1l-29 -3l-24 2l17 22l17 24l24 16l-7 32l1 30l1 30
l-2 30l4 30l2 30l-5 30v30l1 30v30v30l-2 30l4 30l-3 30l3 29v29l-3 30l2 29l4 29l-2 29l-20 22l-20 22l-20 20l30 1l29 -2l28 -1l29 -1l29 5l28 -7l29 6l29 -4h27l31 -2l30 -3h31l30 -11l30 -10l26 -16l27 -14l24 -19l24 -18l20 -22l23 -22l15 -26l18 -24l15 -26l8 -29
l13 -28l5 -30zM556 333l-5 27l1 29l-3 29l-3 30l-15 25l-15 25l-11 27l-23 19l-20 22l-21 20l-25 14l-24 15l-29 5l-27 12l-29 1l-28 6l-26 -2l-26 1l-25 1h-25v-30l1 -30l4 -30l-5 -29l-3 -30l5 -29l-1 -30l-2 -30l5 -29l1 -30l-2 -29l-4 -29l3 -29l1 -29l-2 -30l2 -29
l-1 -30l-5 -29l4 -26l25 -3l25 2l25 -1l29 5l29 1l30 1l28 9l26 12l24 17l28 11l22 19l17 24l19 22l18 23l14 24l9 28v29z" />
    <glyph glyph-name="e" unicode="e" horiz-adv-x="506" 
d="M482 732l-18 -22l-24 -21l-30 -9l-26 -18l-29 -9l-31 -7h-31l-30 -4l-30 -7l-32 6l-25 -5l-4 -28l-1 -28l3 -29l-3 -29l6 -29l-4 -28l1 -26h26l26 8l27 6l24 13l21 18l26 -21l24 -22l-23 -21l-19 -21l-24 -17l-28 -9l-26 -12l-29 -1l-23 -8l-4 -29l-1 -30l1 -29l-2 -31
v-30l3 -29l2 -30l1 -29v-25l28 -4l32 1l32 -1l31 5l30 10l29 7l25 17l27 16l22 -26l27 -19l-21 -24l-21 -21l-27 -14l-27 -13l-27 -13l-31 -2l-28 -6h-29l-30 -1l-29 -8l-29 8l-28 -7l-28 1l-29 1l-28 -2l-23 4l17 22l20 21l18 20v31v30l-1 30l2 30l-6 30l5 30l-4 30l3 30
l1 30l-3 30l5 30l-6 30l3 30l2 30l-2 29l1 29l1 30l1 29l-3 29l-1 27l-20 22l-17 24l-15 20h32l34 -2l32 4l31 -4l30 2l30 -3l29 5l30 -3l29 6l29 4l30 5l26 12l27 11l21 16l27 -18z" />
    <glyph glyph-name="f" unicode="f" horiz-adv-x="517" 
d="M493 736l-25 -24l-25 -18l-25 -20l-30 -9l-29 -8l-31 -4l-31 -5l-30 -5l-31 -4l-29 3l-28 -5l-2 -29l1 -28l-1 -29v-29v-29v-28v-26h1l27 -1l27 10l24 10l25 10l19 11l25 -19l28 -19l-19 -26l-24 -18l-25 -14l-26 -13l-26 -9l-28 -7h-28l4 -30l-3 -30l3 -29l-2 -29
l-4 -29v-30l1 -29l2 -30l-3 -29l4 -26l27 -23l26 -19l-27 -9l-32 -9l-27 -17l-32 -8l-30 -8l-29 -11l-30 -11l14 30l19 24l12 27l14 25l1 31l-5 30l6 31l-2 30l-4 31l1 30l2 31v30l-3 30l1 30l-1 31l4 30l-5 31l8 30l-5 29l3 31v30l-6 30l2 29l6 29l-23 22l-23 18l-17 22
l37 -2l35 1l32 -1l31 5l30 -6l29 6l30 -1l30 1l29 5l29 2l29 5l28 11l23 18l26 16l25 -23z" />
    <glyph glyph-name="g" unicode="g" horiz-adv-x="656" 
d="M632 222l-4 -30l-9 -28l-7 -29l-13 -27l-20 -22l-23 -18l-20 -23l-24 -18l-29 -8l-26 -12l-28 -8l-29 -4l-28 -3l-30 2l-30 1l-27 12l-29 8l-29 9l-25 15l-25 15l-24 18l-19 22l-21 21l-16 24l-17 23l-18 24l-6 29l-16 25l-1 31l-5 27l-6 28l-3 28l-1 30l3 24l6 34l11 27
l7 30l17 25l11 28l18 22l15 25l23 20l18 22l26 15l23 18l25 14l24 16l29 6l26 15l29 5l28 2l29 4l28 -3l40 21l-8 -30l-4 -26l-3 -28v-28l-7 -23l-19 24l-29 -2l-30 -2l-27 -11l-29 -6l-29 -10l-23 -18l-23 -18l-23 -18l-22 -18l-15 -25l-15 -24l-8 -28l-10 -27l-13 -26
l-2 -29v-27v-30l5 -30l10 -27l8 -28l12 -28l21 -21l14 -26l26 -16l24 -15l20 -22l29 -6l27 -12l28 1l27 -3l29 2l28 5l28 10l24 17l18 21l19 22l15 26l1 28l-4 28l-8 29l-21 20l-24 15l-26 8l-28 -12l-28 -13l-12 -25l3 -43l-29 7l-25 13l-28 8l-27 12l-28 11l37 14l11 30
l22 24l22 22l24 18l29 12l28 12l29 -1l30 1l29 -7l25 -15l23 -18l22 -19l18 -22l15 -26l5 -29l12 -27z" />
    <glyph glyph-name="h" unicode="h" horiz-adv-x="676" 
d="M652 0l-26 2l-29 -1l-29 -7l-28 1h-29h-28l-28 3l14 23l23 17l14 23l2 31l-6 31l1 31l2 32l4 31l-8 31l1 32v30l6 30l-3 29l-28 -10l-30 -5l-28 -8l-27 -13l-29 -6l-29 -5l-28 -8l-27 -8l-29 -9l-27 -14l-29 -1l-23 -12l1 -29l-4 -30l1 -30l-4 -31l5 -30l-3 -29l3 -29
l15 -24l20 -21l20 -19l-29 2h-29l-28 -2l-29 2h-28l-28 -2h-29l20 20l13 23l20 19l-3 31l-3 30v31l4 29v31l3 30v30l-7 30l1 31l1 29l-1 30l6 30l-4 30l-2 30l6 30l-3 29l-5 31l8 30v29l-5 27l-13 23l-20 19l-17 22l31 3l28 -4l29 3l29 -5l28 3l28 -2l28 1l-22 -19l-18 -23
l-15 -22l-2 -28l-1 -30l2 -29l1 -30l1 -29v-29l-3 -29l-2 -28l6 -30l-1 -23l26 6l29 8l28 9l29 6l27 12l29 5l28 9l27 9l29 6l27 13l29 1l27 9l1 34l-6 33l1 32l2 33l3 31l2 32l-18 22l-18 19l-18 20l30 -3l28 6l29 -4h28h29l28 2l24 -2l-16 -20l-22 -20l-15 -22l3 -31v-30
l-3 -30l2 -30l-3 -31v-30l2 -30l-2 -30v-30l2 -30v-29l1 -31l-3 -30l5 -29l-1 -30v-29l-6 -29v-30l2 -29l3 -28l-3 -2l18 -22l20 -21z" />
    <glyph glyph-name="i" unicode="i" 
d="M225 -2l-30 3l-29 -3l-29 4h-28l-29 -2l-28 -4l-28 2l17 22l14 23l22 17l-2 31l-2 30l3 31l-2 30v31l-1 30l3 30l1 30l-4 30l1 30l2 29l-2 31l-2 29l5 29l-2 28l-16 21l-18 20l-13 21l28 5l28 -1l29 -4l29 4h29l27 -7l26 3l-17 -20l-21 -21l-15 -22l-1 -30l4 -30l-4 -30
l1 -31l-3 -30l-1 -30l6 -30l-2 -30l3 -30l-7 -30l1 -29l4 -29l-6 -30l3 -29l1 -28l-1 1l19 -21l21 -21z" />
    <glyph glyph-name="j" unicode="j" horiz-adv-x="325" 
d="M301 722l-18 -21l-14 -24l-16 -19l3 -30l-3 -30l-2 -30l-3 -30v-29l4 -30l1 -30l-1 -29l-2 -30l6 -30l-3 -30l-3 -30l-2 -30l6 -29l-6 -30v-29l6 -29l-2 -29l2 -27l19 -24l25 -19l-31 -12l-29 -10l-29 -11l-31 -8l-24 -14l-8 -26l-10 -28l-10 -27l-17 26l-12 26l-15 27
l-13 26l-14 26l-12 27l-19 24l31 -8l27 -7l26 -9l1 1l25 8l27 10l-6 31v30v30l5 29l-2 30l-2 30l2 30l1 29v30l-4 30l1 30l1 30l-3 30l8 30l-2 30l-5 29l5 29l-4 29l1 26l-16 24l-20 21l-17 18l27 5l28 -6l29 6h29h28l28 -1z" />
    <glyph glyph-name="k" unicode="k" horiz-adv-x="555" 
d="M531 104l-16 -21l-23 -17l-23 -18l-24 -16l-18 -24l-22 -16l-21 -14l-2 26l1 27l-1 26l-23 22l-19 23l-20 23l-18 25l-21 22l-21 22l-16 25l-22 21l-18 23l-15 25l-21 23v-34l-1 -31l4 -31l-5 -31l1 -31l2 -32l-3 -30l6 -28l16 -22l21 -21l19 -23h-32l-29 3l-29 -5l-28 7
l-29 -2l-28 -3l-26 2l14 22l19 19l18 20l-1 31l-1 30l-4 31l2 29l-1 31l3 30l-4 30l2 30l-1 31l-1 29l3 30l1 30l2 30l-6 30l1 30l-1 29v31v30l-1 29l5 28l-19 20l-15 22l-18 21l31 -5l28 4l29 1l28 2l29 -2h28l28 -1l-20 -21l-17 -24l-21 -18l-1 -32l2 -32l3 -32v-32
l-2 -28l20 23l19 26l22 23l19 26l23 21l17 26l24 21l-14 29l-16 23l27 4l30 -2l29 -2l30 2l28 3l29 -6l28 2l-22 -20l-21 -20l-18 -23l-17 -20l-23 -20l-19 -25l-19 -24l-16 -26l-20 -24l-20 -23l-19 -23l-24 -19l-16 -26l-22 -23l22 -21l19 -21l19 -22l16 -25l17 -24
l21 -21l21 -21l20 -22l15 -25l18 -22l16 -23l20 -22l19 -18l27 -8l30 2z" />
    <glyph glyph-name="l" unicode="l" horiz-adv-x="491" 
d="M467 109l-13 -29l-15 -24l-17 -25l-12 -27l-18 -24l-13 -26l-13 -24l-12 26l-4 30l-9 26l-28 11l-30 9l-30 7l-27 14l-28 12l-31 6l-27 14l-29 10l-27 13l-28 10l-25 9l22 20l19 23l5 28l-6 29l7 30l-6 28l7 29l-3 30l1 29l-3 29l1 29l-1 28l1 29l3 29v29l-3 29l-2 28
l-1 28l1 27l-11 24l-22 18l-16 22l30 -2l29 -1l29 5l29 -5l28 1h28l28 1l-22 -19l-19 -22l-13 -23l-5 -31l2 -30v-31l3 -31l2 -30l-7 -31l-1 -31l6 -30l1 -31v-31l-7 -30l8 -31l-6 -30v-30l4 -30v-29l24 -14l27 -11l29 -7l27 -10l28 -8l26 -12l26 -13l26 -7l28 7l26 9z" />
    <glyph glyph-name="m" unicode="m" horiz-adv-x="918" 
d="M894 -3h-33l-30 4l-28 -7l-29 5l-28 3l-29 -8l-29 4l22 27l12 27l-10 28l-13 28l-13 28l-18 26l-15 27l-10 30l-12 28l-16 27l-14 26l-10 -29l-15 -26l-8 -28l-13 -26l-18 -25l-8 -28l-13 -26l-10 -27l-14 -25l-10 -27l-14 -25l-12 -26l-13 27l-12 27l-13 27l-10 27
l-17 24l-8 27l-18 25l-14 25l-13 26l-9 27l-16 24l-5 28l-15 20l-12 -23l-7 -29l-16 -24l-5 -30l-16 -24l-8 -28l-8 -28l-15 -25l-7 -27l-8 -24l18 -27l18 -30l-32 2l-30 -1l-29 -1l-28 2l-29 -1l-29 3l-26 -3l22 24l24 23l19 25l14 27l14 27l7 30l14 27l12 28l12 28l6 31
l11 28l16 26l11 28l12 27l8 29l9 25l-14 26l-13 29l-14 27l-8 31l-14 28l-15 26l-14 27l-10 28l-18 24l-27 9l-28 7l-28 12l26 22l27 17l29 15l24 19l23 19l13 -27l15 -27l16 -26l11 -29l10 -29l18 -25l13 -27l8 -31l20 -23l12 -28l9 -30l19 -25l14 -27l12 -28l13 -29
l15 -26l12 -27l13 -29l9 -28l15 -25l17 -25l8 -26l9 27l14 25l14 25l8 28l18 22l7 29l14 24l12 23l-16 28l-13 28l-15 27l-15 27l-11 30l-14 27l-17 26l-14 28l-16 27l-7 31l-30 8l-29 3l-28 12l27 20l24 21l30 12l22 25l25 14l16 -25l9 -28l19 -24l12 -27l10 -27l18 -24
l9 -29l16 -25l10 -28l16 -25l14 -26l7 -29l17 -24l13 -27l12 -27l13 -26l18 -24l12 -26l12 -27l9 -27l18 -25l11 -27l17 -23l7 -29l19 -23l8 -28l13 -25l11 -24h2l25 -23l24 -23z" />
    <glyph glyph-name="n" unicode="n" horiz-adv-x="746" 
d="M722 721l-16 -23l-21 -21l-16 -20l-2 -29v-29l-2 -29l1 -29l-1 -30l2 -29l4 -30l-4 -29l4 -29l-7 -30l4 -29l-1 -30l1 -29l1 -30l-5 -29l3 -28l-3 -29l4 -29l-5 -27l7 3l20 -22l15 -21l-27 -11l-26 -18l-31 -7l-27 -16l-29 -11l-29 -9l14 32l13 30l9 31l2 30l-1 29l-4 30
l7 30l-2 28v29l-4 26l-23 18l-24 18l-23 19l-22 21l-26 15l-24 18l-21 22l-28 13l-20 23l-27 15l-22 19l-26 16l-23 19l-21 21l-26 14l-21 20l-24 16l3 -30l-4 -29v-30l-1 -29l4 -30l-4 -30l4 -31l1 -30l-5 -29l-1 -30l2 -30l-1 -30l6 -30l-1 -29l-2 -30l-1 -28l-3 -29
l1 -29l21 -20l22 -20l16 -23l-30 -3l-28 7l-29 -6l-29 1l-28 5l-28 -1l-30 -4l19 22l17 21l19 20l-2 31l-4 30l1 31l-2 29l7 31l-1 30l-4 30l5 30l-7 31l2 29l4 30l-6 30l6 30l-3 30l-1 30l1 29l3 31l-6 30l4 29l-3 27l-14 21l-18 20l-13 21l27 4l30 -6l28 2l29 2h28l-1 -8
l23 -20l25 -17l24 -19l24 -16l23 -20l27 -15l22 -19l25 -18l23 -20l23 -20l23 -18l26 -16l22 -20l27 -14l21 -22l24 -13l24 -21l-2 35l3 32l-2 32l-2 31l-3 30l8 31l-3 32l2 30l-17 22l-17 21l-17 18h27l29 4l29 -5l29 5l28 1l28 -3z" />
    <glyph glyph-name="o" unicode="o" horiz-adv-x="614" 
d="M590 448l-5 -29l-4 -29l-4 -29l-10 -28l-13 -26l-7 -29l-21 -21l-14 -24l-23 -19l-23 -17l-23 -17l-28 -10l-27 -8l-27 -6l-26 -6l-27 -2l-28 5h-30l-27 7l-25 14l-25 12l-26 13l-23 16l-17 20l-21 22l-13 27l-18 25l-9 27l-6 29l-10 27l-2 29l-4 27l1 30l10 29l1 30
l12 27l13 26l9 28l20 22l14 23l22 20l26 13l23 17l26 13l26 10l26 10l28 -2l28 1l27 -1h29l27 -10l26 -10l27 -8l23 -19l23 -15l17 -22l18 -23l22 -21l7 -30l12 -26l10 -27l5 -29l8 -28v-28zM495 418l-2 30l-5 33l-4 31l-9 32l-15 29l-21 23l-20 23l-28 12l-25 16l-29 5
l-29 5l-30 -9l-29 -5l-26 -12l-28 -13l-17 -24l-20 -25l-20 -26l-8 -32l-10 -32l4 -31l1 -32l2 -33l17 -29l10 -31l21 -24l22 -20l26 -16l28 -10l28 -8l29 -1l30 6l30 1l27 11l25 17l18 22l22 25l12 31l14 29z" />
    <glyph glyph-name="p" unicode="p" horiz-adv-x="494" 
d="M470 560l-4 -28l-7 -28l-2 -30l-18 -23l-10 -27l-22 -19l-19 -20l-25 -13l-25 -13l-25 -14l-30 -5l-31 -2l-30 4l-30 3l-23 9l-6 -28l4 -30l2 -30l-5 -30l-2 -29l7 -30l-6 -30l-1 -30l1 -27l2 -28l20 -21l16 -25l20 -18l-28 -1l-29 -3l-29 5l-28 1l-29 -3h-28l-26 2
l15 20l19 20l15 22l-5 30l2 31l1 30l-2 30l-1 30l4 30l-1 30v29l4 30l-7 29l7 31l-7 30l8 29v31l-6 30l3 29v30l1 28l-6 26l-14 21l-18 20l-12 22l32 3h32l1 -2l20 20l17 25l28 11l25 13l27 8l28 6l28 3l29 -6l26 -4l28 -13l28 -14l26 -17l20 -22l19 -24l13 -27l11 -28
l4 -30zM371 560l-3 29l-10 29l-17 24l-23 19l-26 13l-28 5l-28 -8l-27 -8l-23 -13l-17 -18v-32l-7 -32l6 -32l-4 -32l-1 -31l22 -18l24 -12l25 -11l27 -4l24 11l25 10l22 17l18 19l14 23l4 27z" />
    <glyph glyph-name="q" unicode="q" horiz-adv-x="615" 
d="M591 448l-5 -29l-6 -29l-6 -29l-7 -29l-10 -27l-13 -26l-18 -23l-20 -19l-22 -20l-20 -21l-27 -12l-25 -13l-26 -16l-29 1l-27 -8l-26 -4l-22 -10l9 -17l32 -12l34 -3l33 -11l29 -3l31 2l27 -14l28 -7l25 -15l25 -17l17 -19l-23 -22l-17 -28l-24 -17l-17 -26l-18 26
l-25 17l-27 13l-30 7l-30 9l-30 1l-29 8l-29 10l-24 18l-23 16l-19 21l-20 20l-2 29l1 27l6 26l-25 12l-23 15l-21 16l-16 21l-23 20l-16 25l-12 28l-16 24l-7 29l-7 29l4 29l-6 27l2 29l3 31l4 29l10 28l15 25l13 27l18 22l13 25l22 20l24 16l24 16l26 12l26 11l27 8l28 2
l56 -2l29 -2l27 -9l26 -11l26 -11l24 -15l22 -17l20 -19l17 -25l18 -24l15 -26l9 -27l8 -28l10 -28l4 -29zM492 418l-1 30l-1 33l-9 31l-11 30l-10 32l-24 20l-21 22l-26 14l-27 10l-27 14l-30 1l-29 -4l-28 -10l-29 -6l-23 -20l-20 -20l-24 -23l-10 -32l-16 -29l-7 -32
l-3 -31l3 -33l11 -31l12 -30l14 -28l17 -27l22 -21l25 -17l29 -10l28 -9h29l30 6l28 8l27 11l27 13l18 22l20 26l19 26l5 33z" />
    <glyph glyph-name="r" unicode="r" horiz-adv-x="534" 
d="M534 131l-24 -19l-16 -26l-22 -21l-22 -16l-27 13l-28 15l-29 11l-24 19l-26 16l-22 22l-23 20l-18 25l-24 21l-17 24l-18 25l-14 26l-8 17l-5 1l-1 -23l2 -32l3 -32l1 -32l-5 -32l-2 -31l1 -32l-2 -29l19 -23l20 -22l22 -19l-31 -2l-28 4l-29 1l-28 1l-29 -4l-28 1
l-26 1l17 19l15 22l13 22v29l7 30l-5 31l-1 29l-1 31l2 30l1 30l-3 30l1 31l-1 29l5 30l2 30l-6 30l4 30l-1 30l-2 29v31l-3 30l7 29l-3 27l-20 19l-13 24l-17 21l33 -2l33 1l32 2l33 -2l31 2l30 -6l29 -6l30 -4l28 -12l24 -19l26 -16l15 -27l16 -24l17 -25v-30l4 -27
l-3 -30l-9 -28l-6 -30l-16 -26l-25 -16l-20 -20l-20 -21l-27 -11l-24 -12l14 -26l22 -19l19 -24l18 -23l24 -19l28 -13l22 -19l26 -12l28 -11l25 -15l25 -14zM304 520l-1 30l-12 28l-22 20l-19 24l-28 7l-27 11l-29 2l-2 -32l2 -32l-2 -32l1 -32l3 -32v-32l3 -29l-5 -31
l31 6l27 13l25 16l24 17l15 25l12 25z" />
    <glyph glyph-name="s" unicode="s" horiz-adv-x="521" 
d="M497 580l-16 -27l-16 -27l2 -19l-22 14l-23 17l-19 22l-22 17l18 25l-5 28l-26 9l-27 -4l-26 -9l-24 -14l-21 -21l-7 -29l-2 -29l9 -29l10 -27l19 -22l11 -26l16 -25l16 -25l8 -30l9 -30l12 -29v-31l5 -30v-32l-6 -31l-7 -29l-13 -28l-16 -26l-13 -27l-22 -19l-23 -17
l-23 -17l-28 -9l-26 -9l-29 -5l-29 2l-26 12l-24 14l-24 12l-15 28l-17 25l-8 30l-3 30l8 29l9 30l17 22l3 23l22 -16l16 -26l20 -21l18 -18l-16 -21l2 -30l23 -18l27 -12l27 9l27 12l18 21l18 24l9 27l3 29l2 28l5 29l-6 28l-14 26l-8 26l-16 22l-10 24l-16 27l-17 28
l-12 29l-6 31l-10 30l-3 31l2 31l8 29l14 27l22 20l19 23l22 21l28 11l29 7l26 13l29 2l30 -6l30 -5l25 -17l22 -20l13 -27l11 -27l2 -27z" />
    <glyph glyph-name="t" unicode="t" horiz-adv-x="473" 
d="M449 725l-19 -25l-21 -20l-28 -11l-26 -10l-27 -9l-29 -3l-26 -10l-30 1v-31v-30l-3 -31l7 -30l-3 -31l-2 -31l3 -30l-3 -31l2 -30l-1 -31l-2 -31l6 -30l-6 -31l3 -30l-1 -30l1 -30l4 -31v-29l-2 -26l16 -24l18 -24l20 -17l-28 2l-29 -4l-29 -3l-29 8l-28 -4h-28l-26 1
l16 19l15 23l16 20l1 31l3 30l-6 30l1 31l2 31l-4 31l7 30l-8 31l1 30l6 31l-3 30l-1 31l5 30l-5 30l-1 30l6 31l-6 30v29v26l-30 1l-30 2l-21 -17l-20 -17l-20 -19v30l1 28l-4 27l3 27l4 22l27 3l30 1l30 -1l30 -1l29 5l26 -1l29 -3l30 -2l30 2l29 8l27 10l26 13l22 13
l27 -19z" />
    <glyph glyph-name="u" unicode="u" horiz-adv-x="641" 
d="M617 723l-20 -23l-14 -23l-17 -19l1 -30l1 -30l1 -30v-30l-3 -30v-31l-2 -30l-2 -30l2 -30l4 -30l-4 -30l-2 -30v-30l3 -30v-29l-2 -30l6 -31l-3 -29l-3 -29l3 -27l15 -22l15 -22l19 -21l-30 4l-30 -1l-29 -5l-29 6h-24l-2 25l-1 28l3 27l-3 26l-30 -9l-30 -13l-29 -10
l-29 -9l-30 -11l-28 -14l-28 -13l-31 -6l-30 -9l-27 -9l-10 -6l-29 1l-31 -3l-29 -2l-30 8l-25 -3l19 18l16 25l17 20v29l5 30l-2 29l-6 29l2 29v29l5 30l-1 29l-3 29l2 30l2 30l-3 29l4 30l-1 29l-7 29l3 29l1 28l-1 30l3 28l-46 40l32 12l28 11l30 10l29 12l29 12l27 14
l-12 -33l-10 -32l-18 -28l-1 -31l1 -31l1 -30v-31l-1 -30l1 -30l2 -30l-4 -31l5 -30l2 -31l-3 -29l-4 -31l4 -30l-2 -30l5 -30l-5 -29l-1 -31l4 -25l27 5l27 13l29 8l26 15l28 6l28 10l25 17l31 4l26 11l26 10l22 13l7 29l-2 30l-3 31l5 31l-3 30l1 30l-5 30v31l7 31l-6 30
v30l7 31l-5 29v29l3 31l-22 18l-21 21l-13 21l27 -2l28 7l29 -3l28 -4l29 5l28 2z" />
    <glyph glyph-name="v" unicode="v" horiz-adv-x="859" 
d="M835 621l-27 -7l-26 -7l-26 -6l-15 -27l-6 -30l-19 -25l-7 -30l-16 -27l-10 -29l-12 -27l-14 -27l-10 -28l-16 -26l-12 -28l-11 -29l-14 -26l-12 -28l-16 -26l-10 -28l-13 -27l-15 -27l-7 -30l-12 -28l-11 -26l-14 -26h-44l-13 28l-13 28l-11 27l-15 26l-18 25l-9 29
l-14 26l-15 26l-16 25l-11 28l-21 22l-8 30l-19 23l-14 26l-11 27l-17 25l-10 28l-15 25l-11 27l-16 25l-10 28l-20 23l-15 26l-9 28l-16 21l-18 29l-25 22l-26 23l31 -4h28l28 1l28 -1l28 -1l28 8l24 -5l-10 -27l-14 -24l15 -24l14 -27l8 -30l15 -26l14 -26l16 -26l16 -25
l12 -28l16 -25l16 -27l13 -27l12 -28l13 -26l15 -26l11 -27l17 -25l14 -25l14 -25l12 -21l12 24l13 27l13 28l15 26l11 29l12 27l15 27l13 28l9 29l15 27l11 28l12 28l12 27l15 26l11 28l9 28l14 27l9 26l5 34l-7 34v36l24 -26l21 -22l23 -20l25 -19l24 -18l18 -26z" />
    <glyph glyph-name="w" unicode="w" horiz-adv-x="902" 
d="M878 721l-19 -25l-26 -21l-22 -23l-12 -27l-12 -27l-11 -28l-12 -26l-7 -29l-14 -26l-5 -29l-18 -25l-10 -28l-6 -29l-17 -26l-11 -27l-5 -29l-16 -26l-12 -26l-10 -28l-10 -27l-12 -27l-10 -25l-8 -28l-28 -2l-29 1l-12 27l-6 28l-8 26l-12 24l-11 22l-8 -26l-11 -28
l-15 -25l-9 -28l-9 -29l-12 -27l-13 -27l-6 -27l-8 -29l-26 5h-19l-9 27l-17 26l-11 27l-5 30l-16 26l-13 27l-6 29l-11 28l-14 27l-5 29l-15 26l-12 26l-9 29l-11 27l-7 30l-13 26l-14 26l-4 30l-10 27l-16 26l-9 27l-6 28l-14 26l-11 25l-26 22l-22 26l-21 24h28l30 -1
l30 -2l29 7l26 -5l8 -28l13 -27l9 -29l16 -26l10 -29l12 -27l7 -30l10 -28l15 -27l6 -30l11 -28l13 -27l10 -28l10 -29l10 -27l16 -27l7 -29l12 -26l8 -24l13 26l6 31l16 27l7 31l12 27l11 28l-10 28l-13 27l-8 28l-16 26l-6 29l-10 25l-25 22l-23 24l-24 24l31 2h30l28 -4
h29l28 5l30 -1l28 -2l-20 -30l-17 -26l7 -24l10 -20l8 25l12 26l9 27l11 25l-12 30l-20 27l36 -1l33 -4l31 1h33l30 3h34l-26 -25l-25 -22l-21 -23l-11 -29l-10 -28l-10 -28l-12 -27l-8 -28l-10 -28l-9 -27l-13 -25l11 -27l8 -27l12 -24h1l11 27l7 29l13 27l9 28l17 25
l10 27l5 30l17 24l9 28l7 29l11 26l16 24l11 27l11 27l-20 30l-17 24l26 1h30l28 -1l29 3l28 1l29 -2z" />
    <glyph glyph-name="x" unicode="x" horiz-adv-x="636" 
d="M612 111l-15 -22l-13 -25l-15 -23l-15 -22l-13 -30l-30 16l-22 23l-26 17l-24 21l-18 24l-24 20l-19 25l-19 23l-19 23l-16 26l-20 26l-11 -28l-13 -26l-16 -25l-11 -28l-15 -25l-12 -27l-15 -22l19 -26l15 -27l-32 -1l-33 -4h-32l-32 5l-31 -1l-29 1l18 25l23 24l22 20
l10 30l19 25l14 28l17 26l12 29l17 26l13 27l16 28l11 27l-18 24l-18 23l-21 20l-18 22l-12 27l-20 20l-16 25l-16 22l-30 3l-27 10l-28 3l26 21l22 23l28 16l25 19l20 24l14 -26l21 -22l19 -21l11 -27l18 -23l18 -22l16 -24l17 -23l18 -23l10 31l17 24l11 28l16 26l16 25
l16 26l10 28l16 24l15 27l14 25l-18 26l-11 24l30 3l33 1l31 -3l33 -3l31 3l31 1l-25 -23l-23 -24l-20 -26l-19 -24l-11 -29l-18 -26l-12 -29l-14 -28l-13 -28l-17 -26l-13 -28l-14 -28l-17 -25l-12 -29l-12 -24l13 -24l16 -23l19 -22l15 -26l21 -20l18 -22l20 -20l15 -25
l20 -20l23 -16l38 -1z" />
    <glyph glyph-name="y" unicode="y" horiz-adv-x="701" 
d="M677 721l-24 -25l-23 -26l-27 -19l-11 -28l-16 -26l-17 -26l-14 -27l-13 -27l-19 -24l-17 -25l-12 -27l-14 -26l-17 -25l-14 -27l-14 -27l-18 -24l-10 -27l-13 -24l-7 -29l3 -30l-1 -28l-3 -29l6 -28l-4 -28l-1 -29l17 -22l19 -19l19 -23l-32 4l-28 -3l-29 5l-29 -7
l-28 -1l-28 3l-25 2l16 21l21 20l16 22l-1 31l-3 31l2 31l3 31l-3 31l3 31v30l-19 24l-12 28l-14 27l-14 27l-13 27l-20 23l-9 29l-16 25l-14 26l-18 24l-9 30l-18 24l-12 28l-15 25l-11 27l-18 24l-12 27l-19 23l-12 24l-25 24l-24 26l-23 26l31 3l28 -5l29 -1l28 -1l27 2
l14 -25l12 -28l17 -24l17 -25l9 -29l14 -27l15 -25l17 -25l16 -24l16 -26l9 -30l14 -26l17 -24l17 -25l12 -27l16 -25l8 -29l17 -23l14 29l15 27l18 25l14 29l16 27l19 24l13 29l19 25l15 26l13 29l16 23l-17 25l-9 25l32 1l32 4l32 -7l32 -1l31 6z" />
    <glyph glyph-name="z" unicode="z" horiz-adv-x="476" 
d="M452 125l-7 -25l-11 -26l-9 -26l-12 -25l-5 -24l-29 2l-30 -5l-30 5l-29 -2l-30 2l-31 -1l-29 -4l-29 -2l-29 8l-30 -1l-30 1l-29 -2l-29 -3l15 29l7 30l17 25l10 30l12 28l14 26l7 30l14 27l7 30l16 25l8 30l12 28l16 26l9 29l14 26l11 29l6 30l12 27l11 29l19 25l8 29
l10 27l15 27l-31 2l-29 -6l-27 -1l-28 3l-27 2l-27 1l-28 -18l-32 -6l-25 -13l10 28l10 30l8 31l13 26l29 4l32 1l31 -3l31 -1l31 3l31 -4h31l31 6l31 -5l31 1l30 3l30 -1l-21 -24l-15 -24l-20 -21l-10 -27l-13 -27l-8 -28l-13 -27l-9 -28l-16 -25l-6 -29l-16 -25l-8 -29
l-11 -27l-10 -28l-13 -27l-11 -28l-15 -25l-10 -28l-10 -27l-7 -29l-13 -25l-15 -25l-10 -27l-10 -25h29l29 -2h28l29 3l28 -5h29l27 7l33 9l31 13z" />
    <glyph glyph-name="braceleft" unicode="{" horiz-adv-x="380" 
d="M356 163l-8 -29l-17 -24l-11 -26l-20 -20l-25 -16l-26 -10l-26 -10l-25 -3l13 -18l21 -16l24 -7l26 10l24 17l1 -35l-2 -33l-1 -33v-31l-26 11l-25 9l-29 3l-28 6l-27 10l-22 18l-19 22l-20 20l-9 27l-15 25v29l-2 27v28l9 27l2 29l12 26l16 24l17 23l15 23l15 24l22 21
l-24 21l-12 28l-22 18l-13 26l-15 25l-6 28l-15 24l-4 28l-3 27l2 29l12 27l10 27l12 25l16 23l24 17l21 19l25 13l27 10h28l28 7l25 12l3 -34l-8 -33l5 -33l-2 -31l-23 15l-25 8l-24 -10l-24 -11l-15 -23l32 2l28 -9l25 -15l21 -18l22 -18l16 -23l12 -26l3 -29v-27l-4 -31
l-5 -33l-10 -30l-18 -25l-2 -1l20 -25l12 -31l6 -31l3 -31zM259 425l-2 33l-17 29l-29 13l-26 8l3 -25l13 -24l18 -21l13 -23l15 -17zM260 199l-11 32l-20 -23l-10 -26l-18 -21l-9 -26l-11 -24l2 -2l30 12l28 17l16 29zM164 313l-29 -23l-19 -25l-23 -21l-26 23l-23 23
l-22 21l26 25l22 24l23 24l24 -26l22 -24z" />
    <glyph glyph-name="bar" unicode="|" horiz-adv-x="104" 
d="M80 -150h-56v999h56v-999z" />
    <glyph glyph-name="braceright" unicode="}" horiz-adv-x="380" 
d="M353 311l-17 -21l-23 -23l-26 -23l-23 21l-19 25l-29 23l25 21l22 24l24 26l23 -24l22 -24zM304 536l-3 -27l-4 -28l-15 -24l-6 -28l-15 -25l-13 -26l-22 -18l-12 -28l-24 -21l22 -21l15 -24l15 -23l17 -23l16 -24l12 -26l2 -29l9 -27v-28l-2 -27v-29l-15 -25l-9 -27
l-20 -20l-19 -22l-22 -18l-27 -10l-28 -6l-29 -3l-25 -9l-26 -11v31l-1 33l-2 33l1 35l24 -17l26 -10l24 7l21 16l13 18l-25 3l-26 10l-26 10l-25 16l-20 20l-11 26l-17 24l-8 29l2 29l3 31l6 31l12 31l18 26l-18 25l-10 30l-5 33l-4 31v27l3 29l12 26l16 23l22 18l21 18
l25 15l28 9l32 -2l-15 23l-24 11l-24 10l-25 -8l-23 -15l-2 31l5 33l-8 33l3 34l25 -12l28 -7h28l27 -10l25 -13l21 -19l24 -17l16 -23l12 -25l10 -27l12 -27zM195 508l-26 -8l-29 -13l-17 -29l-2 -33l12 -27l15 17l13 23l18 21l13 24zM199 111l-11 24l-9 26l-18 21l-10 26
l-20 23l-11 -32l3 -32l16 -29l28 -17l30 -12z" />
    <glyph glyph-name="asciitilde" unicode="~" horiz-adv-x="692" 
d="M668 418l-5 -38l-8 -24l-7 -26l-17 -21l-15 -22l-18 -19l-24 -12l-25 -11l-26 -8l-27 -1l-24 3l-50 6l-24 11l-21 13l-24 10l-23 11l-21 16l-17 21l-18 17l-21 13l-17 17l-22 14l-23 13l-26 4l-23 -11l-21 -15l-9 -17l11 -30l20 -13l12 -20l15 -17l-26 1l-26 -1l-29 -2
l-55 1l-5 29l-5 35l6 25l1 25l10 24l16 20l18 19l21 16l25 9l25 6l26 3h25l23 -9l25 -7l25 -8l20 -18l24 -10l39 -35l20 -16l24 -14l22 -17l24 -12l26 -14l29 -2l26 7l27 7l18 23l17 22l1 12l-15 25l-19 13l-12 19l-16 17h26h27l28 3h27l29 -2l4 -29z" />
    <glyph glyph-name="nbspace" unicode="&#xa0;" horiz-adv-x="250" 
 />
    <glyph glyph-name="exclamdown" unicode="&#xa1;" 
d="M203 522l-18 -19l-20 -21l-20 -19l-20 -17l-22 16l-15 25l-22 18l-22 19l21 21l21 20l18 21l21 18l23 -19l16 -24l24 -16zM225 -135l-31 6l-29 -8l-29 4l-28 -4l-29 1l-28 4l-27 -1l18 22l19 22l21 19l-2 30l2 29l-3 29l-1 30l-1 29l1 29l3 29l-3 29l3 29l-5 29l3 30
l4 28l-7 29l5 29l-6 29l5 28l2 27v-1l30 2l32 -4l29 2v-29l2 -29l1 -30l-5 -29l6 -29l-3 -29l3 -30l-3 -29l3 -28v-30l-1 -29l1 -29l-7 -29l2 -28l-2 -28l5 -30l-2 -26l19 -19l16 -23z" />
    <glyph glyph-name="cent" unicode="&#xa2;" horiz-adv-x="375" 
d="M349 235l-8 -28l-14 -26l-13 -26l-17 -21l-28 -1h-30l-29 9l-28 10l-5 -30l-2 -30l-12 -27l-4 -28l8 -37l-27 -2l-28 3l-29 -4l5 29l8 27l7 28v28l11 27l8 26v25l-20 19l-16 23l-17 22l-14 25l-16 23l-2 28l-10 26l-3 28l5 29l9 27l2 30l12 26l20 22l14 25l20 21l25 15
l25 13l26 9l27 4l3 32l6 32l6 27l-4 26l25 1l29 4l25 -3l-4 -30l-9 -28l-6 -28l-6 -30h26h21l4 -29l-2 -30l-1 -30v-28l1 -29l-28 22l-29 20l-12 11l-4 -31l-6 -30l-2 -30l-12 -29l-1 -31l-13 -28l-4 -30l-5 -29l-7 -29l30 -12l31 -8l30 1l31 3zM187 492l-25 -16l-19 -26
l-13 -29l-6 -31l3 -32l5 -30l18 -28l3 30l5 28l9 28l6 28v28l10 27z" />
    <glyph glyph-name="sterling" unicode="&#xa3;" horiz-adv-x="478" 
d="M454 71l-6 -30l-13 -26l-6 -28l-9 -27l-7 -28l-10 -26l-6 -27l-17 25l-14 26l-11 24l-33 5l-32 4l-28 15l-31 7l-28 12l-29 11l-26 13l-29 6l-28 7l-32 12l-35 4l24 15l15 23l20 14l1 -1l4 31l9 30l5 29h-35l-35 -1l4 34l-5 35l31 1l29 -5l26 4l11 27l5 30l10 28l9 28
l10 29l15 25l11 27l11 28l17 24l13 27l11 28l16 24l19 23l13 25l17 24l15 23l4 26l9 26l6 23l19 -21l19 -21l21 -20l19 -21l18 -23l19 -17l-22 -10l-24 -6l-23 -5l-19 -23l-20 -25l-11 -29l-21 -24l-11 -29l-18 -25l-11 -29l-13 -27l-14 -28l-7 -30l-14 -26l-4 -30l-8 -25
l29 -6l31 1l31 -1l30 4v-34l-1 -33l-29 4l-27 -4l-28 4l-27 -6l-26 4l-2 -33l-7 -30l-6 -27l31 -15l33 -9l26 -11l24 -15l27 -4l25 -9l27 -3l27 9l27 11z" />
    <glyph glyph-name="currency" unicode="&#xa4;" horiz-adv-x="598" 
d="M574 729l-10 -33l-15 -29l-8 -30l-9 -31l-26 19l-28 8l-28 9l-29 -4l-29 1l-29 -6l-29 -8l-24 -16l-21 -20l-23 -18l-23 -18l-14 -25l-18 -22l-8 -27l-11 -28l30 1l29 3l29 -4l30 -1l29 5l30 -4l29 5l29 -6l29 7l29 -7l28 8l27 -4l-15 -35l-15 -33h-30l-31 6l-30 -8
l-30 7l-30 -4l-29 -3l-30 3l-29 1l-30 -1l-29 2l-28 -1l2 -18l28 -2l29 -2l29 1l29 -2l29 2l29 -2l29 5l28 -6l29 1h28l31 4l-22 -34l-14 -31l-29 2l-31 -7h-32l-30 1l-32 4l-30 -5l-30 -1l-30 5l-30 -2l7 -30l17 -26l12 -29l20 -24l23 -21l20 -22l27 -13l23 -17l26 -15
l30 -3l29 -7l29 -1l30 2l30 -2l29 2l27 9l-1 -2l-14 -24l-19 -20l-13 -24l-15 -22l-18 -17l-16 -3h-29l-30 4l-29 9l-29 5l-29 10l-25 17l-28 11l-25 16l-23 19l-20 23l-24 18l-14 25l-22 20l-14 25l-16 25l-5 29l-14 25l-3 33h-39l-35 -5l14 36l19 27l32 4l-1 19l-32 3
l-32 -3l18 34l11 36h41l8 26l6 31l17 26l11 28l18 24l17 25l20 22l26 17l24 19l25 15l27 14l28 11l30 5l29 7l30 -4l28 3l28 5l27 -6l27 5l26 1z" />
    <glyph glyph-name="yen" unicode="&#xa5;" horiz-adv-x="711" 
d="M687 721l-24 -21l-22 -27l-20 -24l-16 -26l-16 -25l-16 -25l-16 -25l-10 -28l-19 -24l-12 -27l-18 -24l-12 -24l27 2l27 -4l25 5l28 -1l-5 -35l3 -33l-29 2l-29 3l-28 -8l-29 1l-28 4l-9 -20h29l32 -1l31 2l30 -2l28 -2l3 -32v-34l-34 5l-33 -4l-32 -2l-33 3l-31 2
l-30 -3l-6 -7l-3 -30l8 -29l-5 -29l1 -29l-2 -28l4 -28l-4 -28l21 -19l16 -21l14 -23l-29 -4l-28 8l-29 -2l-29 -5l-28 4h-28l-29 -1l20 22l20 21l15 22l-2 29l3 30l4 30l1 31l-4 29l1 29l-4 26l-26 -1l-28 7l-29 -2l-29 -4l-28 -1l-28 3l-25 3l-6 30l3 33l28 -2l28 2l29 2
l28 -3l28 2l24 1l-8 21h-33l-32 -6l-31 5l-31 -3l-28 3l2 31l-6 36l33 1l30 -7h30l29 3l-16 26l-15 25l-12 27l-15 24l-14 25l-10 27l-16 24l-16 25l-9 26l-24 26l-29 20l-21 25l28 3h29l28 1l28 -6h26l13 -26l19 -25l13 -28l18 -24l15 -26l12 -29l16 -26l12 -28l12 -28
l16 -25l19 -22l10 -30l13 -23l16 27l16 27l18 25l14 29l19 25l14 28l16 27l17 26l14 26l20 25l10 26l-12 27l-12 23l30 4l33 -7l32 4l32 3l31 -5z" />
    <glyph glyph-name="brokenbar" unicode="&#xa6;" horiz-adv-x="104" 
d="M80 369h-56v480h56v-480zM80 -151h-56v480h56v-480z" />
    <glyph glyph-name="section" unicode="&#xa7;" horiz-adv-x="595" 
d="M571 627l-4 -32l-10 -29l-23 -24l3 -18l-23 12l-23 18l-20 19l-20 18l-1 2l25 23l-9 34l-28 9l-29 -1l-25 -16l-24 -13l-17 -23l-8 -28l-3 -29l4 -29l14 -27l14 -24l16 -24l18 -24l12 -27l9 -30l15 -27l5 -31l2 -31l8 -30l-6 -32l-6 -30l-2 -31l-16 -27l-17 -25l-11 -28
l-13 -12l-10 -28l-6 -28l-7 -29l-15 -26l-21 -21l-17 -23l-20 -20l-28 -10l-26 -11l-27 -8l-29 -6l-28 3l-27 8l-22 17l-26 11l-17 27l-12 27l-15 28l-1 31l10 29l9 30l13 22l7 26l21 -21l25 -16l13 -28l21 -18l-22 -21l10 -29l17 -21l27 -5l29 1l25 14l18 22l16 24l9 27
l11 27v28l-5 29l-1 29l-8 28l-14 23l-12 24l-15 21l-16 28l-10 30l-14 29l-15 28l-3 32l-1 31l1 31l10 30l17 26l15 28l24 19v13l3 30l4 30l18 25l19 22l18 24l24 18l28 10l26 15l29 2l28 4l30 1l29 -9l23 -19l21 -21l20 -22l10 -27zM349 231l-2 30l-1 32l-13 28l-9 30
l-12 23l-17 20l-13 26l-13 25l-4 -30l8 -31l5 -33l20 -26l17 -26l10 -28l15 -25z" />
    <glyph glyph-name="dieresis" unicode="&#xa8;" horiz-adv-x="305" 
d="M281 828l-18 -23l-19 -20l-22 -20l-17 27l-24 16l-17 19l19 21l23 18l16 23l22 -21l19 -21zM141 828l-18 -23l-19 -20l-22 -20l-17 27l-24 16l-17 19l19 21l23 18l16 23l22 -21l19 -21z" />
    <glyph glyph-name="copyright" unicode="&#xa9;" horiz-adv-x="775" 
d="M518 199l-3 -1l1 1h2zM515 198l-12 -28l-20 -24l-16 -25l-17 -25l-32 5l-31 2l-29 9l-28 9l-27 14l-27 15l-23 18l-23 19l-23 21l-17 24l-10 29l-10 27l-14 27l-4 30l3 29l1 31l1 32l9 29l17 26l10 31l23 21l23 20l22 22l28 12l28 11l29 8l30 8l28 -4l38 7l36 -2l-2 -29
l-3 -27l7 -28l-4 -27v-25l-12 25l-21 17l-24 11l-26 4l-30 -1l-29 -8l-23 -19l-26 -13l-16 -25l-13 -25l-8 -28l-6 -28l-3 -27l1 -30l4 -31l14 -27l18 -25l19 -23l24 -19l26 -14l31 -4l28 -12l30 -1l29 3l29 -3zM751 360l-6 -30l3 -31l-8 -30l-8 -29l-16 -26l-12 -28
l-16 -26l-15 -26l-21 -22l-21 -22l-26 -16l-25 -17l-24 -17l-27 -11l-26 -11l-29 -9l-29 -3l-29 -9l-28 5l-30 -2l-30 6h-31l-28 12l-28 10l-29 12l-25 18l-24 18l-24 20l-17 25l-24 19l-14 28l-15 24l-16 25l-8 28l-10 28l-2 30l-7 29l4 28l-6 30l8 30l2 31l11 29l12 27
l15 27l12 28l24 20l16 26l24 20l20 23l25 17l27 12l27 11l27 11l28 7l29 4l29 7l28 1v1h30l31 -5l29 -8l28 -10l28 -11l30 -9l24 -19l25 -17l26 -17l16 -26l18 -24l18 -24l17 -24l15 -25l12 -27l8 -29l6 -29l-1 -30zM686 360l-4 30l-4 29l-7 28l-7 30l-15 26l-15 25l-21 22
l-21 20l-21 20l-23 18l-26 12l-25 14l-27 6l-26 12l-29 5l-27 1l-30 -1l-29 -8l-29 -4l-27 -14l-28 -10l-25 -16l-24 -18l-19 -22l-18 -23l-19 -22l-14 -25l-14 -25l-10 -27l-5 -28l-5 -28l1 -27l-1 -30l7 -29l4 -29l15 -27l8 -29l20 -22l19 -22l17 -24l22 -20l23 -18
l27 -12l25 -13l27 -8l28 -4l27 -7l27 -1l30 4l29 2l29 3l26 17l27 13l28 9l22 21l18 23l23 19l16 24l16 24l9 27l15 25l1 29l5 28z" />
    <glyph glyph-name="ordfeminine" unicode="&#xaa;" horiz-adv-x="440" 
d="M416 368l-3 -9l-39 2l-36 -2l-40 3l16 28l-18 27l-18 29l-15 30l-13 23l-12 -4l-30 -19l-30 -18l-28 -20l-26 -17l-3 -15l-4 -13l7 -12l5 -19l-37 1h-32l-36 -1l10 19l24 21l5 33l11 32l11 32l10 32l9 32l9 32l10 32l6 34l12 31l7 27l-13 32l-26 19l-38 15l25 11l29 21
l35 21l16 -39l9 -14l15 -30l14 -30l4 -17l16 -29l14 -30l14 -31l14 -30l15 -30l15 -29l15 -28l16 -28l17 -26l19 -26l18 -29zM222 554l-5 9l-11 31l-17 26l-9 14l-5 -33l-12 -30l-6 -33l-11 -30l20 10l32 18z" />
    <glyph glyph-name="guillemotleft" unicode="&#xab;" horiz-adv-x="315" 
d="M291 260l-23 -12l-11 -19l-23 -2l1 1l-12 15l-12 16l-12 17l-12 17l-12 17l-8 20l-15 15l-8 15l8 16l15 15l8 20l12 17l12 17l12 16l12 16l12 16l22 -2l9 -19l25 -11l-15 -18l-14 -19l-14 -19l-17 -15l-16 -15l-13 -15l13 -14l16 -15l17 -15l14 -19l14 -19zM171 260
l-23 -12l-11 -19l-23 -2l1 1l-12 15l-12 16l-12 17l-12 17l-12 17l-8 20l-15 15l-8 15l8 16l15 15l8 20l12 17l12 17l12 16l12 16l12 16l22 -2l9 -19l25 -11l-15 -18l-14 -19l-14 -19l-17 -15l-16 -15l-13 -15l13 -14l16 -15l17 -15l14 -19l14 -19z" />
    <glyph glyph-name="logicalnot" unicode="&#xac;" horiz-adv-x="572" 
d="M548 405l-4 -23l3 -27l-1 -42l1 -18v-31v-30l-1 -29l-26 7l-31 -3l-35 1l1 30l-1 29l-3 29l-1 14l-18 -1h-30h-31l-30 1h-30l-30 -2l-30 2l-30 -2l-30 4l-30 -2l-30 3l-29 -2l-30 1l-31 3h-17l7 50l-7 43l23 -1l30 1h30l30 -2l30 -4l30 3l30 2l30 -5h30l30 7l30 -6l30 -2
l29 1l30 3l16 1l13 1l30 1l41 -2z" />
    <glyph glyph-name="sfthyphen" unicode="&#xad;" horiz-adv-x="211" 
d="M187 357l-24 -19l-19 -20l-18 -22l-20 -19l-21 21l-18 22l-24 16l-19 21l21 22l21 19l21 18l19 24l17 -26l21 -20l24 -16z" />
    <glyph glyph-name="registered" unicode="&#xae;" horiz-adv-x="452" 
d="M331 527l-10 -40l-26 12l-25 16l-9 29l-17 21l-11 4l-17 -2l4 -42l15 -17l13 -18l-26 -2l-27 -1l-27 1l-29 2l34 32l-3 32v32l1 31l1 30l-5 30l-1 33l-13 23l20 6l31 3l29 -5l28 -3l23 -13l23 -17l12 -25l4 -26l-1 -26l-11 -23l-20 -17l17 -33zM270 652l-13 29l-35 12
l-3 -28l1 -29l2 -19l5 -5l32 8zM428 578l-7 -28l-12 -27l-10 -28l-18 -23l-22 -20l-23 -19l-28 -10l-25 -11l-29 -3l-27 -8l-29 5l-28 9l-29 8l-27 12l-20 24l-25 16l-14 26l-16 25l-10 27l1 29l-6 26l1 30l11 27l6 30l13 27l22 20l19 22l25 15l24 19l27 8h29l27 9l30 -5
l28 -8l27 -11l28 -11l19 -23l26 -16l13 -27l12 -26l12 -25l4 -28l1 -27v-30zM393 608l-5 29l-12 26l-6 29l-16 24l-25 16l-21 18l-28 7l-26 13l-27 4l-29 -3l-27 -12l-26 -11l-25 -15l-17 -23l-17 -22l-11 -26l-4 -28l-3 -26l-1 -29l12 -26l12 -26l13 -25l23 -16l21 -18
l26 -11l53 -13l29 5l53 21l25 13l22 20l14 25l7 27l9 27z" />
    <glyph glyph-name="degree" unicode="&#xb0;" horiz-adv-x="327" 
d="M303 588l-10 -42l-20 -39l-33 -27l-35 -22l-41 -2l-43 1l-38 23l-31 30l-16 38l-12 40l15 42l15 40l30 32l39 16l41 9l43 -10l37 -23l31 -28l16 -38zM227 588l-23 41l-39 25v-1l-40 -27l-24 -38l23 -42l41 -23l44 22z" />
    <glyph glyph-name="plusminus" unicode="&#xb1;" horiz-adv-x="578" 
d="M554 313l-26 2l-30 -4l-30 2l-31 -2h-30h-30l-36 1l1 -17l-4 -30l2 -29l-3 -30l2 -30l-1 -30l4 -25l-53 9l-46 -7l-1 28v30l3 31l3 30l-3 30l-2 30l2 9l-18 -1l-30 4l-30 -2l-30 3l-30 -2l-30 1l-30 3h-17l6 50l-6 43l22 -1l31 1h30l30 -2l30 -4l30 3l30 2l12 -2l3 14
l1 30l-1 29l-3 30l-2 29l-1 30l-1 29l6 24l54 -10l38 10l-2 -25l4 -31l-2 -30l2 -30v-30v-30l-1 -31v-8l12 -2l31 -2l29 1l29 3l30 2l29 1l29 1l25 -6l-11 -53zM548 -1l-25 2l-31 -4l-30 2l-30 -2h-30h-30l-31 1l-29 -1l-31 -1l-30 2l-30 -2l-30 4l-29 -2l-30 3l-30 -2
l-30 1l-30 3l-18 -1l7 51l-7 43l23 -1l30 1h30l31 -3l30 -3l29 3l31 2l30 -5h29l30 7l30 -7l30 -1l29 1l30 3l29 2l30 1l29 1l24 -5l-10 -54z" />
    <glyph glyph-name="twosuperior" unicode="&#xb2;" horiz-adv-x="218" 
d="M194 646l-2 -35l-9 -32l-16 -30l-14 -30l-18 -28l-17 -29l-15 -23l9 -8l29 -14l36 -6l10 -44l-40 -7l-36 -4l-34 12l-30 18l-23 25l10 19l20 26l17 30l19 28l15 30l16 31l8 31l7 30l-5 29l-19 25l-27 10l-40 2l29 34l20 29l23 32l31 -30l21 -26l14 -30l8 -33z" />
    <glyph glyph-name="threesuperior" unicode="&#xb3;" horiz-adv-x="235" 
d="M211 733l-29 -30l-17 -26l-18 -28l-9 -10l15 -27l12 -32l11 -33v-35l-5 -35l-14 -33l-14 -31l-22 -27l-28 -18l-27 -19l-18 -4l-24 40l39 16l23 23l14 30l12 31l-2 33l-7 32l-11 31l-20 23l-12 16l23 30l20 28l17 25l-23 16l-23 23l24 31l28 29l29 -24l25 -22z" />
    <glyph glyph-name="acute" unicode="&#xb4;" horiz-adv-x="299" 
d="M275 950l-24 -26l-25 -20l-21 -24l-19 -26l-19 -26l-24 -21l-22 -21l-19 -21l-26 -1l-28 -5l-24 4l11 25l21 21l11 27l16 23l16 24l17 22l17 22l15 22l32 -3l31 2l32 -2z" />
    <glyph glyph-name="mu1" unicode="&#xb5;" horiz-adv-x="639" 
d="M615 -2h-31h-30l-30 1l-30 -2h-29l-30 -3l-27 5l20 30l26 27l-13 36l-7 36l-21 -27l-10 -29l-24 -20l-20 -21l-26 -17l-28 -8l-28 -6l-30 5l-30 11l-24 19l-27 20l2 -31l-3 -30l3 -29l22 -20l17 -24l20 -21l-31 4l-28 -3l-29 2l-29 2l-28 -7l-28 6l-30 -4l18 23l16 21
l16 20l2 29l-2 30l5 30l-6 29l2 30v29l3 29l-1 30l-1 28l2 30l-5 28l2 29l-1 27l-18 19l-13 25l-18 20l30 2l28 -2l29 -3l29 6l28 -5l28 -2l27 2l-19 -19l-17 -24l-16 -20l-4 -30l8 -30l-1 -30l6 -30l8 -29l19 -56l21 -22l23 -17l25 -5l29 3l22 19l20 21l12 26l7 28l6 28
l3 26l-3 32l-2 31l-15 27l-17 25l-15 27l-21 17l65 3l31 3h33l31 -4l30 2l-22 -27l-12 -30l10 -28l4 -30l10 -28l8 -29l8 -29l11 -27l7 -29l8 -29l11 -27l12 -25l22 -24l21 -23z" />
    <glyph glyph-name="paragraph" unicode="&#xb6;" horiz-adv-x="460" 
d="M436 567l-3 -30l-3 -29v-29l5 -29l-2 -28v-28l-32 20l-29 15l-22 -9l-25 -9l2 -32l-4 -30l7 -30l-2 -26l32 15l28 18l21 23l23 23l1 -29l1 -29l-5 -30l2 -29v-30l-1 -29l2 -28l-32 18l-28 19l-24 -6l-24 -13l6 -29l-3 -27l2 -27l1 -27l-3 -26v-30l-12 -28l-12 -27
l-24 -19l-19 -23l-27 -11l-29 -7l-27 -8l-29 6l-29 9l-26 15l-25 16l-13 27l-16 25l-11 28l-2 27l2 33l-4 33l3 33l26 13l26 11l25 16l29 7l24 14l27 12l26 10l24 13l-3 31v30l5 30l-1 34l-30 -17l-27 -13l-27 -15l-25 -14l-28 -8l-26 -21l-22 -23l-22 -20l-4 27l4 29v30
l-3 29l5 30l-4 29l1 25l30 -18l30 -13l29 5l22 18l-25 6l-26 14l-19 21l-17 23l-16 24l-5 27v27l-3 30l12 29l16 24l15 26l27 14l24 15l29 9l27 1l30 -1h30l30 2l30 -1l29 2l30 1l22 -3l-14 -21l-22 -20l-19 -20l7 -31l-1 -30l-2 -28l-3 -28l1 -31l36 20l24 22l25 20l21 19z
M236 113l-5 24l-26 -12l-30 -10l-28 -12l-28 -15l1 -36l7 -29l24 -17l26 -12l26 13l22 18l6 27l2 30z" />
    <glyph glyph-name="periodcentered" unicode="&#xb7;" horiz-adv-x="211" 
d="M187 357l-24 -19l-19 -20l-18 -22l-20 -19l-21 21l-18 22l-24 16l-19 21l21 22l21 19l21 18l19 24l17 -26l21 -20l24 -16z" />
    <glyph glyph-name="cedilla" unicode="&#xb8;" horiz-adv-x="234" 
d="M210 -127l-3 -29l-17 -24l-16 -22l-22 -21l-25 -15h-31l-26 -3l-16 26l-16 29l-14 26l31 -7h31l26 13l25 14l12 28l-10 26l-16 23l-26 5l-13 22l-14 22l29 46l6 27l34 -11l29 -8l-10 -22l-8 -23l23 -18l17 -23l14 -25l6 -28v-28z" />
    <glyph glyph-name="onesuperior" unicode="&#xb9;" horiz-adv-x="186" 
d="M162 410l-36 -20l-32 -16l-37 -24l14 47l9 33l-2 33l-1 33l3 35l-2 33v34l-1 33l-1 34l4 32l-2 12l-29 -1l-25 1l18 21l24 22l19 25l13 12l40 -2l2 -37v-33v-34l-3 -34v-34l4 -32l-4 -35l3 -33l-1 -34v-33l1 -15z" />
    <glyph glyph-name="ordmasculine" unicode="&#xba;" horiz-adv-x="448" 
d="M424 604l-2 -32l-4 -35l-13 -31l-18 -27l-20 -25l-26 -26l-31 -21l-34 -8l-34 -10l-36 1l-36 7l-31 15l-33 16l-25 26l-20 26l-16 29l-11 32l-8 32l-2 32l4 33l4 35l6 15l16 28l6 17l21 25l28 22l29 21l34 13l35 2l36 4l35 -8l33 -15l29 -17l28 -24l22 -24l15 -32l14 -30
l5 -33v-33zM362 571v32l-4 35l-7 35l-18 29l-20 23l-29 17l-29 10l-31 4l-31 -2l-30 -11l-24 -19l-22 -25l-20 -28l-9 -32l-2 -34l5 -34l10 -33l16 -29l21 -24l28 -17l28 -14l30 -3l32 5l31 10l25 18l22 24l17 30z" />
    <glyph glyph-name="guillemotright" unicode="&#xbb;" horiz-adv-x="315" 
d="M291 360l-8 -15l-15 -15l-8 -20l-12 -17l-12 -17l-12 -17l-12 -16l-12 -15l1 -1l-23 2l-11 19l-23 12l15 18l14 19l14 19l17 15l16 15l13 14l-13 15l-16 15l-17 15l-14 19l-14 19l-15 18l25 11l9 19l22 2l12 -16l12 -16l12 -16l12 -17l12 -17l8 -20l15 -15zM171 360
l-8 -15l-15 -15l-8 -20l-12 -17l-12 -17l-12 -17l-12 -16l-12 -15l1 -1l-23 2l-11 19l-23 12l15 18l14 19l14 19l17 15l16 15l13 14l-13 15l-16 15l-17 15l-14 19l-14 19l-15 18l25 11l9 19l22 2l12 -16l12 -16l12 -16l12 -17l12 -17l8 -20l15 -15z" />
    <glyph glyph-name="onequarter" unicode="&#xbc;" horiz-adv-x="620" 
d="M596 311l-7 -20l-11 -18l-8 -19l-15 -16l-7 -19l-9 -19l-14 14l-14 10h-9l-1 -20l-1 -20l-1 -21l3 -20v-20l-3 -20v-21l1 -20l14 -13l9 -13l-17 -10l-18 -10l-18 -11l-20 -6l-17 -10l-18 -11l8 20l6 21l3 21l7 19l-2 21l-1 22l3 21l-4 20l2 21l-2 21l2 20l2 21l-23 1h-21
l-21 -2h-21l-21 2l-21 -3l-5 19l-11 16l16 14l9 18l13 16l10 17l12 16l12 16l10 17l12 16l10 16l13 16l13 15l9 18l11 16l13 13l22 1h22l-3 -20l-1 -20l4 -20l-4 -20l3 -19l2 -21l-1 -19l-3 -19l4 -20l-3 -18l1 -2l16 -1l20 6l20 8l20 5zM440 311l-5 22l4 21l-2 21l-13 -17
l-14 -17l-9 -19l-14 -17l-13 -16l1 -2h22l21 -1l19 3zM443 721l-12 -19l-12 -21l-14 -19l-12 -18l-10 -25l-6 -25l-7 -25l-7 -26l-11 -23l-6 -27l-6 -25l-11 -24l-6 -26l-12 -23l-7 -26l-9 -24l-4 -26l-11 -24l-8 -25l-3 -26l-8 -25l-11 -22l-7 -26l-4 -25l-12 -23l-6 -25
l-11 -24l-4 -23l4 -27l-16 -23h-28l-28 1l-29 -2v19l12 17l10 19l17 16l4 27l13 24l3 26l9 25l5 26l8 26l12 23l5 27l12 24l7 24l4 27l11 24l4 26l8 25l7 25l13 24l7 25l5 27l8 23l10 25l4 26l7 26l10 22l6 24l-8 26l13 21l33 6l26 -4l26 4zM168 274l-18 -11l-18 -8l-17 -13
l-21 -6l-18 -9l-18 -12l6 22l9 20l1 21l10 18l-5 21l2 20l-2 20l1 20v20l4 20l-1 21l-1 20l-1 20l1 20l-2 20l1 20l-2 21v19l4 20v20l-2 18l-19 1l-20 -3l-17 3l-1 -1v1h1l12 14l16 13l13 15l12 15l12 15l13 14h22l19 -3l2 -19v-20l-2 -20l2 -20v-21v-20l-2 -20l-1 -21
l3 -20l-4 -19l2 -21l3 -20l-1 -20l-3 -20v-20l3 -20l-2 -20v-21v-20v-19v-19l14 -13z" />
    <glyph glyph-name="onehalf" unicode="&#xbd;" horiz-adv-x="538" 
d="M514 349l-2 -19v-20l-2 -20l-5 -19l-5 -20l-12 -17l-8 -17l-9 -18l-8 -18l-10 -18l-11 -16l-11 -16l-10 -18l-10 -17l-11 -14l15 -14l17 -12l20 -4l20 -5l20 -3l6 -21l4 -22l-22 -5l-20 -3l-20 -2l-21 -2l-19 8l-20 5l-18 10l-18 11l-11 16l-13 11l11 18l12 16l11 16
l8 19l13 16l13 16l10 19l9 18l9 18l9 19l9 18l7 19l3 19l6 19l3 18l-4 19l-3 19l-11 15l-12 15l-17 7l-17 6l-20 4l-19 -1l14 17l14 15l11 19l13 16l13 17l12 16l18 -15l13 -15l12 -16l14 -15l8 -18l8 -17l4 -19l4 -19zM443 721l-12 -19l-12 -21l-14 -19l-12 -18l-10 -25
l-6 -25l-7 -25l-7 -26l-11 -23l-6 -27l-6 -25l-11 -24l-6 -26l-12 -23l-7 -26l-9 -24l-4 -26l-11 -24l-8 -25l-3 -26l-8 -25l-11 -22l-7 -26l-4 -25l-12 -23l-6 -25l-11 -24l-4 -23l4 -27l-16 -23h-28l-28 1l-29 -2v19l12 17l10 19l17 16l4 27l13 24l3 26l9 25l5 26l8 26
l12 23l5 27l12 24l7 24l4 27l11 24l4 26l8 25l7 25l13 24l7 25l5 27l8 23l10 25l4 26l7 26l10 22l6 24l-8 26l13 21l33 6l26 -4l26 4zM168 274l-18 -11l-18 -8l-17 -13l-21 -6l-18 -9l-18 -12l6 22l9 20l1 21l10 18l-5 21l2 20l-2 20l1 20v20l4 20l-1 21l-1 20l-1 20l1 20
l-2 20l1 20l-2 21v19l4 20v20l-2 18l-19 1l-20 -3l-17 3l-1 -1v1h1l12 14l16 13l13 15l12 15l12 15l13 14h22l19 -3l2 -19v-20l-2 -20l2 -20v-21v-20l-2 -20l-1 -21l3 -20l-4 -19l2 -21l3 -20l-1 -20l-3 -20v-20l3 -20l-2 -20v-21v-20v-19v-19l14 -13z" />
    <glyph glyph-name="threequarters" unicode="&#xbe;" horiz-adv-x="618" 
d="M594 311l-7 -20l-11 -18l-8 -19l-15 -16l-7 -19l-9 -19l-14 14l-14 10h-9l-1 -20l-1 -20l-1 -21l3 -20v-20l-3 -20v-21l1 -20l14 -13l9 -13l-17 -10l-18 -10l-18 -11l-20 -6l-17 -10l-18 -11l8 20l6 21l3 21l7 19l-2 21l-1 22l3 21l-4 20l2 21l-2 21l2 20l2 21l-23 1h-21
l-21 -2h-21l-21 2l-21 -3l-5 19l-11 16l16 14l9 18l13 16l10 17l12 16l12 16l10 17l12 16l10 16l13 16l13 15l9 18l11 16l13 13l22 1h22l-3 -20l-1 -20l4 -20l-4 -20l3 -19l2 -21l-1 -19l-3 -19l4 -20l-3 -18l1 -2l16 -1l20 6l20 8l20 5zM438 311l-5 22l4 21l-2 21l-13 -17
l-14 -17l-9 -19l-14 -17l-13 -16l1 -2h22l21 -1l19 3zM441 721l-12 -19l-12 -21l-14 -19l-12 -18l-10 -25l-6 -25l-7 -25l-7 -26l-11 -23l-6 -27l-6 -25l-11 -24l-6 -26l-12 -23l-7 -26l-9 -24l-4 -26l-11 -24l-8 -25l-3 -26l-8 -25l-11 -22l-7 -26l-4 -25l-12 -23l-6 -25
l-11 -24l-4 -23l4 -27l-16 -23h-28l-28 1l-29 -2v19l12 17l10 19l17 16l4 27l13 24l3 26l9 25l5 26l8 26l12 23l5 27l12 24l7 24l4 27l11 24l4 26l8 25l7 25l13 24l7 25l5 27l8 23l10 25l4 26l7 26l10 22l6 24l-8 26l13 21l33 6l26 -4l26 4zM230 653l-13 -17l-15 -15
l-11 -16l-11 -16l-11 -16l-10 -17l-13 -14l10 -18l9 -18l8 -19l7 -18l5 -20l8 -18l-2 -22l2 -20l-4 -21l-2 -20l-6 -19l-10 -18l-9 -19l-7 -19l-14 -14l-12 -17l-15 -12l-17 -9l-16 -12l-16 -10l-18 -3l-14 18l-9 20l22 11l19 7l14 16l17 12l10 19l6 19l10 19l4 20l-4 20
l2 21l-2 19l-6 19l-5 19l-9 19l-11 17l-14 13l-12 14l12 16l14 16l11 19l13 16l11 18l13 16l-16 11l-15 11l-13 13l-13 11l14 15l14 18l12 17l16 14l17 -11l15 -14l15 -13l14 -13l12 -15z" />
    <glyph glyph-name="questiondown" unicode="&#xbf;" horiz-adv-x="310" 
d="M248 543l-20 -19l-19 -22l-18 -20l-21 -18l-18 22l-24 17l-20 20l-16 21l20 18l16 24l24 16l18 21l19 -21l21 -19l18 -22zM286 27l-20 -26l-15 -28l-19 -26l-9 -30l-19 -27l-15 -26l-27 22l-27 15l-19 23l-23 19l-18 22l-15 25l-8 28l-8 28l-13 26l-6 27l2 32l-3 31l3 31
l8 29l3 31l9 29l7 30l15 28l17 26l7 31l12 27l14 27l1 -3l23 -8l25 -10l23 -6l-10 -32l-19 -25l-6 -31l-15 -27l-6 -30l-12 -27l-2 -31l-9 -29l-2 -30l7 -30l6 -29l13 -27l16 -25l25 -11l26 -10l27 -2h27z" />
    <glyph glyph-name="Agrave" unicode="&#xc0;" horiz-adv-x="693" 
d="M669 -3l-31 2l-27 -4l-29 2l-29 -1l-29 6l-29 -3l10 24l16 25l-11 26l-9 30l-10 29l-16 28l-2 32l-15 28l-12 29l-8 29l-24 -15l-24 -16l-21 -20l-28 -14l-26 -15l-22 -23l-29 -13l-23 -20l-25 -17l-26 -16l-12 -30l-7 -33l10 -23l15 -27l-30 4l-28 -5h-29l-28 2l-29 1
l-28 1l18 16l20 22l21 22l5 28l7 28l16 25l4 28l13 27l12 27l10 27l4 30l14 26l6 29l11 27l12 27l9 28l10 28l14 26l6 29l12 26l6 29l8 29l15 26l11 27l9 28l11 28l9 27l26 -2l29 3l12 -24l5 -29l11 -26l7 -28l12 -26l10 -28l13 -27l10 -27l4 -30l12 -26l12 -28l10 -27
l8 -28l10 -28l9 -28l9 -28l12 -27l12 -26l11 -28l7 -28l12 -28l9 -28l9 -28l13 -26l15 -22l21 -20zM409 365l-11 27l-5 26l-8 27l-11 26l-11 26l-6 27l-13 21l-9 -22l-7 -27l-11 -27l-8 -28l-13 -26l-12 -27l-5 -29l-8 -29l-14 -26l-5 -29l-11 -24l20 14l24 16l27 14l24 19
l21 21l25 17zM392 765l-24 -4l-28 5l-26 1l-19 21l-22 21l-24 21l-19 26l-19 26l-21 24l-25 20l-24 26l32 -4l32 2l31 -2l32 3l15 -22l17 -22l17 -22l16 -24l16 -23l11 -27l21 -21z" />
    <glyph glyph-name="Aacute" unicode="&#xc1;" horiz-adv-x="693" 
d="M669 -3l-31 2l-27 -4l-29 2l-29 -1l-29 6l-29 -3l10 24l16 25l-11 26l-9 30l-10 29l-16 28l-2 32l-15 28l-12 29l-8 29l-24 -15l-24 -16l-21 -20l-28 -14l-26 -15l-22 -23l-29 -13l-23 -20l-25 -17l-26 -16l-12 -30l-7 -33l10 -23l15 -27l-30 4l-28 -5h-29l-28 2l-29 1
l-28 1l18 16l20 22l21 22l5 28l7 28l16 25l4 28l13 27l12 27l10 27l4 30l14 26l6 29l11 27l12 27l9 28l10 28l14 26l6 29l12 26l6 29l8 29l15 26l11 27l9 28l11 28l9 27l26 -2l29 3l12 -24l5 -29l11 -26l7 -28l12 -26l10 -28l13 -27l10 -27l4 -30l12 -26l12 -28l10 -27
l8 -28l10 -28l9 -28l9 -28l12 -27l12 -26l11 -28l7 -28l12 -28l9 -28l9 -28l13 -26l15 -22l21 -20zM409 365l-11 27l-5 26l-8 27l-11 26l-11 26l-6 27l-13 21l-9 -22l-7 -27l-11 -27l-8 -28l-13 -26l-12 -27l-5 -29l-8 -29l-14 -26l-5 -29l-11 -24l20 14l24 16l27 14l24 19
l21 21l25 17zM562 952l-24 -26l-25 -20l-21 -24l-19 -26l-19 -26l-24 -21l-22 -21l-19 -21l-26 -1l-28 -5l-24 4l11 25l21 21l11 27l16 23l16 24l17 22l17 22l15 22l32 -3l31 2l32 -2z" />
    <glyph glyph-name="Acircumflex" unicode="&#xc2;" horiz-adv-x="693" 
d="M669 -3l-31 2l-27 -4l-29 2l-29 -1l-29 6l-29 -3l10 24l16 25l-11 26l-9 30l-10 29l-16 28l-2 32l-15 28l-12 29l-8 29l-24 -15l-24 -16l-21 -20l-28 -14l-26 -15l-22 -23l-29 -13l-23 -20l-25 -17l-26 -16l-12 -30l-7 -33l10 -23l15 -27l-30 4l-28 -5h-29l-28 2l-29 1
l-28 1l18 16l20 22l21 22l5 28l7 28l16 25l4 28l13 27l12 27l10 27l4 30l14 26l6 29l11 27l12 27l9 28l10 28l14 26l6 29l12 26l6 29l8 29l15 26l11 27l9 28l11 28l9 27l26 -2l29 3l12 -24l5 -29l11 -26l7 -28l12 -26l10 -28l13 -27l10 -27l4 -30l12 -26l12 -28l10 -27
l8 -28l10 -28l9 -28l9 -28l12 -27l12 -26l11 -28l7 -28l12 -28l9 -28l9 -28l13 -26l15 -22l21 -20zM409 365l-11 27l-5 26l-8 27l-11 26l-11 26l-6 27l-13 21l-9 -22l-7 -27l-11 -27l-8 -28l-13 -26l-12 -27l-5 -29l-8 -29l-14 -26l-5 -29l-11 -24l20 14l24 16l27 14l24 19
l21 21l25 17zM496 767h-30l-30 1l-30 -5l-30 1l2 2l-1 27l-28 30l-30 -30l-1 -26l-29 -2l-31 3l-30 -3h-32l28 21l21 22l20 23l24 19l17 25l25 15l18 20l23 -18l21 -21l23 -20l19 -25l23 -18l19 -22z" />
    <glyph glyph-name="Atilde" unicode="&#xc3;" horiz-adv-x="693" 
d="M669 -3l-31 2l-27 -4l-29 2l-29 -1l-29 6l-29 -3l10 24l16 25l-11 26l-9 30l-10 29l-16 28l-2 32l-15 28l-12 29l-8 29l-24 -15l-24 -16l-21 -20l-28 -14l-26 -15l-22 -23l-29 -13l-23 -20l-25 -17l-26 -16l-12 -30l-7 -33l10 -23l15 -27l-30 4l-28 -5h-29l-28 2l-29 1
l-28 1l18 16l20 22l21 22l5 28l7 28l16 25l4 28l13 27l12 27l10 27l4 30l14 26l6 29l11 27l12 27l9 28l10 28l14 26l6 29l12 26l6 29l8 29l15 26l11 27l9 28l11 28l9 27l26 -2l29 3l12 -24l5 -29l11 -26l7 -28l12 -26l10 -28l13 -27l10 -27l4 -30l12 -26l12 -28l10 -27
l8 -28l10 -28l9 -28l9 -28l12 -27l12 -26l11 -28l7 -28l12 -28l9 -28l9 -28l13 -26l15 -22l21 -20zM409 365l-11 27l-5 26l-8 27l-11 26l-11 26l-6 27l-13 21l-9 -22l-7 -27l-11 -27l-8 -28l-13 -26l-12 -27l-5 -29l-8 -29l-14 -26l-5 -29l-11 -24l20 14l24 16l27 14l24 19
l21 21l25 17zM510 865l-19 -24v-34l-17 -28l-25 -19l-30 -12l-32 13l-30 13l-30 14l-26 12l-26 10l-11 -17l16 -24l-35 4l-34 -6l-28 4l15 21l1 32l18 25l23 21l29 8l33 -5l31 -12l28 -17l26 -14l27 -13l11 24l-14 20l32 2h33z" />
    <glyph glyph-name="Adieresis" unicode="&#xc4;" horiz-adv-x="693" 
d="M669 -3l-31 2l-27 -4l-29 2l-29 -1l-29 6l-29 -3l10 24l16 25l-11 26l-9 30l-10 29l-16 28l-2 32l-15 28l-12 29l-8 29l-24 -15l-24 -16l-21 -20l-28 -14l-26 -15l-22 -23l-29 -13l-23 -20l-25 -17l-26 -16l-12 -30l-7 -33l10 -23l15 -27l-30 4l-28 -5h-29l-28 2l-29 1
l-28 1l18 16l20 22l21 22l5 28l7 28l16 25l4 28l13 27l12 27l10 27l4 30l14 26l6 29l11 27l12 27l9 28l10 28l14 26l6 29l12 26l6 29l8 29l15 26l11 27l9 28l11 28l9 27l26 -2l29 3l12 -24l5 -29l11 -26l7 -28l12 -26l10 -28l13 -27l10 -27l4 -30l12 -26l12 -28l10 -27
l8 -28l10 -28l9 -28l9 -28l12 -27l12 -26l11 -28l7 -28l12 -28l9 -28l9 -28l13 -26l15 -22l21 -20zM409 365l-11 27l-5 26l-8 27l-11 26l-11 26l-6 27l-13 21l-9 -22l-7 -27l-11 -27l-8 -28l-13 -26l-12 -27l-5 -29l-8 -29l-14 -26l-5 -29l-11 -24l20 14l24 16l27 14l24 19
l21 21l25 17zM475 830l-18 -23l-19 -20l-22 -20l-17 27l-24 16l-17 19l19 21l23 18l16 23l22 -21l19 -21zM335 830l-18 -23l-19 -20l-22 -20l-17 27l-24 16l-17 19l19 21l23 18l16 23l22 -21l19 -21z" />
    <glyph glyph-name="Aring" unicode="&#xc5;" horiz-adv-x="693" 
d="M669 -3l-31 2l-27 -4l-29 2l-29 -1l-29 6l-29 -3l10 24l16 25l-11 26l-9 30l-10 29l-16 28l-2 32l-15 28l-12 29l-8 29l-24 -15l-24 -16l-21 -20l-28 -14l-26 -15l-22 -23l-29 -13l-23 -20l-25 -17l-26 -16l-12 -30l-7 -33l10 -23l15 -27l-30 4l-28 -5h-29l-28 2l-29 1
l-28 1l18 16l20 22l21 22l5 28l7 28l16 25l4 28l13 27l12 27l10 27l4 30l14 26l6 29l11 27l12 27l9 28l10 28l14 26l6 29l12 26l6 29l8 29l15 26l11 27l9 28l11 28l9 27l26 -2l29 3l12 -24l5 -29l11 -26l7 -28l12 -26l10 -28l13 -27l10 -27l4 -30l12 -26l12 -28l10 -27
l8 -28l10 -28l9 -28l9 -28l12 -27l12 -26l11 -28l7 -28l12 -28l9 -28l9 -28l13 -26l15 -22l21 -20zM409 365l-11 27l-5 26l-8 27l-11 26l-11 26l-6 27l-13 21l-9 -22l-7 -27l-11 -27l-8 -28l-13 -26l-12 -27l-5 -29l-8 -29l-14 -26l-5 -29l-11 -24l20 14l24 16l27 14l24 19
l21 21l25 17zM451 865l-8 -32l-15 -29l-25 -20l-26 -17l-30 -1l-33 1l-28 17l-23 22l-13 29l-8 30l11 31l11 30l23 24l29 12l31 7l32 -7l27 -18l24 -21l12 -28zM384 865l-14 24l-23 15v-1l-24 -16l-14 -22l14 -25l24 -13l26 13z" />
    <glyph glyph-name="AE" unicode="&#xc6;" horiz-adv-x="809" 
d="M785 52l-3 -27l-1 -26l-28 -4l-29 7l-29 -5l-29 1l-28 -1l-28 5l-29 -2l-28 -2l-28 -3l-25 4l13 24l9 24l-10 29l-7 30l-12 30l-12 28l-9 30l-7 30l-9 30l-14 26l-24 -18l-28 -13l-21 -24l-29 -11l-25 -19l-23 -19l-25 -18l-26 -14l-26 -16l-17 -21l-18 -29l-10 -31
l19 -24l9 -25l-30 1l-29 -2l-28 -3l-29 6l-28 2l-30 -5l25 21l19 23l19 20l3 31l17 25l7 29l8 29l16 26l4 30l13 27l13 27l7 29l12 28l10 28l7 29l8 28l12 28l11 27l11 27l5 29l14 27l12 27l4 29l11 24l-16 28l-17 26l-21 23l31 1l30 -6l31 5l29 -2l30 -2l30 4l30 3l30 -2
l30 2l30 -8l30 3h29h31l29 2l29 -2l29 -3l32 14l32 7l2 4l-5 -30l-2 -30l1 -28l1 -29l1 -26l-27 22l-30 20l-30 -3l-30 1h-29l-28 -4l-29 -2l-29 7l-28 -6l-28 5l-29 -4l-28 4l-23 -4l3 -27l12 -28l9 -28l16 -25l3 -31l12 -27l11 -27l11 -22l25 15l29 14l24 22l26 15l20 22
l16 21l21 -18l18 -25l21 -21l23 -20l21 -22l-32 -2l-28 2l-27 -2l-26 -18l-26 -17l-27 -16l-23 -21l-30 -13l12 -30l12 -27l8 -29l9 -29l12 -27l8 -28l16 -26l9 -26l5 -29l31 2l29 -3l29 2l29 -3l22 18l21 17l16 16l2 -26v-28zM415 368l-13 25l-12 25l-3 29l-10 26l-9 27
l-12 24l-8 27l-8 -30l-9 -28l-11 -27l-8 -28l-8 -28l-15 -26l-5 -29l-12 -27l-6 -28l-16 -24l-6 -26l24 16l24 17l24 17l27 16l24 17l24 16z" />
    <glyph glyph-name="Ccedilla" unicode="&#xc7;" horiz-adv-x="577" 
d="M553 680l-1 -3l-17 -24l-19 -22l-19 -24l-18 -23l-19 25l-23 15l-24 12l-26 8l-27 -4l-29 -2l-31 2l-28 -10l-28 -9l-23 -18l-25 -17l-16 -24l-16 -23l-20 -22l-5 -29l-8 -28l-6 -28l-6 -28l-4 -26l9 -30l-3 -30l6 -29l6 -28l16 -26l12 -25l13 -26l17 -24l20 -20l27 -13
l21 -20l27 -9l28 -8l27 -6l27 -1l33 2l31 11l27 18l23 21l20 19l18 -22l12 -27l10 -28l10 -25l-23 -17l-26 -11l-27 -9l-27 -5l-26 -11h-28l-27 -3h-31l-29 9l-30 6l-29 11l-29 10l-27 13l-24 19l-22 22l-25 18l-15 27l-18 23l-19 24l-8 29l-17 26l-5 30l-6 29l-6 29l-4 29
v28v31l3 29l4 30l10 28l12 28l12 27l11 28l19 23l17 24l22 19l22 20l25 15l25 16l30 5l25 15l30 2l27 10l29 2l28 3l32 -4l30 -10l31 -5l31 -9l26 -15zM388 -159l-3 -29l-17 -24l-16 -22l-22 -21l-25 -15h-31l-26 -3l-16 26l-16 29l-14 26l31 -7h31l26 13l25 14l12 28
l-10 26l-16 23l-26 5l-13 22l-14 22l29 46l6 27l34 -11l29 -8l-10 -22l-8 -23l23 -18l17 -23l14 -25l6 -28v-28z" />
    <glyph glyph-name="Egrave" unicode="&#xc8;" horiz-adv-x="499" 
d="M470 741l-2 -1v2zM475 80l-5 -28l1 -27l2 -28l-32 3l-29 2h-30l-30 -1l-30 -1l-31 2l-30 -6l-29 1l-30 3l-31 -2h-30l-29 4l-30 -2l-29 -4l-24 3l16 23l21 21l16 20l2 30v30l-1 30v31l2 30l-4 29l2 30l-2 30l5 30l-4 30v30l4 30l-6 30l2 30l5 29l-2 29l3 30l-8 29l1 29
v27l-16 24l-21 21l-20 22l32 -3l30 2l29 -3l30 3l29 3l29 -7l29 7l29 -7l30 1l30 5l30 1l27 -1h27l35 4l28 12v-28l2 -30l1 -28l-4 -29l3 -31l-32 22l-28 21l-29 2l-30 1l-29 -1l-30 -5h-30l-28 6l-29 -6l-26 2l-6 -27l3 -29l5 -28l-5 -29l5 -29l-2 -28l1 -28l-3 -29l33 -1
l31 3l31 -4l31 5h28l30 6l25 8l3 -28l12 -28l-1 -31l6 -29l7 -29l-27 15l-22 17l-25 9l-32 3l-34 3l-33 1l-32 -7l-31 4l5 -30l-8 -31l5 -30l-2 -30l3 -31l2 -29l-3 -30l-3 -30h32h29l29 2l30 -3l29 1l29 2l29 2l28 -3l22 16l19 19l18 12l3 -25zM375 765l-24 -4l-28 5l-26 1
l-19 21l-22 21l-24 21l-19 26l-19 26l-21 24l-25 20l-24 26l32 -4l32 2l31 -2l32 3l15 -22l17 -22l17 -22l16 -24l16 -23l11 -27l21 -21z" />
    <glyph glyph-name="Eacute" unicode="&#xc9;" horiz-adv-x="499" 
d="M470 741l-2 -1v2zM475 80l-5 -28l1 -27l2 -28l-32 3l-29 2h-30l-30 -1l-30 -1l-31 2l-30 -6l-29 1l-30 3l-31 -2h-30l-29 4l-30 -2l-29 -4l-24 3l16 23l21 21l16 20l2 30v30l-1 30v31l2 30l-4 29l2 30l-2 30l5 30l-4 30v30l4 30l-6 30l2 30l5 29l-2 29l3 30l-8 29l1 29
v27l-16 24l-21 21l-20 22l32 -3l30 2l29 -3l30 3l29 3l29 -7l29 7l29 -7l30 1l30 5l30 1l27 -1h27l35 4l28 12v-28l2 -30l1 -28l-4 -29l3 -31l-32 22l-28 21l-29 2l-30 1l-29 -1l-30 -5h-30l-28 6l-29 -6l-26 2l-6 -27l3 -29l5 -28l-5 -29l5 -29l-2 -28l1 -28l-3 -29l33 -1
l31 3l31 -4l31 5h28l30 6l25 8l3 -28l12 -28l-1 -31l6 -29l7 -29l-27 15l-22 17l-25 9l-32 3l-34 3l-33 1l-32 -7l-31 4l5 -30l-8 -31l5 -30l-2 -30l3 -31l2 -29l-3 -30l-3 -30h32h29l29 2l30 -3l29 1l29 2l29 2l28 -3l22 16l19 19l18 12l3 -25zM455 952l-24 -26l-25 -20
l-21 -24l-19 -26l-19 -26l-24 -21l-22 -21l-19 -21l-26 -1l-28 -5l-24 4l11 25l21 21l11 27l16 23l16 24l17 22l17 22l15 22l32 -3l31 2l32 -2z" />
    <glyph glyph-name="Ecircumflex" unicode="&#xca;" horiz-adv-x="499" 
d="M470 741l-2 -1v2zM475 80l-5 -28l1 -27l2 -28l-32 3l-29 2h-30l-30 -1l-30 -1l-31 2l-30 -6l-29 1l-30 3l-31 -2h-30l-29 4l-30 -2l-29 -4l-24 3l16 23l21 21l16 20l2 30v30l-1 30v31l2 30l-4 29l2 30l-2 30l5 30l-4 30v30l4 30l-6 30l2 30l5 29l-2 29l3 30l-8 29l1 29
v27l-16 24l-21 21l-20 22l32 -3l30 2l29 -3l30 3l29 3l29 -7l29 7l29 -7l30 1l30 5l30 1l27 -1h27l35 4l28 12v-28l2 -30l1 -28l-4 -29l3 -31l-32 22l-28 21l-29 2l-30 1l-29 -1l-30 -5h-30l-28 6l-29 -6l-26 2l-6 -27l3 -29l5 -28l-5 -29l5 -29l-2 -28l1 -28l-3 -29l33 -1
l31 3l31 -4l31 5h28l30 6l25 8l3 -28l12 -28l-1 -31l6 -29l7 -29l-27 15l-22 17l-25 9l-32 3l-34 3l-33 1l-32 -7l-31 4l5 -30l-8 -31l5 -30l-2 -30l3 -31l2 -29l-3 -30l-3 -30h32h29l29 2l30 -3l29 1l29 2l29 2l28 -3l22 16l19 19l18 12l3 -25zM399 767h-30l-30 1l-30 -5
l-30 1l2 2l-1 27l-28 30l-30 -30l-1 -26l-29 -2l-31 3l-30 -3h-32l28 21l21 22l20 23l24 19l17 25l25 15l18 20l23 -18l21 -21l23 -20l19 -25l23 -18l19 -22z" />
    <glyph glyph-name="Edieresis" unicode="&#xcb;" horiz-adv-x="499" 
d="M470 741l-2 -1v2zM475 80l-5 -28l1 -27l2 -28l-32 3l-29 2h-30l-30 -1l-30 -1l-31 2l-30 -6l-29 1l-30 3l-31 -2h-30l-29 4l-30 -2l-29 -4l-24 3l16 23l21 21l16 20l2 30v30l-1 30v31l2 30l-4 29l2 30l-2 30l5 30l-4 30v30l4 30l-6 30l2 30l5 29l-2 29l3 30l-8 29l1 29
v27l-16 24l-21 21l-20 22l32 -3l30 2l29 -3l30 3l29 3l29 -7l29 7l29 -7l30 1l30 5l30 1l27 -1h27l35 4l28 12v-28l2 -30l1 -28l-4 -29l3 -31l-32 22l-28 21l-29 2l-30 1l-29 -1l-30 -5h-30l-28 6l-29 -6l-26 2l-6 -27l3 -29l5 -28l-5 -29l5 -29l-2 -28l1 -28l-3 -29l33 -1
l31 3l31 -4l31 5h28l30 6l25 8l3 -28l12 -28l-1 -31l6 -29l7 -29l-27 15l-22 17l-25 9l-32 3l-34 3l-33 1l-32 -7l-31 4l5 -30l-8 -31l5 -30l-2 -30l3 -31l2 -29l-3 -30l-3 -30h32h29l29 2l30 -3l29 1l29 2l29 2l28 -3l22 16l19 19l18 12l3 -25zM378 830l-18 -23l-19 -20
l-22 -20l-17 27l-24 16l-17 19l19 21l23 18l16 23l22 -21l19 -21zM238 830l-18 -23l-19 -20l-22 -20l-17 27l-24 16l-17 19l19 21l23 18l16 23l22 -21l19 -21z" />
    <glyph glyph-name="Igrave" unicode="&#xcc;" horiz-adv-x="251" 
d="M227 722l-19 -24l-19 -23l-22 -17l3 -31l1 -30l-1 -30l2 -30l-1 -31l-2 -30l-4 -30l4 -30l2 -30l-6 -30l1 -29l6 -30l-6 -30l-1 -30v-29l3 -30l3 -29l1 -30v-29l-2 -27l17 -23l21 -20l17 -22h-29l-29 -3l-29 4l-28 2l-29 -3l-28 -3l-26 4l13 22l20 19l14 21l2 30l-3 31
l2 30l-3 30v30v30l2 31l-1 29l-1 31l2 29l-2 31l4 30l-3 29l4 30l-2 30v30l4 30l-1 30l-4 29l1 28l-14 22l-21 18l-16 23l30 -4l29 4l29 -2h28l29 -1h28zM177 765l-24 -4l-28 5l-26 1l-19 21l-22 21l-24 21l-19 26l-19 26l-21 24l-25 20l-24 26l32 -4l32 2l31 -2l32 3
l15 -22l17 -22l17 -22l16 -24l16 -23l11 -27l21 -21z" />
    <glyph glyph-name="Iacute" unicode="&#xcd;" horiz-adv-x="251" 
d="M227 722l-19 -24l-19 -23l-22 -17l3 -31l1 -30l-1 -30l2 -30l-1 -31l-2 -30l-4 -30l4 -30l2 -30l-6 -30l1 -29l6 -30l-6 -30l-1 -30v-29l3 -30l3 -29l1 -30v-29l-2 -27l17 -23l21 -20l17 -22h-29l-29 -3l-29 4l-28 2l-29 -3l-28 -3l-26 4l13 22l20 19l14 21l2 30l-3 31
l2 30l-3 30v30v30l2 31l-1 29l-1 31l2 29l-2 31l4 30l-3 29l4 30l-2 30v30l4 30l-1 30l-4 29l1 28l-14 22l-21 18l-16 23l30 -4l29 4l29 -2h28l29 -1h28zM331 952l-24 -26l-25 -20l-21 -24l-19 -26l-19 -26l-24 -21l-22 -21l-19 -21l-26 -1l-28 -5l-24 4l11 25l21 21l11 27
l16 23l16 24l17 22l17 22l15 22l32 -3l31 2l32 -2z" />
    <glyph glyph-name="Icircumflex" unicode="&#xce;" horiz-adv-x="251" 
d="M227 722l-19 -24l-19 -23l-22 -17l3 -31l1 -30l-1 -30l2 -30l-1 -31l-2 -30l-4 -30l4 -30l2 -30l-6 -30l1 -29l6 -30l-6 -30l-1 -30v-29l3 -30l3 -29l1 -30v-29l-2 -27l17 -23l21 -20l17 -22h-29l-29 -3l-29 4l-28 2l-29 -3l-28 -3l-26 4l13 22l20 19l14 21l2 30l-3 31
l2 30l-3 30v30v30l2 31l-1 29l-1 31l2 29l-2 31l4 30l-3 29l4 30l-2 30v30l4 30l-1 30l-4 29l1 28l-14 22l-21 18l-16 23l30 -4l29 4l29 -2h28l29 -1h28zM276 767h-30l-30 1l-30 -5l-30 1l2 2l-1 27l-28 30l-30 -30l-1 -26l-29 -2l-31 3l-30 -3h-32l28 21l21 22l20 23l24 19
l17 25l25 15l18 20l23 -18l21 -21l23 -20l19 -25l23 -18l19 -22z" />
    <glyph glyph-name="Idieresis" unicode="&#xcf;" horiz-adv-x="251" 
d="M227 722l-19 -24l-19 -23l-22 -17l3 -31l1 -30l-1 -30l2 -30l-1 -31l-2 -30l-4 -30l4 -30l2 -30l-6 -30l1 -29l6 -30l-6 -30l-1 -30v-29l3 -30l3 -29l1 -30v-29l-2 -27l17 -23l21 -20l17 -22h-29l-29 -3l-29 4l-28 2l-29 -3l-28 -3l-26 4l13 22l20 19l14 21l2 30l-3 31
l2 30l-3 30v30v30l2 31l-1 29l-1 31l2 29l-2 31l4 30l-3 29l4 30l-2 30v30l4 30l-1 30l-4 29l1 28l-14 22l-21 18l-16 23l30 -4l29 4l29 -2h28l29 -1h28zM254 830l-18 -23l-19 -20l-22 -20l-17 27l-24 16l-17 19l19 21l23 18l16 23l22 -21l19 -21zM114 830l-18 -23l-19 -20
l-22 -20l-17 27l-24 16l-17 19l19 21l23 18l16 23l22 -21l19 -21z" />
    <glyph glyph-name="Eth" unicode="&#xd0;" horiz-adv-x="744" 
d="M720 360l-6 -30l3 -32l-9 -29l-7 -31l-13 -28l-19 -25l-15 -25l-15 -28l-19 -24l-27 -17l-22 -21l-23 -19l-30 -8l-27 -13l-27 -12l-29 -10l-30 -5h-30l-29 -7l-28 -1l-29 2h-28l-29 4l-29 -3l-28 2l-29 -4l-29 1l-24 3l15 22l21 21l19 19l-2 32l3 31l-2 32l-4 31l2 31
l-1 31l3 30v29h-35l-33 1l-26 -15l-24 -11l-5 61l6 32l-1 31l-2 29l25 -19l27 -18l35 4l34 -2l-1 31l3 28l-6 29l1 29v29l4 27l-2 28l-1 28v26l-18 23l-19 23l-19 19l29 -3l29 3l28 -2l29 -1l29 2l28 -4l29 8l29 -5l26 -2l32 3l30 -8l29 -6l32 -4l28 -13l29 -10l28 -14
l24 -18l21 -23l20 -22l24 -20l18 -24l12 -28l15 -26l15 -27l1 -30l7 -30l3 -29zM623 360l-3 30l-6 29l-7 28l-8 27l-17 25l-13 26l-22 20l-20 21l-21 21l-26 11l-26 12l-26 12l-28 8l-28 4l-28 7l-27 -3l-26 1l-24 3l-22 -5l-4 -28l1 -30l3 -30l-4 -30l1 -29l-2 -30l-1 -29
l1 -30h31h29l28 18l25 19l-2 -31v-32l1 -63v-29l-25 13l-26 15l-31 -5l-27 3l-4 -29v-30l6 -28l-2 -29l1 -29l1 -29l-1 -28v-24l24 -5l25 5l24 -2l30 1l30 1l28 6l29 7l26 12l28 12l20 22l26 12l17 25l20 21l17 24l12 25l5 29l6 28l11 27z" />
    <glyph glyph-name="Ntilde" unicode="&#xd1;" horiz-adv-x="745" 
d="M721 721l-18 -20l-18 -24l-18 -19v-31l-3 -30l3 -30l3 -30v-30l-4 -30l3 -30l-3 -30l-2 -31l6 -30l-6 -30l3 -31l4 -30l-2 -30l-5 -30l1 -29l4 -30v-31v-29l-4 -30l6 -30l-7 -27l-29 -5l-33 8l-31 -5l3 29l-4 28l1 24l-18 24l-20 23l-19 24l-17 26l-19 24l-24 20l-19 24
l-21 22l-17 25l-17 25l-20 23l-22 21l-20 23l-17 26l-19 24l-21 22l-16 26l-21 21l-20 21l-19 24l-16 20l1 -29l-5 -30l2 -30l5 -30l-2 -30l-5 -31l1 -29l4 -31l1 -30l-2 -30l-1 -30l-4 -29l1 -30l5 -30l-4 -29v-28l-1 -29l24 -18l17 -25l19 -20l-30 2l-28 -3h-29l-29 6
l-29 -1h-27l-29 -4l19 20l18 21l14 22l-1 30v31l-2 30l2 30l-2 30l3 30l1 31l-3 29l3 31l-4 29l3 31l-5 30l5 29l-3 30l5 30l1 30l-3 30l-4 30l3 29l3 28l-19 21l-20 18l-9 21l25 3l28 -3h27l27 5l24 -6l21 -20l17 -24l23 -19l19 -23l17 -25l20 -21l15 -25l22 -20l18 -23
l20 -22l20 -22l14 -27l22 -20l15 -25l19 -23l23 -19l15 -26l20 -20l21 -22l17 -23l16 -23l18 -18v27l-1 30l4 29l-5 29l4 30l-4 29l6 28v30l-4 28l1 29l4 29l-5 29v28l-3 28l1 27l-13 22l-20 18l-15 25l30 -4l29 5l29 -3l28 -1l29 2l28 -3zM536 865l-19 -24v-34l-17 -28
l-25 -19l-30 -12l-32 13l-30 13l-30 14l-26 12l-26 10l-11 -17l16 -24l-35 4l-34 -6l-28 4l15 21l1 32l18 25l23 21l29 8l33 -5l31 -12l28 -17l26 -14l27 -13l11 24l-14 20l32 2h33z" />
    <glyph glyph-name="Ograve" unicode="&#xd2;" horiz-adv-x="774" 
d="M738 402l-2 -28v-29l-3 -29l-3 -30l-4 -30l-10 -28l-13 -26l-14 -26l-18 -23l-14 -25l-21 -18l-21 -24l-23 -22l-26 -20l-28 -15l-30 -7l-30 -7l-30 -7l-30 -11l-30 1l-32 1l-30 8l-32 3l-29 13l-27 15l-30 10l-27 16l-19 25l-23 21l-18 23l-19 22l-19 23l-8 30l-11 26
l-9 28l-13 27l-1 28l-3 29l-2 28l5 29l3 29l1 30l6 30l11 27l11 27l18 24l10 28l20 21l16 22l21 24l29 15l26 18l26 19l29 11l28 13l31 6l31 -3l30 9l32 -2l30 -11l32 -2l31 -9l26 -18l27 -13l25 -18l23 -21l24 -19l17 -24l23 -20l15 -26l9 -29l16 -25l9 -28v-30l10 -27z
M642 406l-8 30l-6 32l-8 30l-14 28l-18 26l-19 24l-20 21l-26 15l-26 14l-25 14l-29 5l-27 8l-28 -2l-30 1l-28 -4l-28 -12l-28 -8l-26 -13l-19 -23l-20 -18l-19 -25l-20 -25l-17 -27l-4 -33l-12 -28v-32l-3 -30v-32l8 -30l4 -32l14 -28l13 -28l18 -26l17 -25l21 -20l24 -16
l26 -14l25 -14l27 -10l29 -2l28 -5l29 7l29 2l28 9l28 10l24 16l24 16l19 21l21 24l17 27l13 28l10 30l10 30l-2 32l3 30zM432 775l-24 -4l-28 5l-26 1l-19 21l-22 21l-24 21l-19 26l-19 26l-21 24l-25 20l-24 26l32 -4l32 2l31 -2l32 3l15 -22l17 -22l17 -22l16 -24l16 -23
l11 -27l21 -21z" />
    <glyph glyph-name="Oacute" unicode="&#xd3;" horiz-adv-x="774" 
d="M738 402l-2 -28v-29l-3 -29l-3 -30l-4 -30l-10 -28l-13 -26l-14 -26l-18 -23l-14 -25l-21 -18l-21 -24l-23 -22l-26 -20l-28 -15l-30 -7l-30 -7l-30 -7l-30 -11l-30 1l-32 1l-30 8l-32 3l-29 13l-27 15l-30 10l-27 16l-19 25l-23 21l-18 23l-19 22l-19 23l-8 30l-11 26
l-9 28l-13 27l-1 28l-3 29l-2 28l5 29l3 29l1 30l6 30l11 27l11 27l18 24l10 28l20 21l16 22l21 24l29 15l26 18l26 19l29 11l28 13l31 6l31 -3l30 9l32 -2l30 -11l32 -2l31 -9l26 -18l27 -13l25 -18l23 -21l24 -19l17 -24l23 -20l15 -26l9 -29l16 -25l9 -28v-30l10 -27z
M642 406l-8 30l-6 32l-8 30l-14 28l-18 26l-19 24l-20 21l-26 15l-26 14l-25 14l-29 5l-27 8l-28 -2l-30 1l-28 -4l-28 -12l-28 -8l-26 -13l-19 -23l-20 -18l-19 -25l-20 -25l-17 -27l-4 -33l-12 -28v-32l-3 -30v-32l8 -30l4 -32l14 -28l13 -28l18 -26l17 -25l21 -20l24 -16
l26 -14l25 -14l27 -10l29 -2l28 -5l29 7l29 2l28 9l28 10l24 16l24 16l19 21l21 24l17 27l13 28l10 30l10 30l-2 32l3 30zM602 962l-24 -26l-25 -20l-21 -24l-19 -26l-19 -26l-24 -21l-22 -21l-19 -21l-26 -1l-28 -5l-24 4l11 25l21 21l11 27l16 23l16 24l17 22l17 22l15 22
l32 -3l31 2l32 -2z" />
    <glyph glyph-name="Ocircumflex" unicode="&#xd4;" horiz-adv-x="774" 
d="M738 402l-2 -28v-29l-3 -29l-3 -30l-4 -30l-10 -28l-13 -26l-14 -26l-18 -23l-14 -25l-21 -18l-21 -24l-23 -22l-26 -20l-28 -15l-30 -7l-30 -7l-30 -7l-30 -11l-30 1l-32 1l-30 8l-32 3l-29 13l-27 15l-30 10l-27 16l-19 25l-23 21l-18 23l-19 22l-19 23l-8 30l-11 26
l-9 28l-13 27l-1 28l-3 29l-2 28l5 29l3 29l1 30l6 30l11 27l11 27l18 24l10 28l20 21l16 22l21 24l29 15l26 18l26 19l29 11l28 13l31 6l31 -3l30 9l32 -2l30 -11l32 -2l31 -9l26 -18l27 -13l25 -18l23 -21l24 -19l17 -24l23 -20l15 -26l9 -29l16 -25l9 -28v-30l10 -27z
M642 406l-8 30l-6 32l-8 30l-14 28l-18 26l-19 24l-20 21l-26 15l-26 14l-25 14l-29 5l-27 8l-28 -2l-30 1l-28 -4l-28 -12l-28 -8l-26 -13l-19 -23l-20 -18l-19 -25l-20 -25l-17 -27l-4 -33l-12 -28v-32l-3 -30v-32l8 -30l4 -32l14 -28l13 -28l18 -26l17 -25l21 -20l24 -16
l26 -14l25 -14l27 -10l29 -2l28 -5l29 7l29 2l28 9l28 10l24 16l24 16l19 21l21 24l17 27l13 28l10 30l10 30l-2 32l3 30zM537 777h-30l-30 1l-30 -5l-30 1l2 2l-1 27l-28 30l-30 -30l-1 -26l-29 -2l-31 3l-30 -3h-32l28 21l21 22l20 23l24 19l17 25l25 15l18 20l23 -18
l21 -21l23 -20l19 -25l23 -18l19 -22z" />
    <glyph glyph-name="Otilde" unicode="&#xd5;" horiz-adv-x="774" 
d="M738 402l-2 -28v-29l-3 -29l-3 -30l-4 -30l-10 -28l-13 -26l-14 -26l-18 -23l-14 -25l-21 -18l-21 -24l-23 -22l-26 -20l-28 -15l-30 -7l-30 -7l-30 -7l-30 -11l-30 1l-32 1l-30 8l-32 3l-29 13l-27 15l-30 10l-27 16l-19 25l-23 21l-18 23l-19 22l-19 23l-8 30l-11 26
l-9 28l-13 27l-1 28l-3 29l-2 28l5 29l3 29l1 30l6 30l11 27l11 27l18 24l10 28l20 21l16 22l21 24l29 15l26 18l26 19l29 11l28 13l31 6l31 -3l30 9l32 -2l30 -11l32 -2l31 -9l26 -18l27 -13l25 -18l23 -21l24 -19l17 -24l23 -20l15 -26l9 -29l16 -25l9 -28v-30l10 -27z
M642 406l-8 30l-6 32l-8 30l-14 28l-18 26l-19 24l-20 21l-26 15l-26 14l-25 14l-29 5l-27 8l-28 -2l-30 1l-28 -4l-28 -12l-28 -8l-26 -13l-19 -23l-20 -18l-19 -25l-20 -25l-17 -27l-4 -33l-12 -28v-32l-3 -30v-32l8 -30l4 -32l14 -28l13 -28l18 -26l17 -25l21 -20l24 -16
l26 -14l25 -14l27 -10l29 -2l28 -5l29 7l29 2l28 9l28 10l24 16l24 16l19 21l21 24l17 27l13 28l10 30l10 30l-2 32l3 30zM550 885l-19 -24v-34l-17 -28l-25 -19l-30 -12l-32 13l-30 13l-30 14l-26 12l-26 10l-11 -17l16 -24l-35 4l-34 -6l-28 4l15 21l1 32l18 25l23 21
l29 8l33 -5l31 -12l28 -17l26 -14l27 -13l11 24l-14 20l32 2h33z" />
    <glyph glyph-name="Odieresis" unicode="&#xd6;" horiz-adv-x="774" 
d="M738 402l-2 -28v-29l-3 -29l-3 -30l-4 -30l-10 -28l-13 -26l-14 -26l-18 -23l-14 -25l-21 -18l-21 -24l-23 -22l-26 -20l-28 -15l-30 -7l-30 -7l-30 -7l-30 -11l-30 1l-32 1l-30 8l-32 3l-29 13l-27 15l-30 10l-27 16l-19 25l-23 21l-18 23l-19 22l-19 23l-8 30l-11 26
l-9 28l-13 27l-1 28l-3 29l-2 28l5 29l3 29l1 30l6 30l11 27l11 27l18 24l10 28l20 21l16 22l21 24l29 15l26 18l26 19l29 11l28 13l31 6l31 -3l30 9l32 -2l30 -11l32 -2l31 -9l26 -18l27 -13l25 -18l23 -21l24 -19l17 -24l23 -20l15 -26l9 -29l16 -25l9 -28v-30l10 -27z
M642 406l-8 30l-6 32l-8 30l-14 28l-18 26l-19 24l-20 21l-26 15l-26 14l-25 14l-29 5l-27 8l-28 -2l-30 1l-28 -4l-28 -12l-28 -8l-26 -13l-19 -23l-20 -18l-19 -25l-20 -25l-17 -27l-4 -33l-12 -28v-32l-3 -30v-32l8 -30l4 -32l14 -28l13 -28l18 -26l17 -25l21 -20l24 -16
l26 -14l25 -14l27 -10l29 -2l28 -5l29 7l29 2l28 9l28 10l24 16l24 16l19 21l21 24l17 27l13 28l10 30l10 30l-2 32l3 30zM515 840l-18 -23l-19 -20l-22 -20l-17 27l-24 16l-17 19l19 21l23 18l16 23l22 -21l19 -21zM375 840l-18 -23l-19 -20l-22 -20l-17 27l-24 16l-17 19
l19 21l23 18l16 23l22 -21l19 -21z" />
    <glyph glyph-name="multiply" unicode="&#xd7;" horiz-adv-x="487" 
d="M463 512l-20 -17l-19 -24l-22 -20l-20 -23l-69 -67l13 -11l18 -24l22 -20l19 -23l23 -20l20 -21l20 -24l12 -12l-41 -31l-25 -35l-15 17l-23 20l-21 22l-38 47l-23 18l-29 29l-12 -14l-24 -19l-19 -22l-24 -19l-19 -22l-22 -21l-24 -19l-11 -13l-32 41l-34 25l17 15
l19 23l22 21l47 38l39 46l10 7l-8 12l-41 43l-25 17l-64 61l-13 21l45 30l20 35l17 -19l24 -19l20 -23l25 -18l67 -72l12 5l41 43l18 24l60 64l21 14l31 -46z" />
    <glyph glyph-name="Oslash" unicode="&#xd8;" horiz-adv-x="826" 
d="M802 723l-23 -24l-37 -44l-23 -18l-15 -24l-15 -20l16 -24l31 -57l5 -31l12 -29v-32l9 -30l-2 -30l2 -30l-9 -28l-3 -30l-12 -58l-12 -27l-16 -25l-14 -25l-17 -23l-19 -20l-20 -25l-29 -16l-25 -19l-28 -14l-28 -14l-29 -12l-61 -5l-30 -5l-31 7h-32l-30 6l-29 12
l-27 14l-29 9l-26 20l-6 -27l-1 -29l-32 2h-59l-29 2l-29 -1l-26 1l17 20l21 19l36 43l23 17l17 21l-17 25l-12 26l-20 23l-4 29l-10 27l-12 27l1 29l-6 27l2 56l1 29l6 30l6 29l11 28l16 25l12 26l9 28l18 24l19 19l26 19l21 26l30 12l27 14l29 12l28 12l30 11l62 4l30 -7
l32 -4l32 -2l30 -9l29 -12l25 -19l27 -18l1 29l3 28h33l29 1l29 -5l30 4h29h32zM575 577l-26 17l-27 15l-25 18l-30 4l-28 7l-29 3l-59 -6l-26 -14l-28 -8l-23 -19l-25 -14l-22 -17l-18 -27l-19 -25l-14 -29l-12 -30l-2 -31l-9 -31l6 -30l-7 -31l7 -29l11 -29l6 -30l13 -26
l18 -23l21 17l18 24l24 20l21 22l16 26l20 22l46 39l20 23l17 25l25 18l17 25l22 19l38 45l21 21l24 18zM669 360l-6 29l-7 28v29l-26 50l-8 26v-2l-64 -62l-16 -26l-22 -20l-40 -45l-26 -17l-38 -46l-23 -19l-15 -27l-26 -17l-18 -24l-22 -20l-17 -23l-20 -21l-21 -18
l50 -29l24 -14l27 -8l27 -2h58l28 4l29 6l24 19l28 10l19 21l25 15l15 29l19 25l24 58l9 29l3 32z" />
    <glyph glyph-name="Ugrave" unicode="&#xd9;" horiz-adv-x="592" 
d="M568 721l-17 -19l-18 -21l-12 -23l-3 -31v-30l5 -32l-3 -30l1 -32l2 -31l-3 -31l2 -31v-30l1 -32l-1 -30l-3 -30l3 -30l-2 -29l-5 -29l-5 -30l-10 -28l-11 -27l-17 -25l-17 -26l-25 -16l-24 -17l-24 -18l-30 -5l-29 -4l-28 -7l1 5l-31 -4l-30 6l-26 16l-28 11l-25 17
l-20 23l-23 20l-17 25l-7 29l-12 27l-8 28v29l1 31l-2 31l7 31v31l-2 31l-4 32l-1 31l2 30v31l-2 31l2 30l3 31l-5 29l7 31l-17 22l-21 18l-13 20l27 4l29 -5l28 5l29 -1l29 -2l27 -1l29 2l-23 -20l-18 -22l-16 -22l-3 -31l4 -30l3 -31l-6 -30l4 -30l-4 -31l-1 -30v-31
l1 -30l1 -31l-1 -29l4 -29l2 -31l-1 -27v-32l9 -30l11 -30l23 -23l27 -16l29 -7l29 -1l30 3l31 5l26 19l20 24l16 27l4 32l3 29l1 30l2 30l-6 31l7 31l-7 30l3 30l-1 31l4 31v30l-5 30v29l3 30l-1 30l3 29l-22 20l-17 24l-19 18l28 -4l28 5l29 3h29l29 -3l28 -5zM421 765
l-24 -4l-28 5l-26 1l-19 21l-22 21l-24 21l-19 26l-19 26l-21 24l-25 20l-24 26l32 -4l32 2l31 -2l32 3l15 -22l17 -22l17 -22l16 -24l16 -23l11 -27l21 -21z" />
    <glyph glyph-name="Uacute" unicode="&#xda;" horiz-adv-x="592" 
d="M568 721l-17 -19l-18 -21l-12 -23l-3 -31v-30l5 -32l-3 -30l1 -32l2 -31l-3 -31l2 -31v-30l1 -32l-1 -30l-3 -30l3 -30l-2 -29l-5 -29l-5 -30l-10 -28l-11 -27l-17 -25l-17 -26l-25 -16l-24 -17l-24 -18l-30 -5l-29 -4l-28 -7l1 5l-31 -4l-30 6l-26 16l-28 11l-25 17
l-20 23l-23 20l-17 25l-7 29l-12 27l-8 28v29l1 31l-2 31l7 31v31l-2 31l-4 32l-1 31l2 30v31l-2 31l2 30l3 31l-5 29l7 31l-17 22l-21 18l-13 20l27 4l29 -5l28 5l29 -1l29 -2l27 -1l29 2l-23 -20l-18 -22l-16 -22l-3 -31l4 -30l3 -31l-6 -30l4 -30l-4 -31l-1 -30v-31
l1 -30l1 -31l-1 -29l4 -29l2 -31l-1 -27v-32l9 -30l11 -30l23 -23l27 -16l29 -7l29 -1l30 3l31 5l26 19l20 24l16 27l4 32l3 29l1 30l2 30l-6 31l7 31l-7 30l3 30l-1 31l4 31v30l-5 30v29l3 30l-1 30l3 29l-22 20l-17 24l-19 18l28 -4l28 5l29 3h29l29 -3l28 -5zM501 952
l-24 -26l-25 -20l-21 -24l-19 -26l-19 -26l-24 -21l-22 -21l-19 -21l-26 -1l-28 -5l-24 4l11 25l21 21l11 27l16 23l16 24l17 22l17 22l15 22l32 -3l31 2l32 -2z" />
    <glyph glyph-name="Ucircumflex" unicode="&#xdb;" horiz-adv-x="592" 
d="M568 721l-17 -19l-18 -21l-12 -23l-3 -31v-30l5 -32l-3 -30l1 -32l2 -31l-3 -31l2 -31v-30l1 -32l-1 -30l-3 -30l3 -30l-2 -29l-5 -29l-5 -30l-10 -28l-11 -27l-17 -25l-17 -26l-25 -16l-24 -17l-24 -18l-30 -5l-29 -4l-28 -7l1 5l-31 -4l-30 6l-26 16l-28 11l-25 17
l-20 23l-23 20l-17 25l-7 29l-12 27l-8 28v29l1 31l-2 31l7 31v31l-2 31l-4 32l-1 31l2 30v31l-2 31l2 30l3 31l-5 29l7 31l-17 22l-21 18l-13 20l27 4l29 -5l28 5l29 -1l29 -2l27 -1l29 2l-23 -20l-18 -22l-16 -22l-3 -31l4 -30l3 -31l-6 -30l4 -30l-4 -31l-1 -30v-31
l1 -30l1 -31l-1 -29l4 -29l2 -31l-1 -27v-32l9 -30l11 -30l23 -23l27 -16l29 -7l29 -1l30 3l31 5l26 19l20 24l16 27l4 32l3 29l1 30l2 30l-6 31l7 31l-7 30l3 30l-1 31l4 31v30l-5 30v29l3 30l-1 30l3 29l-22 20l-17 24l-19 18l28 -4l28 5l29 3h29l29 -3l28 -5zM446 767
h-30l-30 1l-30 -5l-30 1l2 2l-1 27l-28 30l-30 -30l-1 -26l-29 -2l-31 3l-30 -3h-32l28 21l21 22l20 23l24 19l17 25l25 15l18 20l23 -18l21 -21l23 -20l19 -25l23 -18l19 -22z" />
    <glyph glyph-name="Udieresis" unicode="&#xdc;" horiz-adv-x="592" 
d="M568 721l-17 -19l-18 -21l-12 -23l-3 -31v-30l5 -32l-3 -30l1 -32l2 -31l-3 -31l2 -31v-30l1 -32l-1 -30l-3 -30l3 -30l-2 -29l-5 -29l-5 -30l-10 -28l-11 -27l-17 -25l-17 -26l-25 -16l-24 -17l-24 -18l-30 -5l-29 -4l-28 -7l1 5l-31 -4l-30 6l-26 16l-28 11l-25 17
l-20 23l-23 20l-17 25l-7 29l-12 27l-8 28v29l1 31l-2 31l7 31v31l-2 31l-4 32l-1 31l2 30v31l-2 31l2 30l3 31l-5 29l7 31l-17 22l-21 18l-13 20l27 4l29 -5l28 5l29 -1l29 -2l27 -1l29 2l-23 -20l-18 -22l-16 -22l-3 -31l4 -30l3 -31l-6 -30l4 -30l-4 -31l-1 -30v-31
l1 -30l1 -31l-1 -29l4 -29l2 -31l-1 -27v-32l9 -30l11 -30l23 -23l27 -16l29 -7l29 -1l30 3l31 5l26 19l20 24l16 27l4 32l3 29l1 30l2 30l-6 31l7 31l-7 30l3 30l-1 31l4 31v30l-5 30v29l3 30l-1 30l3 29l-22 20l-17 24l-19 18l28 -4l28 5l29 3h29l29 -3l28 -5zM424 830
l-18 -23l-19 -20l-22 -20l-17 27l-24 16l-17 19l19 21l23 18l16 23l22 -21l19 -21zM284 830l-18 -23l-19 -20l-22 -20l-17 27l-24 16l-17 19l19 21l23 18l16 23l22 -21l19 -21z" />
    <glyph glyph-name="Yacute" unicode="&#xdd;" horiz-adv-x="678" 
d="M654 720l-20 -21l-22 -24l-26 -22l-13 -28l-7 -31l-13 -28l-16 -27l-14 -28l-11 -29l-13 -28l-12 -29l-8 -31l-13 -28l-15 -26l-12 -28l-10 -26l-1 -29l-1 -29v-28l2 -28l2 -28l1 -27l-3 -28l-3 -28l19 -22l19 -22l18 -17l-26 -2l-29 -3l-29 -1l-29 6h-28h-28l-30 -3
l20 22l14 23l18 19l-1 29l3 29l-1 28l-4 28l-1 27l5 28l-2 27l-13 28l-6 30l-8 29l-15 26l-12 28l-12 28l-17 25l-15 27l-17 24l-20 23l-16 25l-20 22l-14 27l-22 21l-22 20l-19 21l-19 22l-21 19l-22 20h32l32 -2l31 1l32 3l31 1l30 -4l30 2l1 -3l-19 -25l-11 -27l19 -24
l20 -22l19 -24l14 -26l17 -24l16 -26l17 -24l12 -28l11 -28l20 -23l8 -28l12 29l9 29l16 26l13 28l10 29l16 26l8 30l18 24l6 31l18 24l-20 29l-20 26l31 -5l32 5l32 -2l31 1l32 3zM574 952l-24 -26l-25 -20l-21 -24l-19 -26l-19 -26l-24 -21l-22 -21l-19 -21l-26 -1l-28 -5
l-24 4l11 25l21 21l11 27l16 23l16 24l17 22l17 22l15 22l32 -3l31 2l32 -2z" />
    <glyph glyph-name="Thorn" unicode="&#xde;" horiz-adv-x="412" 
d="M388 410l-5 -30l-5 -29l-15 -25l-12 -26l-19 -22l-18 -23l-22 -20l-24 -16l-23 -18l-26 -14l-24 -14l-28 -10l2 -34l2 -35l-1 -32l18 -22l17 -23l24 -20l-32 -1l-29 -1l-29 6h-28h-29l-28 1l-25 -2l12 21l21 18l15 22l-5 30l2 31v30l2 30l-2 30l2 30v31l-3 29l3 31l3 29
l-4 31l4 30l-4 29l2 30v30v30l2 30l-2 30l-1 29l-1 27l-18 20l-16 21l-17 24h31l29 -2l29 1l28 -4l29 1l28 -1l24 2l-17 -19l-17 -24l-15 -21l-1 -27v-28l-2 -27l11 2l30 1l29 -10l31 -2l27 -13l27 -14l18 -24l22 -21l12 -26l10 -29zM282 400l-10 30l-18 24l-24 19l-30 11
l-30 9l-4 -33l1 -30l1 -29v-30l2 -29l-3 -30l2 -29l1 -27l27 18l28 16l20 26l22 23l14 30z" />
    <glyph glyph-name="germandbls" unicode="&#xdf;" horiz-adv-x="731" 
d="M707 544l-2 -31l-9 -30l-17 -25l-3 -20l-23 17l-42 38l-22 17l22 24l-8 31l-26 10h-29l-24 -17l-23 -13l-24 -20l-4 -30l-2 -29l10 -27l8 -29l32 -46l12 -28l18 -23l12 -29l19 -91v-31l3 -32l-15 -59l-12 -29l-17 -24l-15 -26l-20 -20l-19 -22l-26 -13l-27 -11l-27 -9
l-29 -3l-28 6l-26 8l-44 30l-19 21l-17 21l-28 2l-27 -1l-27 8l-29 3l-45 33l-33 2h-32l30 44l18 22l19 19l18 20l15 21l32 -54l25 -17l28 -12l30 5l30 8l34 54l5 30l-3 32l-19 27l-12 29l-12 29l-19 24l-21 20l-18 23l-14 26l-18 24l-20 21l-10 29l-19 83l2 30l24 53l38 44
l22 17l26 13l28 4l28 5h33l33 -4l33 5l28 -4l6 -25l2 -27l6 -27v-24l24 19l56 28l30 5l60 4l30 -8l46 -39l17 -23l11 -27zM492 158l-2 29l-10 28l-3 29l-17 22l-23 47l-17 27l-30 57l-7 30l-3 32l-3 30l1 26l6 25l21 46l-62 44l-34 9l-62 -24l-23 -54l8 -28l11 -26l17 -23
l20 -20l13 -23l22 -19l15 -26l19 -22l19 -22l8 -28l27 -52l2 -28l5 -28l3 -27l-6 -30l-3 -30l-16 -25l-12 -27l-22 -19l-18 -23l19 -17l26 -6l27 7l27 11l36 44l9 28l7 28z" />
    <glyph glyph-name="agrave" unicode="&#xe0;" horiz-adv-x="726" 
d="M702 0l-1 -6l-33 6l-31 -2l-32 -2l-32 -1l-31 7l-29 -4l15 22l10 23l-17 26l-16 26l-16 26l-17 25l-14 26l-12 28l-15 26l-12 23l-29 -12l-24 -21l-29 -13l-26 -18l-28 -14l-26 -17l-24 -18l-26 -17l-24 -16l-5 -29l-10 -28l15 -23l6 -23l-28 2h-29l-28 -5l-29 5l-28 -4
l-23 2l13 22l21 20l21 18l7 30l3 31l10 28l8 29l9 30l12 27l5 29l12 28l8 30l8 28l5 29l12 28l7 30l10 28l8 28l3 30l8 28l13 27l7 29l6 26l-12 31l-13 30l-21 23l-25 11l-26 11l-28 10l30 12l26 17l26 20l28 15l24 18l18 -32l8 -29l17 -25l10 -28l16 -26l11 -27l14 -27
l7 -30l17 -25l12 -27l15 -27l11 -27l12 -27l13 -28l8 -29l17 -25l13 -26l13 -27l16 -24l10 -27l12 -26l15 -25l12 -26l17 -24l14 -25l17 -23l17 -23l16 -24l16 -23l17 -27l23 -20zM375 333l-12 22l-13 26l-7 29l-11 25l-19 22l-5 28l-18 25l-8 -29l-4 -30l-4 -29l-10 -27
l-12 -27l-5 -30l-6 -29l-11 -26l-7 -28l-6 -27v-2l25 22l29 16l30 14l26 19l24 20zM297 854l-24 -4l-28 5l-26 1l-19 21l-22 21l-24 21l-19 26l-19 26l-21 24l-25 20l-24 26l32 -4l32 2l31 -2l32 3l15 -22l17 -22l17 -22l16 -24l16 -23l11 -27l21 -21z" />
    <glyph glyph-name="aacute" unicode="&#xe1;" horiz-adv-x="726" 
d="M702 0l-1 -6l-33 6l-31 -2l-32 -2l-32 -1l-31 7l-29 -4l15 22l10 23l-17 26l-16 26l-16 26l-17 25l-14 26l-12 28l-15 26l-12 23l-29 -12l-24 -21l-29 -13l-26 -18l-28 -14l-26 -17l-24 -18l-26 -17l-24 -16l-5 -29l-10 -28l15 -23l6 -23l-28 2h-29l-28 -5l-29 5l-28 -4
l-23 2l13 22l21 20l21 18l7 30l3 31l10 28l8 29l9 30l12 27l5 29l12 28l8 30l8 28l5 29l12 28l7 30l10 28l8 28l3 30l8 28l13 27l7 29l6 26l-12 31l-13 30l-21 23l-25 11l-26 11l-28 10l30 12l26 17l26 20l28 15l24 18l18 -32l8 -29l17 -25l10 -28l16 -26l11 -27l14 -27
l7 -30l17 -25l12 -27l15 -27l11 -27l12 -27l13 -28l8 -29l17 -25l13 -26l13 -27l16 -24l10 -27l12 -26l15 -25l12 -26l17 -24l14 -25l17 -23l17 -23l16 -24l16 -23l17 -27l23 -20zM375 333l-12 22l-13 26l-7 29l-11 25l-19 22l-5 28l-18 25l-8 -29l-4 -30l-4 -29l-10 -27
l-12 -27l-5 -30l-6 -29l-11 -26l-7 -28l-6 -27v-2l25 22l29 16l30 14l26 19l24 20zM452 1039l-24 -26l-25 -20l-21 -24l-19 -26l-19 -26l-24 -21l-22 -21l-19 -21l-26 -1l-28 -5l-24 4l11 25l21 21l11 27l16 23l16 24l17 22l17 22l15 22l32 -3l31 2l32 -2z" />
    <glyph glyph-name="acircumflex" unicode="&#xe2;" horiz-adv-x="726" 
d="M702 0l-1 -6l-33 6l-31 -2l-32 -2l-32 -1l-31 7l-29 -4l15 22l10 23l-17 26l-16 26l-16 26l-17 25l-14 26l-12 28l-15 26l-12 23l-29 -12l-24 -21l-29 -13l-26 -18l-28 -14l-26 -17l-24 -18l-26 -17l-24 -16l-5 -29l-10 -28l15 -23l6 -23l-28 2h-29l-28 -5l-29 5l-28 -4
l-23 2l13 22l21 20l21 18l7 30l3 31l10 28l8 29l9 30l12 27l5 29l12 28l8 30l8 28l5 29l12 28l7 30l10 28l8 28l3 30l8 28l13 27l7 29l6 26l-12 31l-13 30l-21 23l-25 11l-26 11l-28 10l30 12l26 17l26 20l28 15l24 18l18 -32l8 -29l17 -25l10 -28l16 -26l11 -27l14 -27
l7 -30l17 -25l12 -27l15 -27l11 -27l12 -27l13 -28l8 -29l17 -25l13 -26l13 -27l16 -24l10 -27l12 -26l15 -25l12 -26l17 -24l14 -25l17 -23l17 -23l16 -24l16 -23l17 -27l23 -20zM375 333l-12 22l-13 26l-7 29l-11 25l-19 22l-5 28l-18 25l-8 -29l-4 -30l-4 -29l-10 -27
l-12 -27l-5 -30l-6 -29l-11 -26l-7 -28l-6 -27v-2l25 22l29 16l30 14l26 19l24 20zM407 839h-30l-30 1l-30 -5l-30 1l2 2l-1 27l-28 30l-30 -30l-1 -26l-29 -2l-31 3l-30 -3h-32l28 21l21 22l20 23l24 19l17 25l25 15l18 20l23 -18l21 -21l23 -20l19 -25l23 -18l19 -22z" />
    <glyph glyph-name="atilde" unicode="&#xe3;" horiz-adv-x="726" 
d="M702 0l-1 -6l-33 6l-31 -2l-32 -2l-32 -1l-31 7l-29 -4l15 22l10 23l-17 26l-16 26l-16 26l-17 25l-14 26l-12 28l-15 26l-12 23l-29 -12l-24 -21l-29 -13l-26 -18l-28 -14l-26 -17l-24 -18l-26 -17l-24 -16l-5 -29l-10 -28l15 -23l6 -23l-28 2h-29l-28 -5l-29 5l-28 -4
l-23 2l13 22l21 20l21 18l7 30l3 31l10 28l8 29l9 30l12 27l5 29l12 28l8 30l8 28l5 29l12 28l7 30l10 28l8 28l3 30l8 28l13 27l7 29l6 26l-12 31l-13 30l-21 23l-25 11l-26 11l-28 10l30 12l26 17l26 20l28 15l24 18l18 -32l8 -29l17 -25l10 -28l16 -26l11 -27l14 -27
l7 -30l17 -25l12 -27l15 -27l11 -27l12 -27l13 -28l8 -29l17 -25l13 -26l13 -27l16 -24l10 -27l12 -26l15 -25l12 -26l17 -24l14 -25l17 -23l17 -23l16 -24l16 -23l17 -27l23 -20zM375 333l-12 22l-13 26l-7 29l-11 25l-19 22l-5 28l-18 25l-8 -29l-4 -30l-4 -29l-10 -27
l-12 -27l-5 -30l-6 -29l-11 -26l-7 -28l-6 -27v-2l25 22l29 16l30 14l26 19l24 20zM452 948l-19 -24v-34l-17 -28l-25 -19l-30 -12l-32 13l-30 13l-30 14l-26 12l-26 10l-11 -17l16 -24l-35 4l-34 -6l-28 4l15 21l1 32l18 25l23 21l29 8l33 -5l31 -12l28 -17l26 -14l27 -13
l11 24l-14 20l32 2h33z" />
    <glyph glyph-name="adieresis" unicode="&#xe4;" horiz-adv-x="726" 
d="M702 0l-1 -6l-33 6l-31 -2l-32 -2l-32 -1l-31 7l-29 -4l15 22l10 23l-17 26l-16 26l-16 26l-17 25l-14 26l-12 28l-15 26l-12 23l-29 -12l-24 -21l-29 -13l-26 -18l-28 -14l-26 -17l-24 -18l-26 -17l-24 -16l-5 -29l-10 -28l15 -23l6 -23l-28 2h-29l-28 -5l-29 5l-28 -4
l-23 2l13 22l21 20l21 18l7 30l3 31l10 28l8 29l9 30l12 27l5 29l12 28l8 30l8 28l5 29l12 28l7 30l10 28l8 28l3 30l8 28l13 27l7 29l6 26l-12 31l-13 30l-21 23l-25 11l-26 11l-28 10l30 12l26 17l26 20l28 15l24 18l18 -32l8 -29l17 -25l10 -28l16 -26l11 -27l14 -27
l7 -30l17 -25l12 -27l15 -27l11 -27l12 -27l13 -28l8 -29l17 -25l13 -26l13 -27l16 -24l10 -27l12 -26l15 -25l12 -26l17 -24l14 -25l17 -23l17 -23l16 -24l16 -23l17 -27l23 -20zM375 333l-12 22l-13 26l-7 29l-11 25l-19 22l-5 28l-18 25l-8 -29l-4 -30l-4 -29l-10 -27
l-12 -27l-5 -30l-6 -29l-11 -26l-7 -28l-6 -27v-2l25 22l29 16l30 14l26 19l24 20zM377 895l-18 -23l-19 -20l-22 -20l-17 27l-24 16l-17 19l19 21l23 18l16 23l22 -21l19 -21zM237 895l-18 -23l-19 -20l-22 -20l-17 27l-24 16l-17 19l19 21l23 18l16 23l22 -21l19 -21z" />
    <glyph glyph-name="aring" unicode="&#xe5;" horiz-adv-x="726" 
d="M702 0l-1 -6l-33 6l-31 -2l-32 -2l-32 -1l-31 7l-29 -4l15 22l10 23l-17 26l-16 26l-16 26l-17 25l-14 26l-12 28l-15 26l-12 23l-29 -12l-24 -21l-29 -13l-26 -18l-28 -14l-26 -17l-24 -18l-26 -17l-24 -16l-5 -29l-10 -28l15 -23l6 -23l-28 2h-29l-28 -5l-29 5l-28 -4
l-23 2l13 22l21 20l21 18l7 30l3 31l10 28l8 29l9 30l12 27l5 29l12 28l8 30l8 28l5 29l12 28l7 30l10 28l8 28l3 30l8 28l13 27l7 29l6 26l-12 31l-13 30l-21 23l-25 11l-26 11l-28 10l30 12l26 17l26 20l28 15l24 18l18 -32l8 -29l17 -25l10 -28l16 -26l11 -27l14 -27
l7 -30l17 -25l12 -27l15 -27l11 -27l12 -27l13 -28l8 -29l17 -25l13 -26l13 -27l16 -24l10 -27l12 -26l15 -25l12 -26l17 -24l14 -25l17 -23l17 -23l16 -24l16 -23l17 -27l23 -20zM375 333l-12 22l-13 26l-7 29l-11 25l-19 22l-5 28l-18 25l-8 -29l-4 -30l-4 -29l-10 -27
l-12 -27l-5 -30l-6 -29l-11 -26l-7 -28l-6 -27v-2l25 22l29 16l30 14l26 19l24 20zM354 904l-8 -32l-15 -29l-25 -20l-26 -17l-30 -1l-33 1l-28 17l-23 22l-13 29l-8 30l11 31l11 30l23 24l29 12l31 7l32 -7l27 -18l24 -21l12 -28zM287 904l-14 24l-23 15v-1l-24 -16
l-14 -22l14 -25l24 -13l26 13z" />
    <glyph glyph-name="ae" unicode="&#xe6;" horiz-adv-x="873" 
d="M849 732l-18 -21l-24 -21l-27 -16l-30 -8l-29 -10l-31 -3l-30 -6l-29 -10h-31h-31h-31l2 -29l-2 -28l-1 -29l7 -29l-4 -29v-28l-1 -26l1 -2l27 3l26 11l26 5l24 13l22 15l24 -24l28 -19l-25 -20l-18 -23l-25 -15l-27 -11l-26 -11l-28 -6l-26 -4l-4 -27l3 -29l7 -29l3 -29
l11 -27l9 -28l15 -25l15 -25l21 -20l24 -18l30 2l28 2l28 6l21 20l25 18l26 -22l22 -24l-23 -23l-23 -20l-24 -21l-30 -10l-29 -12l-29 -8l-30 -2l-31 2l-30 -6l-31 6l-26 -4l6 25l14 20l-15 26l-18 24l-16 27l-9 29l-17 25l-17 25l-11 27l-16 30l-26 -21l-25 -20l-29 -12
l-25 -19l-29 -13l-24 -21l-26 -14l-25 -19l-23 -15l-11 -27l-9 -29l16 -24l9 -22l-29 -3l-28 3l-29 -1l-29 -4l-28 2l-27 1l19 22l20 21l20 19l9 30l5 30l10 28l5 30l7 30l11 27l12 28l1 31l9 29l8 29l14 26l7 30l5 29l10 29l8 27l5 30l14 27l3 30l7 28l8 26l-8 30l-16 29
l-17 26l-28 8l-24 14l-27 5l26 18l28 15l25 21l28 16l25 16l14 -35l14 -27l14 -28l15 -27l11 -27l10 -29l12 -27l18 -25l12 -27l7 -30l14 -26l15 -26l10 -28l15 -26l13 -27l-2 31l2 30l-1 31l-3 30v31l4 29l1 30l1 29l-21 23l-19 22l-16 19l31 -2l34 4l33 -4l30 4l30 -2h30
l30 5l30 -2l28 7l29 4l28 7l29 4l25 14l23 14l24 -21zM379 333l-9 24l-11 27l-15 24l-14 24l-10 26l-11 26l-11 24l-8 -28l-9 -28l-7 -29l-11 -27l-8 -28l-8 -29l-5 -29l-7 -27l-10 -27l-5 -27l29 15l29 16l24 22l27 19l29 11z" />
    <glyph glyph-name="ccedilla" unicode="&#xe7;" horiz-adv-x="533" 
d="M503 99l-14 -18l-11 -26l-16 -22l-15 -23l-17 -18l-17 -3l-30 8l-31 2l-31 5l-28 12l-30 7l-28 14l-25 17l-24 19l-26 17l-25 18l-16 27l-22 22l-14 27l-19 24l-10 28l-7 28l-13 27l-5 29l-2 30l-3 28l1 30l2 29l7 30l7 29l13 27l10 28l11 26l23 21l18 23l17 24l25 15
l23 18l27 11l27 10l26 13l28 7l29 7l28 3l28 -5l30 3l31 3l27 -4v-29l5 -30l-5 -31v-30l-2 -26l-16 25l-27 19l-27 17l-33 4l-31 -6l-31 -3l-28 -14l-29 -11l-26 -17l-19 -24l-20 -24l-20 -23l-9 -29l-14 -28l-8 -29l-4 -30l5 -30l-2 -30l9 -29l3 -30l13 -27l14 -27l19 -23
l17 -25l18 -24l25 -18l26 -16l26 -14l26 -14l30 -4l28 -6l30 3l28 -1l25 5l26 1zM365 -138l-3 -29l-17 -24l-16 -22l-22 -21l-25 -15h-31l-26 -3l-16 26l-16 29l-14 26l31 -7h31l26 13l25 14l12 28l-10 26l-16 23l-26 5l-13 22l-14 22l29 46l6 27l34 -11l29 -8l-10 -22
l-8 -23l23 -18l17 -23l14 -25l6 -28v-28z" />
    <glyph glyph-name="egrave" unicode="&#xe8;" horiz-adv-x="506" 
d="M482 732l-18 -22l-24 -21l-30 -9l-26 -18l-29 -9l-31 -7h-31l-30 -4l-30 -7l-32 6l-25 -5l-4 -28l-1 -28l3 -29l-3 -29l6 -29l-4 -28l1 -26h26l26 8l27 6l24 13l21 18l26 -21l24 -22l-23 -21l-19 -21l-24 -17l-28 -9l-26 -12l-29 -1l-23 -8l-4 -29l-1 -30l1 -29l-2 -31
v-30l3 -29l2 -30l1 -29v-25l28 -4l32 1l32 -1l31 5l30 10l29 7l25 17l27 16l22 -26l27 -19l-21 -24l-21 -21l-27 -14l-27 -13l-27 -13l-31 -2l-28 -6h-29l-30 -1l-29 -8l-29 8l-28 -7l-28 1l-29 1l-28 -2l-23 4l17 22l20 21l18 20v31v30l-1 30l2 30l-6 30l5 30l-4 30l3 30
l1 30l-3 30l5 30l-6 30l3 30l2 30l-2 29l1 29l1 30l1 29l-3 29l-1 27l-20 22l-17 24l-15 20h32l34 -2l32 4l31 -4l30 2l30 -3l29 5l30 -3l29 6l29 4l30 5l26 12l27 11l21 16l27 -18zM288 763l-24 -4l-28 5l-26 1l-19 21l-22 21l-24 21l-19 26l-19 26l-21 24l-25 20l-24 26
l32 -4l32 2l31 -2l32 3l15 -22l17 -22l17 -22l16 -24l16 -23l11 -27l21 -21z" />
    <glyph glyph-name="eacute" unicode="&#xe9;" horiz-adv-x="506" 
d="M482 732l-18 -22l-24 -21l-30 -9l-26 -18l-29 -9l-31 -7h-31l-30 -4l-30 -7l-32 6l-25 -5l-4 -28l-1 -28l3 -29l-3 -29l6 -29l-4 -28l1 -26h26l26 8l27 6l24 13l21 18l26 -21l24 -22l-23 -21l-19 -21l-24 -17l-28 -9l-26 -12l-29 -1l-23 -8l-4 -29l-1 -30l1 -29l-2 -31
v-30l3 -29l2 -30l1 -29v-25l28 -4l32 1l32 -1l31 5l30 10l29 7l25 17l27 16l22 -26l27 -19l-21 -24l-21 -21l-27 -14l-27 -13l-27 -13l-31 -2l-28 -6h-29l-30 -1l-29 -8l-29 8l-28 -7l-28 1l-29 1l-28 -2l-23 4l17 22l20 21l18 20v31v30l-1 30l2 30l-6 30l5 30l-4 30l3 30
l1 30l-3 30l5 30l-6 30l3 30l2 30l-2 29l1 29l1 30l1 29l-3 29l-1 27l-20 22l-17 24l-15 20h32l34 -2l32 4l31 -4l30 2l30 -3l29 5l30 -3l29 6l29 4l30 5l26 12l27 11l21 16l27 -18zM448 950l-24 -26l-25 -20l-21 -24l-19 -26l-19 -26l-24 -21l-22 -21l-19 -21l-26 -1
l-28 -5l-24 4l11 25l21 21l11 27l16 23l16 24l17 22l17 22l15 22l32 -3l31 2l32 -2z" />
    <glyph glyph-name="ecircumflex" unicode="&#xea;" horiz-adv-x="506" 
d="M482 732l-18 -22l-24 -21l-30 -9l-26 -18l-29 -9l-31 -7h-31l-30 -4l-30 -7l-32 6l-25 -5l-4 -28l-1 -28l3 -29l-3 -29l6 -29l-4 -28l1 -26h26l26 8l27 6l24 13l21 18l26 -21l24 -22l-23 -21l-19 -21l-24 -17l-28 -9l-26 -12l-29 -1l-23 -8l-4 -29l-1 -30l1 -29l-2 -31
v-30l3 -29l2 -30l1 -29v-25l28 -4l32 1l32 -1l31 5l30 10l29 7l25 17l27 16l22 -26l27 -19l-21 -24l-21 -21l-27 -14l-27 -13l-27 -13l-31 -2l-28 -6h-29l-30 -1l-29 -8l-29 8l-28 -7l-28 1l-29 1l-28 -2l-23 4l17 22l20 21l18 20v31v30l-1 30l2 30l-6 30l5 30l-4 30l3 30
l1 30l-3 30l5 30l-6 30l3 30l2 30l-2 29l1 29l1 30l1 29l-3 29l-1 27l-20 22l-17 24l-15 20h32l34 -2l32 4l31 -4l30 2l30 -3l29 5l30 -3l29 6l29 4l30 5l26 12l27 11l21 16l27 -18zM403 765h-30l-30 1l-30 -5l-30 1l2 2l-1 27l-28 30l-30 -30l-1 -26l-29 -2l-31 3l-30 -3
h-32l28 21l21 22l20 23l24 19l17 25l25 15l18 20l23 -18l21 -21l23 -20l19 -25l23 -18l19 -22z" />
    <glyph glyph-name="edieresis" unicode="&#xeb;" horiz-adv-x="506" 
d="M482 732l-18 -22l-24 -21l-30 -9l-26 -18l-29 -9l-31 -7h-31l-30 -4l-30 -7l-32 6l-25 -5l-4 -28l-1 -28l3 -29l-3 -29l6 -29l-4 -28l1 -26h26l26 8l27 6l24 13l21 18l26 -21l24 -22l-23 -21l-19 -21l-24 -17l-28 -9l-26 -12l-29 -1l-23 -8l-4 -29l-1 -30l1 -29l-2 -31
v-30l3 -29l2 -30l1 -29v-25l28 -4l32 1l32 -1l31 5l30 10l29 7l25 17l27 16l22 -26l27 -19l-21 -24l-21 -21l-27 -14l-27 -13l-27 -13l-31 -2l-28 -6h-29l-30 -1l-29 -8l-29 8l-28 -7l-28 1l-29 1l-28 -2l-23 4l17 22l20 21l18 20v31v30l-1 30l2 30l-6 30l5 30l-4 30l3 30
l1 30l-3 30l5 30l-6 30l3 30l2 30l-2 29l1 29l1 30l1 29l-3 29l-1 27l-20 22l-17 24l-15 20h32l34 -2l32 4l31 -4l30 2l30 -3l29 5l30 -3l29 6l29 4l30 5l26 12l27 11l21 16l27 -18zM381 828l-18 -23l-19 -20l-22 -20l-17 27l-24 16l-17 19l19 21l23 18l16 23l22 -21l19 -21
zM241 828l-18 -23l-19 -20l-22 -20l-17 27l-24 16l-17 19l19 21l23 18l16 23l22 -21l19 -21z" />
    <glyph glyph-name="igrave" unicode="&#xec;" 
d="M225 -2l-30 3l-29 -3l-29 4h-28l-29 -2l-28 -4l-28 2l17 22l14 23l22 17l-2 31l-2 30l3 31l-2 30v31l-1 30l3 30l1 30l-4 30l1 30l2 29l-2 31l-2 29l5 29l-2 28l-16 21l-18 20l-13 21l28 5l28 -1l29 -4l29 4h29l27 -7l26 3l-17 -20l-21 -21l-15 -22l-1 -30l4 -30l-4 -30
l1 -31l-3 -30l-1 -30l6 -30l-2 -30l3 -30l-7 -30l1 -29l4 -29l-6 -30l3 -29l1 -28l-1 1l19 -21l21 -21zM184 613l-24 -4l-28 5l-26 1l-19 21l-22 21l-24 21l-19 26l-19 26l-21 24l-25 20l-24 26l32 -4l32 2l31 -2l32 3l15 -22l17 -22l17 -22l16 -24l16 -23l11 -27l21 -21z
" />
    <glyph glyph-name="iacute" unicode="&#xed;" 
d="M225 -2l-30 3l-29 -3l-29 4h-28l-29 -2l-28 -4l-28 2l17 22l14 23l22 17l-2 31l-2 30l3 31l-2 30v31l-1 30l3 30l1 30l-4 30l1 30l2 29l-2 31l-2 29l5 29l-2 28l-16 21l-18 20l-13 21l28 5l28 -1l29 -4l29 4h29l27 -7l26 3l-17 -20l-21 -21l-15 -22l-1 -30l4 -30l-4 -30
l1 -31l-3 -30l-1 -30l6 -30l-2 -30l3 -30l-7 -30l1 -29l4 -29l-6 -30l3 -29l1 -28l-1 1l19 -21l21 -21zM305 802l-24 -26l-25 -20l-21 -24l-19 -26l-19 -26l-24 -21l-22 -21l-19 -21l-26 -1l-28 -5l-24 4l11 25l21 21l11 27l16 23l16 24l17 22l17 22l15 22l32 -3l31 2l32 -2
z" />
    <glyph glyph-name="icircumflex" unicode="&#xee;" 
d="M225 -2l-30 3l-29 -3l-29 4h-28l-29 -2l-28 -4l-28 2l17 22l14 23l22 17l-2 31l-2 30l3 31l-2 30v31l-1 30l3 30l1 30l-4 30l1 30l2 29l-2 31l-2 29l5 29l-2 28l-16 21l-18 20l-13 21l28 5l28 -1l29 -4l29 4h29l27 -7l26 3l-17 -20l-21 -21l-15 -22l-1 -30l4 -30l-4 -30
l1 -31l-3 -30l-1 -30l6 -30l-2 -30l3 -30l-7 -30l1 -29l4 -29l-6 -30l3 -29l1 -28l-1 1l19 -21l21 -21zM275 615h-30l-30 1l-30 -5l-30 1l2 2l-1 27l-28 30l-30 -30l-1 -26l-29 -2l-31 3l-30 -3h-32l28 21l21 22l20 23l24 19l17 25l25 15l18 20l23 -18l21 -21l23 -20l19 -25
l23 -18l19 -22z" />
    <glyph glyph-name="idieresis" unicode="&#xef;" 
d="M225 -2l-30 3l-29 -3l-29 4h-28l-29 -2l-28 -4l-28 2l17 22l14 23l22 17l-2 31l-2 30l3 31l-2 30v31l-1 30l3 30l1 30l-4 30l1 30l2 29l-2 31l-2 29l5 29l-2 28l-16 21l-18 20l-13 21l28 5l28 -1l29 -4l29 4h29l27 -7l26 3l-17 -20l-21 -21l-15 -22l-1 -30l4 -30l-4 -30
l1 -31l-3 -30l-1 -30l6 -30l-2 -30l3 -30l-7 -30l1 -29l4 -29l-6 -30l3 -29l1 -28l-1 1l19 -21l21 -21zM253 678l-18 -23l-19 -20l-22 -20l-17 27l-24 16l-17 19l19 21l23 18l16 23l22 -21l19 -21zM113 678l-18 -23l-19 -20l-22 -20l-17 27l-24 16l-17 19l19 21l23 18l16 23
l22 -21l19 -21z" />
    <glyph glyph-name="eth" unicode="&#xf0;" horiz-adv-x="745" 
d="M721 360l-3 -31l-5 -31l-2 -30l-9 -30l-27 -56l-22 -22l-12 -29l-22 -22l-24 -20l-49 -35l-28 -11l-26 -14l-28 -11l-28 -13l-60 -6l-29 -3l-29 1l-28 5h-29l-28 -3h-29l-29 -2h-58l-23 2l19 19l14 27l18 18l5 31l-4 31l5 32l-4 31l5 31l-4 31l-1 57h-35l-32 3l-27 -13
l-24 -14v30l-4 32v32l3 31v28l26 -15l26 -19l35 6l30 -3v27v29l4 29l-3 85l2 27l-4 29l8 28l-24 21l-22 19l-14 21l56 3l86 -3l57 -1l29 4l27 -6h31l30 -5l31 -2l29 -12l30 -6l28 -15l50 -32l23 -21l20 -22l22 -21l36 -48l9 -29l15 -26l9 -29l7 -30v-30zM623 360l-12 58
l-6 28l-11 26l-8 29l-18 23l-16 25l-24 17l-23 19l-25 13l-25 13l-28 8l-26 11l-28 7h-55l-26 5l-25 -4l-23 -1v-28l2 -30l-3 -60l1 -29l-3 -30l1 -29l-2 -30l32 4h28l28 13l27 23l-4 -34v-32l6 -32l-8 -31l6 -34l-28 18l-27 9l-29 7l-26 -5l-7 -27l4 -30l4 -28l-7 -30v-28
l4 -29v-28l-2 -28l52 1h25h30l28 9h29l29 8l26 12l26 14l45 36l25 16l41 75l12 26l8 28z" />
    <glyph glyph-name="ntilde" unicode="&#xf1;" horiz-adv-x="746" 
d="M722 721l-16 -23l-21 -21l-16 -20l-2 -29v-29l-2 -29l1 -29l-1 -30l2 -29l4 -30l-4 -29l4 -29l-7 -30l4 -29l-1 -30l1 -29l1 -30l-5 -29l3 -28l-3 -29l4 -29l-5 -27l7 3l20 -22l15 -21l-27 -11l-26 -18l-31 -7l-27 -16l-29 -11l-29 -9l14 32l13 30l9 31l2 30l-1 29l-4 30
l7 30l-2 28v29l-4 26l-23 18l-24 18l-23 19l-22 21l-26 15l-24 18l-21 22l-28 13l-20 23l-27 15l-22 19l-26 16l-23 19l-21 21l-26 14l-21 20l-24 16l3 -30l-4 -29v-30l-1 -29l4 -30l-4 -30l4 -31l1 -30l-5 -29l-1 -30l2 -30l-1 -30l6 -30l-1 -29l-2 -30l-1 -28l-3 -29
l1 -29l21 -20l22 -20l16 -23l-30 -3l-28 7l-29 -6l-29 1l-28 5l-28 -1l-30 -4l19 22l17 21l19 20l-2 31l-4 30l1 31l-2 29l7 31l-1 30l-4 30l5 30l-7 31l2 29l4 30l-6 30l6 30l-3 30l-1 30l1 29l3 31l-6 30l4 29l-3 27l-14 21l-18 20l-13 21l27 4l30 -6l28 2l29 2h28l-1 -8
l23 -20l25 -17l24 -19l24 -16l23 -20l27 -15l22 -19l25 -18l23 -20l23 -20l23 -18l26 -16l22 -20l27 -14l21 -22l24 -13l24 -21l-2 35l3 32l-2 32l-2 31l-3 30l8 31l-3 32l2 30l-17 22l-17 21l-17 18h27l29 4l29 -5l29 5l28 1l28 -3zM536 863l-19 -24v-34l-17 -28l-25 -19
l-30 -12l-32 13l-30 13l-30 14l-26 12l-26 10l-11 -17l16 -24l-35 4l-34 -6l-28 4l15 21l1 32l18 25l23 21l29 8l33 -5l31 -12l28 -17l26 -14l27 -13l11 24l-14 20l32 2h33z" />
    <glyph glyph-name="ograve" unicode="&#xf2;" horiz-adv-x="614" 
d="M590 448l-5 -29l-4 -29l-4 -29l-10 -28l-13 -26l-7 -29l-21 -21l-14 -24l-23 -19l-23 -17l-23 -17l-28 -10l-27 -8l-27 -6l-26 -6l-27 -2l-28 5h-30l-27 7l-25 14l-25 12l-26 13l-23 16l-17 20l-21 22l-13 27l-18 25l-9 27l-6 29l-10 27l-2 29l-4 27l1 30l10 29l1 30
l12 27l13 26l9 28l20 22l14 23l22 20l26 13l23 17l26 13l26 10l26 10l28 -2l28 1l27 -1h29l27 -10l26 -10l27 -8l23 -19l23 -15l17 -22l18 -23l22 -21l7 -30l12 -26l10 -27l5 -29l8 -28v-28zM495 418l-2 30l-5 33l-4 31l-9 32l-15 29l-21 23l-20 23l-28 12l-25 16l-29 5
l-29 5l-30 -9l-29 -5l-26 -12l-28 -13l-17 -24l-20 -25l-20 -26l-8 -32l-10 -32l4 -31l1 -32l2 -33l17 -29l10 -31l21 -24l22 -20l26 -16l28 -10l28 -8l29 -1l30 6l30 1l27 11l25 17l18 22l22 25l12 31l14 29zM352 772l-24 -4l-28 5l-26 1l-19 21l-22 21l-24 21l-19 26
l-19 26l-21 24l-25 20l-24 26l32 -4l32 2l31 -2l32 3l15 -22l17 -22l17 -22l16 -24l16 -23l11 -27l21 -21z" />
    <glyph glyph-name="oacute" unicode="&#xf3;" horiz-adv-x="614" 
d="M590 448l-5 -29l-4 -29l-4 -29l-10 -28l-13 -26l-7 -29l-21 -21l-14 -24l-23 -19l-23 -17l-23 -17l-28 -10l-27 -8l-27 -6l-26 -6l-27 -2l-28 5h-30l-27 7l-25 14l-25 12l-26 13l-23 16l-17 20l-21 22l-13 27l-18 25l-9 27l-6 29l-10 27l-2 29l-4 27l1 30l10 29l1 30
l12 27l13 26l9 28l20 22l14 23l22 20l26 13l23 17l26 13l26 10l26 10l28 -2l28 1l27 -1h29l27 -10l26 -10l27 -8l23 -19l23 -15l17 -22l18 -23l22 -21l7 -30l12 -26l10 -27l5 -29l8 -28v-28zM495 418l-2 30l-5 33l-4 31l-9 32l-15 29l-21 23l-20 23l-28 12l-25 16l-29 5
l-29 5l-30 -9l-29 -5l-26 -12l-28 -13l-17 -24l-20 -25l-20 -26l-8 -32l-10 -32l4 -31l1 -32l2 -33l17 -29l10 -31l21 -24l22 -20l26 -16l28 -10l28 -8l29 -1l30 6l30 1l27 11l25 17l18 22l22 25l12 31l14 29zM528 965l-24 -26l-25 -20l-21 -24l-19 -26l-19 -26l-24 -21
l-22 -21l-19 -21l-26 -1l-28 -5l-24 4l11 25l21 21l11 27l16 23l16 24l17 22l17 22l15 22l32 -3l31 2l32 -2z" />
    <glyph glyph-name="ocircumflex" unicode="&#xf4;" horiz-adv-x="614" 
d="M590 448l-5 -29l-4 -29l-4 -29l-10 -28l-13 -26l-7 -29l-21 -21l-14 -24l-23 -19l-23 -17l-23 -17l-28 -10l-27 -8l-27 -6l-26 -6l-27 -2l-28 5h-30l-27 7l-25 14l-25 12l-26 13l-23 16l-17 20l-21 22l-13 27l-18 25l-9 27l-6 29l-10 27l-2 29l-4 27l1 30l10 29l1 30
l12 27l13 26l9 28l20 22l14 23l22 20l26 13l23 17l26 13l26 10l26 10l28 -2l28 1l27 -1h29l27 -10l26 -10l27 -8l23 -19l23 -15l17 -22l18 -23l22 -21l7 -30l12 -26l10 -27l5 -29l8 -28v-28zM495 418l-2 30l-5 33l-4 31l-9 32l-15 29l-21 23l-20 23l-28 12l-25 16l-29 5
l-29 5l-30 -9l-29 -5l-26 -12l-28 -13l-17 -24l-20 -25l-20 -26l-8 -32l-10 -32l4 -31l1 -32l2 -33l17 -29l10 -31l21 -24l22 -20l26 -16l28 -10l28 -8l29 -1l30 6l30 1l27 11l25 17l18 22l22 25l12 31l14 29zM457 775h-30l-30 1l-30 -5l-30 1l2 2l-1 27l-28 30l-30 -30
l-1 -26l-29 -2l-31 3l-30 -3h-32l28 21l21 22l20 23l24 19l17 25l25 15l18 20l23 -18l21 -21l23 -20l19 -25l23 -18l19 -22z" />
    <glyph glyph-name="otilde" unicode="&#xf5;" horiz-adv-x="614" 
d="M590 448l-5 -29l-4 -29l-4 -29l-10 -28l-13 -26l-7 -29l-21 -21l-14 -24l-23 -19l-23 -17l-23 -17l-28 -10l-27 -8l-27 -6l-26 -6l-27 -2l-28 5h-30l-27 7l-25 14l-25 12l-26 13l-23 16l-17 20l-21 22l-13 27l-18 25l-9 27l-6 29l-10 27l-2 29l-4 27l1 30l10 29l1 30
l12 27l13 26l9 28l20 22l14 23l22 20l26 13l23 17l26 13l26 10l26 10l28 -2l28 1l27 -1h29l27 -10l26 -10l27 -8l23 -19l23 -15l17 -22l18 -23l22 -21l7 -30l12 -26l10 -27l5 -29l8 -28v-28zM495 418l-2 30l-5 33l-4 31l-9 32l-15 29l-21 23l-20 23l-28 12l-25 16l-29 5
l-29 5l-30 -9l-29 -5l-26 -12l-28 -13l-17 -24l-20 -25l-20 -26l-8 -32l-10 -32l4 -31l1 -32l2 -33l17 -29l10 -31l21 -24l22 -20l26 -16l28 -10l28 -8l29 -1l30 6l30 1l27 11l25 17l18 22l22 25l12 31l14 29zM470 878l-19 -24v-34l-17 -28l-25 -19l-30 -12l-32 13l-30 13
l-30 14l-26 12l-26 10l-11 -17l16 -24l-35 4l-34 -6l-28 4l15 21l1 32l18 25l23 21l29 8l33 -5l31 -12l28 -17l26 -14l27 -13l11 24l-14 20l32 2h33z" />
    <glyph glyph-name="odieresis" unicode="&#xf6;" horiz-adv-x="614" 
d="M590 448l-5 -29l-4 -29l-4 -29l-10 -28l-13 -26l-7 -29l-21 -21l-14 -24l-23 -19l-23 -17l-23 -17l-28 -10l-27 -8l-27 -6l-26 -6l-27 -2l-28 5h-30l-27 7l-25 14l-25 12l-26 13l-23 16l-17 20l-21 22l-13 27l-18 25l-9 27l-6 29l-10 27l-2 29l-4 27l1 30l10 29l1 30
l12 27l13 26l9 28l20 22l14 23l22 20l26 13l23 17l26 13l26 10l26 10l28 -2l28 1l27 -1h29l27 -10l26 -10l27 -8l23 -19l23 -15l17 -22l18 -23l22 -21l7 -30l12 -26l10 -27l5 -29l8 -28v-28zM495 418l-2 30l-5 33l-4 31l-9 32l-15 29l-21 23l-20 23l-28 12l-25 16l-29 5
l-29 5l-30 -9l-29 -5l-26 -12l-28 -13l-17 -24l-20 -25l-20 -26l-8 -32l-10 -32l4 -31l1 -32l2 -33l17 -29l10 -31l21 -24l22 -20l26 -16l28 -10l28 -8l29 -1l30 6l30 1l27 11l25 17l18 22l22 25l12 31l14 29zM435 828l-18 -23l-19 -20l-22 -20l-17 27l-24 16l-17 19l19 21
l23 18l16 23l22 -21l19 -21zM295 828l-18 -23l-19 -20l-22 -20l-17 27l-24 16l-17 19l19 21l23 18l16 23l22 -21l19 -21z" />
    <glyph glyph-name="divide" unicode="&#xf7;" horiz-adv-x="572" 
d="M365 539l-23 -18l-15 -25l-23 -16l-19 -21l-19 21l-21 20l-23 17l-13 23l17 19l18 23l24 15l17 24l22 -21l19 -22l22 -18zM548 313l-26 2l-30 -4l-30 2l-30 -2h-30h-31l-30 1h-30l-30 -2l-30 2l-30 -2l-30 4l-30 -2l-30 3l-29 -2l-30 1l-31 3h-17l7 50l-7 43l23 -1l30 1
h30l30 -2l30 -4l30 3l30 2l30 -5h30l30 7l30 -6l30 -2l29 1l30 3l29 2l30 1l29 1l24 -6l-10 -53zM365 180l-23 -18l-15 -26l-23 -16l-19 -20l-19 21l-21 20l-23 16l-13 23l17 20l18 22l24 16l17 23l22 -20l19 -23l22 -17zM209 180l-2 -2l1 3z" />
    <glyph glyph-name="oslash" unicode="&#xf8;" horiz-adv-x="612" 
d="M588 360l-6 -29l-3 -30l-2 -30l-12 -27l-9 -28l-13 -27l-20 -20l-14 -25l-27 -16l-23 -19l-25 -19l-29 -8l-28 -12l-29 -6l18 -24l18 -24l20 -17l-28 -3l-29 2h-29l-29 -3l-28 4l-28 -2l-26 2l13 22l16 22l17 19l-28 7l-28 9l-28 13l-22 18l-21 20l-20 20l-18 23l-20 22
l-15 26l-12 27l-7 28l-3 29l-3 28l-4 28l4 29l3 29l6 29l7 29l10 27l33 48l15 23l23 19l22 19l26 14l25 16l29 6l29 4l-21 25l-15 23l-18 23l32 -5l29 2l28 -2l29 3h29l27 2l31 -1l-23 -21l-20 -22l-16 -21l30 -11l29 -8l30 -8l23 -22l24 -17l23 -19l20 -22l18 -24l10 -28
l14 -26l5 -29l8 -28l5 -28zM495 360l-10 32v33l-13 30l-18 27l-17 26l-27 21l-30 17l-30 10l-5 -27v-31l5 -32l-3 -32l-1 -31l6 -31l-2 -31l-3 -31l3 -30l2 -31v-31l-7 -30v-29l37 10l30 19l21 26l23 24l17 28l8 32l12 31zM258 377v31l-3 30l-3 31l6 30l-4 31l-1 27l-30 -9
l-27 -20l-21 -22l-25 -22l-9 -32l-15 -30l-6 -32l-1 -30l3 -33l4 -32l10 -31l18 -28l22 -22l21 -25l29 -14l25 -13l2 31l-1 30l2 31l-4 31l4 30l-3 31z" />
    <glyph glyph-name="ugrave" unicode="&#xf9;" horiz-adv-x="641" 
d="M617 723l-20 -23l-14 -23l-17 -19l1 -30l1 -30l1 -30v-30l-3 -30v-31l-2 -30l-2 -30l2 -30l4 -30l-4 -30l-2 -30v-30l3 -30v-29l-2 -30l6 -31l-3 -29l-3 -29l3 -27l15 -22l15 -22l19 -21l-30 4l-30 -1l-29 -5l-29 6h-24l-2 25l-1 28l3 27l-3 26l-30 -9l-30 -13l-29 -10
l-29 -9l-30 -11l-28 -14l-28 -13l-31 -6l-30 -9l-27 -9l-10 -6l-29 1l-31 -3l-29 -2l-30 8l-25 -3l19 18l16 25l17 20v29l5 30l-2 29l-6 29l2 29v29l5 30l-1 29l-3 29l2 30l2 30l-3 29l4 30l-1 29l-7 29l3 29l1 28l-1 30l3 28l-46 40l32 12l28 11l30 10l29 12l29 12l27 14
l-12 -33l-10 -32l-18 -28l-1 -31l1 -31l1 -30v-31l-1 -30l1 -30l2 -30l-4 -31l5 -30l2 -31l-3 -29l-4 -31l4 -30l-2 -30l5 -30l-5 -29l-1 -31l4 -25l27 5l27 13l29 8l26 15l28 6l28 10l25 17l31 4l26 11l26 10l22 13l7 29l-2 30l-3 31l5 31l-3 30l1 30l-5 30v31l7 31l-6 30
v30l7 31l-5 29v29l3 31l-22 18l-21 21l-13 21l27 -2l28 7l29 -3l28 -4l29 5l28 2zM446 763l-24 -4l-28 5l-26 1l-19 21l-22 21l-24 21l-19 26l-19 26l-21 24l-25 20l-24 26l32 -4l32 2l31 -2l32 3l15 -22l17 -22l17 -22l16 -24l16 -23l11 -27l21 -21z" />
    <glyph glyph-name="uacute" unicode="&#xfa;" horiz-adv-x="641" 
d="M617 723l-20 -23l-14 -23l-17 -19l1 -30l1 -30l1 -30v-30l-3 -30v-31l-2 -30l-2 -30l2 -30l4 -30l-4 -30l-2 -30v-30l3 -30v-29l-2 -30l6 -31l-3 -29l-3 -29l3 -27l15 -22l15 -22l19 -21l-30 4l-30 -1l-29 -5l-29 6h-24l-2 25l-1 28l3 27l-3 26l-30 -9l-30 -13l-29 -10
l-29 -9l-30 -11l-28 -14l-28 -13l-31 -6l-30 -9l-27 -9l-10 -6l-29 1l-31 -3l-29 -2l-30 8l-25 -3l19 18l16 25l17 20v29l5 30l-2 29l-6 29l2 29v29l5 30l-1 29l-3 29l2 30l2 30l-3 29l4 30l-1 29l-7 29l3 29l1 28l-1 30l3 28l-46 40l32 12l28 11l30 10l29 12l29 12l27 14
l-12 -33l-10 -32l-18 -28l-1 -31l1 -31l1 -30v-31l-1 -30l1 -30l2 -30l-4 -31l5 -30l2 -31l-3 -29l-4 -31l4 -30l-2 -30l5 -30l-5 -29l-1 -31l4 -25l27 5l27 13l29 8l26 15l28 6l28 10l25 17l31 4l26 11l26 10l22 13l7 29l-2 30l-3 31l5 31l-3 30l1 30l-5 30v31l7 31l-6 30
v30l7 31l-5 29v29l3 31l-22 18l-21 21l-13 21l27 -2l28 7l29 -3l28 -4l29 5l28 2zM526 950l-24 -26l-25 -20l-21 -24l-19 -26l-19 -26l-24 -21l-22 -21l-19 -21l-26 -1l-28 -5l-24 4l11 25l21 21l11 27l16 23l16 24l17 22l17 22l15 22l32 -3l31 2l32 -2z" />
    <glyph glyph-name="ucircumflex" unicode="&#xfb;" horiz-adv-x="641" 
d="M617 723l-20 -23l-14 -23l-17 -19l1 -30l1 -30l1 -30v-30l-3 -30v-31l-2 -30l-2 -30l2 -30l4 -30l-4 -30l-2 -30v-30l3 -30v-29l-2 -30l6 -31l-3 -29l-3 -29l3 -27l15 -22l15 -22l19 -21l-30 4l-30 -1l-29 -5l-29 6h-24l-2 25l-1 28l3 27l-3 26l-30 -9l-30 -13l-29 -10
l-29 -9l-30 -11l-28 -14l-28 -13l-31 -6l-30 -9l-27 -9l-10 -6l-29 1l-31 -3l-29 -2l-30 8l-25 -3l19 18l16 25l17 20v29l5 30l-2 29l-6 29l2 29v29l5 30l-1 29l-3 29l2 30l2 30l-3 29l4 30l-1 29l-7 29l3 29l1 28l-1 30l3 28l-46 40l32 12l28 11l30 10l29 12l29 12l27 14
l-12 -33l-10 -32l-18 -28l-1 -31l1 -31l1 -30v-31l-1 -30l1 -30l2 -30l-4 -31l5 -30l2 -31l-3 -29l-4 -31l4 -30l-2 -30l5 -30l-5 -29l-1 -31l4 -25l27 5l27 13l29 8l26 15l28 6l28 10l25 17l31 4l26 11l26 10l22 13l7 29l-2 30l-3 31l5 31l-3 30l1 30l-5 30v31l7 31l-6 30
v30l7 31l-5 29v29l3 31l-22 18l-21 21l-13 21l27 -2l28 7l29 -3l28 -4l29 5l28 2zM470 765h-30l-30 1l-30 -5l-30 1l2 2l-1 27l-28 30l-30 -30l-1 -26l-29 -2l-31 3l-30 -3h-32l28 21l21 22l20 23l24 19l17 25l25 15l18 20l23 -18l21 -21l23 -20l19 -25l23 -18l19 -22z" />
    <glyph glyph-name="udieresis" unicode="&#xfc;" horiz-adv-x="641" 
d="M617 723l-20 -23l-14 -23l-17 -19l1 -30l1 -30l1 -30v-30l-3 -30v-31l-2 -30l-2 -30l2 -30l4 -30l-4 -30l-2 -30v-30l3 -30v-29l-2 -30l6 -31l-3 -29l-3 -29l3 -27l15 -22l15 -22l19 -21l-30 4l-30 -1l-29 -5l-29 6h-24l-2 25l-1 28l3 27l-3 26l-30 -9l-30 -13l-29 -10
l-29 -9l-30 -11l-28 -14l-28 -13l-31 -6l-30 -9l-27 -9l-10 -6l-29 1l-31 -3l-29 -2l-30 8l-25 -3l19 18l16 25l17 20v29l5 30l-2 29l-6 29l2 29v29l5 30l-1 29l-3 29l2 30l2 30l-3 29l4 30l-1 29l-7 29l3 29l1 28l-1 30l3 28l-46 40l32 12l28 11l30 10l29 12l29 12l27 14
l-12 -33l-10 -32l-18 -28l-1 -31l1 -31l1 -30v-31l-1 -30l1 -30l2 -30l-4 -31l5 -30l2 -31l-3 -29l-4 -31l4 -30l-2 -30l5 -30l-5 -29l-1 -31l4 -25l27 5l27 13l29 8l26 15l28 6l28 10l25 17l31 4l26 11l26 10l22 13l7 29l-2 30l-3 31l5 31l-3 30l1 30l-5 30v31l7 31l-6 30
v30l7 31l-5 29v29l3 31l-22 18l-21 21l-13 21l27 -2l28 7l29 -3l28 -4l29 5l28 2zM449 828l-18 -23l-19 -20l-22 -20l-17 27l-24 16l-17 19l19 21l23 18l16 23l22 -21l19 -21zM309 828l-18 -23l-19 -20l-22 -20l-17 27l-24 16l-17 19l19 21l23 18l16 23l22 -21l19 -21z" />
    <glyph glyph-name="yacute" unicode="&#xfd;" horiz-adv-x="701" 
d="M677 721l-24 -25l-23 -26l-27 -19l-11 -28l-16 -26l-17 -26l-14 -27l-13 -27l-19 -24l-17 -25l-12 -27l-14 -26l-17 -25l-14 -27l-14 -27l-18 -24l-10 -27l-13 -24l-7 -29l3 -30l-1 -28l-3 -29l6 -28l-4 -28l-1 -29l17 -22l19 -19l19 -23l-32 4l-28 -3l-29 5l-29 -7
l-28 -1l-28 3l-25 2l16 21l21 20l16 22l-1 31l-3 31l2 31l3 31l-3 31l3 31v30l-19 24l-12 28l-14 27l-14 27l-13 27l-20 23l-9 29l-16 25l-14 26l-18 24l-9 30l-18 24l-12 28l-15 25l-11 27l-18 24l-12 27l-19 23l-12 24l-25 24l-24 26l-23 26l31 3l28 -5l29 -1l28 -1l27 2
l14 -25l12 -28l17 -24l17 -25l9 -29l14 -27l15 -25l17 -25l16 -24l16 -26l9 -30l14 -26l17 -24l17 -25l12 -27l16 -25l8 -29l17 -23l14 29l15 27l18 25l14 29l16 27l19 24l13 29l19 25l15 26l13 29l16 23l-17 25l-9 25l32 1l32 4l32 -7l32 -1l31 6zM556 950l-24 -26l-25 -20
l-21 -24l-19 -26l-19 -26l-24 -21l-22 -21l-19 -21l-26 -1l-28 -5l-24 4l11 25l21 21l11 27l16 23l16 24l17 22l17 22l15 22l32 -3l31 2l32 -2z" />
    <glyph glyph-name="thorn" unicode="&#xfe;" horiz-adv-x="455" 
d="M431 366l-1 -28l-6 -29l-13 -26l-6 -29l-19 -21l-16 -24l-21 -18l-24 -16l-25 -13l-26 -8l-27 -6l-27 -7h-26l-30 7l7 -31l-7 -27l4 -28l-1 -1l17 -23l20 -21l22 -20l-31 5l-29 -4h-29l-29 -1l-28 2l-28 -4l-24 5l16 17l11 25l20 19l-2 30l-1 30l-2 31l4 29v31l-1 30
l3 30l1 30l-2 31l1 29l-2 30l2 30l-1 30l1 30l-2 30l-4 29l3 31v30v29l3 28l-17 22l-21 18l-14 22l29 2l29 -4h29l28 1h29l28 4l28 -3l-17 -23l-22 -20l-17 -21l-3 -29l6 -29l-6 -29l31 7l28 -3l27 -1l27 -6l29 -9l29 -13l22 -21l24 -19l14 -27l20 -24l4 -30l6 -30zM338 366
l-6 30l-14 27l-15 25l-26 15l-24 16l-29 4l-28 -7l-29 -2l3 -31l-3 -29l-3 -28l7 -28l-3 -29l-4 -27l6 -28l-6 -27l29 -11l27 4l26 5l25 11l24 12l17 22l10 25l14 25z" />
    <glyph glyph-name="ydieresis" unicode="&#xff;" horiz-adv-x="701" 
d="M677 721l-24 -25l-23 -26l-27 -19l-11 -28l-16 -26l-17 -26l-14 -27l-13 -27l-19 -24l-17 -25l-12 -27l-14 -26l-17 -25l-14 -27l-14 -27l-18 -24l-10 -27l-13 -24l-7 -29l3 -30l-1 -28l-3 -29l6 -28l-4 -28l-1 -29l17 -22l19 -19l19 -23l-32 4l-28 -3l-29 5l-29 -7
l-28 -1l-28 3l-25 2l16 21l21 20l16 22l-1 31l-3 31l2 31l3 31l-3 31l3 31v30l-19 24l-12 28l-14 27l-14 27l-13 27l-20 23l-9 29l-16 25l-14 26l-18 24l-9 30l-18 24l-12 28l-15 25l-11 27l-18 24l-12 27l-19 23l-12 24l-25 24l-24 26l-23 26l31 3l28 -5l29 -1l28 -1l27 2
l14 -25l12 -28l17 -24l17 -25l9 -29l14 -27l15 -25l17 -25l16 -24l16 -26l9 -30l14 -26l17 -24l17 -25l12 -27l16 -25l8 -29l17 -23l14 29l15 27l18 25l14 29l16 27l19 24l13 29l19 25l15 26l13 29l16 23l-17 25l-9 25l32 1l32 4l32 -7l32 -1l31 6zM479 828l-18 -23l-19 -20
l-22 -20l-17 27l-24 16l-17 19l19 21l23 18l16 23l22 -21l19 -21zM339 828l-18 -23l-19 -20l-22 -20l-17 27l-24 16l-17 19l19 21l23 18l16 23l22 -21l19 -21z" />
    <glyph glyph-name="dotlessi" unicode="&#x131;" 
d="M225 -2l-30 3l-29 -3l-29 4h-28l-29 -2l-28 -4l-28 2l17 22l14 23l22 17l-2 31l-2 30l3 31l-2 30v31l-1 30l3 30l1 30l-4 30l1 30l2 29l-2 31l-2 29l5 29l-2 28l-16 21l-18 20l-13 21l28 5l28 -1l29 -4l29 4h29l27 -7l26 3l-17 -20l-21 -21l-15 -22l-1 -30l4 -30l-4 -30
l1 -31l-3 -30l-1 -30l6 -30l-2 -30l3 -30l-7 -30l1 -29l4 -29l-6 -30l3 -29l1 -28l-1 1l19 -21l21 -21z" />
    <glyph glyph-name="Lslash" unicode="&#x141;" horiz-adv-x="542" 
d="M518 183l-12 -25l-7 -30l-17 -27l-14 -27l-9 -29l-15 -26l-8 -27l-12 -26l-21 17l-20 19l-31 -2l-28 -4l-29 6l-28 -4l-29 1l-28 1h-28l-25 -5h-28l-26 -5l-26 -9l-20 -4l16 19l13 25l16 23l23 17l15 21v30l-1 30v29l-4 30l-1 30l5 28l-25 -4l-23 -5l-19 -29l-24 -21
l-19 -19l-3 29l1 33l2 33l-4 32l-1 31l3 31l32 -19l34 -12l22 6l21 6l4 30v31v31l-1 31l1 32v31l2 31l-5 31l1 30l4 31l-18 21l-21 18l-14 23l29 -1l28 3l29 -2l29 3l28 -6h28l25 1l-17 -19l-18 -24l-22 -18v-31l1 -28l1 -29l4 -29l-6 -28l5 -29l-1 -29l4 -29l-6 -28l2 -26
l33 5l31 8l30 11l23 24l23 21l20 24l-4 -33l4 -32l-3 -33l2 -32v-32v-28l-33 11l-31 17l-33 -3l-31 -10l-30 -10l-4 -31l-1 -32l1 -32l2 -32l1 -31l-1 -31l32 -3l30 1l31 1l29 4l30 -2l24 15l21 19l24 14l24 14l24 13z" />
    <glyph glyph-name="lslash" unicode="&#x142;" horiz-adv-x="543" 
d="M519 106l-10 -26l-19 -22l-13 -27l-16 -25l-13 -27l-11 -27l-16 -21l-6 28l-8 27l-10 27l-32 4l-28 13l-27 15l-29 9l-30 7l-29 12l-28 13l-30 7l-26 12l-30 9l-25 13l24 21l24 20v33l-4 32l4 31l-1 32l-38 -8l-22 -26l-25 -21l-19 -28l-1 36l1 32l-2 33l7 33v31l-4 30
l33 -16l32 -18l36 13l-2 29l-1 31l4 30l1 31l-4 31l3 30l2 30l-3 30l-1 29l-13 23l-16 21l-16 18l27 -3l28 5l29 3l29 -3l28 -3l28 -2l26 3l-17 -21l-22 -19l-16 -22l-2 -32l7 -32l-6 -32l4 -31l-1 -31l-1 -31l-3 -30l3 -30l26 9l27 1l26 8l25 6l20 28l23 22l23 25l1 -36
l-6 -32l3 -33l2 -33l-1 -31l-1 -28l-32 13l-32 18l-25 -12l-28 1l-26 -7l-22 -12l-1 -28l1 -30l-2 -31l-4 -30l4 -27l28 -8l26 -13l28 -11l26 -10l26 -13l28 -8l26 -12l27 -11l26 14l30 2z" />
    <glyph glyph-name="OE" unicode="&#x152;" horiz-adv-x="1053" 
d="M1029 80l-5 -28v-27l3 -28l-32 4l-29 -5l-30 2l-31 -2l-29 2l-30 2l-31 2l-30 -6h-30l-30 4l-30 -2h-29l-30 3l-29 -4l-27 1l19 24l18 23l23 17l-7 31l2 25l-9 -9l-24 -21l-24 -21l-23 -22l-29 -15l-28 -13l-30 -9l-31 -6l-31 1l-29 -6l-32 5l-31 2l-31 9l-30 10l-29 11
l-28 13l-22 23l-27 16l-22 21l-18 23l-19 23l-12 28l-12 27l-16 24l-10 28l-6 29l-3 28l-2 29l-3 28l3 29l3 29l3 30l10 29l11 27l8 28l17 24l11 27l18 23l21 18l18 27l26 19l25 20l30 12l29 10l29 10l31 4l29 9h31v1l32 -3l31 -1l30 -11l29 -12l31 -6l27 -17l22 -22l27 -16
l21 -22l12 -11l-1 29l-19 22l-19 23l-17 17l27 1l30 -4l29 8l30 -3l29 -3l29 6l29 -3h30l29 -4l30 2l30 -1l27 5l29 -7l31 16l32 10l-1 -1l2 -30l-3 -30l-2 -28l3 -29l1 -29l-30 22l-31 16l-28 3l-30 4l-30 -3l-29 3l-30 -6h-28l-30 5l-24 -5l1 -26l-6 -29l-1 -28l7 -29
l-4 -29l-2 -28v-28v-31h35l31 5h31l31 -3l28 5l29 6l28 9l1 -31l5 -30l10 -28l5 -30l4 -29l-26 17l-25 12l-21 18l-34 -4l-34 2l-33 -2l-32 -1l-32 5l1 -32l3 -31l-5 -30l3 -30l-3 -31l2 -29l-2 -30v-31l33 6l29 -6l29 5l30 -2l30 1l28 2l29 -3h27l23 15l19 19l21 17l-3 -30
zM635 374l-8 31l1 32l-13 30l-6 31l-15 28l-20 24l-18 24l-17 24l-25 18l-26 14l-27 12l-28 9h-29l-27 4l-30 -1l-29 -8l-28 -7l-25 -15l-27 -11l-24 -16l-18 -21l-23 -24l-12 -29l-14 -28l-10 -30l-8 -30l-4 -31l-4 -30l5 -31l4 -31l8 -31l7 -31l16 -27l19 -25l18 -23
l17 -24l28 -13l22 -20l28 -9l28 -7l27 -8l29 4l29 -3l29 4l27 15l26 11l27 10l20 22l22 16l23 23l18 26l13 29l6 32l8 30l4 31z" />
    <glyph glyph-name="oe" unicode="&#x153;" horiz-adv-x="927" 
d="M903 736l-25 -24l-25 -18l-27 -15l-28 -12l-28 -15l-31 -5l-30 -5h-31l-30 -3l-31 3l-31 -4l3 -30l-5 -28l7 -29l-3 -29l4 -29l-6 -28v-26l29 6l27 2l24 12l26 7l21 17l26 -20l19 -26l-17 -17l-19 -22l-24 -17l-29 -7l-27 -8l-28 -6l-25 -7l1 -30v-30v-29l-5 -31l3 -30
l-3 -29v-30l3 -29v-27l32 -1l31 3l32 -4l31 7l32 2l29 9l26 16l21 15l29 -15l22 -25l-17 -25l-26 -16l-25 -17l-27 -13l-28 -7l-29 -7l-28 -9l-30 3l-29 -3l-30 -1l-29 -4l-28 5l-27 -1l-29 -2l-29 -1l-28 1l24 21l17 24l17 20l2 32l3 32v32l1 33l-5 30l-23 -17l-22 -22
l-29 -7l-27 -14l-30 -4l-28 -7l-29 -2l-31 -1l-30 8l-31 5l-27 16l-27 15l-26 17l-22 22l-22 21l-15 27l-14 27l-12 27l-11 28l-5 30l-4 29l-4 28l3 31l3 31l8 30l10 29l14 28l13 27l17 26l21 24l26 17l25 17l28 13l27 12l28 8l30 7l27 -3l33 -1l32 -1l29 -11l29 -9l28 1
l29 -4l28 2l27 2l30 1l30 -5l30 4h30l30 3l29 -1l28 8l29 4l28 10l24 15l26 17l21 -27zM493 480l-6 31l-11 30l-19 25l-15 28l-26 17l-22 22l-30 8l-29 11l-30 1l-31 -1l-31 -6l-29 -14l-24 -20l-24 -20l-16 -27l-16 -27l-10 -30l-6 -30l3 -30v-31l3 -32l11 -29l20 -25
l13 -29l22 -22l30 -11l27 -12l29 -10l29 -2l32 -1l30 10l28 13l27 16l23 22l13 28l20 25l6 31l4 31v28z" />
    <glyph glyph-name="Scaron" unicode="&#x160;" horiz-adv-x="457" 
d="M433 563l-21 16l-23 11l-16 21l-31 15l-33 3h-34l-24 -22l-17 -23l-12 -26l4 -30l15 -25l15 -25l20 -20l14 -23l20 -20l23 -19l18 -23l13 -27l11 -26l15 -24l12 -27v-29l6 -27l4 -27l-1 -31l-9 -29l-13 -28l-13 -27l-21 -21l-25 -16l-24 -19l-29 -8l-27 -9l-30 -5l-28 7
l-28 4l-30 4l-24 18l-20 18l-35 1l-31 -2l17 19l16 22l17 23l18 20l17 21l14 20l16 -25l18 -25l20 -23l30 -11h33l25 20l25 19l8 31l9 30l-3 32l-15 29l-14 28l-19 24l-16 27l-18 22l-17 24l-22 20l-12 27l-20 23l-9 28l-8 28l-10 26v28l3 30l7 28l10 28l19 23l21 20l22 19
l27 11l29 1l27 6l33 -4l33 6h33l33 -2l5 -31l2 -31l-1 -32l2 -30zM445 917l-20 -22l-20 -26l-16 -28l-21 -24l-24 -21l-17 -26l-31 2l-31 -5l-17 25l-19 26l-20 26l-21 24l-21 23l-16 25l25 5l30 -8l30 6l29 -3l-10 -26l21 -26l20 -26l23 23l21 29l-12 29l24 -2h32h30h31z
" />
    <glyph glyph-name="scaron" unicode="&#x161;" horiz-adv-x="521" 
d="M497 580l-16 -27l-16 -27l2 -19l-22 14l-23 17l-19 22l-22 17l18 25l-5 28l-26 9l-27 -4l-26 -9l-24 -14l-21 -21l-7 -29l-2 -29l9 -29l10 -27l19 -22l11 -26l16 -25l16 -25l8 -30l9 -30l12 -29v-31l5 -30v-32l-6 -31l-7 -29l-13 -28l-16 -26l-13 -27l-22 -19l-23 -17
l-23 -17l-28 -9l-26 -9l-29 -5l-29 2l-26 12l-24 14l-24 12l-15 28l-17 25l-8 30l-3 30l8 29l9 30l17 22l3 23l22 -16l16 -26l20 -21l18 -18l-16 -21l2 -30l23 -18l27 -12l27 9l27 12l18 21l18 24l9 27l3 29l2 28l5 29l-6 28l-14 26l-8 26l-16 22l-10 24l-16 27l-17 28
l-12 29l-6 31l-10 30l-3 31l2 31l8 29l14 27l22 20l19 23l22 21l28 11l29 7l26 13l29 2l30 -6l30 -5l25 -17l22 -20l13 -27l11 -27l2 -27zM525 915l-20 -22l-20 -26l-16 -28l-21 -24l-24 -21l-17 -26l-31 2l-31 -5l-17 25l-19 26l-20 26l-21 24l-21 23l-16 25l25 5l30 -8
l30 6l29 -3l-10 -26l21 -26l20 -26l23 23l21 29l-12 29l24 -2h32h30h31z" />
    <glyph glyph-name="Ydieresis" unicode="&#x178;" horiz-adv-x="678" 
d="M654 720l-20 -21l-22 -24l-26 -22l-13 -28l-7 -31l-13 -28l-16 -27l-14 -28l-11 -29l-13 -28l-12 -29l-8 -31l-13 -28l-15 -26l-12 -28l-10 -26l-1 -29l-1 -29v-28l2 -28l2 -28l1 -27l-3 -28l-3 -28l19 -22l19 -22l18 -17l-26 -2l-29 -3l-29 -1l-29 6h-28h-28l-30 -3
l20 22l14 23l18 19l-1 29l3 29l-1 28l-4 28l-1 27l5 28l-2 27l-13 28l-6 30l-8 29l-15 26l-12 28l-12 28l-17 25l-15 27l-17 24l-20 23l-16 25l-20 22l-14 27l-22 21l-22 20l-19 21l-19 22l-21 19l-22 20h32l32 -2l31 1l32 3l31 1l30 -4l30 2l1 -3l-19 -25l-11 -27l19 -24
l20 -22l19 -24l14 -26l17 -24l16 -26l17 -24l12 -28l11 -28l20 -23l8 -28l12 29l9 29l16 26l13 28l10 29l16 26l8 30l18 24l6 31l18 24l-20 29l-20 26l31 -5l32 5l32 -2l31 1l32 3zM502 830l-18 -23l-19 -20l-22 -20l-17 27l-24 16l-17 19l19 21l23 18l16 23l22 -21l19 -21z
M362 830l-18 -23l-19 -20l-22 -20l-17 27l-24 16l-17 19l19 21l23 18l16 23l22 -21l19 -21z" />
    <glyph glyph-name="Zcaron" unicode="&#x17d;" horiz-adv-x="470" 
d="M446 -4l-33 5l-31 -2l-30 2l-30 -5h-31l-31 6l-31 -8l-30 8l-30 -4l-31 -3l-30 2h-29l-30 3h-25l12 22l16 22l12 21l12 28l14 26l5 29l14 25l5 31l13 26l15 26l4 29l11 28l15 26l8 29l14 26l9 29l8 28l12 27l9 28l9 28l14 25l7 28l9 26l13 24l-31 1l-32 -4l-31 4l-31 1
l-31 -4h-29l-29 -20l-32 -21l1 33l2 30l-2 28l2 29l-2 27l31 -13l32 -10l30 3l29 -1l29 2l29 -3l28 -1l29 1l29 -1l28 7l29 -5l28 3l28 -1l24 -2l-14 -23l-18 -23l-17 -21l-12 -28l-14 -27l-6 -30l-13 -28l-14 -27l-9 -30l-7 -30l-16 -27l-5 -31l-18 -26l-8 -30l-8 -30
l-16 -27l-7 -30l-9 -28l-13 -27l-11 -29l-11 -27l-15 -26l-7 -28v-2l31 -1l30 4h30h31h29l29 -2l27 3l21 16l21 17l20 12l2 -26v-28l1 -28l-3 -27zM382 917l-20 -22l-20 -26l-16 -28l-21 -24l-24 -21l-17 -26l-31 2l-31 -5l-17 25l-19 26l-20 26l-21 24l-21 23l-16 25l25 5
l30 -8l30 6l29 -3l-10 -26l21 -26l20 -26l23 23l21 29l-12 29l24 -2h32h30h31z" />
    <glyph glyph-name="zcaron" unicode="&#x17e;" horiz-adv-x="476" 
d="M452 125l-7 -25l-11 -26l-9 -26l-12 -25l-5 -24l-29 2l-30 -5l-30 5l-29 -2l-30 2l-31 -1l-29 -4l-29 -2l-29 8l-30 -1l-30 1l-29 -2l-29 -3l15 29l7 30l17 25l10 30l12 28l14 26l7 30l14 27l7 30l16 25l8 30l12 28l16 26l9 29l14 26l11 29l6 30l12 27l11 29l19 25l8 29
l10 27l15 27l-31 2l-29 -6l-27 -1l-28 3l-27 2l-27 1l-28 -18l-32 -6l-25 -13l10 28l10 30l8 31l13 26l29 4l32 1l31 -3l31 -1l31 3l31 -4h31l31 6l31 -5l31 1l30 3l30 -1l-21 -24l-15 -24l-20 -21l-10 -27l-13 -27l-8 -28l-13 -27l-9 -28l-16 -25l-6 -29l-16 -25l-8 -29
l-11 -27l-10 -28l-13 -27l-11 -28l-15 -25l-10 -28l-10 -27l-7 -29l-13 -25l-15 -25l-10 -27l-10 -25h29l29 -2h28l29 3l28 -5h29l27 7l33 9l31 13zM385 915l-20 -22l-20 -26l-16 -28l-21 -24l-24 -21l-17 -26l-31 2l-31 -5l-17 25l-19 26l-20 26l-21 24l-21 23l-16 25l25 5
l30 -8l30 6l29 -3l-10 -26l21 -26l20 -26l23 23l21 29l-12 29l24 -2h32h30h31z" />
    <glyph glyph-name="florin" unicode="&#x192;" horiz-adv-x="345" 
d="M321 450l-18 -22l-24 -21l-30 -9l-26 -18l-29 -9l-31 -7l3 -16l4 -30l-1 -30l-1 -30l3 -80l-8 -30l2 -30l5 -29l-5 -29l4 -29l-1 -26l-14 -26l-23 -28h-25l-26 -14h-24l-32 3l18 21l14 24l16 19l-3 30l3 30l2 30l3 30v29l-4 30l-1 80l1 29l2 30l-6 30l3 30l3 30l2 30
l-6 29l6 30v29l-6 29l2 29l-2 27l-19 24l-25 19l31 12l29 10l29 11l31 8l24 14l8 26l10 28l10 27l17 -26l12 -26l15 -27l13 -26l14 -26l12 -27l19 -24l-31 8l-27 7l-26 9l-1 -1l-25 -8l-27 -10l6 -31v-30v-30l-5 -29l2 -30l3 -18l30 5l26 12l27 11l21 16l27 -18z" />
    <glyph glyph-name="circumflex" unicode="&#x2c6;" horiz-adv-x="348" 
d="M324 765h-30l-30 1l-30 -5l-30 1l2 2l-1 27l-28 30l-30 -30l-1 -26l-29 -2l-31 3l-30 -3h-32l28 21l21 22l20 23l24 19l17 25l25 15l18 20l23 -18l21 -21l23 -20l19 -25l23 -18l19 -22z" />
    <glyph glyph-name="caron" unicode="&#x2c7;" horiz-adv-x="342" 
d="M318 915l-20 -22l-20 -26l-16 -28l-21 -24l-24 -21l-17 -26l-31 2l-31 -5l-17 25l-19 26l-20 26l-21 24l-21 23l-16 25l25 5l30 -8l30 6l29 -3l-10 -26l21 -26l20 -26l23 23l21 29l-12 29l24 -2h32h30h31z" />
    <glyph glyph-name="breve" unicode="&#x2d8;" horiz-adv-x="285" 
d="M261 861l-12 -33l-23 -23l-23 -24l-30 -10l-31 -6l-31 9l-29 14l-25 20l-20 23l-13 29l32 8l32 9l20 -32l34 -13l35 13l20 29l32 -3z" />
    <glyph glyph-name="dotaccent" unicode="&#x2d9;" horiz-adv-x="204" 
d="M180 845l-23 -18l-15 -25l-23 -16l-19 -21l-19 21l-21 20l-23 17l-13 23l17 19l18 23l24 15l17 24l22 -21l19 -22l22 -18z" />
    <glyph glyph-name="ring" unicode="&#x2da;" horiz-adv-x="257" 
d="M233 863l-8 -32l-15 -29l-25 -20l-26 -17l-30 -1l-33 1l-28 17l-23 22l-13 29l-8 30l11 31l11 30l23 24l29 12l31 7l32 -7l27 -18l24 -21l12 -28zM166 863l-14 24l-23 15v-1l-24 -16l-14 -22l14 -25l24 -13l26 13z" />
    <glyph glyph-name="ogonek" unicode="&#x2db;" horiz-adv-x="253" 
d="M228 -98l-16 -27l-21 -28l-15 -28l-19 4l-31 -3l-29 12l-23 19l-19 22l-19 23l-8 28l-4 28l1 28l14 25l15 23l17 21l25 12l25 7l39 3v-35l4 -34l-23 2l-26 -8l-10 -25l-5 -24l5 -25l18 -22l28 -2l26 -4l26 6z" />
    <glyph glyph-name="tilde" unicode="&#x2dc;" horiz-adv-x="375" 
d="M351 863l-19 -24v-34l-17 -28l-25 -19l-30 -12l-32 13l-30 13l-30 14l-26 12l-26 10l-11 -17l16 -24l-35 4l-34 -6l-28 4l15 21l1 32l18 25l23 21l29 8l33 -5l31 -12l28 -17l26 -14l27 -13l11 24l-14 20l32 2h33z" />
    <glyph glyph-name="hungarumlaut" unicode="&#x2dd;" horiz-adv-x="329" 
d="M305 939l-21 -26l-17 -25l-15 -27l-17 -24l-17 -25l-18 -24l-17 -23h-29l-28 -3l14 26l14 25l9 27l12 26l16 24l14 24l10 24l30 -2l29 3h31zM199 939l-22 -25l-13 -28l-15 -26l-20 -23l-15 -27l-18 -24l-18 -21l-29 -5l-25 4l12 23l10 28l15 23l15 25l8 27l14 24l14 21
l28 3l29 -4z" />
    <glyph glyph-name="mu" unicode="&#x3bc;" horiz-adv-x="639" 
d="M615 -2h-31h-30l-30 1l-30 -2h-29l-30 -3l-27 5l20 30l26 27l-13 36l-7 36l-21 -27l-10 -29l-24 -20l-20 -21l-26 -17l-28 -8l-28 -6l-30 5l-30 11l-24 19l-27 20l2 -31l-3 -30l3 -29l22 -20l17 -24l20 -21l-31 4l-28 -3l-29 2l-29 2l-28 -7l-28 6l-30 -4l18 23l16 21
l16 20l2 29l-2 30l5 30l-6 29l2 30v29l3 29l-1 30l-1 28l2 30l-5 28l2 29l-1 27l-18 19l-13 25l-18 20l30 2l28 -2l29 -3l29 6l28 -5l28 -2l27 2l-19 -19l-17 -24l-16 -20l-4 -30l8 -30l-1 -30l6 -30l8 -29l13 -26l6 -30l21 -22l23 -17l25 -5l29 3l22 19l20 21l12 26l7 28
l6 28l3 26l-3 32l-2 31l-15 27l-17 25l-15 27l-21 17l32 3h33l31 3h33l31 -4l30 2l-22 -27l-12 -30l10 -28l4 -30l10 -28l8 -29l8 -29l11 -27l7 -29l8 -29l11 -27l12 -25l-3 -2l25 -22l21 -23z" />
    <glyph glyph-name="endash" unicode="&#x2013;" horiz-adv-x="512" 
d="M488 348l-26 2l-30 -4l-31 1h-30l-30 1h-30l-30 -2l-30 3l-30 -3l-30 4l-30 -2l-30 4l-30 -2h-29l-31 3h-17l7 51l-7 42l22 -1l31 2l30 -1l30 -2l30 -4l30 3l30 2l30 -5h30l30 7l30 -6l30 -1h29l28 5l28 -2l26 -2l-11 -54z" />
    <glyph glyph-name="emdash" unicode="&#x2014;" horiz-adv-x="985" 
d="M961 349l-45 2l-54 -4l-53 3l-53 -3h-55h-53l-53 1h-53l-53 -2l-54 3l-53 -3l-53 4l-53 -2l-52 4l-53 -2h-52l-55 3h-30l-10 45l10 48l38 -1l56 2l53 -1l52 -2l54 -4l53 3l53 2l53 -5h53l54 7l53 -6l53 -1h50l52 3l54 3h50l52 1l44 -5l-10 -54z" />
    <glyph glyph-name="quoteleft" unicode="&#x2018;" horiz-adv-x="290" 
d="M266 802l-13 -30l-6 -29l-9 -27l-9 -28l-10 -28l-16 -26l-9 -28l-8 -27l-10 -28l-6 -30l-30 8h-29l-29 -3l-29 2l-29 -4l14 27l17 23l12 27l16 24l8 29l19 22l10 26l13 26l16 23l9 27l15 20l30 6l32 -3z" />
    <glyph glyph-name="quoteright" unicode="&#x2019;" horiz-adv-x="290" 
d="M266 802l-14 -27l-17 -23l-12 -27l-16 -24l-8 -29l-19 -22l-10 -26l-13 -26l-16 -23l-9 -27l-15 -20l-30 -6l-32 3l-31 -1l13 30l6 29l9 27l9 28l10 28l16 26l9 28l8 27l10 28l6 30l30 -8h29l29 3l29 -2z" />
    <glyph glyph-name="quotesinglbase" unicode="&#x201a;" horiz-adv-x="290" 
d="M266 162l-14 -27l-17 -23l-12 -27l-16 -24l-8 -29l-19 -22l-10 -26l-13 -26l-16 -23l-9 -27l-15 -20l-30 -6l-32 3l-31 -1l13 30l6 29l9 27l9 28l10 28l16 26l9 28l8 27l10 28l6 26v4l30 -8h29l29 3l29 -2z" />
    <glyph glyph-name="quotedblleft" unicode="&#x201c;" horiz-adv-x="460" 
d="M436 802l-13 -30l-6 -29l-9 -27l-9 -28l-10 -28l-16 -26l-9 -28l-8 -27l-10 -28l-6 -30l-30 8h-29l-29 -3l-29 2l-29 -4l14 27l17 23l12 27l16 24l8 29l19 22l10 26l13 26l16 23l9 27l15 20l30 6l32 -3zM266 802l-13 -30l-6 -29l-9 -27l-9 -28l-10 -28l-16 -26l-9 -28
l-8 -27l-10 -28l-6 -30l-30 8h-29l-29 -3l-29 2l-29 -4l14 27l17 23l12 27l16 24l8 29l19 22l10 26l13 26l16 23l9 27l15 20l30 6l32 -3z" />
    <glyph glyph-name="quotedblright" unicode="&#x201d;" horiz-adv-x="460" 
d="M436 802l-14 -27l-17 -23l-12 -27l-16 -24l-8 -29l-19 -22l-10 -26l-13 -26l-16 -23l-9 -27l-15 -20l-30 -6l-32 3l-31 -1l13 30l6 29l9 27l9 28l10 28l16 26l9 28l8 27l10 28l6 30l30 -8h29l29 3l29 -2zM266 802l-14 -27l-17 -23l-12 -27l-16 -24l-8 -29l-19 -22
l-10 -26l-13 -26l-16 -23l-9 -27l-15 -20l-30 -6l-32 3l-31 -1l13 30l6 29l9 27l9 28l10 28l16 26l9 28l8 27l10 28l6 30l30 -8h29l29 3l29 -2z" />
    <glyph glyph-name="quotedblbase" unicode="&#x201e;" horiz-adv-x="460" 
d="M436 162l-14 -27l-17 -23l-12 -27l-16 -24l-8 -29l-19 -22l-10 -26l-13 -26l-16 -23l-9 -27l-15 -20l-30 -6l-32 3l-31 -1l13 30l6 29l9 27l9 28l10 28l16 26l9 28l8 27l10 28l6 30l30 -8h29l29 3l29 -2zM266 162l-14 -27l-17 -23l-12 -27l-16 -24l-8 -29l-19 -22
l-10 -26l-13 -26l-16 -23l-9 -27l-15 -20l-30 -6l-32 3l-31 -1l13 30l6 29l9 27l9 28l10 28l16 26l9 28l8 27l16 54v4l30 -8h29l29 3l29 -2z" />
    <glyph glyph-name="dagger" unicode="&#x2020;" horiz-adv-x="416" 
d="M392 539l-15 -30l-26 -24l-17 -25l-35 8l-32 17l-2 -31l4 -30l3 -31l4 -30l-5 -31l4 -31l4 -30l-4 -31l4 -30l6 -29l-4 -31l2 -30l3 -30l-1 -30v-26l-10 -31l-14 -29l-15 -28l-12 -29l-11 -29l-12 -25l-17 26l-9 31l-13 29l-15 28l-11 29l-12 27l5 31v29l-1 31l-1 31
l4 30l2 31l2 30l-1 31l6 31v30l-1 30l-2 30l1 29l3 30l2 25l-34 -13l-32 -12l-19 30l-23 25l-21 27l23 28l19 29l20 27l26 -13l25 -7l20 -10l1 33l4 33l-19 19l-13 25l-19 20l32 -3l28 2l29 -2l29 5l28 -1l28 -2l26 -1l-16 -23l-20 -19l-16 -21l1 -35l1 -33l25 11l24 11
l26 11l21 -30l18 -29z" />
    <glyph glyph-name="daggerdbl" unicode="&#x2021;" horiz-adv-x="423" 
d="M399 462l-27 -26l-14 -32l-22 -23l-25 9l-23 12l-24 7l-1 -25l25 -19l23 -17l-22 -12l-26 -7l-26 -4l-22 -8l-27 5l-24 13l-25 7l-27 6l27 19l21 16v29l-24 -15l-27 -3l-20 -11l-20 17l-14 22l-11 21v1l-17 18l23 26l20 29l18 26l28 -12l28 -11l-1 28l-5 28l-7 26l18 24
l10 29l10 26l13 24l15 26l15 21l12 -24l13 -25l19 -24l12 -27l13 -27l9 -24l-2 -28l-5 -27l-3 -24l26 14l31 9l22 -28l19 -29zM394 160l-16 -30l-22 -26l-21 -24l-28 11l-26 8l2 -24l3 -28l6 -26l-17 -24l-9 -29l-18 -24l-7 -26l-17 -25l-12 -24l-11 26l-20 22l-13 27l-8 29
l-11 25l-12 24l4 26l2 29v23l-28 -9l-28 -14l-23 28l-14 32l-23 23l-3 3l27 23l17 31l20 25l25 -8l24 -9l21 -11l3 26l-21 21l-21 13l21 11l27 7l23 12l24 3l27 -5l26 -9l23 -11l26 -8l-29 -20l-26 -15l2 -28l25 13l25 8l22 8l25 -24l16 -31z" />
    <glyph glyph-name="bullet" unicode="&#x2022;" horiz-adv-x="320" 
d="M46 374q0 48 33.5 82t80.5 34t80.5 -34t33.5 -82t-33.5 -81.5t-80.5 -33.5t-80.5 33.5t-33.5 81.5z" />
    <glyph glyph-name="ellipsis" unicode="&#x2026;" horiz-adv-x="652" 
d="M628 64l-24 -19l-19 -20l-18 -22l-20 -19l-21 21l-18 22l-24 16l-20 21l22 22l21 19l21 18l19 24l17 -26l21 -20l24 -16zM408 64l-24 -19l-19 -20l-18 -22l-20 -19l-21 21l-18 22l-24 16l-20 21l22 22l21 19l21 18l19 24l17 -26l21 -20l24 -16zM188 64l-24 -19l-19 -20
l-18 -22l-20 -19l-21 21l-18 22l-24 16l-20 21l22 22l21 19l21 18l19 24l17 -26l21 -20l24 -16z" />
    <glyph glyph-name="perthousand" unicode="&#x2030;" horiz-adv-x="872" 
d="M848 220l-2 -20v-20l-2 -19l-2 -20l-6 -19l-8 -18l-7 -18l-6 -19l-6 -19l-10 -16l-17 -11l-13 -14l-18 -5l-17 -3l-20 3l-18 7l-15 14l-12 14l-10 18l-9 17l-5 19l-8 18l-8 19l-3 19l-2 20l-2 20l-2 20l2 20l-4 19v20l2 20l4 20l2 19l3 19l1 20l7 19l6 19l10 17l7 18
l11 15l12 15l16 11l17 8l18 2h20l18 -11l16 -12l11 -16l10 -17l8 -18l9 -18l5 -19l7 -19v-20l6 -19l4 -20l-3 -20l1 -20l1 -19zM782 207l-3 20l3 19v20l-1 20v19l-6 20l-2 19l-2 20l-3 19l-9 17l-11 16l-14 6l-16 -8l-10 -18l-8 -18l-5 -19v-20l-7 -19l-3 -20l1 -20l1 -20
l-1 -20l1 -20l-1 -20l5 -19l-1 -20l4 -18l3 -21l8 -17l5 -18l7 -18l17 -4l18 5l9 19l3 20l10 18l3 20l1 20l1 20zM598 220l-2 -20v-20l-2 -19l-2 -20l-6 -19l-8 -18l-7 -18l-6 -19l-6 -19l-10 -16l-17 -11l-13 -14l-18 -5l-17 -3l-20 3l-18 7l-15 14l-12 14l-10 18l-9 17
l-5 19l-8 18l-8 19l-3 19l-2 20l-2 20l-2 20l2 20l-4 19v20l2 20l4 20l2 19l3 19l1 20l7 19l6 19l10 17l7 18l11 15l12 15l16 11l17 8l18 5l20 -3l18 -11l16 -12l11 -16l10 -17l8 -18l9 -18l5 -19l7 -19v-20l6 -19l4 -20l-3 -20l1 -20l1 -19zM532 207l-3 20l3 19v20l-1 20
v19l-6 20l-2 19l-2 20l-3 19l-9 17l-11 16l-14 8l-16 -10l-10 -18l-8 -18l-5 -19v-20l-7 -19l-3 -20l1 -20l1 -20l-1 -20l1 -20l-1 -20l5 -19l-1 -20l4 -18l3 -21l8 -17l5 -18l7 -18l17 -4l18 5l9 19l3 20l10 18l3 20l1 20l1 20zM484 721l-12 -19l-12 -21l-14 -19l-12 -18
l-10 -25l-6 -25l-7 -25l-7 -26l-11 -23l-6 -27l-6 -25l-11 -24l-6 -26l-12 -23l-7 -26l-9 -24l-4 -26l-11 -24l-8 -25l-3 -26l-8 -25l-11 -22l-7 -26l-4 -25l-12 -23l-6 -25l-11 -24l-4 -23l14 -25l12 -27l-38 2h-28l-28 1l-29 -2l-23 2l16 15l15 19l14 19l17 16l4 27l13 24
l3 26l9 25l5 26l8 26l12 23l5 27l12 24l7 24l4 27l11 24l4 26l8 25l7 25l13 24l7 25l5 27l8 23l10 25l4 26l7 26l10 22l6 24l-8 26l-13 23l26 -2l33 6l26 -4l26 4zM254 454l-2 -20v-20l-2 -19l-2 -20l-6 -19l-8 -18l-7 -18l-6 -19l-6 -19l-10 -16l-17 -11l-13 -14l-18 -5
l-17 -3l-20 3l-18 7l-15 14l-12 14l-10 18l-9 17l-5 19l-8 18l-8 19l-3 19l-2 20l-2 20l-2 20l2 20l-4 19v20l2 20l4 20l2 19l3 19l1 20l7 19l6 19l10 17l7 18l11 15l12 15l16 11l17 8l18 2h20l18 -11l16 -12l11 -16l10 -17l8 -18l9 -18l5 -19l7 -19v-20l6 -19l4 -20l-3 -20
l1 -20l1 -19zM188 441l-3 20l3 19v20l-1 20v19l-6 20l-2 19l-2 20l-3 19l-9 17l-11 16l-14 6l-16 -8l-10 -18l-8 -18l-5 -19v-20l-7 -19l-3 -20l1 -20l1 -20l-1 -20l1 -20l-1 -20l5 -19l-1 -20l4 -18l3 -21l8 -17l5 -18l7 -18l17 -10l18 11l9 19l3 20l10 18l3 20l1 20l1 20z
" />
    <glyph glyph-name="guilsinglleft" unicode="&#x2039;" horiz-adv-x="195" 
d="M171 260l-23 -12l-11 -19l-23 -2l1 1l-12 15l-12 16l-12 17l-12 17l-12 17l-8 20l-15 15l-8 15l8 16l15 15l8 20l12 17l12 17l12 16l12 16l12 16l22 -2l9 -19l25 -11l-15 -18l-14 -19l-14 -19l-17 -15l-16 -15l-13 -15l13 -14l16 -15l17 -15l14 -19l14 -19z" />
    <glyph glyph-name="guilsinglright" unicode="&#x203a;" horiz-adv-x="195" 
d="M171 360l-8 -15l-15 -15l-8 -20l-12 -17l-12 -17l-12 -17l-12 -16l-12 -15l1 -1l-23 2l-11 19l-23 12l15 18l14 19l14 19l17 15l16 15l13 14l-13 15l-16 15l-17 15l-14 19l-14 19l-15 18l25 11l9 19l22 2l12 -16l12 -16l12 -16l12 -17l12 -17l8 -20l15 -15z" />
    <glyph glyph-name="Euro" unicode="&#x20ac;" horiz-adv-x="598" 
d="M574 729l-10 -33l-15 -29l-8 -30l-9 -31l-26 19l-28 8l-28 9l-29 -4l-29 1l-29 -6l-29 -8l-24 -16l-21 -20l-23 -18l-23 -18l-14 -25l-18 -22l-8 -27l-11 -28l30 1l29 3l29 -4l30 -1l29 5l30 -4l29 5l29 -6l29 7l29 -7l28 8l27 -4l-15 -35l-15 -33h-30l-31 6l-30 -8
l-30 7l-30 -4l-29 -3l-30 3l-29 1l-30 -1l-29 2l-28 -1l2 -18l28 -2l29 -2l29 1l29 -2l29 2l29 -2l29 5l28 -6l29 1h28l31 4l-22 -34l-14 -31l-29 2l-31 -7h-32l-30 1l-32 4l-30 -5l-30 -1l-30 5l-30 -2l7 -30l17 -26l12 -29l20 -24l23 -21l20 -22l27 -13l23 -17l26 -15
l30 -3l29 -7l29 -1l30 2l30 -2l29 2l27 9l-1 -2l-14 -24l-19 -20l-13 -24l-15 -22l-18 -17l-16 -3h-29l-30 4l-29 9l-29 5l-29 10l-25 17l-28 11l-25 16l-23 19l-20 23l-24 18l-14 25l-22 20l-14 25l-16 25l-5 29l-14 25l-3 33h-39l-35 -5l14 36l19 27l32 4l-1 19l-32 3
l-32 -3l18 34l11 36h41l8 26l6 31l17 26l11 28l18 24l17 25l20 22l26 17l24 19l25 15l27 14l28 11l30 5l29 7l30 -4l28 3l28 5l27 -6l27 5l26 1z" />
    <glyph glyph-name="trademark" unicode="&#x2122;" horiz-adv-x="452" 
d="M428 583l-20 2l-19 -1l-18 -1h-9l15 18l-5 9l-4 19l-6 17l-8 18l-3 18l-7 17l-7 17l-4 17l-9 -16l-11 -14l-12 -14l-15 -7l-18 1l-16 9l-14 15l-11 15l1 -18v-19l-2 -18v-19v-9v-18l1 -17l5 -8l6 -7l7 -6l-10 1l-36 -1h-17l9 14l6 6l1 19v19l-1 19l-1 19l1 19l1 19v18v19
l-1 19v17l-10 14l-5 6h18l18 1l18 -1h9l-12 -14l-6 -6l6 -18l9 -18l10 -17l12 -15l14 -10l13 10l9 15l8 17l7 15v20l-15 13l-4 8l20 -1l20 1h20l-13 -18l4 -8l6 -19l6 -17l5 -18l6 -18l7 -18l5 -18l6 -19l6 -17l7 -17l4 -18l9 -6zM186 774l-19 7l-19 2l-19 1l-10 -1l1 -19
l-1 -10l1 -9v-19l-1 -10l1 -19l-1 -19l4 -18l-3 -19v-19v-18l12 -14l5 -7l-9 1l-18 -1l-18 2l-17 -2l6 7l10 13l-2 10l2 19l-1 10l1 19l-1 9l-1 19l1 19v19l-1 10v18l2 10v18l-19 -1h-18l-30 -9l10 19l7 19h19l18 -2h19l18 1l19 1l18 -1l16 -1l14 -27z" />
    <glyph glyph-name="fi" unicode="&#xfb01;" horiz-adv-x="514" 
d="M490 733l-22 -20l-21 -23l-28 -14l-28 -14l-30 -7l-32 -2l-30 -11l-31 -2l-31 -1l-29 -1l-28 -1l-4 -31l-1 -30l3 -30l-2 -29l7 -31l-7 -30l4 -30l-4 -30l2 -29l1 -30l-3 -29v-30l2 -28l1 -28l30 5l30 8l30 11l29 11l29 14l-5 32l3 31l-1 31l-4 32l7 31l-7 30l2 31l2 29
l-16 21l-20 19l-12 21l27 1l29 3h28l29 -2l28 2l28 -2l25 -2l-16 -19l-20 -23l-16 -20l4 -31l-7 -31l-2 -31l4 -30l-3 -31l4 -30l3 -31l-1 -30l-1 -31l2 -31v-30l-3 -31l-2 -29l-1 -30l2 -28l18 -22l18 -24l21 -18l-30 4l-28 -4h-29l-29 2l-28 -2l-28 1l-24 1l14 18l15 23
l19 19l1 35l-6 33l5 32l-4 31l-27 -15l-26 -18l-29 -12l-31 -8l-31 -2l1 -38l2 -34l26 -25l32 -18l-34 -7l-29 -14l-30 -11l-32 -6l-29 -11l-29 -14l-30 -11l18 29l16 26l13 26l11 26l1 31l-1 30l1 31l-2 30v31v30l3 31l-5 30l7 30l-7 30v31l6 30l-6 31l2 30l4 29l-7 31
l1 30v30v29l3 28l-18 24l-24 17l-18 22l38 4l35 -3l32 2l31 -6l30 8l30 -7l29 4l30 6l29 -3l29 8l29 6l27 8l24 17l24 12l25 -21z" />
    <glyph glyph-name="fl" unicode="&#xfb02;" horiz-adv-x="758" 
d="M734 106l-13 -24l-15 -25l-17 -25l-12 -27l-13 -26l-13 -27l-15 -22l-11 27l-4 29l-10 26l-29 10l-30 8l-28 13l-28 11l-29 11l-29 11l-29 9l-29 10l-26 15l-29 8l-28 8l27 19l19 24l4 29l-4 30l-1 30l1 30l-3 29l1 29l2 30l-1 29l6 30l-1 29l-3 29l-4 30l7 30l-2 28v29
l-3 24l-27 3l-28 -3l-29 7l-27 -2l-29 -4l-28 4l4 -31l-2 -28l-3 -29l4 -29l-2 -29l1 -28l4 -24l29 3l31 7l32 8l29 23l6 -39l17 -32l-28 -15l-27 -21l-32 -5l-30 -8l-31 -8l5 -30l-2 -30l-4 -29l4 -29l1 -29l-1 -30l-4 -29l5 -30l-4 -29l3 -25l26 -25l32 -18l-32 -13
l-32 -5l-29 -16l-30 -10l-29 -11l-30 -11l-27 -5l15 25l10 30l15 24l10 26l2 30v30l3 31l-2 30l1 31l2 30l2 31l-8 30l4 30l-3 30l3 31l3 30l-1 31l-5 30l3 29l-1 31l4 30l-5 30l5 29l-6 27l-19 21l-18 23l-18 22l31 1l30 2l29 -4l30 3l30 -5l29 4l30 1l29 -2l29 2l29 -3h29
l30 -4l30 1l28 2l29 4l30 -2l-24 -20l-19 -22l-12 -23l-6 -31l4 -30l-2 -31l5 -31l-3 -30l1 -31l-2 -31l3 -30l1 -31l-6 -31l6 -30l-2 -31l-3 -30l1 -30l4 -30l-2 -29l26 -10l27 -12l27 -13l28 -6l26 -13l27 -8l26 -13l27 -11l28 6l28 9z" />
    </font>
</defs>
</svg>
